<svg width="613" height="467" viewBox="0 0 613 467" fill="none" xmlns="http://www.w3.org/2000/svg">
<path d="M612.952 428.528H562.073V428.912H612.952V428.528Z" fill="#EBEBEB"/>
<path d="M430.636 432.676H417.287V433.06H430.636V432.676Z" fill="#EBEBEB"/>
<path d="M560.537 414.368H531.058V414.752H560.537V414.368Z" fill="#EBEBEB"/>
<path d="M68.7543 416.931H2.40588V417.315H68.7543V416.931Z" fill="#EBEBEB"/>
<path d="M92.166 416.931H82.4419V417.315H92.166V416.931Z" fill="#EBEBEB"/>
<path d="M267.692 423.369H123.781V423.753H267.692V423.369Z" fill="#EBEBEB"/>
<path d="M42.3778 339.761C42.3155 339.708 42.2654 339.643 42.231 339.569C42.1965 339.496 42.1785 339.415 42.1781 339.334C42.0399 336.283 40.2271 306.949 22.1 286.829C6.73803 269.789 22.4994 281.947 29.3201 287.423C29.4352 287.517 29.5797 287.567 29.7281 287.564C29.8766 287.562 30.0195 287.508 30.1316 287.411C30.2437 287.314 30.3178 287.182 30.3408 287.036C30.3638 286.89 30.3342 286.741 30.2572 286.615C25.4489 278.545 13.3591 257.205 17.5682 253.055C21.5163 249.135 29.6888 268.63 33.3296 278.088C33.3926 278.221 33.4999 278.329 33.6334 278.393C33.7669 278.456 33.9185 278.473 34.0627 278.439C34.2069 278.405 34.3349 278.323 34.4252 278.206C34.5155 278.089 34.5626 277.945 34.5586 277.798C33.4986 267.791 31.9778 246.862 37.631 247.594C43.2842 248.327 41.6865 275.967 40.5805 289.498C40.5707 289.651 40.6174 289.801 40.7118 289.922C40.8062 290.042 40.9418 290.124 41.093 290.153C41.2441 290.181 41.4005 290.153 41.5324 290.075C41.6644 289.996 41.7629 289.872 41.8094 289.727C44.3595 281.337 49.1832 269.134 54.8517 272.352C63.2394 277.173 42.5622 294.12 43.8065 312.502C45.0815 330.532 45.4195 342.354 42.3778 339.761Z" fill="#F5F5F5"/>
<path d="M51.0113 344.959C51.0113 344.959 51.1188 344.669 51.2878 344.547C72.1647 330.193 67.0185 298.616 60.674 279.03C59.0604 274.672 58.0275 270.123 57.6016 265.499C62.0412 270.777 64.6988 277.703 67.6637 284.003C68.0631 284.827 69.0309 284.537 68.8926 283.637C67.3564 273.538 66.6805 241.794 75.9131 242.359C80.0915 242.618 75.4522 270.228 75.2679 275.918C75.2679 276.818 76.3739 277.169 76.6043 276.33C79.3388 266.521 98.1111 246.294 101.614 250.398C103.15 252.121 94.2553 261.625 91.2597 266.094C85.6218 274.469 81.766 283.82 78.1713 293.186C77.864 294.01 78.8779 294.879 79.3234 294.178C82.6723 288.945 95.1309 276.36 99.294 282.599C102.366 287.176 94.1784 293.659 90.169 297.549C83.1178 304.306 76.2664 311.842 72.8099 320.995C70.4596 327.279 53.5307 348.3 51.0113 344.959Z" fill="#F5F5F5"/>
<path d="M53.5612 341.941C53.633 341.872 53.6893 341.789 53.7263 341.697C53.7634 341.605 53.7804 341.506 53.7763 341.407C53.7763 337.761 54.0067 301.975 74.6686 276.347C92.1505 254.656 73.8697 270.444 65.943 277.537C65.8096 277.657 65.6379 277.727 65.4581 277.734C65.2782 277.741 65.1015 277.686 64.9588 277.577C64.8161 277.468 64.7165 277.312 64.6773 277.138C64.6382 276.963 64.6621 276.781 64.7447 276.622C70.06 266.508 83.2866 239.798 77.9407 235.039C72.8712 230.462 64.2531 254.732 60.4434 266.447C60.4067 266.65 60.2906 266.829 60.1206 266.946C59.9507 267.064 59.7407 267.109 59.537 267.073C59.3333 267.036 59.1525 266.921 59.0344 266.752C58.9163 266.583 58.8705 266.375 58.9072 266.173C59.5063 253.969 59.9825 228.449 53.1464 229.715C46.3103 230.981 50.074 264.434 52.3476 280.786C52.3965 280.989 52.3625 281.202 52.253 281.379C52.1435 281.557 51.9676 281.684 51.7638 281.732C51.5601 281.781 51.3453 281.747 51.1667 281.638C50.9881 281.529 50.8603 281.355 50.8114 281.153C47.1706 271.207 40.5035 256.578 33.8364 260.91C23.974 267.317 50.2737 286.537 49.9204 308.946C49.6746 330.912 50.0433 345.282 53.5612 341.941Z" fill="#E6E6E6"/>
<path d="M67.5252 396.778C73.7929 373.592 77.9252 340.917 77.9252 332.878H31.1941C31.1941 340.917 35.3111 373.592 41.5788 396.778C42.1434 398.852 43.3812 400.684 45.1004 401.988C46.8196 403.293 48.9242 403.998 51.0879 403.994H58.0315C60.1925 403.994 62.2936 403.288 64.0096 401.984C65.7257 400.679 66.9613 398.85 67.5252 396.778V396.778Z" fill="#E6E6E6"/>
<path d="M578.787 402.499H536.726C534.266 402.499 531.9 401.563 530.114 399.883C528.328 398.203 527.259 395.908 527.125 393.469L521.979 297.687H593.519L588.389 393.469C588.255 395.908 587.185 398.203 585.399 399.883C583.613 401.563 581.247 402.499 578.787 402.499Z" fill="#E6E6E6"/>
<path d="M567.45 303.573H548.063V322.824H567.45V303.573Z" fill="#FAFAFA"/>
<path d="M567.45 327.557H548.063V346.808H567.45V327.557Z" fill="#FAFAFA"/>
<path d="M567.45 351.553H548.063V370.804H567.45V351.553Z" fill="#FAFAFA"/>
<path d="M567.45 375.547H548.063V394.798H567.45V375.547Z" fill="#FAFAFA"/>
<path d="M595.701 290.721H519.797C518.737 290.721 517.877 291.574 517.877 292.627V295.8C517.877 296.854 518.737 297.707 519.797 297.707H595.701C596.761 297.707 597.621 296.854 597.621 295.8V292.627C597.621 291.574 596.761 290.721 595.701 290.721Z" fill="#F5F5F5"/>
<path d="M583.703 375.547H572.443V394.783H582.29C582.568 394.286 582.73 393.734 582.766 393.166L583.703 375.547Z" fill="#FAFAFA"/>
<path d="M543.071 375.547H531.795L532.747 393.166C532.783 393.734 532.946 394.286 533.224 394.783H543.071V375.547Z" fill="#FAFAFA"/>
<path d="M543.071 351.553H530.52L531.549 370.804H543.071V351.553Z" fill="#FAFAFA"/>
<path d="M543.071 327.557H529.23L530.259 346.808H543.071V327.557Z" fill="#FAFAFA"/>
<path d="M543.071 303.562H527.939L528.968 322.813H543.071V303.562Z" fill="#FAFAFA"/>
<path d="M572.443 351.553V370.804H583.964L584.994 351.553H572.443Z" fill="#FAFAFA"/>
<path d="M572.443 327.557V346.808H585.255L586.284 327.557H572.443Z" fill="#FAFAFA"/>
<path d="M572.443 303.562V322.813H586.545L587.574 303.562H572.443Z" fill="#FAFAFA"/>
<path d="M298.462 467C462.962 467 596.315 459.269 596.315 449.732C596.315 440.195 462.962 432.464 298.462 432.464C133.962 432.464 0.608582 440.195 0.608582 449.732C0.608582 459.269 133.962 467 298.462 467Z" fill="#F5F5F5"/>
<path d="M530.936 189.005C520.059 189.005 507.217 169.281 495.88 151.86C488.444 140.45 481.224 129.36 473.543 121.352H498.967V109.148H467.782C473.359 102.833 478.643 94.7328 484.066 86.4192C492.577 73.3309 503.176 57.0546 511.272 57.0546H535.114V44.8511H511.272C496.479 44.8511 485.433 61.8292 473.743 79.7988C465.232 92.8718 454.633 109.148 446.522 109.148H174.399C166.304 109.148 155.704 92.8718 147.193 79.7988C135.488 61.8292 124.442 44.8968 109.664 44.8968H85.8069V57.1003H109.664C117.76 57.1003 128.36 73.3767 136.87 86.4649C142.278 94.7786 147.624 102.879 153.138 109.194H42.6859V121.397H166.596C158.915 129.406 151.679 140.496 144.259 151.906C132.922 169.311 120.079 189.05 109.203 189.05H64.0083V201.254H109.234C126.793 201.254 140.311 180.508 154.598 158.542C165.935 141.121 178.778 121.397 189.654 121.397H450.5C461.377 121.397 474.219 141.121 485.556 158.542C499.858 180.508 513.361 201.254 530.936 201.254H576.13V189.05L530.936 189.005Z" fill="#263238"/>
<g opacity="0.4">
<path opacity="0.4" d="M462.129 118.436L461.483 119.381C470.532 125.575 479.104 138.083 488.551 152.575L489.519 151.949C479.995 137.351 471.361 124.751 462.129 118.436Z" fill="white"/>
<path opacity="0.4" d="M501.486 169.978L500.533 170.634C504.556 176.679 509.188 182.302 514.359 187.414L515.143 186.575C510.028 181.523 505.452 175.961 501.486 169.978Z" fill="white"/>
<path opacity="0.4" d="M491.485 157.093C493.482 160.144 495.464 163.194 497.461 166.123L498.414 165.483C496.432 162.539 494.45 159.503 492.453 156.467L491.485 157.093Z" fill="white"/>
<path opacity="0.4" d="M519.398 189.81L518.722 190.725C522.216 193.524 526.526 195.129 531.012 195.302H561.49V194.158H530.935C526.721 193.967 522.679 192.443 519.398 189.81Z" fill="white"/>
<path opacity="0.4" d="M576.13 194.198H566.913V195.343H576.13V194.198Z" fill="white"/>
<path opacity="0.4" d="M51.9023 114.348H42.6851V115.493H51.9023V114.348Z" fill="white"/>
<path opacity="0.4" d="M96.575 114.348H60.8276V115.493H96.575V114.348Z" fill="white"/>
<path opacity="0.4" d="M105.516 114.346V115.49H176.995V114.346H174.399C171.413 114.254 168.524 113.277 166.103 111.539L165.473 112.5C166.56 113.22 167.712 113.838 168.915 114.346H105.516Z" fill="white"/>
<path opacity="0.4" d="M400.389 114.348H364.641V115.493H400.389V114.348Z" fill="white"/>
<path opacity="0.4" d="M480.809 115.49V114.346H452.02C453.221 113.835 454.373 113.217 455.461 112.5L454.816 111.539C452.397 113.279 449.507 114.257 446.521 114.346H409.329V115.49H450.5C452.682 115.51 454.839 115.961 456.844 116.817L457.29 115.765L456.521 115.49H480.809Z" fill="white"/>
<path opacity="0.4" d="M355.701 114.348H337.835V115.493H355.701V114.348Z" fill="white"/>
<path opacity="0.4" d="M328.894 114.348H257.415V115.493H328.894V114.348Z" fill="white"/>
<path opacity="0.4" d="M498.967 114.348H489.749V115.493H498.967V114.348Z" fill="white"/>
<path opacity="0.4" d="M476.815 87.0287L475.847 86.4033C471.054 93.7102 465.477 101.947 459.87 107.424L460.669 108.232C466.368 102.68 471.991 94.3813 476.815 87.0287Z" fill="white"/>
<path opacity="0.4" d="M511.271 51.1939H519.229V50.0498H511.271C499.535 50.0498 488.874 66.4025 479.472 80.8331L480.44 81.4585C489.688 67.272 500.165 51.1939 511.271 51.1939Z" fill="white"/>
<path opacity="0.4" d="M535.113 50.0498H525.896V51.195H535.113V50.0498Z" fill="white"/>
<path opacity="0.4" d="M161.065 107.438C155.442 101.962 149.866 93.7091 145.088 86.4175L144.12 87.0429C148.944 94.3955 154.566 102.694 160.25 108.246L161.065 107.438Z" fill="white"/>
<path opacity="0.4" d="M140.495 81.5068L141.463 80.8814C132.046 66.4508 121.385 50.0981 109.663 50.0981H101.691V51.2422H109.663C120.755 51.1965 131.247 67.2745 140.495 81.5068Z" fill="white"/>
<path opacity="0.4" d="M95.0233 50.0498H85.8062V51.195H95.0233V50.0498Z" fill="white"/>
<path opacity="0.4" d="M212.742 114.348H210.023V115.493H212.742H219.24H248.49V114.348H219.24H212.742Z" fill="white"/>
<path opacity="0.4" d="M150.618 151.949L151.586 152.575C161.034 138.083 169.59 125.575 178.654 119.381L177.993 118.436C168.761 124.751 160.127 137.351 150.618 151.949Z" fill="white"/>
<path opacity="0.4" d="M189.622 114.348H185.935V114.791C184.885 115.03 183.858 115.357 182.863 115.768L183.309 116.822C185.315 115.968 187.471 115.517 189.653 115.493H204.616V114.348H189.653H189.622Z" fill="white"/>
<path opacity="0.4" d="M109.233 194.203H78.7244V195.348H109.233C113.72 195.178 118.03 193.573 121.523 190.771L120.847 189.856C117.545 192.504 113.474 194.029 109.233 194.203V194.203Z" fill="white"/>
<path opacity="0.4" d="M141.708 165.483L142.676 166.123C144.658 163.164 146.655 160.128 148.637 157.093L147.669 156.467C145.687 159.503 143.706 162.539 141.708 165.483Z" fill="white"/>
<path opacity="0.4" d="M124.918 186.453L125.717 187.292C130.892 182.184 135.525 176.561 139.542 170.512L138.605 169.856C134.63 175.841 130.043 181.403 124.918 186.453Z" fill="white"/>
<path opacity="0.4" d="M73.2247 194.198H64.0075V195.343H73.2247V194.198Z" fill="white"/>
</g>
<path d="M109.725 165.631H98.4798C97.1754 165.632 95.8914 165.953 94.7418 166.565C93.5922 167.177 92.6125 168.061 91.8895 169.139L90.2457 171.611C89.5856 172.601 88.6887 173.413 87.6352 173.975C86.5816 174.536 85.4043 174.83 84.2085 174.829H55.1283C54.5076 174.829 53.8931 174.951 53.3199 175.187C52.7467 175.423 52.2261 175.77 51.788 176.206C51.3499 176.643 51.0028 177.161 50.7667 177.731C50.5306 178.301 50.4101 178.911 50.4121 179.528V224.574H115.931V174.829L115.347 170.512C115.165 169.16 114.494 167.92 113.46 167.022C112.426 166.124 111.098 165.63 109.725 165.631V165.631Z" fill="#407BFF"/>
<path opacity="0.2" d="M109.725 165.631H98.4798C97.1754 165.632 95.8914 165.953 94.7418 166.565C93.5922 167.177 92.6125 168.061 91.8895 169.139L90.2457 171.611C89.5856 172.601 88.6887 173.413 87.6352 173.975C86.5816 174.536 85.4043 174.83 84.2085 174.829H55.1283C54.5076 174.829 53.8931 174.951 53.3199 175.187C52.7467 175.423 52.2261 175.77 51.788 176.206C51.3499 176.643 51.0028 177.161 50.7667 177.731C50.5306 178.301 50.4101 178.911 50.4121 179.528V224.574H115.931V174.829L115.347 170.512C115.165 169.16 114.494 167.92 113.46 167.022C112.426 166.124 111.098 165.63 109.725 165.631V165.631Z" fill="white"/>
<path d="M111.015 180.538H55.3279V218.353H111.015V180.538Z" fill="#263238"/>
<path opacity="0.9" d="M111.015 180.538H55.3279V218.353H111.015V180.538Z" fill="white"/>
<path d="M115.931 224.573H50.4122L40.7956 189.808C40.6283 189.194 40.6056 188.55 40.7292 187.925C40.8529 187.3 41.1196 186.713 41.5087 186.207C41.8978 185.701 42.3988 185.291 42.9731 185.008C43.5474 184.725 44.1795 184.578 44.8205 184.576H98.5874C100.416 184.581 102.193 185.18 103.647 186.281C105.1 187.383 106.151 188.927 106.637 190.678L115.931 224.573Z" fill="#407BFF"/>
<path opacity="0.6" d="M115.931 224.573H50.4122L40.7956 189.808C40.6283 189.194 40.6056 188.55 40.7292 187.925C40.8529 187.3 41.1196 186.713 41.5087 186.207C41.8978 185.701 42.3988 185.291 42.9731 185.008C43.5474 184.725 44.1795 184.578 44.8205 184.576H98.5874C100.416 184.581 102.193 185.18 103.647 186.281C105.1 187.383 106.151 188.927 106.637 190.678L115.931 224.573Z" fill="white"/>
<path d="M37.339 1.50575e-07H49.4903C50.898 -0.000263217 52.284 0.344965 53.5249 1.00498C54.7658 1.66499 55.8231 2.61933 56.6029 3.78308L58.3696 6.45259C59.0864 7.52028 60.057 8.39614 61.1957 9.00275C62.3345 9.60937 63.6062 9.92804 64.8984 9.93058H96.2522C97.6008 9.93058 98.8941 10.4625 99.8477 11.4095C100.801 12.3564 101.337 13.6406 101.337 14.9798V59.4614C101.337 60.5578 100.898 61.6093 100.118 62.3846C99.3369 63.1598 98.278 63.5954 97.1739 63.5954H34.8196C33.7155 63.5954 32.6566 63.1598 31.8759 62.3846C31.0952 61.6093 30.6566 60.5578 30.6566 59.4614V9.93058L31.2864 5.26274C31.4895 3.8095 32.2132 2.4776 33.3248 1.51106C34.4364 0.544523 35.8615 0.00807529 37.339 1.50575e-07V1.50575e-07Z" fill="#407BFF"/>
<path opacity="0.6" d="M37.339 1.50575e-07H49.4903C50.898 -0.000263217 52.284 0.344965 53.5249 1.00498C54.7658 1.66499 55.8231 2.61933 56.6029 3.78308L58.3696 6.45259C59.0864 7.52028 60.057 8.39614 61.1957 9.00275C62.3345 9.60937 63.6062 9.92804 64.8984 9.93058H96.2522C97.6008 9.93058 98.8941 10.4625 99.8477 11.4095C100.801 12.3564 101.337 13.6406 101.337 14.9798V59.4614C101.337 60.5578 100.898 61.6093 100.118 62.3846C99.3369 63.1598 98.278 63.5954 97.1739 63.5954H34.8196C33.7155 63.5954 32.6566 63.1598 31.8759 62.3846C31.0952 61.6093 30.6566 60.5578 30.6566 59.4614V9.93058L31.2864 5.26274C31.4895 3.8095 32.2132 2.4776 33.3248 1.51106C34.4364 0.544523 35.8615 0.00807529 37.339 1.50575e-07V1.50575e-07Z" fill="white"/>
<path d="M88.6328 9.93262H82.3497V53.1482H88.6328V9.93262Z" fill="#263238"/>
<path opacity="0.5" d="M88.6328 9.93262H82.3497V53.1482H88.6328V9.93262Z" fill="white"/>
<path d="M85.6832 11.9912H80.8595V15.5455H85.6832V11.9912Z" fill="#263238"/>
<path d="M85.6832 19.7388H80.8595V23.293H85.6832V19.7388Z" fill="#263238"/>
<path d="M85.6832 27.4893H80.8595V31.0435H85.6832V27.4893Z" fill="#263238"/>
<path d="M85.6832 35.2373H80.8595V38.7916H85.6832V35.2373Z" fill="#263238"/>
<path d="M85.6832 42.9873H80.8595V46.5416H85.6832V42.9873Z" fill="#263238"/>
<path opacity="0.7" d="M85.6832 11.9912H80.8595V15.5455H85.6832V11.9912Z" fill="white"/>
<path opacity="0.7" d="M85.6832 19.7388H80.8595V23.293H85.6832V19.7388Z" fill="white"/>
<path opacity="0.7" d="M85.6832 27.4893H80.8595V31.0435H85.6832V27.4893Z" fill="white"/>
<path opacity="0.7" d="M85.6832 35.2373H80.8595V38.7916H85.6832V35.2373Z" fill="white"/>
<path opacity="0.7" d="M85.6832 42.9873H80.8595V46.5416H85.6832V42.9873Z" fill="white"/>
<path d="M90.3534 15.5464H85.5297V19.1006H90.3534V15.5464Z" fill="#263238"/>
<path d="M90.3534 23.2974H85.5297V26.8516H90.3534V23.2974Z" fill="#263238"/>
<path d="M90.3534 31.0449H85.5297V34.5992H90.3534V31.0449Z" fill="#263238"/>
<path d="M90.3534 38.7949H85.5297V42.3492H90.3534V38.7949Z" fill="#263238"/>
<path d="M90.3534 46.5425H85.5297V50.0967H90.3534V46.5425Z" fill="#263238"/>
<g opacity="0.8">
<path opacity="0.8" d="M90.3534 15.5464H85.5297V19.1006H90.3534V15.5464Z" fill="white"/>
<path opacity="0.8" d="M90.3533 23.2944H85.5297V26.8487H90.3533V23.2944Z" fill="white"/>
<path opacity="0.8" d="M90.3533 31.0454H85.5297V34.5997H90.3533V31.0454Z" fill="white"/>
<path opacity="0.8" d="M90.3533 38.7925H85.5297V42.3467H90.3533V38.7925Z" fill="white"/>
<path opacity="0.8" d="M90.3533 46.5425H85.5297V50.0967H90.3533V46.5425Z" fill="white"/>
</g>
<path d="M78.7703 50.1133V64.2846H92.596V50.1133H78.7703ZM90.3686 61.7066H81.1514V52.676H90.3686V61.7066Z" fill="#263238"/>
<path opacity="0.7" d="M78.7703 50.1133V64.2846H92.596V50.1133H78.7703ZM90.3686 61.7066H81.1514V52.676H90.3686V61.7066Z" fill="white"/>
<path d="M82.6569 81.7334H18.6129V95.9047L32.8688 110.061H96.8975V95.8894L82.6569 81.7334Z" fill="#407BFF"/>
<path opacity="0.3" d="M82.6569 81.7334H18.6129V95.9047L32.8688 110.061H96.8975V95.8894L82.6569 81.7334Z" fill="white"/>
<path d="M96.9129 110.048H32.8688V124.22H96.9129V110.048Z" fill="#407BFF"/>
<path opacity="0.3" d="M96.9129 110.048H32.8688V124.22H96.9129V110.048Z" fill="white"/>
<path d="M96.9129 124.213H32.8688V138.384H96.9129V124.213Z" fill="#407BFF"/>
<path opacity="0.6" d="M96.9129 124.213H32.8688V138.384H96.9129V124.213Z" fill="white"/>
<path d="M96.9129 95.8887H32.8688V110.06H96.9129V95.8887Z" fill="#407BFF"/>
<path d="M57.0179 138.388H71.3967V95.8894L57.1408 81.7334H42.762L57.0179 95.8894V138.388Z" fill="#407BFF"/>
<path opacity="0.2" d="M57.0179 138.388H71.3967V95.8894L57.1408 81.7334H42.762L57.0179 95.8894V138.388Z" fill="black"/>
<path d="M53.1926 106.015V128.255H74.8837V106.015H53.1926ZM71.3965 124.213H57.0023V110.042H71.3812L71.3965 124.213Z" fill="#263238"/>
<path opacity="0.5" d="M53.1926 106.015V128.255H74.8837V106.015H53.1926ZM71.3965 124.213H57.0023V110.042H71.3812L71.3965 124.213Z" fill="white"/>
<path d="M18.6129 81.7334V95.9047L32.8688 110.061V95.8894L18.6129 81.7334Z" fill="#263238"/>
<path opacity="0.5" d="M18.6129 81.7334V95.9047L32.8688 110.061V95.8894L18.6129 81.7334Z" fill="white"/>
<path d="M18.6129 95.8887V110.075L32.8688 124.216V110.045L18.6129 95.8887Z" fill="#263238"/>
<path opacity="0.6" d="M18.6129 95.8887V110.075L32.8688 124.216V110.045L18.6129 95.8887Z" fill="white"/>
<path d="M18.6129 110.06V124.231L32.8688 138.387V124.216L18.6129 110.06Z" fill="#263238"/>
<path opacity="0.8" d="M18.6129 110.06V124.231L32.8688 138.387V124.216L18.6129 110.06Z" fill="white"/>
<path d="M588.435 146.929H518.599V240.255H588.435V146.929Z" fill="#407BFF"/>
<path opacity="0.7" d="M588.435 146.929H518.599V240.255H588.435V146.929Z" fill="white"/>
<path opacity="0.7" d="M583.872 151.459H523.162V175.76H583.872V151.459Z" fill="white"/>
<path opacity="0.7" d="M583.872 181.437H523.162V205.737H583.872V181.437Z" fill="white"/>
<path d="M583.872 164.561L578.203 157.711L571.214 166.178L564.224 156.201L556.804 163.569L549.523 159.496L542.886 170.418L536.265 159.496L528.753 163.722L523.162 160.579V163.172L528.753 166.315L535.466 162.547L542.886 174.811L550.321 162.547L557.188 166.391L563.901 159.71L571.06 169.93L578.203 161.281L583.872 168.13V164.561Z" fill="#407BFF"/>
<path opacity="0.5" d="M583.872 164.561L578.203 157.711L571.214 166.178L564.224 156.201L556.804 163.569L549.523 159.496L542.886 170.418L536.265 159.496L528.753 163.722L523.162 160.579V163.172L528.753 166.315L535.466 162.547L542.886 174.811L550.321 162.547L557.188 166.391L563.901 159.71L571.06 169.93L578.203 161.281L583.872 168.13V164.561Z" fill="white"/>
<path d="M583.872 188.816L578.157 192.02L570.645 187.794L564.024 198.717L557.403 187.81L550.122 191.867L542.702 184.5L535.712 194.476L528.707 186.01L523.162 192.737V196.306L528.707 189.579L535.85 198.228L543.009 188.008L549.722 194.689L556.589 190.861L564.024 203.11L571.46 190.861L578.157 194.613L583.872 191.425V188.816Z" fill="#407BFF"/>
<path opacity="0.5" d="M583.872 188.816L578.157 192.02L570.645 187.794L564.024 198.717L557.403 187.81L550.122 191.867L542.702 184.5L535.712 194.476L528.707 186.01L523.162 192.737V196.306L528.707 189.579L535.85 198.228L543.009 188.008L549.722 194.689L556.589 190.861L564.024 203.11L571.46 190.861L578.157 194.613L583.872 191.425V188.816Z" fill="white"/>
<path d="M548.232 212.556H583.012C583.313 212.556 583.602 212.437 583.815 212.225C584.029 212.013 584.148 211.726 584.148 211.426C584.148 211.127 584.029 210.839 583.815 210.627C583.602 210.415 583.313 210.296 583.012 210.296H548.232C547.931 210.296 547.641 210.415 547.428 210.627C547.215 210.839 547.095 211.127 547.095 211.426C547.095 211.726 547.215 212.013 547.428 212.225C547.641 212.437 547.931 212.556 548.232 212.556V212.556Z" fill="#263238"/>
<path d="M548.232 218.795H578.449C578.73 218.763 578.989 218.629 579.177 218.419C579.365 218.21 579.469 217.938 579.469 217.658C579.469 217.377 579.365 217.106 579.177 216.896C578.989 216.686 578.73 216.552 578.449 216.52H548.232C547.952 216.552 547.693 216.686 547.505 216.896C547.317 217.106 547.213 217.377 547.213 217.658C547.213 217.938 547.317 218.21 547.505 218.419C547.693 218.629 547.952 218.763 548.232 218.795Z" fill="#263238"/>
<path d="M548.232 224.897H578.449C578.73 224.864 578.989 224.731 579.177 224.521C579.365 224.311 579.469 224.04 579.469 223.759C579.469 223.478 579.365 223.207 579.177 222.997C578.989 222.788 578.73 222.654 578.449 222.622H548.232C547.952 222.654 547.693 222.788 547.505 222.997C547.317 223.207 547.213 223.478 547.213 223.759C547.213 224.04 547.317 224.311 547.505 224.521C547.693 224.731 547.952 224.864 548.232 224.897Z" fill="#263238"/>
<path d="M548.232 230.998H579.97C580.271 230.998 580.561 230.879 580.774 230.667C580.987 230.455 581.107 230.168 581.107 229.868C581.107 229.569 580.987 229.281 580.774 229.069C580.561 228.857 580.271 228.738 579.97 228.738H548.232C547.931 228.738 547.641 228.857 547.428 229.069C547.215 229.281 547.095 229.569 547.095 229.868C547.095 230.168 547.215 230.455 547.428 230.667C547.641 230.879 547.931 230.998 548.232 230.998V230.998Z" fill="#263238"/>
<g opacity="0.4">
<path opacity="0.4" d="M548.232 212.556H583.012C583.313 212.556 583.602 212.437 583.815 212.225C584.029 212.013 584.148 211.726 584.148 211.426C584.148 211.127 584.029 210.839 583.815 210.627C583.602 210.415 583.313 210.296 583.012 210.296H548.232C547.931 210.296 547.641 210.415 547.428 210.627C547.215 210.839 547.095 211.127 547.095 211.426C547.095 211.726 547.215 212.013 547.428 212.225C547.641 212.437 547.931 212.556 548.232 212.556V212.556Z" fill="white"/>
<path opacity="0.4" d="M548.232 218.798H578.449C578.73 218.765 578.989 218.631 579.177 218.422C579.365 218.212 579.468 217.941 579.468 217.66C579.468 217.379 579.365 217.108 579.177 216.898C578.989 216.689 578.73 216.555 578.449 216.522H548.232C547.951 216.555 547.692 216.689 547.505 216.898C547.317 217.108 547.213 217.379 547.213 217.66C547.213 217.941 547.317 218.212 547.505 218.422C547.692 218.631 547.951 218.765 548.232 218.798Z" fill="white"/>
<path opacity="0.4" d="M548.232 224.895H578.449C578.73 224.863 578.989 224.729 579.177 224.519C579.365 224.31 579.468 224.039 579.468 223.758C579.468 223.477 579.365 223.206 579.177 222.996C578.989 222.786 578.73 222.652 578.449 222.62H548.232C547.951 222.652 547.692 222.786 547.505 222.996C547.317 223.206 547.213 223.477 547.213 223.758C547.213 224.039 547.317 224.31 547.505 224.519C547.692 224.729 547.951 224.863 548.232 224.895Z" fill="white"/>
<path opacity="0.4" d="M548.232 230.997H579.97C580.271 230.997 580.561 230.878 580.774 230.666C580.987 230.454 581.107 230.166 581.107 229.867C581.107 229.567 580.987 229.28 580.774 229.068C580.561 228.856 580.271 228.737 579.97 228.737H548.232C547.931 228.737 547.641 228.856 547.428 229.068C547.215 229.28 547.095 229.567 547.095 229.867C547.095 230.166 547.215 230.454 547.428 230.666C547.641 230.878 547.931 230.997 548.232 230.997V230.997Z" fill="white"/>
</g>
<path d="M584.855 3.37061H521.364V88.2153H584.855V3.37061Z" fill="#407BFF"/>
<path opacity="0.6" d="M584.855 3.37061H521.364V88.2153H584.855V3.37061Z" fill="white"/>
<path opacity="0.7" d="M580.707 7.48828H525.512V29.5766H580.707V7.48828Z" fill="white"/>
<path d="M548.478 36.2162H580.108C580.362 36.1855 580.595 36.0637 580.764 35.8738C580.933 35.684 581.026 35.4391 581.026 35.1855C581.026 34.9319 580.933 34.687 580.764 34.4971C580.595 34.3072 580.362 34.1855 580.108 34.1548H548.478C548.225 34.1855 547.991 34.3072 547.822 34.4971C547.653 34.687 547.56 34.9319 547.56 35.1855C547.56 35.4391 547.653 35.684 547.822 35.8738C547.991 36.0637 548.225 36.1855 548.478 36.2162V36.2162Z" fill="#263238"/>
<path d="M548.478 41.8481H575.961C576.214 41.8174 576.447 41.6956 576.616 41.5057C576.785 41.3158 576.879 41.071 576.879 40.8173C576.879 40.5637 576.785 40.3189 576.616 40.129C576.447 39.9391 576.214 39.8173 575.961 39.7866H548.478C548.225 39.8173 547.991 39.9391 547.822 40.129C547.653 40.3189 547.56 40.5637 547.56 40.8173C547.56 41.071 547.653 41.3158 547.822 41.5057C547.991 41.6956 548.225 41.8174 548.478 41.8481V41.8481Z" fill="#263238"/>
<path d="M548.478 47.4252H575.961C576.214 47.3945 576.447 47.2727 576.616 47.0828C576.785 46.893 576.879 46.6481 576.879 46.3945C576.879 46.1409 576.785 45.896 576.616 45.7061C576.447 45.5163 576.214 45.3945 575.961 45.3638H548.478C548.225 45.3945 547.991 45.5163 547.822 45.7061C547.653 45.896 547.56 46.1409 547.56 46.3945C547.56 46.6481 547.653 46.893 547.822 47.0828C547.991 47.2727 548.225 47.3945 548.478 47.4252V47.4252Z" fill="#263238"/>
<path d="M548.478 53.0433H577.343C577.596 53.0126 577.83 52.8909 577.999 52.701C578.168 52.5111 578.261 52.2662 578.261 52.0126C578.261 51.759 578.168 51.5142 577.999 51.3243C577.83 51.1344 577.596 51.0126 577.343 50.9819H548.478C548.225 51.0126 547.991 51.1344 547.822 51.3243C547.653 51.5142 547.56 51.759 547.56 52.0126C547.56 52.2662 547.653 52.5111 547.822 52.701C547.991 52.8909 548.225 53.0126 548.478 53.0433V53.0433Z" fill="#263238"/>
<path d="M548.478 58.6234H571.813C572.066 58.5927 572.299 58.471 572.468 58.2811C572.638 58.0912 572.731 57.8463 572.731 57.5927C572.731 57.3391 572.638 57.0943 572.468 56.9044C572.299 56.7145 572.066 56.5927 571.813 56.562H548.478C548.225 56.5927 547.991 56.7145 547.822 56.9044C547.653 57.0943 547.56 57.3391 547.56 57.5927C547.56 57.8463 547.653 58.0912 547.822 58.2811C547.991 58.471 548.225 58.5927 548.478 58.6234V58.6234Z" fill="#263238"/>
<path d="M548.478 64.2543H580.108C580.362 64.2236 580.595 64.1018 580.764 63.9119C580.933 63.7221 581.026 63.4772 581.026 63.2236C581.026 62.97 580.933 62.7251 580.764 62.5352C580.595 62.3454 580.362 62.2236 580.108 62.1929H548.478C548.225 62.2236 547.991 62.3454 547.822 62.5352C547.653 62.7251 547.56 62.97 547.56 63.2236C547.56 63.4772 547.653 63.7221 547.822 63.9119C547.991 64.1018 548.225 64.2236 548.478 64.2543V64.2543Z" fill="#263238"/>
<path d="M548.478 69.8515H575.961C576.214 69.8208 576.447 69.699 576.616 69.5091C576.785 69.3192 576.879 69.0744 576.879 68.8208C576.879 68.5671 576.785 68.3223 576.616 68.1324C576.447 67.9425 576.214 67.8207 575.961 67.79H548.478C548.225 67.8207 547.991 67.9425 547.822 68.1324C547.653 68.3223 547.56 68.5671 547.56 68.8208C547.56 69.0744 547.653 69.3192 547.822 69.5091C547.991 69.699 548.225 69.8208 548.478 69.8515V69.8515Z" fill="#263238"/>
<path d="M548.478 75.4066H575.961C576.214 75.3759 576.447 75.2542 576.616 75.0643C576.785 74.8744 576.879 74.6296 576.879 74.3759C576.879 74.1223 576.785 73.8775 576.616 73.6876C576.447 73.4977 576.214 73.3759 575.961 73.3452H548.478C548.225 73.3759 547.991 73.4977 547.822 73.6876C547.653 73.8775 547.56 74.1223 547.56 74.3759C547.56 74.6296 547.653 74.8744 547.822 75.0643C547.991 75.2542 548.225 75.3759 548.478 75.4066V75.4066Z" fill="#263238"/>
<path d="M548.478 81.0605H577.343C577.596 81.0298 577.83 80.908 577.999 80.7181C578.168 80.5282 578.261 80.2834 578.261 80.0297C578.261 79.7761 578.168 79.5313 577.999 79.3414C577.83 79.1515 577.596 79.0297 577.343 78.999H548.478C548.225 79.0297 547.991 79.1515 547.822 79.3414C547.653 79.5313 547.56 79.7761 547.56 80.0297C547.56 80.2834 547.653 80.5282 547.822 80.7181C547.991 80.908 548.225 81.0298 548.478 81.0605V81.0605Z" fill="#263238"/>
<g opacity="0.4">
<path opacity="0.4" d="M548.478 36.2162H580.108C580.362 36.1855 580.595 36.0637 580.764 35.8738C580.933 35.684 581.026 35.4391 581.026 35.1855C581.026 34.9319 580.933 34.687 580.764 34.4971C580.595 34.3072 580.362 34.1855 580.108 34.1548H548.478C548.225 34.1855 547.991 34.3072 547.822 34.4971C547.653 34.687 547.56 34.9319 547.56 35.1855C547.56 35.4391 547.653 35.684 547.822 35.8738C547.991 36.0637 548.225 36.1855 548.478 36.2162V36.2162Z" fill="white"/>
</g>
<g opacity="0.4">
<path opacity="0.4" d="M548.478 41.8481H575.961C576.214 41.8174 576.447 41.6956 576.616 41.5057C576.785 41.3158 576.879 41.071 576.879 40.8173C576.879 40.5637 576.785 40.3189 576.616 40.129C576.447 39.9391 576.214 39.8173 575.961 39.7866H548.478C548.225 39.8173 547.991 39.9391 547.822 40.129C547.653 40.3189 547.56 40.5637 547.56 40.8173C547.56 41.071 547.653 41.3158 547.822 41.5057C547.991 41.6956 548.225 41.8174 548.478 41.8481V41.8481Z" fill="white"/>
</g>
<g opacity="0.4">
<path opacity="0.4" d="M548.478 47.4252H575.961C576.214 47.3945 576.447 47.2727 576.616 47.0828C576.785 46.893 576.879 46.6481 576.879 46.3945C576.879 46.1409 576.785 45.896 576.616 45.7061C576.447 45.5163 576.214 45.3945 575.961 45.3638H548.478C548.225 45.3945 547.992 45.5163 547.822 45.7061C547.653 45.896 547.56 46.1409 547.56 46.3945C547.56 46.6481 547.653 46.893 547.822 47.0828C547.992 47.2727 548.225 47.3945 548.478 47.4252V47.4252Z" fill="white"/>
</g>
<g opacity="0.4">
<path opacity="0.4" d="M548.478 53.0433H577.343C577.596 53.0126 577.83 52.8909 577.999 52.701C578.168 52.5111 578.261 52.2662 578.261 52.0126C578.261 51.759 578.168 51.5142 577.999 51.3243C577.83 51.1344 577.596 51.0126 577.343 50.9819H548.478C548.225 51.0126 547.992 51.1344 547.822 51.3243C547.653 51.5142 547.56 51.759 547.56 52.0126C547.56 52.2662 547.653 52.5111 547.822 52.701C547.992 52.8909 548.225 53.0126 548.478 53.0433V53.0433Z" fill="white"/>
</g>
<g opacity="0.4">
<path opacity="0.4" d="M548.478 58.6234H571.813C572.066 58.5927 572.299 58.471 572.468 58.2811C572.638 58.0912 572.731 57.8463 572.731 57.5927C572.731 57.3391 572.638 57.0943 572.468 56.9044C572.299 56.7145 572.066 56.5927 571.813 56.562H548.478C548.225 56.5927 547.992 56.7145 547.822 56.9044C547.653 57.0943 547.56 57.3391 547.56 57.5927C547.56 57.8463 547.653 58.0912 547.822 58.2811C547.992 58.471 548.225 58.5927 548.478 58.6234V58.6234Z" fill="white"/>
</g>
<g opacity="0.4">
<path opacity="0.4" d="M548.478 64.2543H580.108C580.362 64.2236 580.595 64.1018 580.764 63.9119C580.933 63.7221 581.026 63.4772 581.026 63.2236C581.026 62.97 580.933 62.7251 580.764 62.5352C580.595 62.3454 580.362 62.2236 580.108 62.1929H548.478C548.225 62.2236 547.992 62.3454 547.822 62.5352C547.653 62.7251 547.56 62.97 547.56 63.2236C547.56 63.4772 547.653 63.7221 547.822 63.9119C547.992 64.1018 548.225 64.2236 548.478 64.2543V64.2543Z" fill="white"/>
</g>
<g opacity="0.4">
<path opacity="0.4" d="M548.478 69.8515H575.961C576.214 69.8208 576.447 69.699 576.616 69.5091C576.785 69.3192 576.879 69.0744 576.879 68.8208C576.879 68.5671 576.785 68.3223 576.616 68.1324C576.447 67.9425 576.214 67.8207 575.961 67.79H548.478C548.225 67.8207 547.992 67.9425 547.822 68.1324C547.653 68.3223 547.56 68.5671 547.56 68.8208C547.56 69.0744 547.653 69.3192 547.822 69.5091C547.992 69.699 548.225 69.8208 548.478 69.8515V69.8515Z" fill="white"/>
</g>
<g opacity="0.4">
<path opacity="0.4" d="M548.478 75.4066H575.961C576.214 75.3759 576.447 75.2542 576.616 75.0643C576.785 74.8744 576.879 74.6296 576.879 74.3759C576.879 74.1223 576.785 73.8775 576.616 73.6876C576.447 73.4977 576.214 73.3759 575.961 73.3452H548.478C548.225 73.3759 547.992 73.4977 547.822 73.6876C547.653 73.8775 547.56 74.1223 547.56 74.3759C547.56 74.6296 547.653 74.8744 547.822 75.0643C547.992 75.2542 548.225 75.3759 548.478 75.4066V75.4066Z" fill="white"/>
</g>
<g opacity="0.4">
<path opacity="0.4" d="M548.478 81.0595H577.343C577.596 81.0288 577.83 80.907 577.999 80.7171C578.168 80.5272 578.261 80.2824 578.261 80.0288C578.261 79.7751 578.168 79.5303 577.999 79.3404C577.83 79.1505 577.596 79.0287 577.343 78.998H548.478C548.225 79.0287 547.992 79.1505 547.822 79.3404C547.653 79.5303 547.56 79.7751 547.56 80.0288C547.56 80.2824 547.653 80.5272 547.822 80.7171C547.992 80.907 548.225 81.0288 548.478 81.0595V81.0595Z" fill="white"/>
</g>
<path d="M541.073 35.1914H525.512V50.6441H541.073V35.1914Z" fill="#407BFF"/>
<path opacity="0.3" d="M541.073 35.1914H525.512V50.6441H541.073V35.1914Z" fill="white"/>
<path d="M542.579 19.2197H538.37V27.5791H542.579V19.2197Z" fill="#407BFF"/>
<path d="M551.013 15.0239H546.803V27.563H551.013V15.0239Z" fill="#407BFF"/>
<path d="M559.431 17.1284H555.222V27.5776H559.431V17.1284Z" fill="#407BFF"/>
<path d="M567.85 10.8477H563.64V27.5817H567.85V10.8477Z" fill="#407BFF"/>
<path d="M553.763 73.8623H490.271V158.707H553.763V73.8623Z" fill="#407BFF"/>
<path opacity="0.8" d="M553.763 73.8623H490.271V158.707H553.763V73.8623Z" fill="white"/>
<path d="M517.385 83.0341H549.016C549.269 83.0034 549.502 82.8816 549.671 82.6917C549.84 82.5018 549.934 82.257 549.934 82.0034C549.934 81.7498 549.84 81.5049 549.671 81.315C549.502 81.1251 549.269 81.0034 549.016 80.9727H517.385C517.132 81.0034 516.899 81.1251 516.73 81.315C516.561 81.5049 516.467 81.7498 516.467 82.0034C516.467 82.257 516.561 82.5018 516.73 82.6917C516.899 82.8816 517.132 83.0034 517.385 83.0341V83.0341Z" fill="#263238"/>
<path d="M517.385 88.5673H544.868C545.121 88.5366 545.354 88.4148 545.524 88.2249C545.693 88.035 545.786 87.7902 545.786 87.5366C545.786 87.283 545.693 87.0381 545.524 86.8482C545.354 86.6583 545.121 86.5366 544.868 86.5059H517.385C517.132 86.5366 516.899 86.6583 516.73 86.8482C516.561 87.0381 516.467 87.283 516.467 87.5366C516.467 87.7902 516.561 88.035 516.73 88.2249C516.899 88.4148 517.132 88.5366 517.385 88.5673V88.5673Z" fill="#263238"/>
<path d="M517.385 94.1684H544.868C545.121 94.1377 545.354 94.0159 545.524 93.826C545.693 93.6361 545.786 93.3913 545.786 93.1376C545.786 92.884 545.693 92.6392 545.524 92.4493C545.354 92.2594 545.121 92.1376 544.868 92.1069H517.385C517.132 92.1376 516.899 92.2594 516.73 92.4493C516.561 92.6392 516.467 92.884 516.467 93.1376C516.467 93.3913 516.561 93.6361 516.73 93.826C516.899 94.0159 517.132 94.1377 517.385 94.1684Z" fill="#263238"/>
<path d="M517.385 99.8144H546.251C546.504 99.7837 546.737 99.6619 546.906 99.472C547.075 99.2821 547.169 99.0373 547.169 98.7836C547.169 98.53 547.075 98.2852 546.906 98.0953C546.737 97.9054 546.504 97.7836 546.251 97.7529H517.385C517.132 97.7836 516.899 97.9054 516.73 98.0953C516.561 98.2852 516.467 98.53 516.467 98.7836C516.467 99.0373 516.561 99.2821 516.73 99.472C516.899 99.6619 517.132 99.7837 517.385 99.8144Z" fill="#263238"/>
<path d="M517.385 105.379H540.72C540.973 105.349 541.207 105.227 541.376 105.037C541.545 104.847 541.638 104.602 541.638 104.349C541.638 104.095 541.545 103.85 541.376 103.66C541.207 103.47 540.973 103.349 540.72 103.318H517.385C517.132 103.349 516.899 103.47 516.73 103.66C516.561 103.85 516.467 104.095 516.467 104.349C516.467 104.602 516.561 104.847 516.73 105.037C516.899 105.227 517.132 105.349 517.385 105.379Z" fill="#263238"/>
<path d="M517.385 110.992H549.016C549.269 110.961 549.502 110.84 549.671 110.65C549.84 110.46 549.934 110.215 549.934 109.961C549.934 109.708 549.84 109.463 549.671 109.273C549.502 109.083 549.269 108.961 549.016 108.931H517.385C517.132 108.961 516.899 109.083 516.73 109.273C516.561 109.463 516.467 109.708 516.467 109.961C516.467 110.215 516.561 110.46 516.73 110.65C516.899 110.84 517.132 110.961 517.385 110.992V110.992Z" fill="#263238"/>
<path d="M517.385 116.59H544.868C545.121 116.56 545.354 116.438 545.524 116.248C545.693 116.058 545.786 115.813 545.786 115.56C545.786 115.306 545.693 115.061 545.524 114.871C545.354 114.681 545.121 114.56 544.868 114.529H517.385C517.132 114.56 516.899 114.681 516.73 114.871C516.561 115.061 516.467 115.306 516.467 115.56C516.467 115.813 516.561 116.058 516.73 116.248C516.899 116.438 517.132 116.56 517.385 116.59V116.59Z" fill="#263238"/>
<path d="M517.385 122.202H544.868C545.121 122.171 545.354 122.05 545.524 121.86C545.693 121.67 545.786 121.425 545.786 121.171C545.786 120.918 545.693 120.673 545.524 120.483C545.354 120.293 545.121 120.171 544.868 120.141H517.385C517.132 120.171 516.899 120.293 516.73 120.483C516.561 120.673 516.467 120.918 516.467 121.171C516.467 121.425 516.561 121.67 516.73 121.86C516.899 122.05 517.132 122.171 517.385 122.202V122.202Z" fill="#263238"/>
<path d="M517.385 133.371H540.72C540.973 133.34 541.207 133.219 541.376 133.029C541.545 132.839 541.638 132.594 541.638 132.34C541.638 132.087 541.545 131.842 541.376 131.652C541.207 131.462 540.973 131.34 540.72 131.31H517.385C517.132 131.34 516.899 131.462 516.73 131.652C516.561 131.842 516.467 132.087 516.467 132.34C516.467 132.594 516.561 132.839 516.73 133.029C516.899 133.219 517.132 133.34 517.385 133.371V133.371Z" fill="#263238"/>
<path d="M517.385 139.031H549.016C549.269 139 549.502 138.879 549.671 138.689C549.84 138.499 549.934 138.254 549.934 138C549.934 137.747 549.84 137.502 549.671 137.312C549.502 137.122 549.269 137 549.016 136.97H517.385C517.132 137 516.899 137.122 516.73 137.312C516.561 137.502 516.467 137.747 516.467 138C516.467 138.254 516.561 138.499 516.73 138.689C516.899 138.879 517.132 139 517.385 139.031Z" fill="#263238"/>
<path d="M517.385 144.628H544.868C545.121 144.598 545.354 144.476 545.524 144.286C545.693 144.096 545.786 143.851 545.786 143.598C545.786 143.344 545.693 143.099 545.524 142.909C545.354 142.719 545.121 142.598 544.868 142.567H517.385C517.132 142.598 516.899 142.719 516.73 142.909C516.561 143.099 516.467 143.344 516.467 143.598C516.467 143.851 516.561 144.096 516.73 144.286C516.899 144.476 517.132 144.598 517.385 144.628Z" fill="#263238"/>
<path d="M517.385 150.242H544.868C545.121 150.211 545.354 150.09 545.524 149.9C545.693 149.71 545.786 149.465 545.786 149.211C545.786 148.958 545.693 148.713 545.524 148.523C545.354 148.333 545.121 148.211 544.868 148.181H517.385C517.132 148.211 516.899 148.333 516.73 148.523C516.561 148.713 516.467 148.958 516.467 149.211C516.467 149.465 516.561 149.71 516.73 149.9C516.899 150.09 517.132 150.211 517.385 150.242Z" fill="#263238"/>
<path d="M517.385 127.802H546.251C546.504 127.771 546.737 127.649 546.906 127.459C547.075 127.269 547.169 127.025 547.169 126.771C547.169 126.517 547.075 126.272 546.906 126.083C546.737 125.893 546.504 125.771 546.251 125.74H517.385C517.132 125.771 516.899 125.893 516.73 126.083C516.561 126.272 516.467 126.517 516.467 126.771C516.467 127.025 516.561 127.269 516.73 127.459C516.899 127.649 517.132 127.771 517.385 127.802V127.802Z" fill="#263238"/>
<g opacity="0.4">
<path opacity="0.4" d="M517.385 83.0341H549.016C549.269 83.0034 549.502 82.8816 549.671 82.6917C549.84 82.5018 549.934 82.257 549.934 82.0034C549.934 81.7498 549.84 81.5049 549.671 81.315C549.502 81.1251 549.269 81.0034 549.016 80.9727H517.385C517.132 81.0034 516.899 81.1251 516.73 81.315C516.561 81.5049 516.467 81.7498 516.467 82.0034C516.467 82.257 516.561 82.5018 516.73 82.6917C516.899 82.8816 517.132 83.0034 517.385 83.0341V83.0341Z" fill="white"/>
<path opacity="0.4" d="M517.385 88.5731H544.868C545.121 88.5424 545.354 88.4207 545.524 88.2308C545.693 88.0409 545.786 87.7961 545.786 87.5424C545.786 87.2888 545.693 87.044 545.524 86.8541C545.354 86.6642 545.121 86.5424 544.868 86.5117H517.385C517.132 86.5424 516.899 86.6642 516.73 86.8541C516.561 87.044 516.467 87.2888 516.467 87.5424C516.467 87.7961 516.561 88.0409 516.73 88.2308C516.899 88.4207 517.132 88.5424 517.385 88.5731V88.5731Z" fill="white"/>
<path opacity="0.4" d="M517.385 94.1689H544.868C545.121 94.1382 545.354 94.0164 545.524 93.8265C545.693 93.6366 545.786 93.3918 545.786 93.1381C545.786 92.8845 545.693 92.6397 545.524 92.4498C545.354 92.2599 545.121 92.1381 544.868 92.1074H517.385C517.132 92.1381 516.899 92.2599 516.73 92.4498C516.561 92.6397 516.467 92.8845 516.467 93.1381C516.467 93.3918 516.561 93.6366 516.73 93.8265C516.899 94.0164 517.132 94.1382 517.385 94.1689Z" fill="white"/>
<path opacity="0.4" d="M517.385 99.8124H546.251C546.504 99.7817 546.737 99.6599 546.906 99.47C547.075 99.2802 547.169 99.0353 547.169 98.7817C547.169 98.5281 547.075 98.2832 546.906 98.0933C546.737 97.9035 546.504 97.7817 546.251 97.751H517.385C517.132 97.7817 516.899 97.9035 516.73 98.0933C516.561 98.2832 516.467 98.5281 516.467 98.7817C516.467 99.0353 516.561 99.2802 516.73 99.47C516.899 99.6599 517.132 99.7817 517.385 99.8124Z" fill="white"/>
<path opacity="0.4" d="M517.385 105.384H540.72C540.974 105.353 541.207 105.232 541.376 105.042C541.545 104.852 541.638 104.607 541.638 104.353C541.638 104.1 541.545 103.855 541.376 103.665C541.207 103.475 540.974 103.353 540.72 103.323H517.385C517.132 103.353 516.899 103.475 516.73 103.665C516.561 103.855 516.467 104.1 516.467 104.353C516.467 104.607 516.561 104.852 516.73 105.042C516.899 105.232 517.132 105.353 517.385 105.384Z" fill="white"/>
<path opacity="0.4" d="M517.385 110.993H549.016C549.269 110.962 549.502 110.841 549.671 110.651C549.841 110.461 549.934 110.216 549.934 109.962C549.934 109.709 549.841 109.464 549.671 109.274C549.502 109.084 549.269 108.962 549.016 108.932H517.385C517.132 108.962 516.899 109.084 516.73 109.274C516.561 109.464 516.467 109.709 516.467 109.962C516.467 110.216 516.561 110.461 516.73 110.651C516.899 110.841 517.132 110.962 517.385 110.993V110.993Z" fill="white"/>
<path opacity="0.4" d="M517.385 116.593H544.868C545.121 116.562 545.354 116.44 545.524 116.25C545.693 116.06 545.786 115.816 545.786 115.562C545.786 115.308 545.693 115.063 545.524 114.874C545.354 114.684 545.121 114.562 544.868 114.531H517.385C517.132 114.562 516.899 114.684 516.73 114.874C516.561 115.063 516.467 115.308 516.467 115.562C516.467 115.816 516.561 116.06 516.73 116.25C516.899 116.44 517.132 116.562 517.385 116.593V116.593Z" fill="white"/>
<path opacity="0.4" d="M517.385 122.208H544.868C545.121 122.178 545.354 122.056 545.524 121.866C545.693 121.676 545.786 121.431 545.786 121.178C545.786 120.924 545.693 120.679 545.524 120.489C545.354 120.299 545.121 120.178 544.868 120.147H517.385C517.132 120.178 516.899 120.299 516.73 120.489C516.561 120.679 516.467 120.924 516.467 121.178C516.467 121.431 516.561 121.676 516.73 121.866C516.899 122.056 517.132 122.178 517.385 122.208V122.208Z" fill="white"/>
<path opacity="0.4" d="M517.385 133.373H540.72C540.974 133.343 541.207 133.221 541.376 133.031C541.545 132.841 541.638 132.596 541.638 132.343C541.638 132.089 541.545 131.844 541.376 131.654C541.207 131.464 540.974 131.343 540.72 131.312H517.385C517.132 131.343 516.899 131.464 516.73 131.654C516.561 131.844 516.467 132.089 516.467 132.343C516.467 132.596 516.561 132.841 516.73 133.031C516.899 133.221 517.132 133.343 517.385 133.373V133.373Z" fill="white"/>
<path opacity="0.4" d="M517.385 139.032H549.016C549.269 139.001 549.502 138.879 549.671 138.689C549.841 138.499 549.934 138.255 549.934 138.001C549.934 137.747 549.841 137.502 549.671 137.313C549.502 137.123 549.269 137.001 549.016 136.97H517.385C517.132 137.001 516.899 137.123 516.73 137.313C516.561 137.502 516.467 137.747 516.467 138.001C516.467 138.255 516.561 138.499 516.73 138.689C516.899 138.879 517.132 139.001 517.385 139.032Z" fill="white"/>
<path opacity="0.4" d="M517.385 144.634H544.868C545.121 144.603 545.354 144.481 545.524 144.291C545.693 144.101 545.786 143.857 545.786 143.603C545.786 143.349 545.693 143.105 545.524 142.915C545.354 142.725 545.121 142.603 544.868 142.572H517.385C517.132 142.603 516.899 142.725 516.73 142.915C516.561 143.105 516.467 143.349 516.467 143.603C516.467 143.857 516.561 144.101 516.73 144.291C516.899 144.481 517.132 144.603 517.385 144.634Z" fill="white"/>
<path opacity="0.4" d="M517.385 150.243H544.868C545.121 150.212 545.354 150.091 545.524 149.901C545.693 149.711 545.786 149.466 545.786 149.212C545.786 148.959 545.693 148.714 545.524 148.524C545.354 148.334 545.121 148.212 544.868 148.182H517.385C517.132 148.212 516.899 148.334 516.73 148.524C516.561 148.714 516.467 148.959 516.467 149.212C516.467 149.466 516.561 149.711 516.73 149.901C516.899 150.091 517.132 150.212 517.385 150.243Z" fill="white"/>
<path opacity="0.4" d="M517.385 127.802H546.251C546.504 127.771 546.737 127.649 546.906 127.459C547.075 127.269 547.169 127.025 547.169 126.771C547.169 126.517 547.075 126.272 546.906 126.083C546.737 125.893 546.504 125.771 546.251 125.74H517.385C517.132 125.771 516.899 125.893 516.73 126.083C516.561 126.272 516.467 126.517 516.467 126.771C516.467 127.025 516.561 127.269 516.73 127.459C516.899 127.649 517.132 127.771 517.385 127.802V127.802Z" fill="white"/>
</g>
<path d="M500.026 111.358L497.522 108.871C496.632 109.747 495.927 110.791 495.447 111.94C494.967 113.09 494.722 114.323 494.726 115.568H498.275C498.272 114.786 498.426 114.011 498.726 113.289C499.027 112.566 499.469 111.91 500.026 111.358Z" fill="#407BFF"/>
<path d="M504.251 121.515C502.665 121.511 501.145 120.882 500.024 119.767C498.904 118.651 498.275 117.141 498.275 115.565H494.726C494.726 118.074 495.73 120.479 497.516 122.253C499.302 124.027 501.725 125.023 504.251 125.023V121.515Z" fill="#407BFF"/>
<path opacity="0.3" d="M504.251 121.515C502.665 121.511 501.145 120.882 500.024 119.767C498.904 118.651 498.275 117.141 498.275 115.565H494.726C494.726 118.074 495.73 120.479 497.516 122.253C499.302 124.027 501.725 125.023 504.251 125.023V121.515Z" fill="white"/>
<path d="M500.026 111.357C500.579 110.804 501.237 110.365 501.962 110.066C502.688 109.768 503.466 109.615 504.251 109.618V106.095C503 106.095 501.762 106.34 500.608 106.816C499.453 107.293 498.404 107.991 497.522 108.871L500.026 111.357Z" fill="#407BFF"/>
<path opacity="0.5" d="M500.026 111.357C500.579 110.804 501.237 110.365 501.962 110.066C502.688 109.768 503.466 109.615 504.251 109.618V106.095C503 106.095 501.762 106.34 500.608 106.816C499.453 107.293 498.404 107.991 497.522 108.871L500.026 111.357Z" fill="black"/>
<path d="M510.181 115.568C510.181 117.146 509.549 118.66 508.426 119.775C507.302 120.891 505.778 121.518 504.189 121.518V125.026C505.473 125.077 506.755 124.87 507.956 124.418C509.157 123.965 510.254 123.276 511.181 122.392C512.108 121.508 512.845 120.448 513.349 119.274C513.852 118.1 514.112 116.837 514.112 115.561C514.112 114.285 513.852 113.022 513.349 111.848C512.845 110.674 512.108 109.613 511.181 108.729C510.254 107.845 509.157 107.156 507.956 106.704C506.755 106.251 505.473 106.044 504.189 106.096V109.619C504.977 109.617 505.757 109.77 506.484 110.068C507.212 110.366 507.874 110.804 508.43 111.357C508.987 111.91 509.428 112.567 509.729 113.289C510.029 114.012 510.183 114.787 510.181 115.568V115.568Z" fill="#407BFF"/>
<path opacity="0.2" d="M508.491 119.76L510.995 122.262C511.883 121.384 512.587 120.341 513.067 119.191C513.547 118.042 513.793 116.81 513.791 115.565H510.181C510.192 116.341 510.048 117.111 509.758 117.831C509.468 118.551 509.037 119.207 508.491 119.76V119.76Z" fill="black"/>
<path d="M500.026 93.479L497.522 95.9654C498.402 96.8481 499.451 97.5482 500.606 98.0248C501.761 98.5014 503 98.7451 504.251 98.7417V95.2332C503.465 95.2335 502.686 95.0785 501.961 94.7774C501.236 94.4762 500.578 94.0349 500.026 93.479V93.479Z" fill="#407BFF"/>
<path d="M510.181 89.2861C510.181 90.864 509.549 92.3771 508.426 93.4928C507.302 94.6085 505.778 95.2353 504.189 95.2353V98.7438C506.717 98.7438 509.141 97.7479 510.93 95.9746C512.718 94.2014 513.725 91.7959 513.729 89.2861H510.181Z" fill="#407BFF"/>
<path opacity="0.3" d="M510.181 89.2861C510.181 90.864 509.549 92.3771 508.426 93.4928C507.302 94.6085 505.778 95.2353 504.189 95.2353V98.7438C506.717 98.7438 509.141 97.7479 510.93 95.9746C512.718 94.2014 513.725 91.7959 513.729 89.2861H510.181Z" fill="white"/>
<path d="M500.026 93.4811C499.469 92.9323 499.027 92.2787 498.726 91.5585C498.425 90.8383 498.272 90.0658 498.275 89.2861H494.726C494.723 90.5283 494.968 91.7587 495.448 92.9057C495.928 94.0528 496.633 95.0936 497.522 95.9675L500.026 93.4811Z" fill="#407BFF"/>
<path opacity="0.5" d="M500.026 93.4811C499.469 92.9323 499.027 92.2787 498.726 91.5585C498.425 90.8383 498.272 90.0658 498.275 89.2861H494.726C494.723 90.5283 494.968 91.7587 495.448 92.9057C495.928 94.0528 496.633 95.0936 497.522 95.9675L500.026 93.4811Z" fill="black"/>
<path d="M504.251 83.3335C505.038 83.3315 505.818 83.484 506.546 83.7823C507.274 84.0805 507.935 84.5187 508.492 85.0715C509.048 85.6243 509.49 86.281 509.79 87.0036C510.09 87.7263 510.244 88.5009 510.242 89.2827H513.791C513.842 88.0077 513.634 86.7355 513.178 85.5425C512.722 84.3495 512.028 83.2602 511.138 82.34C510.248 81.4198 509.18 80.6877 507.997 80.1876C506.815 79.6875 505.543 79.4297 504.258 79.4297C502.973 79.4297 501.702 79.6875 500.52 80.1876C499.337 80.6877 498.269 81.4198 497.379 82.34C496.489 83.2602 495.795 84.3495 495.339 85.5425C494.883 86.7355 494.675 88.0077 494.726 89.2827H498.275C498.273 88.5022 498.426 87.7289 498.725 87.0072C499.025 86.2855 499.465 85.6295 500.02 85.0769C500.575 84.5243 501.234 84.0858 501.96 83.7866C502.686 83.4875 503.465 83.3335 504.251 83.3335V83.3335Z" fill="#407BFF"/>
<path opacity="0.2" d="M508.491 85.0734L510.995 82.5869C510.112 81.7031 509.062 81.0024 507.904 80.5258C506.746 80.0491 505.504 79.806 504.251 79.8106V83.3344C505.038 83.3301 505.819 83.4817 506.547 83.7802C507.275 84.0788 507.936 84.5184 508.491 85.0734Z" fill="black"/>
<path d="M508.491 137.642L510.995 135.155C511.885 136.032 512.59 137.075 513.07 138.225C513.55 139.374 513.795 140.607 513.791 141.852H510.181C510.191 141.074 510.047 140.302 509.758 139.58C509.468 138.857 509.037 138.199 508.491 137.642V137.642Z" fill="#407BFF"/>
<path d="M504.251 147.799C505.84 147.799 507.364 147.173 508.487 146.057C509.611 144.941 510.242 143.428 510.242 141.85H513.791C513.791 144.362 512.786 146.772 510.996 148.548C509.207 150.325 506.781 151.323 504.251 151.323V147.799Z" fill="#407BFF"/>
<path opacity="0.3" d="M504.251 147.799C505.84 147.799 507.364 147.173 508.487 146.057C509.611 144.941 510.242 143.428 510.242 141.85H513.791C513.791 144.362 512.786 146.772 510.996 148.548C509.207 150.325 506.781 151.323 504.251 151.323V147.799Z" fill="white"/>
<path d="M508.491 137.64C507.934 137.088 507.273 136.65 506.545 136.352C505.818 136.053 505.038 135.9 504.251 135.901V132.377C505.504 132.376 506.744 132.621 507.902 133.097C509.059 133.574 510.11 134.273 510.995 135.154L508.491 137.64Z" fill="#407BFF"/>
<path opacity="0.5" d="M508.491 137.64C507.934 137.088 507.273 136.65 506.545 136.352C505.818 136.053 505.038 135.9 504.251 135.901V132.377C505.504 132.376 506.744 132.621 507.902 133.097C509.059 133.574 510.11 134.273 510.995 135.154L508.491 137.64Z" fill="black"/>
<path d="M498.275 141.85C498.275 143.426 498.904 144.936 500.024 146.052C501.145 147.167 502.665 147.796 504.251 147.8V151.323C501.721 151.323 499.294 150.325 497.505 148.549C495.716 146.772 494.711 144.363 494.711 141.85C494.711 139.338 495.716 136.929 497.505 135.152C499.294 133.375 501.721 132.377 504.251 132.377V135.901C502.665 135.905 501.145 136.534 500.024 137.649C498.904 138.764 498.275 140.275 498.275 141.85V141.85Z" fill="#407BFF"/>
<path opacity="0.2" d="M500.026 146.062L497.522 148.624C496.634 147.747 495.93 146.703 495.45 145.554C494.97 144.404 494.724 143.172 494.726 141.928H498.275C498.29 143.48 498.919 144.965 500.026 146.062V146.062Z" fill="black"/>
<path d="M324.977 242.784H362.137C363.217 242.784 364.252 243.21 365.016 243.968C365.779 244.726 366.208 245.754 366.208 246.826V249.068C366.208 250.141 365.779 251.169 365.016 251.927C364.252 252.685 363.217 253.111 362.137 253.111H324.977V242.784Z" fill="#263238"/>
<path d="M252.33 242.784H331.398C332.4 242.784 333.361 243.179 334.07 243.883C334.779 244.587 335.177 245.541 335.177 246.536V249.297C335.177 250.293 334.779 251.247 334.07 251.951C333.361 252.655 332.4 253.05 331.398 253.05H252.33C251.323 253.05 250.358 252.653 249.647 251.946C248.935 251.24 248.535 250.281 248.535 249.282V246.552C248.533 246.056 248.63 245.565 248.82 245.107C249.01 244.649 249.289 244.233 249.642 243.883C249.995 243.533 250.414 243.255 250.875 243.066C251.337 242.878 251.831 242.782 252.33 242.784Z" fill="black"/>
<path opacity="0.5" d="M252.33 242.784H331.398C332.4 242.784 333.361 243.179 334.07 243.883C334.779 244.587 335.177 245.541 335.177 246.536V249.297C335.177 250.293 334.779 251.247 334.07 251.951C333.361 252.655 332.4 253.05 331.398 253.05H252.33C251.323 253.05 250.358 252.653 249.647 251.946C248.935 251.24 248.535 250.281 248.535 249.282V246.552C248.533 246.056 248.63 245.565 248.82 245.107C249.01 244.649 249.289 244.233 249.642 243.883C249.995 243.533 250.414 243.255 250.875 243.066C251.337 242.878 251.831 242.782 252.33 242.784Z" fill="white"/>
<path d="M314.039 242.799H334.071L321.244 195.206H314.039V242.799Z" fill="#263238"/>
<path d="M331.152 242.799H290.258L286.188 195.206H318.325L331.152 242.799Z" fill="black"/>
<path opacity="0.3" d="M331.152 242.799H290.258L286.188 195.206H318.325L331.152 242.799Z" fill="white"/>
<path d="M434.154 58.4516H415.566L401.111 221.841H419.699C421.62 221.81 423.463 221.08 424.879 219.789C426.294 218.499 427.184 216.738 427.38 214.839L440.529 65.4991C440.637 64.6087 440.551 63.7058 440.279 62.8508C440.006 61.9958 439.553 61.2084 438.95 60.5412C438.346 59.8741 437.606 59.3425 436.779 58.9822C435.952 58.6218 435.057 58.4409 434.154 58.4516V58.4516Z" fill="#263238"/>
<path d="M415.474 221.839H190.452C189.549 221.855 188.654 221.68 187.825 221.325C186.996 220.971 186.252 220.444 185.644 219.782C185.037 219.119 184.578 218.335 184.3 217.482C184.022 216.629 183.93 215.728 184.03 214.837L197.18 65.4968C197.379 63.6012 198.27 61.8436 199.686 60.5563C201.101 59.2689 202.942 58.5411 204.861 58.5103H429.868C430.769 58.4941 431.663 58.6688 432.491 59.0226C433.319 59.3765 434.062 59.9013 434.669 60.5624C435.277 61.2234 435.735 62.0054 436.015 62.8562C436.294 63.707 436.388 64.6072 436.289 65.4968L423.14 214.837C422.945 216.733 422.057 218.492 420.645 219.782C419.232 221.072 417.393 221.804 415.474 221.839Z" fill="#263238"/>
<path opacity="0.7" d="M415.474 221.839H190.452C189.549 221.855 188.654 221.68 187.825 221.325C186.996 220.971 186.252 220.444 185.644 219.782C185.037 219.119 184.578 218.335 184.3 217.482C184.022 216.629 183.93 215.728 184.03 214.837L197.18 65.4968C197.379 63.6012 198.27 61.8436 199.686 60.5563C201.101 59.2689 202.942 58.5411 204.861 58.5103H429.868C430.769 58.4941 431.663 58.6688 432.491 59.0226C433.319 59.3765 434.062 59.9013 434.669 60.5624C435.277 61.2234 435.735 62.0054 436.015 62.8562C436.294 63.707 436.388 64.6072 436.289 65.4968L423.14 214.837C422.945 216.733 422.057 218.492 420.645 219.782C419.232 221.072 417.393 221.804 415.474 221.839Z" fill="white"/>
<path opacity="0.9" d="M409.468 202.71H199.869C199.083 202.727 198.302 202.575 197.579 202.267C196.857 201.958 196.21 201.499 195.681 200.92C195.153 200.342 194.755 199.658 194.516 198.914C194.276 198.17 194.2 197.384 194.292 196.609L205.215 72.5297C205.38 70.8807 206.148 69.349 207.374 68.2245C208.6 67.1001 210.198 66.4609 211.866 66.428H421.465C422.252 66.4116 423.032 66.563 423.755 66.8717C424.477 67.1805 425.124 67.6395 425.653 68.2179C426.181 68.7962 426.579 69.4803 426.818 70.2241C427.058 70.968 427.134 71.7542 427.042 72.5297L416.119 196.609C415.954 198.258 415.186 199.789 413.96 200.914C412.735 202.038 411.136 202.677 409.468 202.71V202.71Z" fill="#FAFAFA"/>
<path d="M354.579 110.304H347.251L348.527 95.7358H355.87L354.579 110.304Z" fill="#407BFF"/>
<path opacity="0.2" d="M354.579 110.304H347.251L348.527 95.7358H355.87L354.579 110.304Z" fill="black"/>
<path d="M369.25 110.3H361.922L363.842 88.4556H371.17L369.25 110.3Z" fill="#407BFF"/>
<path d="M383.92 110.304H376.577L378.19 92.106H385.518L383.92 110.304Z" fill="#407BFF"/>
<path d="M398.591 110.302H391.248L393.814 81.1812H401.157L398.591 110.302Z" fill="#407BFF"/>
<path opacity="0.4" d="M398.591 110.302H391.248L393.814 81.1812H401.157L398.591 110.302Z" fill="black"/>
<path d="M405.919 108.96H341.399C342.208 99.7058 343.027 90.4464 343.856 81.182C344.01 79.4582 341.291 79.4582 341.137 81.182C340.298 90.8837 339.442 100.591 338.572 110.303C338.576 110.657 338.72 110.996 338.972 111.247C339.225 111.498 339.567 111.641 339.924 111.645H405.98C406.339 111.637 406.679 111.488 406.927 111.23C407.175 110.973 407.31 110.628 407.301 110.272C407.293 109.916 407.143 109.578 406.884 109.332C406.624 109.086 406.277 108.952 405.919 108.96V108.96Z" fill="#407BFF"/>
<path opacity="0.5" d="M405.919 108.96H341.399C342.208 99.7058 343.027 90.4464 343.856 81.182C344.01 79.4582 341.291 79.4582 341.137 81.182C340.298 90.8837 339.442 100.591 338.572 110.303C338.576 110.657 338.72 110.996 338.972 111.247C339.225 111.498 339.567 111.641 339.924 111.645H405.98C406.339 111.637 406.679 111.488 406.927 111.23C407.175 110.973 407.31 110.628 407.301 110.272C407.293 109.916 407.143 109.578 406.884 109.332C406.624 109.086 406.277 108.952 405.919 108.96V108.96Z" fill="white"/>
<path d="M233.665 102.416L228.887 106.794C230.339 108.351 232.104 109.587 234.067 110.423C236.031 111.259 238.15 111.675 240.286 111.645L240.824 105.543C239.476 105.551 238.142 105.276 236.909 104.737C235.675 104.199 234.57 103.408 233.665 102.416V102.416Z" fill="#407BFF"/>
<path opacity="0.5" d="M233.665 102.416L228.887 106.794C230.339 108.351 232.104 109.587 234.067 110.423C236.031 111.259 238.15 111.675 240.286 111.645L240.824 105.543C239.476 105.551 238.142 105.276 236.909 104.737C235.675 104.199 234.57 103.408 233.665 102.416V102.416Z" fill="black"/>
<path d="M252.176 95.0498C251.884 97.8753 250.56 100.497 248.454 102.419C246.348 104.341 243.607 105.432 240.747 105.484L240.209 111.586C244.76 111.505 249.123 109.772 252.474 106.714C255.826 103.656 257.933 99.4846 258.398 94.9888L252.176 95.0498Z" fill="#407BFF"/>
<path opacity="0.1" d="M252.176 95.0498C251.884 97.8753 250.56 100.497 248.454 102.419C246.348 104.341 243.607 105.432 240.747 105.484L240.209 111.586C244.76 111.505 249.123 109.772 252.474 106.714C255.826 103.656 257.933 99.4846 258.398 94.9888L252.176 95.0498Z" fill="black"/>
<path d="M233.665 102.417C232.766 101.424 232.085 100.256 231.667 98.9874C231.249 97.7186 231.103 96.3771 231.238 95.0488H225.093C224.875 97.1654 225.106 99.3038 225.77 101.327C226.434 103.35 227.517 105.212 228.949 106.795L233.665 102.417Z" fill="#407BFF"/>
<path d="M242.59 84.5534C243.936 84.5279 245.272 84.7878 246.509 85.3158C247.746 85.8438 248.855 86.6278 249.762 87.6154C250.669 88.6029 251.354 89.7714 251.77 91.0427C252.187 92.314 252.325 93.6588 252.176 94.9874H258.321C258.542 92.8858 258.313 90.7615 257.649 88.7541C256.984 86.7466 255.9 84.9014 254.466 83.3397C253.033 81.778 251.283 80.5351 249.332 79.6927C247.38 78.8503 245.271 78.4273 243.143 78.4517C238.59 78.5329 234.225 80.2681 230.873 83.3293C227.522 86.3904 225.416 90.5651 224.955 95.0637H231.099C231.372 92.2129 232.696 89.5628 234.817 87.6227C236.938 85.6827 239.707 84.5895 242.59 84.5534V84.5534Z" fill="#407BFF"/>
<path opacity="0.2" d="M242.59 84.5534C243.936 84.5279 245.272 84.7878 246.509 85.3158C247.746 85.8438 248.855 86.6278 249.762 87.6154C250.669 88.6029 251.354 89.7714 251.77 91.0427C252.187 92.314 252.325 93.6588 252.176 94.9874H258.321C258.542 92.8858 258.313 90.7615 257.649 88.7541C256.984 86.7466 255.9 84.9014 254.466 83.3397C253.033 81.778 251.283 80.5351 249.332 79.6927C247.38 78.8503 245.271 78.4273 243.143 78.4517C238.59 78.5329 234.225 80.2681 230.873 83.3293C227.522 86.3904 225.416 90.5651 224.955 95.0637H231.099C231.372 92.2129 232.696 89.5628 234.817 87.6227C236.938 85.6827 239.707 84.5895 242.59 84.5534V84.5534Z" fill="white"/>
<path opacity="0.6" d="M249.749 87.6047L254.527 83.242C253.08 81.6828 251.318 80.4437 249.357 79.6053C247.395 78.7669 245.278 78.348 243.143 78.3758L242.59 84.4776C243.938 84.4679 245.273 84.7416 246.507 85.2805C247.74 85.8195 248.845 86.6116 249.749 87.6047V87.6047Z" fill="white"/>
<path d="M280.166 102.416L275.388 106.794C276.84 108.35 278.605 109.586 280.569 110.422C282.532 111.257 284.651 111.674 286.787 111.645L287.34 105.543C285.99 105.552 284.653 105.278 283.417 104.739C282.181 104.2 281.073 103.409 280.166 102.416V102.416Z" fill="#407BFF"/>
<path opacity="0.5" d="M280.166 102.416L275.388 106.794C276.84 108.35 278.605 109.586 280.569 110.422C282.532 111.257 284.651 111.674 286.787 111.645L287.34 105.543C285.99 105.552 284.653 105.278 283.417 104.739C282.181 104.2 281.073 103.409 280.166 102.416V102.416Z" fill="black"/>
<path d="M298.754 95.0498C298.462 97.8727 297.14 100.492 295.037 102.414C292.935 104.336 290.197 105.428 287.34 105.484L286.787 111.586C291.337 111.505 295.701 109.772 299.052 106.714C302.403 103.656 304.51 99.4846 304.975 94.9888L298.754 95.0498Z" fill="#407BFF"/>
<path opacity="0.1" d="M298.754 95.0498C298.462 97.8727 297.14 100.492 295.037 102.414C292.935 104.336 290.197 105.428 287.34 105.484L286.787 111.586C291.337 111.505 295.701 109.772 299.052 106.714C302.403 103.656 304.51 99.4846 304.975 94.9888L298.754 95.0498Z" fill="black"/>
<path d="M280.166 102.417C279.269 101.423 278.59 100.254 278.172 98.9861C277.754 97.7177 277.607 96.3769 277.738 95.0488H271.594C271.376 97.1654 271.607 99.3038 272.271 101.327C272.935 103.35 274.017 105.212 275.45 106.795L280.166 102.417Z" fill="#407BFF"/>
<path d="M289.168 84.5534C290.514 84.5279 291.85 84.7878 293.087 85.3158C294.323 85.8438 295.432 86.6278 296.34 87.6154C297.247 88.6029 297.932 89.7714 298.348 91.0427C298.764 92.314 298.903 93.6588 298.754 94.9874H304.898C305.12 92.8858 304.891 90.7615 304.226 88.7541C303.562 86.7466 302.477 84.9014 301.044 83.3397C299.611 81.778 297.861 80.5351 295.909 79.6927C293.958 78.8503 291.849 78.4273 289.721 78.4517C285.168 78.5329 280.803 80.2681 277.451 83.3293C274.099 86.3904 271.994 90.5651 271.532 95.0637H277.677C277.95 92.2129 279.274 89.5628 281.395 87.6227C283.516 85.6827 286.284 84.5895 289.168 84.5534V84.5534Z" fill="#407BFF"/>
<path opacity="0.2" d="M289.168 84.5534C290.514 84.5279 291.85 84.7878 293.087 85.3158C294.323 85.8438 295.432 86.6278 296.34 87.6154C297.247 88.6029 297.932 89.7714 298.348 91.0427C298.764 92.314 298.903 93.6588 298.754 94.9874H304.898C305.12 92.8858 304.891 90.7615 304.226 88.7541C303.562 86.7466 302.477 84.9014 301.044 83.3397C299.611 81.778 297.861 80.5351 295.909 79.6927C293.958 78.8503 291.849 78.4273 289.721 78.4517C285.168 78.5329 280.803 80.2681 277.451 83.3293C274.099 86.3904 271.994 90.5651 271.532 95.0637H277.677C277.95 92.2129 279.274 89.5628 281.395 87.6227C283.516 85.6827 286.284 84.5895 289.168 84.5534V84.5534Z" fill="white"/>
<path opacity="0.6" d="M296.327 87.6047L301.104 83.242C299.657 81.6828 297.896 80.4437 295.934 79.6053C293.973 78.7669 291.856 78.348 289.721 78.3758L289.168 84.4776C290.516 84.4679 291.85 84.7416 293.084 85.2805C294.318 85.8195 295.423 86.6116 296.327 87.6047V87.6047Z" fill="white"/>
<path d="M350.155 164.331H341.398L342.151 155.636H350.923L350.155 164.331ZM343.457 162.44H348.404L348.849 157.528H343.903L343.457 162.44Z" fill="#407BFF"/>
<path d="M348.987 177.601H340.231L340.984 168.906H349.755L348.987 177.601ZM342.305 175.71H347.251L347.682 170.798H342.735L342.305 175.71Z" fill="#407BFF"/>
<path d="M347.82 190.8H339.063L339.832 182.12H348.588L347.82 190.8ZM341.199 188.924H346.145L346.576 183.996H341.629L341.199 188.924Z" fill="#407BFF"/>
<path d="M356.223 162.351C355.949 162.357 355.677 162.305 355.425 162.198C355.173 162.091 354.947 161.932 354.762 161.731C354.578 161.53 354.438 161.292 354.354 161.034C354.269 160.775 354.241 160.501 354.272 160.231C354.332 159.657 354.6 159.125 355.028 158.735C355.455 158.344 356.011 158.122 356.592 158.11H385.887C386.161 158.104 386.433 158.156 386.685 158.263C386.937 158.37 387.163 158.53 387.347 158.73C387.532 158.931 387.672 159.169 387.756 159.428C387.841 159.687 387.869 159.96 387.838 160.231C387.781 160.805 387.513 161.339 387.086 161.73C386.658 162.122 386.1 162.343 385.518 162.351H356.223Z" fill="#407BFF"/>
<path opacity="0.7" d="M356.223 162.351C355.949 162.357 355.677 162.305 355.425 162.198C355.173 162.091 354.947 161.932 354.762 161.731C354.578 161.53 354.438 161.292 354.354 161.034C354.269 160.775 354.241 160.501 354.272 160.231C354.332 159.657 354.6 159.125 355.028 158.735C355.455 158.344 356.011 158.122 356.592 158.11H385.887C386.161 158.104 386.433 158.156 386.685 158.263C386.937 158.37 387.163 158.53 387.347 158.73C387.532 158.931 387.672 159.169 387.756 159.428C387.841 159.687 387.869 159.96 387.838 160.231C387.781 160.805 387.513 161.339 387.086 161.73C386.658 162.122 386.1 162.343 385.518 162.351H356.223Z" fill="white"/>
<path d="M353.903 188.585C353.631 188.586 353.361 188.531 353.111 188.422C352.862 188.314 352.638 188.154 352.454 187.955C352.27 187.755 352.131 187.519 352.044 187.262C351.958 187.006 351.926 186.734 351.952 186.465C352.012 185.889 352.283 185.355 352.714 184.964C353.144 184.573 353.704 184.353 354.287 184.344H378.866C379.139 184.341 379.409 184.394 379.659 184.502C379.909 184.61 380.133 184.77 380.317 184.97C380.5 185.171 380.638 185.408 380.721 185.666C380.805 185.923 380.833 186.196 380.802 186.465C380.742 187.038 380.473 187.57 380.046 187.961C379.619 188.351 379.063 188.573 378.482 188.585H353.903Z" fill="#407BFF"/>
<path opacity="0.4" d="M353.903 188.585C353.631 188.586 353.361 188.531 353.111 188.422C352.862 188.314 352.638 188.154 352.454 187.955C352.27 187.755 352.131 187.519 352.044 187.262C351.958 187.006 351.926 186.734 351.952 186.465C352.012 185.889 352.283 185.355 352.714 184.964C353.144 184.573 353.704 184.353 354.287 184.344H378.866C379.139 184.341 379.409 184.394 379.659 184.502C379.909 184.61 380.133 184.77 380.317 184.97C380.5 185.171 380.638 185.408 380.721 185.666C380.805 185.923 380.833 186.196 380.802 186.465C380.742 187.038 380.473 187.57 380.046 187.961C379.619 188.351 379.063 188.573 378.482 188.585H353.903Z" fill="white"/>
<path d="M355.025 175.347C354.751 175.351 354.481 175.297 354.23 175.189C353.979 175.081 353.754 174.922 353.57 174.722C353.386 174.522 353.246 174.285 353.161 174.027C353.075 173.77 353.045 173.497 353.074 173.227C353.134 172.651 353.405 172.117 353.835 171.726C354.266 171.335 354.825 171.115 355.409 171.107H378.068C378.341 171.103 378.612 171.157 378.862 171.265C379.113 171.372 379.338 171.532 379.522 171.732C379.707 171.932 379.846 172.169 379.932 172.427C380.017 172.684 380.047 172.957 380.019 173.227C379.959 173.8 379.69 174.332 379.263 174.723C378.836 175.113 378.279 175.336 377.699 175.347H355.025Z" fill="#407BFF"/>
<path opacity="0.2" d="M355.025 175.347C354.751 175.351 354.481 175.297 354.23 175.189C353.979 175.081 353.754 174.922 353.57 174.722C353.386 174.522 353.246 174.285 353.161 174.027C353.075 173.77 353.045 173.497 353.074 173.227C353.134 172.651 353.405 172.117 353.835 171.726C354.266 171.335 354.825 171.115 355.409 171.107H378.068C378.341 171.103 378.612 171.157 378.862 171.265C379.113 171.372 379.338 171.532 379.522 171.732C379.707 171.932 379.846 172.169 379.932 172.427C380.017 172.684 380.047 172.957 380.019 173.227C379.959 173.8 379.69 174.332 379.263 174.723C378.836 175.113 378.279 175.336 377.699 175.347H355.025Z" fill="white"/>
<path d="M326.651 176.93C324.459 173.879 322.252 170.884 320.03 167.945C319.92 167.77 319.773 167.621 319.598 167.51C319.424 167.398 319.226 167.327 319.02 167.3C318.814 167.274 318.605 167.294 318.408 167.358C318.21 167.422 318.03 167.529 317.879 167.671L310.859 175.298C309.015 172.247 307.187 169.303 305.344 166.298C305.238 166.119 305.092 165.967 304.918 165.852C304.744 165.737 304.546 165.663 304.339 165.636C304.132 165.608 303.922 165.627 303.723 165.691C303.525 165.756 303.343 165.864 303.193 166.008C300.766 168.22 298.4 170.508 295.912 172.659C295.174 172.262 294.375 171.805 293.73 171.378L289.736 169.028C289.421 168.854 289.049 168.807 288.7 168.898C288.351 168.989 288.05 169.211 287.862 169.517L280.765 179.722C279.003 176.325 277.242 172.923 275.48 169.517C275.292 169.211 274.991 168.989 274.642 168.898C274.293 168.807 273.921 168.854 273.606 169.028L270.211 170.828C269.535 171.21 267.139 172.354 266.555 172.857C265.609 172.218 264.624 171.637 263.605 171.118L260.057 169.028C259.743 168.846 259.369 168.796 259.018 168.887C258.666 168.979 258.366 169.205 258.183 169.517C257.999 169.828 257.948 170.199 258.04 170.548C258.132 170.897 258.36 171.196 258.674 171.378C260.641 172.537 264.143 175.756 266.463 175.74C268.782 175.725 271.548 173.544 273.744 172.125L279.413 183.047C279.536 183.249 279.71 183.416 279.917 183.532C280.124 183.648 280.358 183.709 280.596 183.709C280.834 183.709 281.067 183.648 281.275 183.532C281.482 183.416 281.655 183.249 281.779 183.047L289.46 172.018L295.42 175.512C295.683 175.658 295.986 175.717 296.285 175.678C296.584 175.64 296.863 175.506 297.079 175.298L303.869 169.105L309.476 178.257C309.584 178.435 309.73 178.586 309.905 178.699C310.08 178.812 310.278 178.885 310.485 178.911C310.692 178.938 310.902 178.917 311.1 178.852C311.297 178.786 311.478 178.677 311.627 178.532L318.755 170.722L324.301 178.257C325.33 179.691 327.696 178.334 326.651 176.93Z" fill="#407BFF"/>
<path d="M324.439 188.081H259.166C259.995 178.715 260.82 169.349 261.639 159.982C261.793 158.243 259.058 158.243 258.905 159.982L256.309 189.439C256.313 189.797 256.458 190.14 256.713 190.394C256.969 190.648 257.314 190.792 257.676 190.796H324.439C324.801 190.796 325.149 190.653 325.406 190.399C325.662 190.144 325.806 189.799 325.806 189.439C325.806 189.079 325.662 188.733 325.406 188.479C325.149 188.224 324.801 188.081 324.439 188.081Z" fill="#407BFF"/>
<path opacity="0.5" d="M324.439 188.081H259.166C259.995 178.715 260.82 169.349 261.639 159.982C261.793 158.243 259.058 158.243 258.905 159.982L256.309 189.439C256.313 189.797 256.458 190.14 256.713 190.394C256.969 190.648 257.314 190.792 257.676 190.796H324.439C324.801 190.796 325.149 190.653 325.406 190.399C325.662 190.144 325.806 189.799 325.806 189.439C325.806 189.079 325.662 188.733 325.406 188.479C325.149 188.224 324.801 188.081 324.439 188.081Z" fill="white"/>
<path d="M395.503 148.148H279.014L281.61 118.63H398.1L395.503 148.148Z" fill="#407BFF"/>
<path opacity="0.9" d="M395.503 148.148H279.014L281.61 118.63H398.1L395.503 148.148Z" fill="white"/>
<path d="M397.562 150.39H276.556L279.628 116.388H400.634L397.562 150.39ZM281.471 145.905H393.43L395.642 120.888H283.684L281.471 145.905Z" fill="#263238"/>
<path d="M305.329 137.344L305.114 139.693H295.297L296.403 127.093H305.989L305.789 129.427H299.122L298.877 132.172H304.76L304.561 134.43H298.677L298.416 137.344H305.329Z" fill="#407BFF"/>
<path d="M315.314 139.693L312.641 135.315L309.246 139.693H305.866L311.12 133.286L307.203 127.093H310.536L313.102 131.181L316.312 127.093H319.492L314.53 133.195L318.693 139.708L315.314 139.693Z" fill="#407BFF"/>
<path d="M323.241 129.472H319.185L319.4 127.093H330.445L330.246 129.472H326.19L325.284 139.693H322.35L323.241 129.472Z" fill="#407BFF"/>
<path d="M339.002 139.695L336.867 136.187H334.163L333.856 139.695H330.922L332.028 127.095H337.512C338.503 127.069 339.489 127.256 340.4 127.644C341.132 127.961 341.749 128.494 342.167 129.17C342.564 129.919 342.724 130.769 342.628 131.61C342.562 132.48 342.253 133.315 341.737 134.021C341.197 134.706 340.48 135.233 339.663 135.546L342.151 139.604L339.002 139.695ZM339.11 130.039C338.546 129.619 337.846 129.418 337.143 129.475H334.747L334.363 133.853H336.759C337.49 133.899 338.214 133.7 338.818 133.288C339.062 133.091 339.262 132.845 339.405 132.567C339.547 132.289 339.63 131.984 339.647 131.671C339.695 131.377 339.671 131.075 339.578 130.791C339.484 130.507 339.324 130.249 339.11 130.039V130.039Z" fill="#407BFF"/>
<path d="M352.828 136.993H346.944L345.577 139.693H342.505L349.264 127.093H352.167L356.776 139.693H353.703L352.828 136.993ZM352.09 134.766L350.554 129.945L348.127 134.766H352.09Z" fill="#407BFF"/>
<path d="M360.555 139.071C359.585 138.54 358.798 137.732 358.297 136.752C357.767 135.717 357.559 134.549 357.697 133.396C357.791 132.194 358.199 131.037 358.88 130.04C359.56 129.056 360.48 128.258 361.553 127.721C362.665 127.156 363.899 126.868 365.148 126.882C366.155 126.862 367.156 127.054 368.082 127.447C368.907 127.821 369.624 128.392 370.171 129.11L368.128 130.833C367.779 130.35 367.317 129.959 366.782 129.694C366.247 129.428 365.654 129.295 365.056 129.308C364.313 129.299 363.58 129.472 362.921 129.811C362.287 130.142 361.756 130.638 361.384 131.245C360.975 131.871 360.732 132.59 360.678 133.335C360.596 134.049 360.713 134.772 361.016 135.425C361.292 136.021 361.748 136.517 362.321 136.843C362.946 137.202 363.659 137.382 364.38 137.362C365.011 137.358 365.633 137.22 366.206 136.957C366.778 136.694 367.287 136.312 367.698 135.837L369.434 137.56C368.772 138.291 367.953 138.864 367.038 139.238C366.063 139.635 365.018 139.832 363.965 139.818C362.783 139.861 361.609 139.604 360.555 139.071V139.071Z" fill="#407BFF"/>
<path d="M374.611 129.472H370.555L370.771 127.093H381.816L381.616 129.472H377.545L376.654 139.693H373.72L374.611 129.472Z" fill="#407BFF"/>
<path d="M478.52 263.533H162.631V438.912H478.52V263.533Z" fill="#407BFF"/>
<path d="M139.312 438.911H168.776L168.776 263.532H139.312L139.312 438.911Z" fill="#407BFF"/>
<path opacity="0.3" d="M139.312 438.911H168.776L168.776 263.532H139.312L139.312 438.911Z" fill="white"/>
<path d="M456.583 263.533H133.121V279.046H456.583V263.533Z" fill="#407BFF"/>
<path opacity="0.6" d="M456.583 263.533H133.121V279.046H456.583V263.533Z" fill="white"/>
<path d="M139.312 263.533H126.945V438.912H139.312V263.533Z" fill="#407BFF"/>
<path opacity="0.5" d="M139.312 263.533H126.945V438.912H139.312V263.533Z" fill="white"/>
<path d="M465.216 438.911H494.68V263.532H465.216V438.911Z" fill="#407BFF"/>
<path opacity="0.3" d="M465.216 438.911H494.68V263.532H465.216V438.911Z" fill="white"/>
<path d="M475.386 266.878H502.1V253.408H475.386V266.878Z" fill="#407BFF"/>
<path opacity="0.3" d="M475.386 266.878H502.1V253.408H475.386V266.878Z" fill="white"/>
<path d="M444.416 287.421H310.967V438.912H444.416V287.421Z" fill="#407BFF"/>
<path opacity="0.5" d="M444.416 287.421H310.967V438.912H444.416V287.421Z" fill="white"/>
<path d="M452.85 287.421H444.416V438.912H452.85V287.421Z" fill="#407BFF"/>
<path opacity="0.2" d="M452.85 287.421H444.416V438.912H452.85V287.421Z" fill="white"/>
<path d="M435.982 337.179H319.4V372.218H435.982V337.179Z" fill="#407BFF"/>
<path d="M435.982 295.674H319.4V330.713H435.982V295.674Z" fill="#407BFF"/>
<path d="M435.982 378.69H319.4V413.73H435.982V378.69Z" fill="#407BFF"/>
<g opacity="0.7">
<path opacity="0.7" d="M435.982 337.178H319.4V372.217H435.982V337.178Z" fill="white"/>
<path opacity="0.7" d="M435.982 295.674H319.4V330.713H435.982V295.674Z" fill="white"/>
<path opacity="0.7" d="M435.982 378.688H319.4V413.727H435.982V378.688Z" fill="white"/>
</g>
<path d="M465.216 263.533H452.85V438.912H465.216V263.533Z" fill="#407BFF"/>
<path opacity="0.1" d="M478.52 263.533H162.631V438.912H478.52V263.533Z" fill="white"/>
<path opacity="0.5" d="M465.216 263.533H452.85V438.912H465.216V263.533Z" fill="white"/>
<path d="M475.37 253.421H116.776V266.89H475.37V253.421Z" fill="#407BFF"/>
<path opacity="0.6" d="M475.37 253.421H116.776V266.89H475.37V253.421Z" fill="white"/>
<path d="M378.068 309.389H374.027C373.009 309.389 372.032 309.791 371.312 310.506C370.592 311.221 370.187 312.191 370.187 313.203C370.187 314.214 370.592 315.184 371.312 315.899C372.032 316.615 373.009 317.016 374.027 317.016H378.068C379.086 317.016 380.063 316.615 380.783 315.899C381.504 315.184 381.908 314.214 381.908 313.203C381.908 312.191 381.504 311.221 380.783 310.506C380.063 309.791 379.086 309.389 378.068 309.389Z" fill="#407BFF"/>
<path d="M378.068 350.896H374.027C373.009 350.896 372.032 351.297 371.312 352.012C370.592 352.728 370.187 353.698 370.187 354.709C370.187 355.721 370.592 356.691 371.312 357.406C372.032 358.121 373.009 358.523 374.027 358.523H378.068C379.086 358.523 380.063 358.121 380.783 357.406C381.504 356.691 381.908 355.721 381.908 354.709C381.908 353.698 381.504 352.728 380.783 352.012C380.063 351.297 379.086 350.896 378.068 350.896Z" fill="#407BFF"/>
<path d="M378.068 392.403H374.027C373.009 392.403 372.032 392.805 371.312 393.52C370.592 394.235 370.187 395.205 370.187 396.216C370.187 397.228 370.592 398.198 371.312 398.913C372.032 399.628 373.009 400.03 374.027 400.03H378.068C379.086 400.03 380.063 399.628 380.783 398.913C381.504 398.198 381.908 397.228 381.908 396.216C381.908 395.205 381.504 394.235 380.783 393.52C380.063 392.805 379.086 392.403 378.068 392.403Z" fill="#407BFF"/>
<path opacity="0.3" d="M377.822 313.203C377.822 313.957 377.597 314.694 377.175 315.321C376.753 315.949 376.153 316.437 375.451 316.726C374.749 317.015 373.977 317.09 373.232 316.943C372.487 316.796 371.803 316.433 371.266 315.899C370.729 315.366 370.363 314.686 370.215 313.947C370.066 313.207 370.142 312.44 370.433 311.743C370.724 311.046 371.216 310.451 371.848 310.032C372.479 309.613 373.222 309.389 373.981 309.389C375 309.389 375.977 309.791 376.697 310.506C377.417 311.221 377.822 312.191 377.822 313.203Z" fill="#FAFAFA"/>
<path opacity="0.3" d="M377.822 354.709C377.822 355.463 377.597 356.201 377.175 356.828C376.753 357.455 376.153 357.944 375.451 358.232C374.749 358.521 373.977 358.597 373.232 358.449C372.487 358.302 371.803 357.939 371.266 357.406C370.729 356.872 370.363 356.193 370.215 355.453C370.066 354.713 370.142 353.947 370.433 353.25C370.724 352.553 371.216 351.957 371.848 351.538C372.479 351.119 373.222 350.896 373.981 350.896C375 350.896 375.977 351.297 376.697 352.012C377.417 352.728 377.822 353.698 377.822 354.709Z" fill="#FAFAFA"/>
<path opacity="0.3" d="M377.822 396.216C377.822 396.971 377.597 397.708 377.175 398.335C376.753 398.962 376.153 399.451 375.451 399.74C374.749 400.028 373.977 400.104 373.232 399.957C372.487 399.81 371.803 399.446 371.266 398.913C370.729 398.38 370.363 397.7 370.215 396.96C370.066 396.221 370.142 395.454 370.433 394.757C370.724 394.06 371.216 393.465 371.848 393.046C372.479 392.626 373.222 392.403 373.981 392.403C375 392.403 375.977 392.805 376.697 393.52C377.417 394.235 377.822 395.205 377.822 396.216Z" fill="#FAFAFA"/>
<path d="M243.405 99.9731C241.208 103.024 246.047 112.863 246.047 112.863L224.248 115.472L228.519 91.873C228.519 91.873 245.955 96.3426 243.405 99.9731Z" fill="#CE7A63"/>
<path opacity="0.2" d="M243.067 104.387C242.624 102.921 242.744 101.345 243.405 99.963C244.941 97.7053 238.796 95.1273 233.988 93.4951C235.201 95.8138 238.412 101.61 243.067 104.387Z" fill="black"/>
<path d="M295.927 422.424L298.247 444.436L288.016 446.343L281.871 425.094L295.927 422.424Z" fill="#CE7A63"/>
<path d="M298.032 440.665L286.003 443.029C285.782 443.074 285.583 443.192 285.438 443.364C285.293 443.536 285.21 443.751 285.205 443.975L284.989 454.119C284.977 454.542 285.13 454.954 285.416 455.267C285.703 455.58 286.101 455.77 286.526 455.797C286.638 455.812 286.752 455.812 286.864 455.797C291.196 454.867 295.005 453.86 300.398 452.746C306.773 451.48 305.298 452.563 312.81 451.221C317.342 450.382 317.142 445.119 315.176 445.257C306.204 445.913 304.76 443.457 300.751 441.016C299.913 440.589 298.952 440.465 298.032 440.665Z" fill="#263238"/>
<path opacity="0.2" d="M285.927 439.128L297.525 437.618L295.927 422.424L281.871 425.094L285.927 439.128Z" fill="black"/>
<path d="M207.442 417.951L200.468 445.257L190.652 443.884L193.263 417.173L207.442 417.951Z" fill="#CE7A63"/>
<path d="M201.774 441.83L189.484 440.975C189.26 440.962 189.039 441.024 188.855 441.152C188.671 441.279 188.535 441.464 188.47 441.677L185.552 451.394C185.426 451.809 185.471 452.256 185.675 452.638C185.879 453.021 186.226 453.308 186.642 453.438H186.996C191.404 453.667 195.352 453.713 200.821 454.094C207.304 454.552 205.599 455.208 213.218 455.848C217.827 456.23 219.01 451.104 217.074 450.723C208.257 448.984 207.519 446.238 204.309 442.836C203.609 442.216 202.712 441.859 201.774 441.83V441.83Z" fill="#263238"/>
<path opacity="0.2" d="M191.251 437.68L202.004 439.312L207.135 419.192C202.434 418.688 194.723 417.925 193.217 417.773L191.251 437.68Z" fill="black"/>
<path d="M218.057 208.927C218.057 208.927 214.678 218.69 214.186 242.487C213.879 256.673 212.481 279.097 211.406 294.946C211.098 299.523 210.807 303.611 210.576 306.707C210.288 310.642 209.365 314.505 207.842 318.148C206.797 320.68 205.491 324.158 204.139 328.475C201.441 337.245 199.499 346.227 198.333 355.323C194.753 381.927 190.652 433.486 190.652 433.486L203.909 435.195L236.569 315.036L271.363 208.835L218.057 208.927Z" fill="#263238"/>
<path opacity="0.2" d="M252.699 266.217L251.301 255.752L239.902 246.249L236.077 244.373C241.816 260.843 244.08 278.311 242.729 295.688L252.699 266.217Z" fill="black"/>
<path d="M281.702 209.415L297.663 432.586L284.145 434.874C284.145 434.874 266.079 373.109 263.022 338.97C262.66 335.351 262.526 331.714 262.622 328.078C262.761 323.434 262.143 318.798 260.794 314.349L258.89 307.988L248.244 272.186C246.084 264.699 242.507 257.69 237.705 251.532C232.16 244.591 225.308 231.137 228.15 208.82L278.215 205.327L281.702 209.415Z" fill="#263238"/>
<path d="M231.714 195.321C231.714 195.321 239.472 193.796 242.083 193.994C244.927 194.654 247.708 195.557 250.394 196.694C250.988 196.885 251.52 197.227 251.939 197.686C252.357 198.145 252.647 198.705 252.779 199.311C252.911 199.916 252.881 200.545 252.692 201.135C252.503 201.725 252.161 202.256 251.7 202.674C251.7 202.674 247.445 208.104 245.309 208.562C241.054 209.446 228.857 202.963 228.857 202.963L231.714 195.321Z" fill="#CE7A63"/>
<path d="M231.33 191.622L227.029 205.427L231.161 205.778L234.955 193.711L231.33 191.622Z" fill="#263238"/>
<path opacity="0.2" d="M231.33 191.622L227.029 205.427L231.161 205.778L234.955 193.711L231.33 191.622Z" fill="white"/>
<path d="M205.799 125.85C205.325 125.235 204.699 124.753 203.981 124.451C203.264 124.148 202.479 124.036 201.705 124.125C200.931 124.215 200.193 124.502 199.564 124.959C198.935 125.417 198.437 126.028 198.118 126.734C193.279 137.016 181.066 164.275 181.02 177.516C181.02 194.006 229.794 203.769 229.794 203.769L232.743 194.296L199.193 173.794L208.856 151.172C208.856 151.172 211.252 133.278 205.799 125.85Z" fill="#407BFF"/>
<path opacity="0.1" d="M205.799 125.85C205.325 125.235 204.699 124.753 203.981 124.451C203.264 124.148 202.479 124.036 201.705 124.125C200.931 124.215 200.193 124.502 199.564 124.959C198.935 125.417 198.437 126.028 198.118 126.734C193.279 137.016 181.066 164.275 181.02 177.516C181.02 194.006 229.794 203.769 229.794 203.769L232.743 194.296L199.193 173.794L208.856 151.172C208.856 151.172 211.252 133.278 205.799 125.85Z" fill="black"/>
<g opacity="0.4">
<path opacity="0.4" d="M206.797 127.493L201.528 128.21L198.455 130.361L202.065 166.971L208.809 151.198C208.809 151.198 210.945 135.608 206.797 127.493Z" fill="black"/>
<path opacity="0.4" d="M216.967 184.634L203.018 176.077L205.046 196.64C207.965 197.723 210.883 198.684 213.649 199.538L216.967 184.634Z" fill="black"/>
</g>
<path d="M280.949 209.29C280.949 209.29 256.908 217.1 217.535 210.815L198.655 131.843C198.023 128.937 198.358 125.904 199.61 123.203C200.862 120.501 202.964 118.277 205.599 116.864C213.695 112.409 229.733 108.23 261.363 109.953C265.164 110.165 268.794 111.59 271.712 114.018C274.63 116.445 276.679 119.744 277.554 123.423L280.949 209.29Z" fill="#407BFF"/>
<path d="M217.812 113.215L220.208 107.617C220.208 107.617 229.686 102.857 245.755 105.1L249.58 109.493C249.58 109.493 231.591 109.92 217.812 113.215Z" fill="#263238"/>
<path d="M254.803 72.198C255.018 73.0827 254.711 73.9217 254.112 74.0438C253.513 74.1658 252.806 73.5404 252.576 72.6709C252.345 71.8014 252.576 70.9471 253.252 70.8251C253.928 70.7031 254.573 71.3132 254.803 72.198Z" fill="#263238"/>
<path d="M253.989 74.8853L260.134 80.8497C259.405 81.5457 258.523 82.0647 257.559 82.3664C256.594 82.6681 255.572 82.7442 254.573 82.5887L253.989 74.8853Z" fill="#BA4D3C"/>
<path d="M218.964 76.181C221.314 88.1252 222.036 93.2507 229.118 98.6965C239.533 103.868 254.419 101.595 255.786 89.2082C257.031 78.0726 252.991 60.4385 240.179 56.9911C235.854 55.784 231.225 56.3218 227.298 58.4873C223.371 60.6527 220.464 64.2707 219.21 68.5539C218.514 71.0401 218.43 73.6557 218.964 76.181V76.181Z" fill="#CE7A63"/>
<path d="M250.271 69.389C250.353 69.3904 250.434 69.3716 250.506 69.3343C250.578 69.297 250.64 69.2425 250.686 69.1755C251.011 68.6708 251.452 68.25 251.973 67.9477C252.494 67.6453 253.079 67.4701 253.682 67.4365C253.745 67.4407 253.808 67.4319 253.868 67.4108C253.927 67.3897 253.982 67.3566 254.028 67.3137C254.074 67.2708 254.111 67.2189 254.136 67.1613C254.161 67.1037 254.174 67.0416 254.173 66.9788C254.173 66.8494 254.122 66.7252 254.029 66.6337C253.937 66.5421 253.812 66.4907 253.682 66.4907C252.916 66.5029 252.165 66.7045 251.497 67.0774C250.829 67.4503 250.265 67.9827 249.857 68.6263C249.79 68.7349 249.767 68.8644 249.793 68.9889C249.819 69.1134 249.891 69.2236 249.995 69.2975V69.2975C250.079 69.3481 250.174 69.3794 250.271 69.389V69.389Z" fill="#263238"/>
<path opacity="0.4" d="M280.166 170.36L278.553 141.376L268.137 127.647L262.438 122.4L258.045 125.451C258.045 125.451 258.644 141.498 280.166 170.36Z" fill="black"/>
<path d="M283.546 129.236C289.322 139.761 291.549 146.016 293.531 148.594C293.657 148.766 293.828 148.901 294.025 148.985C294.223 149.068 294.44 149.096 294.652 149.067L328.372 144.2C328.653 144.158 328.94 144.215 329.182 144.364C329.424 144.512 329.605 144.74 329.693 145.009L332.412 153.292C332.465 153.442 332.487 153.601 332.476 153.76C332.466 153.919 332.424 154.074 332.352 154.216C332.281 154.358 332.181 154.484 332.059 154.588C331.938 154.691 331.796 154.769 331.644 154.817L300.029 165.495C297.224 166.584 294.172 166.887 291.205 166.371C288.239 165.854 285.472 164.538 283.208 162.567C274.225 154.741 266.913 145.207 261.701 134.529C259.274 129.77 253.636 120.953 262.899 113.173C270.534 106.72 279.751 122.249 283.546 129.236Z" fill="#407BFF"/>
<path opacity="0.1" d="M283.546 129.236C289.322 139.761 291.549 146.016 293.531 148.594C293.657 148.766 293.828 148.901 294.025 148.985C294.223 149.068 294.44 149.096 294.652 149.067L328.372 144.2C328.653 144.158 328.94 144.215 329.182 144.364C329.424 144.512 329.605 144.74 329.693 145.009L332.412 153.292C332.465 153.442 332.487 153.601 332.476 153.76C332.466 153.919 332.424 154.074 332.352 154.216C332.281 154.358 332.181 154.484 332.059 154.588C331.938 154.691 331.796 154.769 331.644 154.817L300.029 165.495C297.224 166.584 294.172 166.887 291.205 166.371C288.239 165.854 285.472 164.538 283.208 162.567C274.225 154.741 266.913 145.207 261.701 134.529C259.274 129.77 253.636 120.953 262.899 113.173C270.534 106.72 279.751 122.249 283.546 129.236Z" fill="white"/>
<path d="M329.355 144.99L336.298 136.875C337.051 135.991 338.051 135.348 339.171 135.029L355.532 130.3C355.8 130.228 356.085 130.249 356.339 130.36C356.594 130.471 356.802 130.665 356.93 130.91V130.91C357.006 131.057 357.05 131.218 357.06 131.383C357.071 131.548 357.046 131.714 356.988 131.869C356.93 132.024 356.841 132.165 356.725 132.284C356.609 132.402 356.469 132.496 356.315 132.558L349.556 135.304C349.321 135.398 349.122 135.564 348.99 135.778C348.857 135.992 348.797 136.243 348.818 136.494L349.156 140.551C349.255 141.766 348.975 142.981 348.353 144.031C347.732 145.082 346.801 145.918 345.685 146.424L340.769 148.651L340.2 148.865L331.751 151.687C331.594 151.74 331.427 151.76 331.262 151.745C331.097 151.73 330.936 151.681 330.791 151.6C330.646 151.52 330.52 151.41 330.421 151.277C330.322 151.145 330.252 150.994 330.215 150.833L329.094 146.028C329.054 145.846 329.057 145.658 329.102 145.479C329.147 145.299 329.234 145.132 329.355 144.99Z" fill="#CE7A63"/>
<path d="M327.373 144.151L331.536 154.585C331.598 154.737 331.69 154.876 331.808 154.991C331.925 155.107 332.065 155.197 332.219 155.257C332.373 155.317 332.538 155.346 332.703 155.34C332.868 155.335 333.03 155.296 333.18 155.226L334.563 154.554C334.837 154.422 335.051 154.19 335.159 153.907C335.268 153.623 335.263 153.309 335.146 153.029L331.183 143.022C331.08 142.771 330.895 142.562 330.659 142.426C330.423 142.291 330.148 142.238 329.877 142.275L328.341 142.519C328.158 142.54 327.982 142.604 327.827 142.704C327.673 142.804 327.543 142.939 327.45 143.097C327.356 143.255 327.3 143.432 327.287 143.615C327.274 143.798 327.303 143.981 327.373 144.151V144.151Z" fill="#263238"/>
<path d="M281.502 431.699L283.592 437.206L299.522 434.765L299.076 428.907L281.502 431.699Z" fill="#407BFF"/>
<path opacity="0.2" d="M281.502 431.699L283.592 437.206L299.522 434.765L299.076 428.907L281.502 431.699Z" fill="black"/>
<path d="M189.131 429.473L188.885 435.269L204.861 437.39L206.106 431.639L189.131 429.473Z" fill="#407BFF"/>
<path opacity="0.2" d="M189.131 429.473L188.885 435.269L204.861 437.39L206.106 431.639L189.131 429.473Z" fill="black"/>
<path d="M227.198 99.0615C227.198 99.0615 228.98 96.5446 234.356 99.4582C234.356 99.4582 242.037 90.9615 242.222 83.014C242.222 83.014 247.86 81.9919 247.399 78.3614C246.938 74.7309 244.234 70.0173 244.803 66.7376C245.371 63.4579 250.855 54.8545 246.201 51.0256C241.546 47.1968 240.993 51.7578 238.351 52.246C235.708 52.7341 219.793 53.3138 217.75 64.4494C215.445 67.0367 214.086 70.3206 213.894 73.77C213.701 77.2193 214.687 80.6322 216.69 83.4563C223.649 94.2259 227.198 99.0615 227.198 99.0615Z" fill="#263238"/>
<path d="M242.467 75.5534L256.416 67.9263C256.416 67.9263 259.919 76.9873 258.229 77.445C256.539 77.9026 254.342 70.7788 254.342 70.7788L244.418 75.4009L242.467 75.5534Z" fill="#407BFF"/>
<path opacity="0.7" d="M254.696 70.9628L255.756 70.3374C255.756 70.3374 258.628 76.7442 257.845 77.3086C257.061 77.8731 254.696 70.9628 254.696 70.9628Z" fill="white"/>
<path d="M244.419 75.8291C245.462 76.5175 246.358 77.4044 247.054 78.4387C247.75 79.4729 248.233 80.6339 248.474 81.8546C249.089 85.0885 246.016 86.4309 243.021 85.2715C240.317 84.2343 236.753 81.2902 237.506 78.1478C237.691 77.4545 238.047 76.8177 238.541 76.294C239.035 75.7703 239.651 75.3762 240.336 75.1466C241.02 74.917 241.751 74.8592 242.463 74.9783C243.176 75.0974 243.848 75.3897 244.419 75.8291V75.8291Z" fill="#CE7A63"/>
</svg>
