<svg width="563" height="486" viewBox="0 0 563 486" fill="none" xmlns="http://www.w3.org/2000/svg">
<path d="M321.97 17.1167H286.315V25.3198H321.97V17.1167Z" fill="#407BFF"/>
<path d="M309.742 28.9684H286.315V37.1714H309.742V28.9684Z" fill="#407BFF"/>
<path d="M299.804 40.8202H286.315V49.0233H299.804V40.8202Z" fill="#407BFF"/>
<g opacity="0.2">
<path opacity="0.2" d="M321.97 17.1167H286.315V25.3198H321.97V17.1167Z" fill="black"/>
<path opacity="0.2" d="M309.742 28.9684H286.315V37.1714H309.742V28.9684Z" fill="black"/>
<path opacity="0.2" d="M299.804 40.8201H286.315V49.0231H299.804V40.8201Z" fill="black"/>
</g>
<path d="M224.4 107.954V132.652H236.492V107.954H224.4Z" fill="#407BFF"/>
<path d="M241.87 116.434V132.652H253.961V116.434H241.87Z" fill="#407BFF"/>
<path d="M259.325 123.304V132.639H271.416V123.304H259.325Z" fill="#407BFF"/>
<g opacity="0.2">
<path opacity="0.2" d="M224.4 107.954V132.652H236.492V107.954H224.4Z" fill="black"/>
<path opacity="0.2" d="M241.87 116.434V132.652H253.961V116.434H241.87Z" fill="black"/>
<path opacity="0.2" d="M259.324 123.304V132.639H271.416V123.304H259.324Z" fill="black"/>
</g>
<path d="M221.692 150.668H368.105C370.022 150.672 371.921 150.297 373.694 149.566C375.466 148.836 377.077 147.763 378.434 146.41C379.791 145.057 380.867 143.449 381.602 141.68C382.337 139.911 382.715 138.014 382.715 136.099V15.5693C382.715 13.6539 382.337 11.7573 381.602 9.98804C380.867 8.21877 379.791 6.61155 378.434 5.25834C377.077 3.90513 375.466 2.8325 373.694 2.1018C371.921 1.37111 370.022 0.996714 368.105 1.00002H221.692C219.775 0.998369 217.876 1.37391 216.104 2.10518C214.333 2.83646 212.723 3.90916 211.366 5.26204C210.009 6.61492 208.933 8.22149 208.198 9.99C207.463 11.7585 207.083 13.6544 207.082 15.5693V136.099C207.083 138.014 207.463 139.91 208.198 141.678C208.933 143.447 210.009 145.053 211.366 146.406C212.723 147.759 214.333 148.832 216.104 149.563C217.876 150.294 219.775 150.67 221.692 150.668V150.668Z" stroke="#263238" stroke-width="1.0631" stroke-miterlimit="10"/>
<path d="M314.011 109.288H366.216" stroke="#263238" stroke-width="1.0631" stroke-miterlimit="10"/>
<path d="M314.011 114.862H366.216" stroke="#263238" stroke-width="1.0631" stroke-miterlimit="10"/>
<path d="M314.011 120.435H366.216" stroke="#263238" stroke-width="1.0631" stroke-miterlimit="10"/>
<path d="M314.011 126.021H366.216" stroke="#263238" stroke-width="1.0631" stroke-miterlimit="10"/>
<path d="M314.011 131.595H366.216" stroke="#263238" stroke-width="1.0631" stroke-miterlimit="10"/>
<path d="M222.801 18.3372H275.006" stroke="#263238" stroke-width="1.0631" stroke-miterlimit="10"/>
<path d="M222.801 23.9108H275.006" stroke="#263238" stroke-width="1.0631" stroke-miterlimit="10"/>
<path d="M222.801 29.4843H275.006" stroke="#263238" stroke-width="1.0631" stroke-miterlimit="10"/>
<path d="M222.801 35.0579H275.006" stroke="#263238" stroke-width="1.0631" stroke-miterlimit="10"/>
<path d="M222.801 40.644H275.006" stroke="#263238" stroke-width="1.0631" stroke-miterlimit="10"/>
<path d="M359.68 62.1708L369.629 67.392L368.509 39.3607L344.73 54.3452L354.68 59.5538L347.198 73.7834C345.875 73.7887 344.591 74.231 343.546 75.0415L330.372 68.927C330.372 67.3186 329.732 65.7762 328.594 64.6389C327.455 63.5017 325.911 62.8628 324.301 62.8628C322.691 62.8628 321.147 63.5017 320.009 64.6389C318.87 65.7762 318.231 67.3186 318.231 68.927C318.23 69.796 318.419 70.6547 318.785 71.4433L301.517 90.1392C300.968 89.9628 300.395 89.8695 299.817 89.8624C299.526 89.8724 299.236 89.9018 298.948 89.9505L274.124 58.6102C274.481 57.8198 274.661 56.9611 274.653 56.094C274.653 54.4856 274.013 52.9432 272.875 51.8059C271.736 50.6686 270.192 50.0297 268.582 50.0297C266.972 50.0297 265.428 50.6686 264.29 51.8059C263.151 52.9432 262.512 54.4856 262.512 56.094C262.525 56.7185 262.631 57.3376 262.827 57.9308L234.476 86.7674C233.81 86.5239 233.107 86.3963 232.398 86.39C231.2 86.3924 230.03 86.7495 229.036 87.416C228.041 88.0824 227.266 89.0284 226.81 90.1344C226.353 91.2404 226.235 92.4568 226.47 93.6299C226.705 94.803 227.283 95.8801 228.131 96.7252C228.979 97.5703 230.058 98.1454 231.233 98.3779C232.408 98.6103 233.625 98.4898 234.732 98.0314C235.838 97.573 236.783 96.7973 237.448 95.8024C238.113 94.8075 238.468 93.638 238.468 92.4416C238.466 91.9401 238.398 91.441 238.267 90.957L266.857 61.7933C267.416 61.9688 267.997 62.062 268.582 62.0701C268.954 62.0693 269.325 62.0356 269.691 61.9695L294.389 93.2468C293.942 94.1394 293.723 95.1283 293.75 96.1258C293.778 97.1233 294.051 98.0986 294.547 98.9653C295.042 99.8319 295.743 100.563 296.589 101.094C297.435 101.625 298.399 101.939 299.396 102.008C300.392 102.078 301.391 101.901 302.302 101.492C303.214 101.084 304.01 100.457 304.621 99.6679C305.232 98.8785 305.639 97.9506 305.805 96.9665C305.971 95.9825 305.891 94.9728 305.573 94.0268L323.281 74.8654C323.618 74.9251 323.959 74.9587 324.301 74.966C325.504 74.9676 326.68 74.6081 327.677 73.9344L341.153 80.2251C341.205 81.1584 341.472 82.0672 341.934 82.88C342.397 83.6928 343.041 84.3875 343.817 84.9098C344.593 85.432 345.48 85.7675 346.408 85.89C347.336 86.0125 348.279 85.9187 349.164 85.6158C350.05 85.3129 350.853 84.8093 351.511 84.1444C352.168 83.4795 352.663 82.6714 352.956 81.7835C353.248 80.8955 353.331 79.952 353.198 79.0267C353.064 78.1015 352.718 77.2197 352.186 76.4506L359.68 62.1708Z" fill="#263238"/>
<path d="M173.619 89.7114L156.591 63.1269L128.455 83.7982L102.51 32.5038L34.045 75.9851V111.112H188.431V81.5838L173.619 89.7114Z" fill="#263238" stroke="#263238" stroke-width="1.16063" stroke-linecap="round" stroke-linejoin="round"/>
<path d="M176.579 109.64L158.077 81.5838L126.981 94.14L90.6959 59.4406L34.045 82.2883V133.268H188.431V101.513L176.579 109.64Z" fill="#407BFF" stroke="#263238" stroke-width="0.876601" stroke-miterlimit="10"/>
<path opacity="0.2" d="M176.579 109.64L158.077 81.5838L126.981 94.14L90.6959 59.4406L34.045 82.2883V133.268H188.431V101.513L176.579 109.64Z" fill="black"/>
<path d="M176.579 109.64L158.077 81.5838L126.981 94.14L90.6959 59.4406L34.045 82.2883V133.268H188.431V101.513L176.579 109.64Z" stroke="#263238" stroke-width="0.876601" stroke-miterlimit="10"/>
<path d="M121.766 19.4946H109.335C108.575 19.489 107.835 19.7407 107.237 20.2089C106.638 20.6771 106.216 21.3339 106.039 22.0725C105.862 22.811 105.941 23.5876 106.263 24.2755C106.585 24.9635 107.13 25.5223 107.811 25.8608L103.465 30.4782L111.388 26.2382H121.766C122.662 26.2382 123.52 25.883 124.153 25.2506C124.786 24.6183 125.142 23.7607 125.142 22.8664C125.142 21.9722 124.786 21.1145 124.153 20.4822C123.52 19.8498 122.662 19.4946 121.766 19.4946V19.4946Z" fill="#407BFF"/>
<path opacity="0.2" d="M121.766 19.4946H109.335C108.575 19.489 107.835 19.7407 107.237 20.2089C106.638 20.6771 106.216 21.3339 106.039 22.0725C105.862 22.811 105.941 23.5876 106.263 24.2755C106.585 24.9635 107.13 25.5223 107.811 25.8608L103.465 30.4782L111.388 26.2382H121.766C122.662 26.2382 123.52 25.883 124.153 25.2506C124.786 24.6183 125.142 23.7607 125.142 22.8664C125.142 21.9722 124.786 21.1145 124.153 20.4822C123.52 19.8498 122.662 19.4946 121.766 19.4946V19.4946Z" fill="black"/>
<path d="M176.213 49.5139H163.782C163.021 49.5082 162.282 49.76 161.683 50.2282C161.085 50.6963 160.663 51.3532 160.486 52.0918C160.309 52.8303 160.388 53.6069 160.71 54.2948C161.032 54.9828 161.577 55.5416 162.258 55.8801L157.912 60.5352L165.835 56.2827H176.213C177.108 56.2827 177.967 55.9274 178.6 55.2951C179.233 54.6628 179.589 53.8051 179.589 52.9109C179.589 52.0166 179.233 51.159 178.6 50.5266C177.967 49.8943 177.108 49.5391 176.213 49.5391V49.5139Z" fill="#407BFF"/>
<path opacity="0.2" d="M176.213 49.5139H163.782C163.021 49.5082 162.282 49.76 161.683 50.2282C161.085 50.6963 160.663 51.3532 160.486 52.0918C160.309 52.8303 160.388 53.6069 160.71 54.2948C161.032 54.9828 161.577 55.5416 162.258 55.8801L157.912 60.5352L165.835 56.2827H176.213C177.108 56.2827 177.967 55.9274 178.6 55.2951C179.233 54.6628 179.589 53.8051 179.589 52.9109C179.589 52.0166 179.233 51.159 178.6 50.5266C177.967 49.8943 177.108 49.5391 176.213 49.5391V49.5139Z" fill="black"/>
<path d="M40.2789 150.668H186.692C188.61 150.672 190.509 150.297 192.281 149.566C194.054 148.836 195.664 147.763 197.021 146.41C198.378 145.057 199.455 143.449 200.189 141.68C200.924 139.911 201.302 138.014 201.302 136.099V15.5693C201.302 13.6539 200.924 11.7573 200.189 9.98804C199.455 8.21877 198.378 6.61155 197.021 5.25834C195.664 3.90513 194.054 2.8325 192.281 2.1018C190.509 1.37111 188.61 0.996714 186.692 1.00002H40.2789C38.3615 0.996714 36.4623 1.37111 34.6899 2.1018C32.9175 2.8325 31.3067 3.90513 29.9497 5.25834C28.5927 6.61155 27.5162 8.21877 26.7817 9.98804C26.0471 11.7573 25.6691 13.6539 25.6691 15.5693V136.099C25.6691 138.014 26.0471 139.911 26.7817 141.68C27.5162 143.449 28.5927 145.057 29.9497 146.41C31.3067 147.763 32.9175 148.836 34.6899 149.566C36.4623 150.297 38.3615 150.672 40.2789 150.668V150.668Z" stroke="#263238" stroke-width="1.0631" stroke-miterlimit="10"/>
<path d="M36.7891 17.2678H46.8779" stroke="#263238" stroke-width="1.0631" stroke-miterlimit="10"/>
<path d="M36.7891 28.2387H46.8779" stroke="#263238" stroke-width="1.0631" stroke-miterlimit="10"/>
<path d="M36.7891 39.2097H46.8779" stroke="#263238" stroke-width="1.0631" stroke-miterlimit="10"/>
<path d="M36.7891 50.1807H46.8779" stroke="#263238" stroke-width="1.0631" stroke-miterlimit="10"/>
<path d="M36.7891 61.1516H46.8779" stroke="#263238" stroke-width="1.0631" stroke-miterlimit="10"/>
<path d="M433.006 32.1389C426.447 32.1488 420.038 34.1008 414.589 37.7483C409.14 41.3957 404.896 46.5749 402.393 52.6312C399.889 58.6875 399.24 65.3491 400.525 71.7742C401.811 78.1993 404.975 84.0994 409.616 88.729C414.258 93.3586 420.169 96.5099 426.603 97.7845C433.036 99.0591 439.704 98.3999 445.763 95.8902C451.822 93.3805 457 89.1329 460.643 83.6842C464.286 78.2356 466.231 71.8304 466.231 65.2782C466.217 56.4845 462.711 48.0555 456.481 41.8421C450.252 35.6287 441.809 32.1388 433.006 32.1389V32.1389ZM433.006 88.6796C428.373 88.6622 423.85 87.2739 420.007 84.69C416.164 82.1061 413.173 78.4426 411.413 74.162C409.653 69.8814 409.202 65.1758 410.117 60.6394C411.033 56.1031 413.273 51.9393 416.556 48.6741C419.839 45.409 424.016 43.1887 428.561 42.2938C433.106 41.3989 437.815 41.8695 442.092 43.6461C446.37 45.4228 450.025 48.4258 452.595 52.2759C455.165 56.126 456.535 60.6506 456.533 65.2782C456.526 68.358 455.912 71.4062 454.726 74.249C453.54 77.0917 451.806 79.6733 449.621 81.8464C447.436 84.0194 444.844 85.7413 441.994 86.9137C439.143 88.0862 436.089 88.6862 433.006 88.6796V88.6796Z" fill="#407BFF" stroke="#263238" stroke-width="1.0631" stroke-miterlimit="10"/>
<g opacity="0.2">
<path opacity="0.2" d="M433.006 32.1389C426.447 32.1488 420.038 34.1008 414.589 37.7483C409.14 41.3957 404.896 46.5749 402.393 52.6312C399.889 58.6875 399.24 65.3491 400.525 71.7742C401.811 78.1993 404.975 84.0994 409.616 88.729C414.258 93.3586 420.169 96.5099 426.603 97.7845C433.036 99.0591 439.704 98.3999 445.763 95.8902C451.822 93.3805 457 89.1329 460.643 83.6842C464.286 78.2356 466.231 71.8304 466.231 65.2782C466.217 56.4845 462.711 48.0555 456.481 41.8421C450.252 35.6287 441.809 32.1388 433.006 32.1389V32.1389ZM433.006 88.6796C428.373 88.6622 423.85 87.2739 420.007 84.69C416.164 82.1061 413.173 78.4426 411.413 74.162C409.653 69.8814 409.202 65.1758 410.117 60.6394C411.033 56.1031 413.273 51.9393 416.556 48.6741C419.839 45.409 424.016 43.1887 428.561 42.2938C433.106 41.3989 437.815 41.8695 442.092 43.6461C446.37 45.4228 450.025 48.4258 452.595 52.2759C455.165 56.126 456.535 60.6506 456.533 65.2782C456.526 68.358 455.912 71.4062 454.726 74.249C453.54 77.0917 451.806 79.6733 449.621 81.8464C447.436 84.0194 444.844 85.7413 441.994 86.9137C439.143 88.0862 436.089 88.6862 433.006 88.6796V88.6796Z" fill="black"/>
</g>
<path d="M433.006 32.1389C426.447 32.1488 420.038 34.1008 414.589 37.7483C409.14 41.3957 404.896 46.5749 402.393 52.6312C399.889 58.6875 399.24 65.3491 400.525 71.7742C401.811 78.1993 404.975 84.0994 409.616 88.729C414.258 93.3586 420.169 96.5099 426.603 97.7845C433.036 99.0591 439.704 98.3999 445.763 95.8902C451.822 93.3805 457 89.1329 460.643 83.6842C464.286 78.2356 466.231 71.8304 466.231 65.2782C466.217 56.4845 462.711 48.0555 456.481 41.8421C450.252 35.6287 441.809 32.1388 433.006 32.1389V32.1389ZM433.006 88.6796C428.373 88.6622 423.85 87.2739 420.007 84.69C416.164 82.1061 413.173 78.4426 411.413 74.162C409.653 69.8814 409.202 65.1758 410.117 60.6394C411.033 56.1031 413.273 51.9393 416.556 48.6741C419.839 45.409 424.016 43.1887 428.561 42.2938C433.106 41.3989 437.815 41.8695 442.092 43.6461C446.37 45.4228 450.025 48.4258 452.595 52.2759C455.165 56.126 456.535 60.6506 456.533 65.2782C456.526 68.358 455.912 71.4062 454.726 74.249C453.54 77.0917 451.806 79.6733 449.621 81.8464C447.436 84.0194 444.844 85.7413 441.994 86.9137C439.143 88.0862 436.089 88.6862 433.006 88.6796V88.6796Z" stroke="#263238" stroke-width="1.0631" stroke-miterlimit="10"/>
<path d="M433.006 32.139C428.522 32.1208 424.082 33.0163 419.957 34.7707C415.832 36.5251 412.108 39.1015 409.013 42.3425L416.054 49.0735C418.733 46.2707 422.067 44.1758 425.756 42.9765C429.445 41.7772 433.375 41.511 437.193 42.2017C441.01 42.8924 444.597 44.5184 447.63 46.9341C450.664 49.3498 453.051 52.4797 454.576 56.0432C456.101 59.6067 456.718 63.4926 456.37 67.3526C456.022 71.2127 454.721 74.9262 452.584 78.1605C450.446 81.3948 447.539 84.0488 444.122 85.8847C440.705 87.7205 436.886 88.6809 433.006 88.6797V98.4052C437.416 98.491 441.799 97.6974 445.898 96.0709C449.998 94.4444 453.731 92.0175 456.881 88.9323C460.03 85.8471 462.531 82.1655 464.239 78.1029C465.947 74.0403 466.827 69.6783 466.827 65.2721C466.827 60.8658 465.947 56.5038 464.239 52.4412C462.531 48.3786 460.03 44.697 456.881 41.6118C453.731 38.5266 449.998 36.0998 445.898 34.4732C441.799 32.8467 437.416 32.0531 433.006 32.139V32.139Z" fill="#263238" stroke="#263238" stroke-width="1.0631" stroke-linecap="round" stroke-linejoin="round"/>
<path d="M514.946 32.1389C508.387 32.1488 501.978 34.1008 496.529 37.7483C491.08 41.3957 486.836 46.5749 484.333 52.6312C481.83 58.6875 481.18 65.3491 482.466 71.7742C483.752 78.1993 486.915 84.0994 491.557 88.729C496.198 93.3586 502.109 96.5099 508.543 97.7845C514.977 99.0591 521.645 98.3999 527.703 95.8902C533.762 93.3805 538.941 89.1329 542.584 83.6842C546.227 78.2356 548.171 71.8304 548.171 65.2782C548.158 56.4845 544.651 48.0555 538.422 41.8421C532.192 35.6287 523.749 32.1388 514.946 32.1389V32.1389ZM514.946 88.6796C510.31 88.6771 505.78 87.3015 501.926 84.7267C498.073 82.1518 495.071 78.4935 493.299 74.2142C491.528 69.9349 491.066 65.2269 491.973 60.6855C492.88 56.1441 495.114 51.9733 498.394 48.7006C501.674 45.4278 505.851 43.2001 510.398 42.2991C514.946 41.3981 519.658 41.8643 523.94 43.6388C528.222 45.4132 531.881 48.4162 534.454 52.268C537.028 56.1198 538.4 60.6474 538.398 65.2782C538.381 71.4839 535.904 77.4303 531.509 81.816C527.114 86.2017 521.158 88.6696 514.946 88.6796V88.6796Z" fill="#407BFF" stroke="#263238" stroke-width="1.0631" stroke-miterlimit="10"/>
<g opacity="0.2">
<path opacity="0.2" d="M514.946 32.1389C508.387 32.1488 501.978 34.1008 496.529 37.7483C491.08 41.3957 486.836 46.5749 484.333 52.6312C481.83 58.6875 481.18 65.3491 482.466 71.7742C483.752 78.1993 486.915 84.0994 491.557 88.729C496.198 93.3586 502.109 96.5099 508.543 97.7845C514.977 99.0591 521.645 98.3999 527.703 95.8902C533.762 93.3805 538.941 89.1329 542.584 83.6842C546.227 78.2356 548.171 71.8304 548.171 65.2782C548.158 56.4845 544.651 48.0555 538.422 41.8421C532.192 35.6287 523.749 32.1388 514.946 32.1389V32.1389ZM514.946 88.6796C510.31 88.6771 505.78 87.3015 501.926 84.7267C498.073 82.1518 495.071 78.4935 493.299 74.2142C491.528 69.9349 491.066 65.2269 491.973 60.6855C492.88 56.1441 495.114 51.9733 498.394 48.7006C501.674 45.4278 505.851 43.2001 510.398 42.2991C514.946 41.3981 519.658 41.8643 523.94 43.6388C528.222 45.4132 531.881 48.4162 534.454 52.268C537.028 56.1198 538.4 60.6474 538.398 65.2782C538.381 71.4839 535.904 77.4303 531.509 81.816C527.114 86.2017 521.158 88.6696 514.946 88.6796V88.6796Z" fill="black"/>
</g>
<path d="M514.946 32.1389C508.387 32.1488 501.978 34.1008 496.529 37.7483C491.08 41.3957 486.836 46.5749 484.333 52.6312C481.83 58.6875 481.18 65.3491 482.466 71.7742C483.752 78.1993 486.915 84.0994 491.557 88.729C496.198 93.3586 502.109 96.5099 508.543 97.7845C514.977 99.0591 521.645 98.3999 527.703 95.8902C533.762 93.3805 538.941 89.1329 542.584 83.6842C546.227 78.2356 548.171 71.8304 548.171 65.2782C548.158 56.4845 544.651 48.0555 538.422 41.8421C532.192 35.6287 523.749 32.1388 514.946 32.1389V32.1389ZM514.946 88.6796C510.31 88.6771 505.78 87.3015 501.926 84.7267C498.073 82.1518 495.071 78.4935 493.299 74.2142C491.528 69.9349 491.066 65.2269 491.973 60.6855C492.88 56.1441 495.114 51.9733 498.394 48.7006C501.674 45.4278 505.851 43.2001 510.398 42.2991C514.946 41.3981 519.658 41.8643 523.94 43.6388C528.222 45.4132 531.881 48.4162 534.454 52.268C537.028 56.1198 538.4 60.6474 538.398 65.2782C538.381 71.4839 535.904 77.4303 531.509 81.816C527.114 86.2017 521.158 88.6696 514.946 88.6796V88.6796Z" stroke="#263238" stroke-width="1.0631" stroke-miterlimit="10"/>
<path d="M527.882 34.7433L524.103 43.7012C529.085 45.806 533.185 49.5671 535.707 54.3467C538.23 59.1264 539.02 64.6304 537.943 69.9255C536.867 75.2205 533.99 79.9808 529.801 83.3989C525.612 86.8171 520.368 88.6828 514.959 88.6797V98.4051C522.622 98.4227 530.055 95.7887 535.994 90.9507C541.933 86.1128 546.011 79.3696 547.536 71.8676C549.06 64.3656 547.936 56.5677 544.356 49.7998C540.775 43.0318 534.958 37.7115 527.894 34.7433H527.882Z" fill="#263238" stroke="#263238" stroke-width="1.0631" stroke-linecap="round" stroke-linejoin="round"/>
<path d="M543.838 1H406.934C404.551 0.998352 402.19 1.46566 399.988 2.37524C397.785 3.28482 395.784 4.61885 394.097 6.30119C392.411 7.98353 391.073 9.98122 390.159 12.1802C389.245 14.3792 388.774 16.7364 388.773 19.1172V132.564C388.779 137.37 390.696 141.977 394.102 145.371C397.507 148.766 402.123 150.672 406.934 150.668H543.838C546.221 150.671 548.581 150.206 550.784 149.298C552.986 148.389 554.988 147.056 556.675 145.375C558.361 143.694 559.7 141.697 560.613 139.499C561.527 137.3 561.998 134.944 562 132.564V19.1172C561.998 16.7364 561.527 14.3792 560.614 12.1802C559.7 9.98122 558.362 7.98353 556.675 6.30119C554.989 4.61885 552.987 3.28482 550.785 2.37524C548.582 1.46566 546.222 0.998352 543.838 1V1Z" stroke="#263238" stroke-width="1.0631" stroke-miterlimit="10"/>
<path d="M403.484 109.288H455.676" stroke="#263238" stroke-width="1.0631" stroke-miterlimit="10"/>
<path d="M403.484 114.861H455.676" stroke="#263238" stroke-width="1.0631" stroke-miterlimit="10"/>
<path d="M403.484 120.435H455.676" stroke="#263238" stroke-width="1.0631" stroke-miterlimit="10"/>
<path d="M403.484 126.021H455.676" stroke="#263238" stroke-width="1.0631" stroke-miterlimit="10"/>
<path d="M403.484 131.595H455.676" stroke="#263238" stroke-width="1.0631" stroke-miterlimit="10"/>
<path d="M489.681 109.288H541.886" stroke="#263238" stroke-width="1.0631" stroke-miterlimit="10"/>
<path d="M489.681 114.861H541.886" stroke="#263238" stroke-width="1.0631" stroke-miterlimit="10"/>
<path d="M489.681 120.435H541.886" stroke="#263238" stroke-width="1.0631" stroke-miterlimit="10"/>
<path d="M489.681 126.021H541.886" stroke="#263238" stroke-width="1.0631" stroke-miterlimit="10"/>
<path d="M489.681 131.595H541.886" stroke="#263238" stroke-width="1.0631" stroke-miterlimit="10"/>
<path d="M447.54 16.3618H499.732" stroke="#263238" stroke-width="1.0631" stroke-miterlimit="10"/>
<path d="M447.54 21.948H499.732" stroke="#263238" stroke-width="1.0631" stroke-miterlimit="10"/>
<path d="M388.219 360.4H542.73C547.835 360.403 552.733 358.381 556.346 354.779C559.96 351.176 561.993 346.288 562 341.188V178.624C561.998 176.098 561.499 173.597 560.529 171.263C559.56 168.93 558.14 166.81 556.351 165.025C554.561 163.24 552.438 161.824 550.101 160.859C547.764 159.894 545.259 159.398 542.73 159.4H314.514C311.986 159.398 309.481 159.894 307.144 160.859C304.807 161.824 302.683 163.24 300.894 165.025C299.104 166.81 297.685 168.93 296.715 171.263C295.746 173.597 295.246 176.098 295.245 178.624V285.742" stroke="#263238" stroke-width="1.0631" stroke-miterlimit="10"/>
<path d="M369.983 254.2H333.232V307.558H369.983V254.2Z" fill="#407BFF" stroke="#263238" stroke-width="1.16063" stroke-miterlimit="10"/>
<path opacity="0.2" d="M369.983 254.2H333.232V307.558H369.983V254.2Z" fill="black"/>
<path d="M369.983 254.2H333.232V307.558H369.983V254.2Z" stroke="#263238" stroke-width="1.16063" stroke-miterlimit="10"/>
<path d="M421.015 227.515H384.264V286.585H421.015V227.515Z" fill="#407BFF" stroke="#263238" stroke-width="1.16063" stroke-miterlimit="10"/>
<path opacity="0.2" d="M421.015 227.515H384.264V286.585H421.015V227.515Z" fill="black"/>
<path d="M421.015 227.515H384.264V286.585H421.015V227.515Z" stroke="#263238" stroke-width="1.16063" stroke-miterlimit="10"/>
<path d="M472.049 205.611H435.298V244.676H472.049V205.611Z" fill="#407BFF" stroke="#263238" stroke-width="1.16063" stroke-miterlimit="10"/>
<path opacity="0.2" d="M472.049 205.611H435.298V244.676H472.049V205.611Z" fill="black"/>
<path d="M472.049 205.611H435.298V244.676H472.049V205.611Z" stroke="#263238" stroke-width="1.16063" stroke-miterlimit="10"/>
<path d="M369.983 307.546H333.232V329.462H369.983V307.546Z" fill="#263238" stroke="#263238" stroke-width="1.16063" stroke-linecap="round" stroke-linejoin="round"/>
<path d="M421.015 286.585H384.264V329.462H421.015V286.585Z" fill="#263238" stroke="#263238" stroke-width="1.16063" stroke-linecap="round" stroke-linejoin="round"/>
<path d="M520.072 227.515H483.321V286.585H520.072V227.515Z" fill="#407BFF" stroke="#263238" stroke-width="1.16063" stroke-miterlimit="10"/>
<path opacity="0.2" d="M520.072 227.515H483.321V286.585H520.072V227.515Z" fill="black"/>
<path d="M520.072 227.515H483.321V286.585H520.072V227.515Z" stroke="#263238" stroke-width="1.16063" stroke-miterlimit="10"/>
<path d="M520.072 286.585H483.321V329.462H520.072V286.585Z" fill="#263238" stroke="#263238" stroke-width="1.16063" stroke-linecap="round" stroke-linejoin="round"/>
<path d="M472.049 244.664H435.298V329.462H472.049V244.664Z" fill="#263238" stroke="#263238" stroke-width="1.16063" stroke-linecap="round" stroke-linejoin="round"/>
<path d="M414.644 205.687H391.708C390.655 205.687 389.646 206.104 388.902 206.847C388.158 207.591 387.74 208.599 387.74 209.65V214.921C387.74 215.972 388.158 216.98 388.902 217.724C389.646 218.467 390.655 218.884 391.708 218.884H400.209L403.182 224.018L406.142 218.884H414.644C415.696 218.884 416.705 218.467 417.449 217.724C418.193 216.98 418.611 215.972 418.611 214.921V209.65C418.611 208.599 418.193 207.591 417.449 206.847C416.705 206.104 415.696 205.687 414.644 205.687V205.687Z" fill="#407BFF"/>
<path opacity="0.5" d="M414.644 205.687H391.708C390.655 205.687 389.646 206.104 388.902 206.847C388.158 207.591 387.74 208.599 387.74 209.65V214.921C387.74 215.972 388.158 216.98 388.902 217.724C389.646 218.467 390.655 218.884 391.708 218.884H400.209L403.182 224.018L406.142 218.884H414.644C415.696 218.884 416.705 218.467 417.449 217.724C418.193 216.98 418.611 215.972 418.611 214.921V209.65C418.611 208.599 418.193 207.591 417.449 206.847C416.705 206.104 415.696 205.687 414.644 205.687V205.687Z" fill="white"/>
<path d="M414.644 205.687H391.708C390.655 205.687 389.646 206.104 388.902 206.847C388.158 207.591 387.74 208.599 387.74 209.65V214.921C387.74 215.972 388.158 216.98 388.902 217.724C389.646 218.467 390.655 218.884 391.708 218.884H400.209L403.182 224.018L406.142 218.884H414.644C415.696 218.884 416.705 218.467 417.449 217.724C418.193 216.98 418.611 215.972 418.611 214.921V209.65C418.611 208.599 418.193 207.591 417.449 206.847C416.705 206.104 415.696 205.687 414.644 205.687V205.687Z" stroke="#263238" stroke-width="1.16689" stroke-linecap="round" stroke-linejoin="round"/>
<path d="M363.068 233.051H340.145C339.095 233.051 338.088 233.467 337.344 234.207C336.6 234.948 336.181 235.953 336.177 237.002V242.286C336.181 243.335 336.6 244.34 337.344 245.08C338.088 245.821 339.095 246.236 340.145 246.236H348.634L351.607 251.37L354.579 246.236H363.068C364.118 246.236 365.126 245.821 365.869 245.08C366.613 244.34 367.032 243.335 367.036 242.286V237.002C367.032 235.953 366.613 234.948 365.869 234.207C365.126 233.467 364.118 233.051 363.068 233.051V233.051Z" fill="#407BFF"/>
<path opacity="0.5" d="M363.068 233.051H340.145C339.095 233.051 338.088 233.467 337.344 234.207C336.6 234.948 336.181 235.953 336.177 237.002V242.286C336.181 243.335 336.6 244.34 337.344 245.08C338.088 245.821 339.095 246.236 340.145 246.236H348.634L351.607 251.37L354.579 246.236H363.068C364.118 246.236 365.126 245.821 365.869 245.08C366.613 244.34 367.032 243.335 367.036 242.286V237.002C367.032 235.953 366.613 234.948 365.869 234.207C365.126 233.467 364.118 233.051 363.068 233.051V233.051Z" fill="white"/>
<path d="M363.068 233.051H340.145C339.095 233.051 338.088 233.467 337.344 234.207C336.6 234.948 336.181 235.953 336.177 237.002V242.286C336.181 243.335 336.6 244.34 337.344 245.08C338.088 245.821 339.095 246.236 340.145 246.236H348.634L351.607 251.37L354.579 246.236H363.068C364.118 246.236 365.126 245.821 365.869 245.08C366.613 244.34 367.032 243.335 367.036 242.286V237.002C367.032 235.953 366.613 234.948 365.869 234.207C365.126 233.467 364.118 233.051 363.068 233.051V233.051Z" stroke="#263238" stroke-width="1.16689" stroke-linecap="round" stroke-linejoin="round"/>
<path d="M464.909 183.707H441.973C440.921 183.707 439.911 184.124 439.167 184.868C438.423 185.611 438.005 186.619 438.005 187.67V192.942C438.005 193.461 438.108 193.976 438.308 194.456C438.507 194.936 438.8 195.372 439.168 195.74C439.537 196.107 439.974 196.397 440.456 196.595C440.937 196.793 441.452 196.894 441.973 196.892H450.475L453.435 202.025L456.407 196.892H464.909C465.429 196.894 465.945 196.793 466.426 196.595C466.907 196.397 467.345 196.107 467.713 195.74C468.082 195.372 468.374 194.936 468.574 194.456C468.774 193.976 468.876 193.461 468.876 192.942V187.67C468.876 186.619 468.458 185.611 467.714 184.868C466.97 184.124 465.961 183.707 464.909 183.707V183.707Z" fill="#407BFF"/>
<path opacity="0.5" d="M464.909 183.707H441.973C440.921 183.707 439.911 184.124 439.167 184.868C438.423 185.611 438.005 186.619 438.005 187.67V192.942C438.005 193.461 438.108 193.976 438.308 194.456C438.507 194.936 438.8 195.372 439.168 195.74C439.537 196.107 439.974 196.397 440.456 196.595C440.937 196.793 441.452 196.894 441.973 196.892H450.475L453.435 202.025L456.407 196.892H464.909C465.429 196.894 465.945 196.793 466.426 196.595C466.907 196.397 467.345 196.107 467.713 195.74C468.082 195.372 468.374 194.936 468.574 194.456C468.774 193.976 468.876 193.461 468.876 192.942V187.67C468.876 186.619 468.458 185.611 467.714 184.868C466.97 184.124 465.961 183.707 464.909 183.707V183.707Z" fill="white"/>
<path d="M464.909 183.707H441.973C440.921 183.707 439.911 184.124 439.167 184.868C438.423 185.611 438.005 186.619 438.005 187.67V192.942C438.005 193.461 438.108 193.976 438.308 194.456C438.507 194.936 438.8 195.372 439.168 195.74C439.537 196.107 439.974 196.397 440.456 196.595C440.937 196.793 441.452 196.894 441.973 196.892H450.475L453.435 202.025L456.407 196.892H464.909C465.429 196.894 465.945 196.793 466.426 196.595C466.907 196.397 467.345 196.107 467.713 195.74C468.082 195.372 468.374 194.936 468.574 194.456C468.774 193.976 468.876 193.461 468.876 192.942V187.67C468.876 186.619 468.458 185.611 467.714 184.868C466.97 184.124 465.961 183.707 464.909 183.707V183.707Z" stroke="#263238" stroke-width="1.16689" stroke-linecap="round" stroke-linejoin="round"/>
<path d="M513.209 205.347H490.286C489.234 205.347 488.225 205.764 487.48 206.508C486.736 207.251 486.318 208.259 486.318 209.31V214.582C486.318 215.102 486.421 215.616 486.621 216.096C486.82 216.577 487.113 217.013 487.481 217.38C487.85 217.747 488.287 218.037 488.769 218.235C489.25 218.433 489.765 218.534 490.286 218.532H498.775L501.748 223.665L504.72 218.532H513.209C513.73 218.534 514.246 218.433 514.728 218.235C515.21 218.038 515.649 217.747 516.018 217.38C516.388 217.013 516.682 216.578 516.883 216.097C517.083 215.617 517.188 215.102 517.189 214.582V209.31C517.186 208.258 516.765 207.25 516.019 206.507C515.273 205.764 514.263 205.347 513.209 205.347V205.347Z" fill="#407BFF"/>
<path opacity="0.5" d="M513.209 205.347H490.286C489.234 205.347 488.225 205.764 487.48 206.508C486.736 207.251 486.318 208.259 486.318 209.31V214.582C486.318 215.102 486.421 215.616 486.621 216.096C486.82 216.577 487.113 217.013 487.481 217.38C487.85 217.747 488.287 218.037 488.769 218.235C489.25 218.433 489.765 218.534 490.286 218.532H498.775L501.748 223.665L504.72 218.532H513.209C513.73 218.534 514.246 218.433 514.728 218.235C515.21 218.038 515.649 217.747 516.018 217.38C516.388 217.013 516.682 216.578 516.883 216.097C517.083 215.617 517.188 215.102 517.189 214.582V209.31C517.186 208.258 516.765 207.25 516.019 206.507C515.273 205.764 514.263 205.347 513.209 205.347V205.347Z" fill="white"/>
<path d="M513.209 205.347H490.286C489.234 205.347 488.225 205.764 487.48 206.508C486.736 207.251 486.318 208.259 486.318 209.31V214.582C486.318 215.102 486.421 215.616 486.621 216.096C486.82 216.577 487.113 217.013 487.481 217.38C487.85 217.747 488.287 218.037 488.769 218.235C489.25 218.433 489.765 218.534 490.286 218.532H498.775L501.748 223.665L504.72 218.532H513.209C513.73 218.534 514.246 218.433 514.728 218.235C515.21 218.038 515.649 217.747 516.018 217.38C516.388 217.013 516.682 216.578 516.883 216.097C517.083 215.617 517.188 215.102 517.189 214.582V209.31C517.186 208.258 516.765 207.25 516.019 206.507C515.273 205.764 514.263 205.347 513.209 205.347V205.347Z" stroke="#263238" stroke-width="1.16689" stroke-linecap="round" stroke-linejoin="round"/>
<path d="M334.477 176.208H386.682" stroke="#263238" stroke-width="1.0631" stroke-miterlimit="10"/>
<path d="M334.477 181.782H386.682" stroke="#263238" stroke-width="1.0631" stroke-miterlimit="10"/>
<path d="M334.477 187.368H386.682" stroke="#263238" stroke-width="1.0631" stroke-miterlimit="10"/>
<path d="M334.477 192.942H386.682" stroke="#263238" stroke-width="1.0631" stroke-miterlimit="10"/>
<path d="M334.477 198.515H386.682" stroke="#263238" stroke-width="1.0631" stroke-miterlimit="10"/>
<path d="M54.3587 265.146C53.6659 265.977 52.9606 266.857 52.205 267.864C42.8345 280.445 47.7213 306.866 42.0285 316.617C36.3357 326.367 22.0785 323.574 19.2321 338.898C16.3857 354.223 17.9726 370.226 15.567 377.901C13.1614 385.575 3.76581 390.482 2.1285 399.49C0.491191 408.499 0 415.028 0 415.028L54.3587 413.242V265.146Z" fill="#407BFF"/>
<path opacity="0.7" d="M54.3587 265.146C53.6659 265.977 52.9606 266.857 52.205 267.864C42.8345 280.445 47.7213 306.866 42.0285 316.617C36.3357 326.367 22.0785 323.574 19.2321 338.898C16.3857 354.223 17.9726 370.226 15.567 377.901C13.1614 385.575 3.76581 390.482 2.1285 399.49C0.491191 408.499 0 415.028 0 415.028L54.3587 413.242V265.146Z" fill="white"/>
<path d="M247.662 413.808L191.842 420.25L208.984 436.102L247.473 432.768" fill="#263238"/>
<path d="M247.662 413.808L191.842 420.25L208.984 436.102L247.473 432.768" stroke="#263238" stroke-width="0.969857" stroke-linecap="round" stroke-linejoin="round"/>
<path d="M210.042 422.78L245.798 418.878" stroke="white" stroke-width="0.484928" stroke-linecap="round" stroke-linejoin="round"/>
<path d="M212.838 426.68L245.245 423.898" stroke="white" stroke-width="0.484928" stroke-linecap="round" stroke-linejoin="round"/>
<path d="M216.188 430.026L245.799 427.232" stroke="white" stroke-width="0.484928" stroke-linecap="round" stroke-linejoin="round"/>
<path d="M213.606 420.489L223.795 431.586" stroke="white" stroke-width="0.484928" stroke-linecap="round" stroke-linejoin="round"/>
<path d="M221.15 420.124L231.277 430.579" stroke="white" stroke-width="0.484928" stroke-linecap="round" stroke-linejoin="round"/>
<path d="M228.984 419.004L239.098 429.459" stroke="white" stroke-width="0.484928" stroke-linecap="round" stroke-linejoin="round"/>
<path d="M237.359 418.451L245.798 427.232" stroke="white" stroke-width="0.484928" stroke-linecap="round" stroke-linejoin="round"/>
<path d="M190.583 281.779C188.744 280.999 180.23 247.897 180.23 247.897L175.847 235.417C175.847 235.417 169.26 212.959 166.741 208.782C164.222 204.605 154.146 201.233 154.146 201.233L150.368 199.157L133.995 190.35V190.438L131.64 185.519L103.453 162.872C103.453 162.872 103.957 168.333 104.712 173.717C104.637 173.717 98.8431 177.492 96.7776 180.801C96.3872 181.417 96.0471 182.738 94.4854 186.198C88.188 189.444 64.4722 201.862 56.6258 207.914C47.419 214.997 45.7439 220.004 46.1596 224.181L46.5878 230.849C46.5878 230.849 50.5173 254.754 54.6106 266.543L54.1068 266.304L53.9683 413.028L171.892 408.562L172.081 299.569C176.112 298.248 180.306 296.7 182.837 295.581L183.467 296.147L188.782 300.035C189.636 300.676 190.628 301.111 191.679 301.306C192.73 301.5 193.812 301.448 194.84 301.154C197.094 300.513 195.684 297.845 194.046 296.965C192.803 296.127 191.625 295.197 190.52 294.184L185.608 288.07C188.555 288.598 193.278 289.428 195.243 289.705C198.165 290.12 201.931 290.963 202.346 287.189C202.762 283.415 193.517 283.037 190.583 281.779Z" fill="white"/>
<path d="M103.591 162.923C103.591 162.923 105.191 180.662 106.236 183.858C107.181 186.752 111.955 202.541 116.136 209.625C120.318 216.708 125.419 215.915 126.212 207.964C127.006 200.013 126.603 187.117 126.603 187.117" stroke="#263238" stroke-width="0.969857" stroke-linecap="round" stroke-linejoin="round"/>
<path d="M104.549 174.133C104.549 174.133 98.9949 177.517 96.9041 180.851C94.8133 184.185 86.0219 215.047 86.0219 215.047L102.748 215.89L88.5283 222.181" stroke="#263238" stroke-width="0.969857" stroke-linecap="round" stroke-linejoin="round"/>
<path d="M88.9562 225.892C88.9562 225.892 103.176 249.256 105.267 251.772C106.552 253.329 107.67 255.016 108.605 256.805" stroke="#263238" stroke-width="0.969857" stroke-linecap="round" stroke-linejoin="round"/>
<path d="M105.682 181.317C105.682 181.317 112.786 210.518 117.018 225.943C121.25 241.367 125.293 260.579 125.293 260.579" stroke="#263238" stroke-width="0.969857" stroke-linecap="round" stroke-linejoin="round"/>
<path d="M126.551 190.451C126.551 190.451 128.226 224.232 128.226 237.581V258.843" stroke="#263238" stroke-width="0.969857" stroke-linecap="round" stroke-linejoin="round"/>
<path d="M132.446 187.104L143.744 210.052L134.536 212.971L148.757 220.885L135.796 261.347" stroke="#263238" stroke-width="0.969857" stroke-linecap="round" stroke-linejoin="round"/>
<path d="M134.121 190.451L150.432 199.207" stroke="#263238" stroke-width="0.969857" stroke-linecap="round" stroke-linejoin="round"/>
<path d="M163.403 224.647L165.494 263.85" stroke="#263238" stroke-width="0.969857" stroke-linecap="round" stroke-linejoin="round"/>
<path d="M94.3846 186.274C94.3846 186.274 65.9458 200.868 56.7517 207.964C47.5576 215.06 45.8699 220.055 46.2855 224.232" stroke="#263238" stroke-width="0.969857" stroke-linecap="round" stroke-linejoin="round"/>
<path d="M54.2327 266.354V412.323" stroke="#263238" stroke-width="0.969857" stroke-linecap="round" stroke-linejoin="round"/>
<path d="M127.849 302.224V406.913" stroke="#263238" stroke-width="0.969857" stroke-linecap="round" stroke-linejoin="round"/>
<path d="M64.447 222.156C64.447 222.156 74.0445 225.515 78.3017 233.655" stroke="#263238" stroke-width="0.969857" stroke-linecap="round" stroke-linejoin="round"/>
<path d="M70.6813 221.678C70.6813 221.678 79.3216 225.037 83.1632 233.177" stroke="#263238" stroke-width="0.969857" stroke-linecap="round" stroke-linejoin="round"/>
<path d="M64.9257 355.657H96.7665V361.897H66.0593" stroke="#263238" stroke-width="0.969857" stroke-linecap="round" stroke-linejoin="round"/>
<path d="M182.661 253.408C179.663 245.859 177.157 239.568 175.847 235.429C175.916 237.938 175.473 240.435 174.544 242.766C173.615 245.098 172.22 247.217 170.444 248.992C161.754 257.472 159.298 254.528 159.688 266.304C160.078 278.08 164.726 283.427 161.817 293.467C158.907 303.507 146.25 313.421 146.703 330.809C146.866 334.621 147.928 338.341 149.801 341.666L97.3821 411.556L172.346 409.354V309.37L182.661 253.408Z" fill="#407BFF"/>
<path opacity="0.7" d="M182.661 253.408C179.663 245.859 177.157 239.568 175.847 235.429C175.916 237.938 175.473 240.435 174.544 242.766C173.615 245.098 172.22 247.217 170.444 248.992C161.754 257.472 159.298 254.528 159.688 266.304C160.078 278.08 164.726 283.427 161.817 293.467C158.907 303.507 146.25 313.421 146.703 330.809C146.866 334.621 147.928 338.341 149.801 341.666L97.3821 411.556L172.346 409.354V309.37L182.661 253.408Z" fill="white"/>
<path d="M172.409 361.583V405.026" stroke="#263238" stroke-width="0.969857" stroke-linecap="round" stroke-linejoin="round"/>
<path d="M147.962 128.299C150.481 127.883 163.013 119.957 160.922 112.031C158.832 104.105 141.237 94.505 127.433 99.1098C119.117 101.875 111.436 106.268 104.838 112.031C104.838 112.031 95.6441 112.031 92.2435 115.805C88.8429 119.58 91.4123 125.392 93.503 129.569C95.3166 133.18 95.241 142.755 95.1907 145.233C95.0765 145.227 94.963 145.253 94.8632 145.309C94.1633 145.695 93.5526 146.223 93.0708 146.861C92.5891 147.498 92.2471 148.229 92.0672 149.008C91.5004 151.524 92.5458 154.883 95.0899 158.683C95.9364 160.109 97.1264 161.302 98.5517 162.152C99.977 163.003 101.592 163.484 103.251 163.552V163.552C104.342 164.807 105.23 166.225 105.884 167.754C106.941 170.27 117.483 186.425 123.516 186.89C124.385 186.966 125.216 186.991 126.035 186.991C131.237 186.991 135.015 185.594 137.043 182.902C139.725 179.341 146.375 164.986 147.207 158.003C147.345 156.745 147.421 155.172 147.459 153.285C148.389 152.108 148.895 150.652 148.895 149.152C148.895 147.652 148.389 146.196 147.459 145.019C147.32 137.634 146.93 129.985 146.829 128.223C147.196 128.334 147.584 128.36 147.962 128.299V128.299Z" fill="white"/>
<path d="M146.25 127.883C146.25 127.883 147.509 150.819 146.665 157.915C145.821 165.011 139.108 179.178 136.589 182.524C134.07 185.871 129.033 186.689 123.629 186.299C118.226 185.909 107.735 170.446 106.476 167.527C105.778 165.841 104.789 164.291 103.554 162.948C103.554 162.948 98.9565 163.363 95.6063 158.355C92.2561 153.348 91.0093 148.29 95.1907 145.837" stroke="#263238" stroke-width="0.969857" stroke-linecap="round" stroke-linejoin="round"/>
<path d="M128.264 150.404C128.264 150.404 131.199 145.372 134.121 148.316L136.212 161.664L129.914 163.338L130.746 170.006" stroke="#263238" stroke-width="0.969857" stroke-linecap="round" stroke-linejoin="round"/>
<path d="M121.992 156.657C125.457 156.657 128.265 153.857 128.265 150.404C128.265 146.951 125.457 144.151 121.992 144.151C118.528 144.151 115.72 146.951 115.72 150.404C115.72 153.857 118.528 156.657 121.992 156.657Z" fill="#407BFF" stroke="#263238" stroke-width="0.969857" stroke-linecap="round" stroke-linejoin="round"/>
<path opacity="0.4" d="M121.992 156.657C125.457 156.657 128.265 153.857 128.265 150.404C128.265 146.951 125.457 144.151 121.992 144.151C118.528 144.151 115.72 146.951 115.72 150.404C115.72 153.857 118.528 156.657 121.992 156.657Z" fill="white" stroke="#263238" stroke-width="1.16689" stroke-miterlimit="10"/>
<path d="M148.341 149.158C148.341 147.914 147.971 146.698 147.279 145.664C146.587 144.629 145.604 143.823 144.453 143.347C143.302 142.87 142.036 142.746 140.815 142.989C139.593 143.231 138.471 143.83 137.59 144.71C136.709 145.59 136.109 146.711 135.866 147.931C135.623 149.151 135.748 150.416 136.225 151.566C136.702 152.715 137.509 153.698 138.544 154.389C139.58 155.08 140.798 155.449 142.043 155.449C143.713 155.449 145.315 154.786 146.496 153.607C147.677 152.427 148.341 150.827 148.341 149.158V149.158Z" fill="#407BFF" stroke="#263238" stroke-width="0.969857" stroke-linecap="round" stroke-linejoin="round"/>
<path opacity="0.4" d="M148.341 149.158C148.341 147.914 147.971 146.698 147.279 145.664C146.587 144.629 145.604 143.823 144.453 143.347C143.302 142.87 142.036 142.746 140.815 142.989C139.593 143.231 138.471 143.83 137.59 144.71C136.709 145.59 136.109 146.711 135.866 147.931C135.623 149.151 135.748 150.416 136.225 151.566C136.702 152.715 137.509 153.698 138.544 154.389C139.58 155.08 140.798 155.449 142.043 155.449C143.713 155.449 145.315 154.786 146.496 153.607C147.677 152.427 148.341 150.827 148.341 149.158V149.158Z" fill="white" stroke="#263238" stroke-width="1.16689" stroke-miterlimit="10"/>
<path d="M115.721 150.404L103.176 151.235" stroke="#263238" stroke-width="0.969857" stroke-linecap="round" stroke-linejoin="round"/>
<path d="M115.821 141.711C115.821 141.711 119.184 138.363 125.431 140.276" stroke="#263238" stroke-width="0.969857" stroke-linecap="round" stroke-linejoin="round"/>
<path d="M136.955 139.798C136.955 139.798 143.252 136.451 145.116 140.755" stroke="#263238" stroke-width="0.969857" stroke-linecap="round" stroke-linejoin="round"/>
<path d="M108.188 128.714C108.188 128.714 111.539 136.64 112.37 137.898C113.201 139.156 108.188 144.982 108.188 144.982V150.819L103.151 151.234L98.1126 146.655L95.1907 145.812C95.1907 145.812 95.6063 133.721 93.5156 129.557C91.4249 125.392 88.9185 119.492 92.2561 115.793C95.5937 112.094 104.851 112.018 104.851 112.018C111.449 106.255 119.13 101.863 127.446 99.0972C141.3 94.505 158.806 104.13 160.897 112.018C162.988 119.907 150.481 127.883 147.962 128.299C145.443 128.714 141.665 123.719 137.887 123.719H132.03C127.849 123.719 127.433 123.291 122.823 123.291C118.214 123.291 108.188 128.714 108.188 128.714Z" fill="#263238"/>
<path d="M113.428 121.869C113.428 121.869 120.569 117.919 124.146 111.188C127.723 104.457 115.808 107.627 112.634 111.981C109.46 116.334 117.005 114.748 117.005 114.748" stroke="white" stroke-width="0.484928" stroke-linecap="round" stroke-linejoin="round"/>
<path d="M108.189 128.714C108.189 128.714 103.906 133.344 98.3519 133.746" stroke="white" stroke-width="0.484928" stroke-linecap="round" stroke-linejoin="round"/>
<path d="M110.254 134.539C110.254 134.539 102.697 138.101 98.7423 138.101" stroke="white" stroke-width="0.484928" stroke-linecap="round" stroke-linejoin="round"/>
<path d="M98.7423 141.257C98.7423 141.257 104.7 142.517 107.874 141.257" stroke="white" stroke-width="0.484928" stroke-linecap="round" stroke-linejoin="round"/>
<path d="M119.776 122.662C119.776 122.662 122.95 122.272 133.265 118.712C143.58 115.151 147.12 111.163 140.406 106.042" stroke="white" stroke-width="0.484928" stroke-linecap="round" stroke-linejoin="round"/>
<path d="M327.084 346.334C327.084 346.334 310.648 302.664 306.429 298.462C302.209 294.26 281.063 281.389 281.063 281.389L279.363 278.483L278.33 274.947C278.33 274.947 277.07 269.625 273.443 266.996L273.154 266.379L248.216 255.71C248.216 255.71 248.392 259.007 248.657 262.982C245.71 264.052 239.173 266.92 236.931 272.028C235.47 275.337 234.639 280.835 234.223 286.006L233.203 286.761L233.581 285.377C233.581 285.377 205.973 300.84 204.727 303.356C203.114 305.47 198.946 319.02 198.946 319.02C198.946 319.02 194.789 332.042 190.218 346.422C183.769 366.2 177.535 385.965 177.132 389.123C177.132 389.413 177.132 389.274 177.132 389.274C176.716 394.697 197.447 414.689 197.447 414.689H197.724L200.243 417.205C200.243 417.205 200.243 416.953 200.243 416.161C201.994 419.721 204.853 424.968 207.12 423.861C208.984 422.942 208.379 419.709 206.868 415.494C208.744 418.35 210.898 420.426 212.611 419.595C215.571 418.136 214.097 413.091 211.125 405.869C210.871 405.253 210.484 404.7 209.992 404.25C209.5 403.8 208.915 403.464 208.278 403.265C209.235 403.164 210.205 403.063 211.2 402.938C212.195 407.555 214.425 411.556 216.931 411.027C219.437 410.499 219.815 407.253 219.311 401.73C219.563 401.73 219.903 400.988 220.155 400.95C221.263 404.837 222.964 408.297 225.105 407.844C227.46 407.341 228.102 405.001 227.825 400.296C227.825 398.547 227.699 397.981 227.636 396.873C228.556 397.44 233.065 400.157 233.581 400.547C235.256 401.805 248.002 399.088 248.002 399.088C266.617 393.074 296.378 392.797 315.598 379.939C328.432 371.295 327.084 346.334 327.084 346.334ZM209.752 382.053L214.79 348.938L216.792 379.134L216.2 386.582L209.752 382.053Z" fill="white"/>
<path d="M204.802 302.639L234.79 285.025C234.79 285.025 236.667 268.971 240.495 267.335C240.495 267.335 245.76 262.743 251.743 263.649C255.168 264.152 257.7 259.875 259.639 252.427C259.639 237.694 259.438 218.885 259.287 207.134C258.027 201.334 256.667 196.628 256.214 194.791L242.082 188.865C242.082 188.865 239.06 178.674 223.518 176.397C207.976 174.12 191.313 190.765 189.411 202.101C187.51 213.437 198.505 225.528 194.336 231.957C190.167 238.386 172.736 247.822 168.189 258.78C163.643 269.739 164.776 277.3 164.776 277.3C164.776 277.3 177.283 295.052 173.87 301.104C170.456 307.156 150.381 312.817 150.758 330.582C151.111 347.039 167.421 358.626 185.495 360.777L204.802 302.639Z" fill="#263238"/>
<path d="M237.611 191.898C237.611 191.898 226.906 179.643 213.417 183.594C199.928 187.544 194.764 201.799 197.548 208.92C200.331 216.041 206.666 221.967 201.905 232.649C197.145 243.33 185.243 244.915 179.235 257.182C173.227 269.449 174.877 273.412 174.877 273.412" stroke="white" stroke-width="0.484928" stroke-linecap="round" stroke-linejoin="round"/>
<path d="M230.471 202.189C230.471 202.189 220.559 203.372 220.559 209.738C220.559 216.104 226.113 219.224 226.856 227.138C227.599 235.052 225.269 238.222 219.299 248.111C213.329 258 213.001 263.146 217.322 269.877C221.642 276.608 224.463 287.68 218.909 291.63" stroke="white" stroke-width="0.484928" stroke-linecap="round" stroke-linejoin="round"/>
<path d="M232.851 194.275C232.851 194.275 220.949 187.985 211.44 193.885C201.931 199.786 214.613 211.688 216.2 222.76C217.787 233.831 209.903 241.757 199.147 253.622C195.996 257.212 193.657 261.438 192.288 266.012C190.918 270.587 190.552 275.402 191.213 280.131" stroke="white" stroke-width="0.484928" stroke-linecap="round" stroke-linejoin="round"/>
<path d="M190.408 293.983C190.408 293.983 193.179 299.909 185.634 307.822C178.09 315.736 161.829 317.724 157.925 329.588C154.02 341.452 161.817 347.793 161.817 347.793" stroke="white" stroke-width="0.484928" stroke-linecap="round" stroke-linejoin="round"/>
<path d="M248.304 255.044C248.304 255.044 249.136 270.946 249.98 275.111C250.823 279.275 254.186 294.146 255.458 307.281C256.074 314.096 257.339 320.837 259.237 327.412C259.237 327.412 269.427 366.942 270.031 317.284C270.245 299.77 268.356 272.242 268.356 272.242L269.187 263.901" fill="white"/>
<g style="mix-blend-mode:multiply" opacity="0.3">
<path d="M265.345 265.209L249.979 275.111L248.997 258.39C248.997 258.39 259.262 264.454 265.345 265.209Z" fill="#407BFF"/>
</g>
<g style="mix-blend-mode:multiply" opacity="0.3">
<path d="M268.381 272.192C268.381 272.192 267.877 300.575 266.492 312.578C265.727 320.206 266.515 327.909 268.809 335.225C268.809 335.225 270.736 291.316 268.381 272.192Z" fill="#407BFF"/>
</g>
<path d="M248.304 255.044C248.304 255.044 249.136 270.946 249.98 275.111C250.823 279.275 254.186 294.146 255.458 307.281C256.074 314.096 257.339 320.837 259.237 327.412C259.237 327.412 269.427 366.942 270.031 317.284C270.245 299.77 268.356 272.242 268.356 272.242L269.187 263.901" stroke="#263238" stroke-width="0.969857" stroke-linecap="round" stroke-linejoin="round"/>
<path d="M237.221 321.674L234.563 327.361L252.046 344.409L237.221 321.674Z" fill="#407BFF"/>
<path opacity="0.7" d="M237.221 321.674L234.563 327.361L252.046 344.409L237.221 321.674Z" fill="white"/>
<path d="M216.855 334.243C216.855 334.243 222.699 320.756 224.538 323.826C226.377 326.896 214.701 340.069 219.311 341.905C223.921 343.742 230.647 336.999 228.531 342.509C226.415 348.02 222.699 354.462 222.699 357.23C222.699 359.997 223.959 387.261 223.959 387.261L224.274 389.098L220.583 391.614C220.583 391.614 216.591 387.626 216.591 384.254C216.591 380.883 215.974 367.395 215.974 364.338C215.974 361.281 214.538 350.498 214.538 350.498L216.855 334.243Z" fill="#407BFF"/>
<path opacity="0.7" d="M216.855 334.243C216.855 334.243 222.7 320.756 224.538 323.826C226.377 326.896 214.702 340.069 219.311 341.905C223.921 343.742 230.647 336.999 228.531 342.509C226.415 348.02 222.7 354.462 222.7 357.23C222.7 359.997 223.959 387.261 223.959 387.261L224.274 389.098L220.584 391.614C220.584 391.614 216.591 387.626 216.591 384.254C216.591 380.883 215.974 367.395 215.974 364.338C215.974 361.281 214.714 349.744 214.714 349.744L216.855 334.243Z" fill="white"/>
<path d="M248.506 262.882C248.506 262.882 239.942 264.681 237.007 271.362C234.072 278.042 233.669 293.467 234.085 297.631C234.318 300.982 234.318 304.346 234.085 307.697L245.798 303.922" fill="white"/>
<g style="mix-blend-mode:multiply" opacity="0.3">
<path d="M250.119 273.475C246.59 273.558 243.196 274.841 240.496 277.111C235.546 280.999 235.03 288.007 235.03 288.007C235.03 288.007 233.468 279.703 236.591 272.444C239.715 265.184 248.506 262.882 248.506 262.882L250.119 273.475Z" fill="#407BFF"/>
</g>
<path d="M248.506 262.882C248.506 262.882 239.942 264.681 237.007 271.362C234.072 278.042 233.669 293.467 234.085 297.631C234.318 300.982 234.318 304.346 234.085 307.697L245.798 303.922" stroke="#263238" stroke-width="0.969857" stroke-linecap="round" stroke-linejoin="round"/>
<path d="M248.72 304.727L235.76 319.322C235.76 319.322 245.383 334.331 249.98 339.339" stroke="#263238" stroke-width="0.969857" stroke-linecap="round" stroke-linejoin="round"/>
<path d="M281.769 337.25L288.457 311.811L276.743 303.004L285.95 300.085L278.393 274.23C278.393 274.23 276.995 267.738 272.096 265.649" stroke="#263238" stroke-width="0.969857" stroke-linecap="round" stroke-linejoin="round"/>
<path d="M255.017 292.209C255.017 292.209 259.199 297.243 263.834 296.387C268.469 295.532 268.431 293.052 268.431 293.052" stroke="#263238" stroke-width="0.969857" stroke-linecap="round" stroke-linejoin="round"/>
<path d="M214.097 297.468C214.097 297.468 207.334 304.828 207.636 306.665C207.938 308.502 215.936 311.874 214.097 314.012C212.258 316.151 207.636 310.955 206.717 311.874C205.797 312.792 188.895 370.402 190.432 371.295C191.968 372.189 195.658 368.842 196.578 370.994C197.497 373.145 181.212 379.259 184.588 381.059C187.963 382.858 196.263 378.907 194.663 379.524C193.064 380.14 188.517 385.953 189.751 388.406C190.986 390.86 204.147 403.29 204.147 403.29C203.372 403.609 202.751 404.216 202.415 404.984C202.079 405.751 202.055 406.619 202.346 407.404C202.696 408.985 203.587 410.396 204.865 411.392C204.865 411.392 201.339 408.486 200.797 411.631C200.489 413.272 200.308 414.933 200.255 416.601L191.628 408.071C184.6 400.925 178.882 394.231 177.195 388.482C177.195 388.482 176.892 389.325 178.744 382.581C180.595 375.837 199.021 318.227 199.021 318.227C199.021 318.227 203.19 304.664 204.79 302.563C206.389 300.462 214.097 297.468 214.097 297.468Z" fill="#407BFF"/>
<path opacity="0.7" d="M214.097 297.468C214.097 297.468 207.334 304.828 207.636 306.665C207.938 308.502 215.936 311.874 214.097 314.012C212.258 316.151 207.636 310.955 206.716 311.874C205.797 312.792 188.895 370.402 190.432 371.295C191.968 372.189 195.658 368.842 196.578 370.994C197.497 373.145 181.212 379.26 184.588 381.059C187.963 382.858 196.263 378.907 194.663 379.524C193.064 380.14 188.517 385.953 189.751 388.406C190.986 390.86 204.147 403.29 204.147 403.29C203.372 403.609 202.751 404.216 202.415 404.984C202.079 405.751 202.054 406.619 202.346 407.404C202.696 408.985 203.587 410.396 204.865 411.392C204.865 411.392 201.339 408.486 200.797 411.631C200.255 414.777 199.978 416.84 199.978 416.84L191.628 408.033C182.913 399.339 177.522 392.483 177.195 388.444C177.195 388.444 176.174 390.356 178.744 382.543C180.923 375.9 199.021 318.189 199.021 318.189C199.021 318.189 203.19 304.627 204.789 302.526C206.389 300.425 214.097 297.468 214.097 297.468Z" fill="white"/>
<path d="M229.236 289.089V312.578L244.06 308.791L248.998 303.104L233.795 306.136L234.79 284.962L229.236 289.089Z" fill="#407BFF"/>
<path opacity="0.7" d="M229.236 289.089V312.578L244.06 308.791L248.998 303.104L233.795 306.136L234.79 284.962L229.236 289.089Z" fill="white"/>
<path d="M233.669 284.71C233.669 284.71 206.062 300.135 204.802 302.639C203.543 305.143 177.623 383.16 177.207 388.557C176.792 393.955 197.699 414.412 197.699 414.412" stroke="#263238" stroke-width="0.969857" stroke-linecap="round" stroke-linejoin="round"/>
<path d="M218.191 323.914L209.827 381.461" stroke="#263238" stroke-width="0.969857" stroke-linecap="round" stroke-linejoin="round"/>
<path d="M219.021 320.567L220.281 314.73" stroke="#263238" stroke-width="0.969857" stroke-linecap="round" stroke-linejoin="round"/>
<path d="M185.986 384.808C185.986 384.808 191.427 377.259 199.374 377.712C207.322 378.165 219.023 389.388 219.023 389.388" stroke="#263238" stroke-width="0.969857" stroke-linecap="round" stroke-linejoin="round"/>
<path d="M188.492 376.04C190.246 374.464 192.481 373.525 194.834 373.375C197.188 373.224 199.524 373.87 201.465 375.209" stroke="#263238" stroke-width="0.969857" stroke-linecap="round" stroke-linejoin="round"/>
<path d="M227.309 393.413C227.218 392.72 226.965 392.059 226.57 391.481C226.175 390.904 225.65 390.428 225.037 390.091C224.424 389.754 223.74 389.566 223.041 389.542C222.341 389.519 221.646 389.659 221.012 389.954C220.496 390.212 220.057 390.599 219.737 391.078C219.417 391.556 219.227 392.11 219.185 392.684C218.719 397.276 221.541 408.561 225.319 407.781C228.455 407.077 228.355 401.138 227.309 393.413Z" fill="white" stroke="#263238" stroke-width="0.969857" stroke-linecap="round" stroke-linejoin="round"/>
<path d="M218.896 396.748C218.803 396.056 218.549 395.395 218.153 394.82C217.758 394.244 217.232 393.769 216.619 393.434C216.007 393.098 215.323 392.911 214.625 392.888C213.926 392.865 213.232 393.006 212.598 393.3C212.083 393.554 211.642 393.939 211.322 394.416C211.002 394.893 210.812 395.445 210.772 396.018C210.306 400.61 213.127 411.896 216.906 411.116C220.092 410.411 219.992 404.485 218.896 396.748Z" fill="white" stroke="#263238" stroke-width="0.969857" stroke-linecap="round" stroke-linejoin="round"/>
<path d="M211.213 405.152C210.952 404.498 210.54 403.915 210.011 403.451C209.481 402.987 208.849 402.654 208.167 402.48C207.484 402.305 206.77 402.295 206.082 402.449C205.395 402.603 204.753 402.917 204.21 403.365C203.772 403.74 203.44 404.223 203.247 404.766C203.055 405.31 203.009 405.894 203.114 406.46C203.795 411.015 209.337 421.319 212.775 419.57C215.735 418.06 214.098 411.971 211.213 405.152Z" fill="white" stroke="#263238" stroke-width="0.969857" stroke-linecap="round" stroke-linejoin="round"/>
<path d="M205.797 413.204C205.605 412.714 205.298 412.277 204.903 411.929C204.508 411.581 204.036 411.331 203.526 411.201C203.015 411.071 202.481 411.063 201.967 411.18C201.453 411.296 200.975 411.533 200.57 411.87C200.245 412.153 199.998 412.514 199.852 412.92C199.707 413.325 199.668 413.761 199.739 414.185C200.256 417.595 204.387 425.244 206.969 423.974C209.186 422.879 208.014 418.614 205.797 413.204Z" fill="white" stroke="#263238" stroke-width="0.969857" stroke-linecap="round" stroke-linejoin="round"/>
<path d="M227.951 396.458C227.951 396.458 231.226 399.994 233.657 400.749C235.659 401.365 246.076 399.49 246.076 399.49" stroke="#263238" stroke-width="0.969857" stroke-linecap="round" stroke-linejoin="round"/>
<path d="M242.864 407.329C242.864 407.329 236.176 408.989 231.529 409.845C226.881 410.7 221.906 411.103 221.906 411.103C221.906 411.103 218.556 415.28 216.049 415.28" stroke="#263238" stroke-width="0.969857" stroke-linecap="round" stroke-linejoin="round"/>
<path d="M281.151 280.709C281.151 280.709 302.298 293.593 306.517 297.795C310.736 301.997 325.547 341.402 325.547 341.402" stroke="#263238" stroke-width="0.969857" stroke-linecap="round" stroke-linejoin="round"/>
<path d="M301.252 308.829L305.988 342.987" stroke="#263238" stroke-width="0.969857" stroke-linecap="round" stroke-linejoin="round"/>
<path d="M305.988 338.873L303.041 313.497L316.064 342.157L306.58 342.585L305.988 338.873Z" fill="#407BFF"/>
<path opacity="0.7" d="M305.988 338.873L303.041 313.497L316.064 342.157L306.58 342.585L305.988 338.873Z" fill="white"/>
<path d="M225.458 326.367L217.271 339.792L224.211 334.306" stroke="#263238" stroke-width="0.969857" stroke-linecap="round" stroke-linejoin="round"/>
<path d="M214.991 350.561C214.991 350.561 216.692 375.498 216.692 378.895C216.692 382.292 216.213 386.771 216.213 386.771" stroke="#263238" stroke-width="0.969857" stroke-linecap="round" stroke-linejoin="round"/>
<path d="M243.279 187.532C243.279 187.532 231.15 194.615 230.319 205.045C229.918 211.924 230.624 218.822 232.41 225.477C232.41 225.477 228.631 222.143 228.228 229.654C227.825 237.165 234.085 242.99 236.591 242.99H239.11C239.11 242.99 244.689 254.44 251.39 259.862C258.09 265.285 264.627 265.524 269.224 263.85C273.821 262.177 282.612 254.679 283.456 244.664C284.3 234.649 283.456 217.966 282.612 207.549C281.768 197.131 279.69 189.608 268.393 185.858C257.095 182.109 249.135 184.6 243.279 187.532Z" fill="white"/>
<g style="mix-blend-mode:multiply" opacity="0.3">
<path d="M232.41 225.477C232.41 225.477 228.631 222.143 228.228 229.654C227.825 237.165 234.085 242.99 236.591 242.99H239.11C239.11 242.99 244.69 254.427 251.391 259.862L254.263 261.837C255.241 262.429 256.264 262.942 257.323 263.372C255.069 260.604 250.169 254.226 247.864 248.489C244.816 240.94 244.086 224.999 244.816 214.77C245.547 204.542 250.9 200.365 250.9 200.365L243.342 199.987C242.221 199.987 236.365 208.694 230.42 213.688L232.41 225.477Z" fill="#407BFF"/>
</g>
<path d="M243.279 187.532C243.279 187.532 231.15 194.615 230.319 205.045C229.918 211.924 230.624 218.822 232.41 225.477C232.41 225.477 228.631 222.143 228.228 229.654C227.825 237.165 234.085 242.99 236.591 242.99H239.11C239.11 242.99 244.689 254.44 251.39 259.862C258.09 265.285 264.627 265.524 269.224 263.85C273.821 262.177 282.612 254.679 283.456 244.664C284.3 234.649 283.456 217.966 282.612 207.549C281.768 197.131 279.69 189.608 268.393 185.858C257.095 182.109 249.135 184.6 243.279 187.532Z" stroke="#263238" stroke-width="0.969857" stroke-linecap="round" stroke-linejoin="round"/>
<path d="M262.649 225.817C262.649 225.817 266.151 219.841 269.64 223.301L272.159 235.165L267.121 236.197L267.599 243.607" stroke="#263238" stroke-width="0.969857" stroke-linecap="round" stroke-linejoin="round"/>
<path d="M255.169 233.278C259.301 233.278 262.65 229.937 262.65 225.817C262.65 221.696 259.301 218.356 255.169 218.356C251.037 218.356 247.687 221.696 247.687 225.817C247.687 229.937 251.037 233.278 255.169 233.278Z" fill="#407BFF" stroke="#263238" stroke-width="0.969857" stroke-linecap="round" stroke-linejoin="round"/>
<path opacity="0.4" d="M255.169 233.278C259.301 233.278 262.65 229.937 262.65 225.817C262.65 221.696 259.301 218.356 255.169 218.356C251.037 218.356 247.687 221.696 247.687 225.817C247.687 229.937 251.037 233.278 255.169 233.278Z" fill="white" stroke="#263238" stroke-width="1.16689" stroke-miterlimit="10"/>
<path d="M286.618 224.32C286.62 222.841 286.184 221.395 285.365 220.164C284.546 218.933 283.38 217.971 282.015 217.401C280.649 216.831 279.145 216.677 277.692 216.959C276.24 217.242 274.903 217.947 273.851 218.988C272.799 220.028 272.08 221.356 271.782 222.804C271.485 224.252 271.624 225.756 272.181 227.126C272.738 228.495 273.689 229.67 274.913 230.5C276.138 231.331 277.581 231.781 279.061 231.793C280.05 231.803 281.031 231.617 281.947 231.246C282.863 230.875 283.697 230.326 284.4 229.631C285.103 228.936 285.661 228.109 286.041 227.197C286.422 226.286 286.618 225.308 286.618 224.32V224.32Z" fill="#407BFF" stroke="#263238" stroke-width="0.969857" stroke-linecap="round" stroke-linejoin="round"/>
<path opacity="0.4" d="M286.618 224.32C286.62 222.841 286.184 221.395 285.365 220.164C284.546 218.933 283.38 217.971 282.015 217.401C280.649 216.831 279.145 216.677 277.692 216.959C276.24 217.242 274.903 217.947 273.851 218.988C272.799 220.028 272.08 221.356 271.782 222.804C271.485 224.252 271.624 225.756 272.181 227.126C272.738 228.495 273.689 229.67 274.913 230.5C276.138 231.331 277.581 231.781 279.061 231.793C280.05 231.803 281.031 231.617 281.947 231.246C282.863 230.875 283.697 230.326 284.4 229.631C285.103 228.936 285.661 228.109 286.041 227.197C286.422 226.286 286.618 225.308 286.618 224.32V224.32Z" fill="white" stroke="#263238" stroke-width="1.16689" stroke-miterlimit="10"/>
<path d="M247.688 225.817L232.712 226.812" stroke="#263238" stroke-width="0.969857" stroke-linecap="round" stroke-linejoin="round"/>
<path d="M249.072 215.841C249.946 214.768 251.097 213.955 252.401 213.491C253.704 213.028 255.111 212.93 256.466 213.21" stroke="#263238" stroke-width="0.969857" stroke-linecap="round" stroke-linejoin="round"/>
<path d="M272.335 212.682C273.57 212.004 274.997 211.76 276.388 211.988C277.778 212.216 279.052 212.904 280.005 213.941" stroke="#263238" stroke-width="0.969857" stroke-linecap="round" stroke-linejoin="round"/>
<path d="M282.6 207.549C281.768 197.119 279.678 189.608 268.38 185.858C257.083 182.109 249.135 184.6 243.279 187.532C243.279 187.532 231.15 194.615 230.319 205.045C229.918 211.924 230.624 218.822 232.41 225.477C232.41 225.477 235.76 228.811 236.591 224.219C237.422 219.627 234.916 212.116 246.667 203.359C258.418 194.602 275.106 198.779 280.962 207.134C281.646 207.681 282.238 208.335 282.713 209.071C282.726 208.92 282.612 207.737 282.6 207.549Z" fill="#263238"/>
<path d="M99.8264 253.836C99.8264 253.836 89.7502 252.175 82.1931 257.182C80.0416 258.612 78.3461 260.629 77.3079 262.993C76.2697 265.357 75.9325 267.969 76.3363 270.519" stroke="#263238" stroke-width="0.969857" stroke-linecap="round" stroke-linejoin="round"/>
<path d="M78.0748 254.679C78.0748 254.679 73.0367 260.516 73.0367 265.524" stroke="#263238" stroke-width="0.969857" stroke-linecap="round" stroke-linejoin="round"/>
<path d="M46.701 230.9C46.701 230.9 51.7389 261.347 56.3234 270.519C60.9079 279.69 73.956 288.46 83.9309 292.624C93.9059 296.788 140.809 303.469 142.484 303.054C144.159 302.639 134.536 293.882 136.627 283.037C137.672 277.652 144.99 272.192 144.99 272.192C144.99 272.192 124.498 263.385 116.551 260.101C108.604 256.817 99.8254 253.81 99.8254 253.81C99.8254 253.81 88.4902 243.393 83.0997 238.801C78.1433 234.905 72.9759 231.284 67.6208 227.956" stroke="#263238" stroke-width="0.969857" stroke-linecap="round" stroke-linejoin="round"/>
<path d="M185.004 287.39L190.47 294.184C191.575 295.197 192.754 296.126 193.997 296.965C195.634 297.845 197.045 300.513 194.79 301.154C193.762 301.448 192.68 301.5 191.629 301.306C190.578 301.111 189.586 300.676 188.732 300.034L183.417 296.147L178.97 292.133L182.195 286.346L185.004 287.39Z" fill="white" stroke="#263238" stroke-width="0.969857" stroke-linecap="round" stroke-linejoin="round"/>
<path d="M144.99 272.192C144.99 272.192 157.962 275.111 162.144 275.966C166.325 276.822 187.661 280.559 190.583 281.804C193.505 283.05 202.711 283.477 202.296 287.227C201.88 290.976 198.114 290.146 195.192 289.743C192.27 289.34 183.051 287.667 183.051 287.667C183.051 287.667 185.986 293.09 185.154 294.335C184.323 295.581 165.494 302.261 161.728 302.261C157.962 302.261 155.431 295.581 153.781 293.454L148.743 287.164L138.667 282.584" fill="white"/>
<path d="M144.99 272.192C144.99 272.192 157.962 275.111 162.144 275.966C166.325 276.822 187.661 280.559 190.583 281.804C193.505 283.05 202.711 283.477 202.296 287.227C201.88 290.976 198.114 290.146 195.192 289.743C192.27 289.34 183.051 287.667 183.051 287.667C183.051 287.667 185.986 293.09 185.154 294.335C184.323 295.581 165.494 302.261 161.728 302.261C157.962 302.261 155.431 295.581 153.781 293.454L148.743 287.164L138.667 282.584" stroke="#263238" stroke-width="0.969857" stroke-linecap="round" stroke-linejoin="round"/>
<path d="M183.051 287.631L180.129 283.452" stroke="#263238" stroke-width="0.969857" stroke-linecap="round" stroke-linejoin="round"/>
<path d="M142.484 303.054C144.671 301.064 146.376 298.602 147.467 295.855C148.559 293.108 149.008 290.148 148.781 287.201" stroke="#263238" stroke-width="0.969857" stroke-linecap="round" stroke-linejoin="round"/>
<path d="M164.65 292.624L168.001 300.55" stroke="#263238" stroke-width="0.969857" stroke-linecap="round" stroke-linejoin="round"/>
<path d="M173.013 289.29L176.363 298.047" stroke="#263238" stroke-width="0.969857" stroke-linecap="round" stroke-linejoin="round"/>
<path d="M253.329 350.184V448.193L384.239 440.694V343.516L253.329 350.184Z" fill="#263238" stroke="#263238" stroke-width="0.969857" stroke-linecap="round" stroke-linejoin="round"/>
<path d="M384.239 343.516L377.538 339.754L247.889 346.019V441.525L253.33 448.193V350.184L384.239 343.516Z" fill="white" stroke="#263238" stroke-width="0.969857" stroke-linecap="round" stroke-linejoin="round"/>
<path d="M247.889 346.019L253.317 350.185" stroke="#263238" stroke-width="0.969857" stroke-linecap="round" stroke-linejoin="round"/>
<path d="M305.61 407.328V473.645L341.58 471.141V404.41L305.61 407.328Z" fill="#263238" stroke="#263238" stroke-width="0.969857" stroke-linecap="round" stroke-linejoin="round"/>
<path d="M304.489 444.871V407.328L341.58 404.41L341.681 442.544" stroke="white" stroke-width="0.969857" stroke-linecap="round" stroke-linejoin="round"/>
<path d="M305.611 473.645L286.781 456.962L305.611 456.119" fill="white"/>
<path d="M305.611 473.645L286.781 456.962L305.611 456.119" stroke="#263238" stroke-width="0.969857" stroke-linecap="round" stroke-linejoin="round"/>
<path opacity="0.7" d="M77.4952 412.361L196.452 424.263C196.452 424.263 191.893 420.602 193.669 420.25C197.044 419.595 202.044 419.142 202.044 419.142L191.553 408.096L77.4952 412.361" fill="#407BFF"/>
<path opacity="0.7" d="M77.4952 412.361L196.452 424.263C196.452 424.263 191.893 420.602 193.669 420.25C197.044 419.595 202.044 419.142 202.044 419.142L191.553 408.096L77.4952 412.361" fill="white"/>
<path d="M191.641 408.146L5.9953 414.752" stroke="#263238" stroke-width="0.969857" stroke-linecap="round" stroke-linejoin="round"/>
<path d="M383.345 404.158L508.485 481.307" stroke="#263238" stroke-width="0.969857" stroke-linecap="round" stroke-linejoin="round"/>
<path d="M155.872 423.584L90.3669 431.573L132.572 475.847L203.178 467.128L155.872 423.584Z" fill="#407BFF"/>
<path opacity="0.7" d="M155.872 423.584L90.3669 431.573L132.572 475.847L203.178 467.128L155.872 423.584Z" fill="white"/>
<path d="M88.9059 441.009L147.131 433.75L189.349 476.564L122.383 486L88.9059 441.009Z" fill="white"/>
<path d="M124.385 479.772C124.285 479.772 124.189 479.732 124.118 479.662C124.047 479.591 124.007 479.495 124.007 479.395C124.007 479.295 124.047 479.199 124.118 479.128C124.189 479.057 124.285 479.017 124.385 479.017L177.938 472.135C178.037 472.127 178.136 472.156 178.215 472.217C178.294 472.277 178.348 472.365 178.366 472.462C178.373 472.513 178.37 472.564 178.356 472.614C178.343 472.663 178.319 472.709 178.288 472.749C178.256 472.789 178.216 472.822 178.171 472.846C178.126 472.871 178.077 472.886 178.026 472.89L124.486 479.772H124.385Z" fill="#407BFF"/>
<path d="M121.4 476.199C121.3 476.199 121.204 476.159 121.133 476.089C121.062 476.018 121.022 475.922 121.022 475.822C121.022 475.721 121.062 475.625 121.133 475.555C121.204 475.484 121.3 475.444 121.4 475.444L174.953 468.562C175.053 468.549 175.154 468.576 175.235 468.637C175.315 468.698 175.368 468.789 175.381 468.889C175.394 468.989 175.367 469.091 175.306 469.171C175.244 469.251 175.154 469.304 175.053 469.317L121.513 476.199H121.4Z" fill="#407BFF"/>
<path d="M118.428 472.626C118.334 472.626 118.243 472.592 118.173 472.529C118.103 472.466 118.059 472.38 118.05 472.286C118.039 472.187 118.067 472.087 118.128 472.007C118.189 471.927 118.278 471.874 118.377 471.858L171.892 464.976C171.993 464.972 172.091 465.004 172.17 465.066C172.249 465.129 172.302 465.217 172.32 465.316C172.326 465.366 172.321 465.416 172.307 465.464C172.292 465.512 172.269 465.556 172.237 465.595C172.205 465.633 172.167 465.665 172.122 465.689C172.078 465.712 172.03 465.727 171.98 465.731L118.44 472.626H118.428Z" fill="#407BFF"/>
<path d="M115.443 469.04C115.343 469.04 115.247 469 115.176 468.93C115.105 468.859 115.065 468.763 115.065 468.663C115.065 468.563 115.105 468.467 115.176 468.396C115.247 468.325 115.343 468.285 115.443 468.285L168.996 461.403C169.095 461.392 169.196 461.42 169.275 461.481C169.355 461.542 169.408 461.631 169.424 461.73C169.431 461.78 169.428 461.831 169.415 461.879C169.403 461.928 169.38 461.973 169.35 462.013C169.319 462.053 169.281 462.086 169.238 462.111C169.194 462.136 169.146 462.152 169.096 462.158L115.544 469.04H115.443Z" fill="#407BFF"/>
<path d="M112.471 465.467C112.379 465.468 112.289 465.435 112.22 465.375C112.15 465.315 112.105 465.231 112.093 465.14C112.086 465.09 112.089 465.04 112.101 464.991C112.114 464.943 112.136 464.897 112.167 464.858C112.197 464.818 112.235 464.784 112.279 464.759C112.322 464.734 112.37 464.718 112.42 464.712L165.973 457.83C166.073 457.819 166.173 457.847 166.253 457.908C166.332 457.969 166.385 458.058 166.401 458.157C166.408 458.208 166.405 458.259 166.391 458.309C166.378 458.358 166.354 458.404 166.323 458.444C166.291 458.484 166.251 458.517 166.206 458.541C166.161 458.566 166.112 458.581 166.061 458.585L112.521 465.467H112.471Z" fill="#407BFF"/>
<path d="M109.485 461.881C109.392 461.882 109.301 461.847 109.231 461.785C109.161 461.722 109.117 461.635 109.108 461.542C109.1 461.443 109.129 461.344 109.189 461.265C109.25 461.186 109.337 461.132 109.435 461.114L162.988 454.232C163.089 454.221 163.191 454.251 163.271 454.314C163.351 454.378 163.403 454.47 163.416 454.572C163.427 454.67 163.398 454.768 163.337 454.846C163.276 454.924 163.187 454.974 163.088 454.987L109.536 461.881H109.485Z" fill="#407BFF"/>
<path d="M106.513 458.308C106.421 458.309 106.332 458.276 106.262 458.216C106.193 458.156 106.148 458.072 106.135 457.981C106.128 457.932 106.131 457.881 106.144 457.833C106.157 457.784 106.179 457.739 106.209 457.699C106.24 457.659 106.278 457.626 106.321 457.601C106.365 457.576 106.413 457.56 106.463 457.553L160.015 450.671C160.115 450.663 160.213 450.693 160.292 450.753C160.371 450.813 160.425 450.901 160.444 450.999C160.451 451.049 160.447 451.101 160.434 451.15C160.42 451.199 160.397 451.245 160.365 451.285C160.334 451.325 160.294 451.358 160.249 451.383C160.204 451.407 160.155 451.422 160.104 451.426L106.564 458.308H106.513Z" fill="#407BFF"/>
<path d="M103.528 454.735C103.428 454.735 103.332 454.696 103.261 454.625C103.19 454.554 103.151 454.458 103.151 454.358C103.151 454.258 103.19 454.162 103.261 454.091C103.332 454.02 103.428 453.98 103.528 453.98L157.081 447.098C157.131 447.092 157.181 447.095 157.229 447.108C157.278 447.121 157.323 447.143 157.363 447.173C157.403 447.204 157.436 447.242 157.461 447.285C157.486 447.328 157.503 447.376 157.509 447.425C157.516 447.475 157.513 447.525 157.5 447.574C157.487 447.622 157.465 447.667 157.434 447.707C157.404 447.747 157.366 447.78 157.322 447.805C157.279 447.83 157.231 447.847 157.182 447.853L103.629 454.735H103.528Z" fill="#407BFF"/>
<path d="M100.556 451.162C100.462 451.163 100.371 451.128 100.301 451.065C100.231 451.002 100.188 450.916 100.178 450.822C100.167 450.723 100.195 450.623 100.256 450.543C100.317 450.463 100.406 450.41 100.506 450.395L154.058 443.513C154.159 443.505 154.259 443.536 154.339 443.599C154.418 443.662 154.471 443.752 154.486 443.852C154.492 443.902 154.487 443.952 154.473 444C154.458 444.048 154.435 444.092 154.403 444.131C154.371 444.169 154.332 444.201 154.288 444.225C154.244 444.248 154.196 444.263 154.146 444.267L100.606 451.162H100.556Z" fill="#407BFF"/>
<path d="M97.5835 447.576C97.4833 447.576 97.3872 447.537 97.3164 447.466C97.2455 447.395 97.2057 447.299 97.2057 447.199C97.2057 447.099 97.2455 447.003 97.3164 446.932C97.3872 446.861 97.4833 446.822 97.5835 446.822L151.136 439.94C151.236 439.929 151.336 439.957 151.416 440.017C151.496 440.078 151.549 440.168 151.564 440.267C151.571 440.316 151.569 440.367 151.556 440.415C151.543 440.464 151.521 440.509 151.49 440.549C151.46 440.589 151.422 440.622 151.378 440.647C151.335 440.672 151.287 440.688 151.237 440.694L97.5835 447.576Z" fill="#407BFF"/>
<g opacity="0.7">
<path opacity="0.7" d="M124.386 479.772C124.286 479.772 124.19 479.732 124.119 479.662C124.048 479.591 124.008 479.495 124.008 479.395C124.008 479.295 124.048 479.199 124.119 479.128C124.19 479.057 124.286 479.017 124.386 479.017L177.939 472.135C178.038 472.127 178.137 472.156 178.216 472.217C178.295 472.277 178.349 472.365 178.367 472.462C178.374 472.513 178.371 472.564 178.357 472.614C178.344 472.663 178.32 472.709 178.289 472.749C178.257 472.789 178.217 472.822 178.172 472.846C178.127 472.871 178.078 472.886 178.027 472.89L124.487 479.772H124.386Z" fill="white"/>
<path opacity="0.7" d="M121.401 476.199C121.301 476.199 121.205 476.159 121.134 476.089C121.063 476.018 121.023 475.922 121.023 475.822C121.023 475.722 121.063 475.626 121.134 475.555C121.205 475.484 121.301 475.444 121.401 475.444L174.954 468.562C175.054 468.549 175.155 468.576 175.236 468.637C175.316 468.699 175.368 468.789 175.382 468.889C175.395 468.989 175.368 469.091 175.307 469.171C175.245 469.251 175.155 469.304 175.054 469.317L121.514 476.199H121.401Z" fill="white"/>
<path opacity="0.7" d="M118.429 472.626C118.335 472.626 118.244 472.592 118.174 472.529C118.104 472.466 118.06 472.38 118.051 472.286C118.04 472.187 118.068 472.087 118.129 472.007C118.19 471.927 118.279 471.874 118.378 471.859L171.893 464.976C171.993 464.972 172.092 465.004 172.171 465.066C172.25 465.129 172.303 465.217 172.321 465.316C172.326 465.366 172.322 465.416 172.308 465.464C172.293 465.512 172.27 465.556 172.238 465.595C172.206 465.633 172.167 465.665 172.123 465.689C172.079 465.712 172.031 465.727 171.981 465.731L118.441 472.626H118.429Z" fill="white"/>
<path opacity="0.7" d="M115.444 469.04C115.343 469.04 115.247 469.001 115.176 468.93C115.105 468.859 115.066 468.763 115.066 468.663C115.066 468.563 115.105 468.467 115.176 468.396C115.247 468.325 115.343 468.285 115.444 468.285L168.996 461.403C169.096 461.392 169.196 461.42 169.276 461.481C169.356 461.542 169.409 461.631 169.424 461.731C169.431 461.78 169.429 461.831 169.416 461.879C169.403 461.928 169.381 461.973 169.35 462.013C169.32 462.053 169.282 462.086 169.238 462.111C169.195 462.136 169.147 462.152 169.097 462.158L115.544 469.04H115.444Z" fill="white"/>
<path opacity="0.7" d="M112.471 465.467C112.379 465.468 112.29 465.435 112.22 465.375C112.151 465.315 112.106 465.231 112.093 465.14C112.086 465.09 112.089 465.04 112.102 464.991C112.115 464.943 112.137 464.897 112.167 464.858C112.198 464.818 112.236 464.784 112.279 464.759C112.323 464.734 112.371 464.718 112.421 464.712L165.973 457.83C166.073 457.819 166.173 457.847 166.253 457.908C166.333 457.969 166.386 458.058 166.402 458.157C166.409 458.208 166.405 458.259 166.392 458.309C166.378 458.358 166.355 458.404 166.323 458.444C166.291 458.484 166.252 458.517 166.207 458.541C166.162 458.566 166.112 458.581 166.062 458.585L112.522 465.467H112.471Z" fill="white"/>
<path opacity="0.7" d="M109.486 461.881C109.392 461.882 109.301 461.847 109.231 461.785C109.162 461.722 109.118 461.635 109.108 461.542C109.1 461.443 109.129 461.344 109.19 461.265C109.25 461.186 109.338 461.132 109.436 461.114L162.988 454.232C163.09 454.221 163.192 454.251 163.272 454.314C163.352 454.378 163.404 454.47 163.416 454.572C163.427 454.67 163.399 454.768 163.338 454.846C163.276 454.924 163.187 454.974 163.089 454.987L109.536 461.881H109.486Z" fill="white"/>
<path opacity="0.7" d="M106.513 458.308C106.421 458.309 106.332 458.276 106.263 458.216C106.193 458.156 106.148 458.072 106.136 457.981C106.129 457.932 106.131 457.881 106.144 457.833C106.157 457.784 106.179 457.739 106.21 457.699C106.24 457.659 106.278 457.626 106.322 457.601C106.365 457.576 106.413 457.56 106.463 457.553L160.016 450.671C160.115 450.664 160.214 450.693 160.293 450.753C160.372 450.813 160.426 450.901 160.444 450.999C160.451 451.049 160.448 451.101 160.434 451.15C160.421 451.199 160.397 451.245 160.366 451.285C160.334 451.325 160.294 451.358 160.249 451.383C160.204 451.407 160.155 451.422 160.104 451.426L106.564 458.308H106.513Z" fill="white"/>
<path opacity="0.7" d="M103.529 454.735C103.428 454.735 103.332 454.695 103.261 454.625C103.191 454.554 103.151 454.458 103.151 454.358C103.151 454.258 103.191 454.162 103.261 454.091C103.332 454.02 103.428 453.98 103.529 453.98L157.081 447.098C157.131 447.092 157.181 447.095 157.23 447.108C157.278 447.121 157.323 447.143 157.363 447.173C157.403 447.204 157.436 447.242 157.461 447.285C157.486 447.328 157.503 447.376 157.509 447.425C157.516 447.475 157.513 447.525 157.5 447.574C157.487 447.622 157.465 447.667 157.434 447.707C157.404 447.747 157.366 447.78 157.323 447.805C157.279 447.83 157.232 447.847 157.182 447.853L103.629 454.735H103.529Z" fill="white"/>
<path opacity="0.7" d="M100.556 451.163C100.462 451.164 100.371 451.129 100.301 451.066C100.231 451.004 100.188 450.917 100.178 450.824C100.167 450.724 100.195 450.624 100.256 450.544C100.317 450.465 100.406 450.412 100.506 450.396L154.058 443.514C154.159 443.506 154.259 443.537 154.339 443.6C154.418 443.663 154.471 443.754 154.486 443.854C154.492 443.903 154.487 443.953 154.473 444.001C154.458 444.049 154.435 444.093 154.403 444.132C154.371 444.171 154.332 444.203 154.288 444.226C154.244 444.25 154.196 444.264 154.146 444.269L100.606 451.163H100.556Z" fill="white"/>
<path opacity="0.7" d="M97.5835 447.576C97.4833 447.576 97.3872 447.537 97.3164 447.466C97.2455 447.395 97.2057 447.299 97.2057 447.199C97.2057 447.099 97.2455 447.003 97.3164 446.932C97.3872 446.861 97.4833 446.822 97.5835 446.822L151.136 439.94C151.236 439.929 151.336 439.957 151.416 440.017C151.496 440.078 151.549 440.168 151.564 440.267C151.571 440.316 151.569 440.367 151.556 440.415C151.543 440.464 151.521 440.509 151.49 440.549C151.46 440.589 151.422 440.622 151.378 440.647C151.335 440.672 151.287 440.688 151.237 440.694L97.5835 447.576Z" fill="white"/>
</g>
<path d="M154.26 201.283C154.26 201.283 164.336 204.63 166.855 208.832C169.374 213.034 175.848 235.417 175.848 235.417" stroke="#263238" stroke-width="0.969857" stroke-linecap="round" stroke-linejoin="round"/>
</svg>
