<svg width="484" height="369" viewBox="0 0 484 369" fill="none" xmlns="http://www.w3.org/2000/svg">
<path d="M483.568 324.271H0.0142822V324.518H483.568V324.271Z" fill="#E6E6E6"/>
<path d="M120.729 339.257H88.6981V339.504H120.729V339.257Z" fill="#E6E6E6"/>
<path d="M78.5623 339.257H60.0035V339.504H78.5623V339.257Z" fill="#E6E6E6"/>
<path d="M203.638 342.901H185.079V343.149H203.638V342.901Z" fill="#E6E6E6"/>
<path d="M300.407 348.429H258.638V348.676H300.407V348.429Z" fill="#E6E6E6"/>
<path d="M250.031 348.429H243.909V348.676H250.031V348.429Z" fill="#E6E6E6"/>
<path d="M438.453 342.901H347.855V343.149H438.453V342.901Z" fill="#E6E6E6"/>
<path d="M229.219 280.097H42.4797C41.0168 280.095 39.6147 279.498 38.5812 278.437C37.5476 277.377 36.9672 275.94 36.9672 274.442V5.60591C36.9799 4.11631 37.566 2.692 38.5981 1.64237C39.6303 0.592739 41.0251 0.00255177 42.4797 0H229.219C230.683 0 232.088 0.595838 233.123 1.65644C234.159 2.71704 234.741 4.15552 234.741 5.65543V274.442C234.741 275.942 234.159 277.38 233.123 278.441C232.088 279.501 230.683 280.097 229.219 280.097ZM42.4797 0.198089C41.0809 0.200713 39.7403 0.77162 38.7521 1.7855C37.7639 2.79938 37.2089 4.17338 37.2089 5.60591V274.442C37.2089 275.874 37.7639 277.248 38.7521 278.262C39.7403 279.276 41.0809 279.847 42.4797 279.85H229.219C230.618 279.847 231.96 279.276 232.95 278.263C233.939 277.249 234.496 275.875 234.499 274.442V5.60591C234.496 4.17247 233.939 2.79849 232.95 1.78489C231.96 0.771298 230.618 0.200708 229.219 0.198089H42.4797Z" fill="#E6E6E6"/>
<path d="M438.414 280.097H251.665C250.201 280.095 248.798 279.498 247.763 278.438C246.728 277.378 246.146 275.941 246.143 274.442V5.60591C246.158 4.1154 246.747 2.69111 247.78 1.64175C248.814 0.592393 250.21 0.00252394 251.665 0H438.414C439.867 0.00515476 441.259 0.596493 442.289 1.64585C443.319 2.6952 443.904 4.11802 443.917 5.60591V274.442C443.917 275.938 443.337 277.374 442.306 278.434C441.275 279.494 439.875 280.092 438.414 280.097ZM251.665 0.198089C250.266 0.200708 248.924 0.771298 247.934 1.78489C246.944 2.79849 246.387 4.17247 246.385 5.60591V274.442C246.387 275.875 246.944 277.249 247.934 278.263C248.924 279.276 250.266 279.847 251.665 279.85H438.414C439.813 279.847 441.155 279.276 442.145 278.263C443.134 277.249 443.692 275.875 443.694 274.442V5.60591C443.692 4.17247 443.134 2.79849 442.145 1.78489C441.155 0.771298 439.813 0.200708 438.414 0.198089H251.665Z" fill="#E6E6E6"/>
<path d="M258.619 239.668H237.353V326.064H258.619V239.668Z" fill="#E0E0E0"/>
<path d="M254.576 326.064H258.619V314.298H250.34L254.576 326.064Z" fill="#FAFAFA"/>
<path d="M165.429 239.668H144.162V326.064H165.429V239.668Z" fill="#E0E0E0"/>
<path d="M258.619 239.668H161.908V318.844H258.619V239.668Z" fill="#FAFAFA"/>
<path d="M255.109 243.56V264.508H165.39V243.56H255.08H255.109ZM255.457 243.174H165.042V264.884H255.486V243.174H255.457Z" fill="#E0E0E0"/>
<path d="M165.941 326.064H161.908V314.298H170.177L165.941 326.064Z" fill="#FAFAFA"/>
<path d="M208.126 254.029C208.126 254.462 208.252 254.885 208.487 255.245C208.721 255.605 209.055 255.885 209.446 256.051C209.836 256.217 210.266 256.26 210.681 256.176C211.095 256.091 211.476 255.883 211.775 255.576C212.074 255.27 212.277 254.88 212.36 254.456C212.442 254.031 212.4 253.591 212.238 253.191C212.077 252.791 211.803 252.449 211.451 252.209C211.1 251.968 210.686 251.84 210.264 251.84C209.697 251.84 209.153 252.07 208.752 252.481C208.352 252.891 208.126 253.448 208.126 254.029Z" fill="#E6E6E6"/>
<path d="M255.109 268.778V289.726H165.39V268.778H255.08H255.109ZM255.457 268.401H165.042V290.112H255.486V268.411L255.457 268.401Z" fill="#E0E0E0"/>
<path d="M208.126 279.305C208.126 279.738 208.252 280.161 208.487 280.521C208.721 280.881 209.055 281.162 209.446 281.327C209.836 281.493 210.266 281.536 210.681 281.452C211.095 281.367 211.476 281.159 211.775 280.853C212.074 280.547 212.277 280.157 212.36 279.732C212.442 279.308 212.4 278.867 212.238 278.467C212.077 278.067 211.803 277.726 211.451 277.485C211.1 277.245 210.686 277.116 210.264 277.116C209.697 277.116 209.153 277.347 208.752 277.757C208.352 278.168 208.126 278.725 208.126 279.305Z" fill="#E6E6E6"/>
<path d="M255.109 294.003V314.961H165.39V294.003H255.08H255.109ZM255.457 293.617H165.042V315.338H255.486V293.617H255.457Z" fill="#E0E0E0"/>
<path d="M208.126 304.483C208.128 304.915 208.255 305.338 208.491 305.696C208.727 306.055 209.062 306.334 209.452 306.498C209.843 306.662 210.273 306.704 210.687 306.619C211.101 306.533 211.48 306.324 211.778 306.017C212.076 305.711 212.279 305.321 212.361 304.896C212.442 304.472 212.399 304.033 212.237 303.633C212.075 303.234 211.801 302.892 211.45 302.652C211.099 302.412 210.686 302.284 210.264 302.284C209.982 302.284 209.704 302.341 209.444 302.452C209.184 302.562 208.948 302.724 208.749 302.929C208.55 303.133 208.393 303.376 208.286 303.642C208.179 303.909 208.125 304.195 208.126 304.483Z" fill="#E6E6E6"/>
<path d="M152.44 189.491H131.173V326.073H152.44V189.491Z" fill="#E0E0E0"/>
<path d="M148.398 326.064H152.44V314.298H144.172L148.398 326.064Z" fill="#FAFAFA"/>
<path d="M72.9637 189.491H51.697V326.073H72.9637V189.491Z" fill="#E0E0E0"/>
<path d="M152.441 189.491H69.4337V318.853H152.441V189.491Z" fill="#FAFAFA"/>
<path d="M148.862 193.136V222.424H73.0116V193.136H148.862ZM149.307 192.69H72.5474V222.849H149.287V192.7L149.307 192.69Z" fill="#E0E0E0"/>
<path d="M148.862 226V303.68H112.731V226H148.862ZM149.307 225.544H112.296V304.136H149.307V225.544Z" fill="#E0E0E0"/>
<path d="M109.143 226V303.68H73.0116V226H109.143ZM109.578 225.544H72.5474V304.136H109.559V225.544H109.578Z" fill="#E0E0E0"/>
<path d="M73.4762 326.064H69.4337V314.298H77.7122L73.4762 326.064Z" fill="#FAFAFA"/>
<path d="M108.794 207.796C108.792 208.232 108.916 208.658 109.151 209.021C109.386 209.383 109.721 209.667 110.113 209.835C110.505 210.003 110.937 210.048 111.354 209.964C111.771 209.88 112.154 209.672 112.456 209.365C112.757 209.057 112.962 208.666 113.046 208.239C113.13 207.812 113.088 207.369 112.925 206.967C112.763 206.565 112.488 206.221 112.135 205.979C111.782 205.737 111.366 205.607 110.941 205.607C110.373 205.607 109.829 205.838 109.426 206.248C109.024 206.658 108.797 207.215 108.794 207.796Z" fill="#E6E6E6"/>
<path d="M116.454 262.992C116.454 263.427 116.58 263.853 116.817 264.214C117.053 264.576 117.389 264.858 117.782 265.024C118.175 265.19 118.607 265.233 119.024 265.148C119.44 265.062 119.823 264.852 120.123 264.543C120.423 264.235 120.626 263.842 120.708 263.415C120.79 262.987 120.746 262.545 120.582 262.143C120.418 261.742 120.141 261.399 119.787 261.159C119.433 260.918 119.017 260.791 118.591 260.793C118.31 260.793 118.031 260.85 117.771 260.961C117.511 261.071 117.275 261.233 117.077 261.438C116.878 261.642 116.721 261.884 116.614 262.151C116.507 262.418 116.453 262.703 116.454 262.992Z" fill="#E6E6E6"/>
<path d="M101.145 262.992C101.147 263.424 101.273 263.846 101.51 264.205C101.746 264.564 102.08 264.843 102.471 265.007C102.861 265.171 103.291 265.213 103.705 265.127C104.119 265.042 104.499 264.833 104.797 264.526C105.095 264.22 105.297 263.83 105.379 263.405C105.461 262.981 105.418 262.541 105.256 262.142C105.094 261.743 104.82 261.401 104.468 261.161C104.117 260.921 103.704 260.793 103.282 260.793C103 260.793 102.722 260.85 102.462 260.961C102.202 261.071 101.966 261.233 101.767 261.438C101.569 261.642 101.411 261.884 101.305 262.151C101.198 262.418 101.143 262.703 101.145 262.992Z" fill="#E6E6E6"/>
<path d="M98.7263 151.409H89.7612C90.5873 155.863 91.1076 160.371 91.3182 164.899C91.3182 169.851 84.4904 189.492 94.2195 189.492C103.949 189.492 97.1209 169.901 97.1209 164.899C97.3474 160.37 97.8839 155.862 98.7263 151.409Z" fill="#E0E0E0"/>
<path d="M64.6168 171.496V177.439C64.627 180.624 65.8672 183.677 68.0668 185.929C70.2664 188.182 73.2468 189.452 76.3575 189.463H82.1601C85.2708 189.452 88.2512 188.182 90.4508 185.929C92.6504 183.677 93.8906 180.624 93.9008 177.439V171.496H64.6168Z" fill="#F5F5F5"/>
<path d="M189.249 227.07C189.249 234.003 196.821 239.669 206.076 239.669H214.432C223.687 239.669 231.26 234.003 231.26 227.07H189.249Z" fill="#E0E0E0"/>
<path d="M410.657 216.908C405.59 221.147 398.588 228.902 392.186 239.817C387.911 247.086 385.339 254.673 384.207 264.756C384.207 253.366 384.275 241.134 384.313 229.585C385.6 226.614 388.54 219.76 390.648 214.352C397.679 196.296 400.319 191.849 406.634 176.28C415.077 155.48 423.723 130.858 421.247 132.829C416.199 136.84 396.857 173.932 394.768 179.241C389.074 193.409 385.554 208.393 384.333 223.662C384.333 212.768 384.41 202.863 384.449 195.177C384.584 170.109 385 162.017 385.203 159.521C385.987 158.254 386.905 156.778 387.447 155.985C391.992 149.25 393.743 143.526 398.017 133.483C404.091 119.27 409.313 94.0233 407.785 95.2911C401.422 100.6 396.412 111.99 389.816 126.52C383.221 141.05 385.106 149.399 383.801 161.799C383.53 164.236 383.317 173.427 383.163 186.154C381.46 172.585 378.25 163.651 372.399 155.53C365.203 145.536 358.24 138.791 353.134 135.265C348.028 131.739 361.954 156.283 368.608 166.96C374.536 176.507 380 184.916 383.114 193.206C382.95 210.47 382.872 232.319 382.872 252.633C381.344 243.382 378.849 233.408 375.522 225.693C371.519 216.422 365.368 202.2 360.465 197.376C359.294 196.217 365.59 223.88 369.633 231.229C373.675 238.578 376.644 245.521 379.188 249.691C379.778 250.682 381.751 254.416 382.872 256.575C382.872 281.405 383.008 303.314 383.221 310.772H384.265C384.197 308.85 384.178 296.212 384.207 279.494C386.731 270.421 392.495 260.061 397.253 250.612C402.437 240.381 415.725 212.698 410.657 216.908Z" fill="#E0E0E0"/>
<path d="M398.888 326.064H368.579L366.287 295.638H401.18L398.888 326.064Z" fill="#F0F0F0"/>
<path d="M403.433 299.183H364.023L362.902 288.912H404.565L403.433 299.183Z" fill="#F5F5F5"/>
<path d="M120.187 20.3037H65.9802V81.2655H120.187V20.3037Z" fill="#E0E0E0"/>
<path d="M126.057 20.3037H70.0617V81.2655H126.057V20.3037Z" fill="#F5F5F5"/>
<path d="M121.367 76.4619V25.1074L74.7527 25.1074V76.4619H121.367Z" fill="white"/>
<path d="M110.062 64.0016V37.5469H86.0483V64.0016H110.062Z" fill="#F5F5F5"/>
<path d="M396.577 27.4062H346.219V84.0398H396.577V27.4062Z" fill="#E0E0E0"/>
<path d="M402.032 27.4062H350.021V84.0398H402.032V27.4062Z" fill="#F5F5F5"/>
<path d="M397.679 79.5718V31.8721L354.382 31.8721V79.5718H397.679Z" fill="white"/>
<path d="M376.026 69.5587C383.487 69.5587 389.536 63.3639 389.536 55.7222C389.536 48.0806 383.487 41.8857 376.026 41.8857C368.564 41.8857 362.515 48.0806 362.515 55.7222C362.515 63.3639 368.564 69.5587 376.026 69.5587Z" fill="#F5F5F5"/>
<path d="M176.501 56.6533H136.289V101.877H176.501V56.6533Z" fill="#E0E0E0"/>
<path d="M180.853 56.6533H139.316V101.877H180.853V56.6533Z" fill="#F5F5F5"/>
<path d="M177.373 98.3122V60.2197H142.798V98.3122H177.373Z" fill="white"/>
<path d="M160.091 69.6289L150.632 86.407H169.549L160.091 69.6289Z" fill="#F5F5F5"/>
<path d="M241.791 369C345.352 369 429.304 363.98 429.304 357.788C429.304 351.596 345.352 346.576 241.791 346.576C138.231 346.576 54.2789 351.596 54.2789 357.788C54.2789 363.98 138.231 369 241.791 369Z" fill="#F5F5F5"/>
<path d="M236.84 15.4219H230.66V16.442H236.84V15.4219Z" fill="#407BFF"/>
<path d="M316.837 55.7993L316.089 72.7979L317.084 72.8438L317.832 55.8452L316.837 55.7993Z" fill="#407BFF"/>
<path d="M314.914 19.9971H200.795L190.177 263.369H304.295L314.914 19.9971Z" fill="#407BFF"/>
<path opacity="0.56" d="M311.51 23.3467H197.391L186.772 266.718H300.891L311.51 23.3467Z" fill="#FAFAFA"/>
<path opacity="0.07" d="M308.106 26.6836H193.987L183.359 270.055H297.477L308.106 26.6836Z" fill="#407BFF"/>
<path d="M295.118 132.828H197.711L196.898 151.448H294.305L295.118 132.828Z" fill="white"/>
<path d="M251.279 119.239H198.301L197.943 127.569H250.921L251.279 119.239Z" fill="#407BFF"/>
<path d="M292.922 183.085H195.515L194.703 201.705H292.11L292.922 183.085Z" fill="white"/>
<path opacity="0.47" d="M275.06 226.852H209.558L208.581 249.166H274.083L275.06 226.852Z" fill="#407BFF"/>
<path d="M270.678 252.634H205.176C205.148 252.641 205.118 252.641 205.089 252.634C205.08 252.605 205.08 252.573 205.089 252.544L206.056 230.22C206.056 230.205 206.059 230.19 206.065 230.176C206.071 230.162 206.08 230.149 206.091 230.139C206.102 230.129 206.115 230.121 206.129 230.116C206.143 230.111 206.158 230.109 206.172 230.111H271.675C271.687 230.105 271.7 230.102 271.713 230.102C271.727 230.102 271.74 230.105 271.752 230.111C271.759 230.123 271.762 230.137 271.762 230.15C271.762 230.164 271.759 230.178 271.752 230.19L270.804 252.564C270.793 252.587 270.774 252.607 270.752 252.619C270.729 252.631 270.704 252.636 270.678 252.634ZM205.292 252.396H270.562L271.529 230.309H206.259L205.292 252.396Z" fill="white"/>
<path d="M239.838 169.495H196.106L195.748 177.835H239.471L239.838 169.495Z" fill="#407BFF"/>
<path d="M273.812 72.6789C273.562 78.098 271.681 83.305 268.426 87.5851C266.016 90.818 262.915 93.4426 259.361 95.2574C255.807 97.0721 251.894 98.0289 247.923 98.0541C244.714 98.0791 241.533 97.4311 238.578 96.1497C235.623 94.8684 232.955 92.981 230.739 90.6038C228.523 88.2265 226.805 85.4098 225.692 82.327C224.579 79.2443 224.094 75.9609 224.267 72.6789C224.607 65.8687 227.475 59.4487 232.284 54.732C237.093 50.0152 243.479 47.358 250.137 47.3038C253.349 47.2731 256.533 47.9172 259.492 49.1963C262.451 50.4754 265.122 52.3624 267.341 54.7405C269.56 57.1187 271.279 59.9375 272.392 63.0229C273.505 66.1083 273.988 69.3946 273.812 72.6789Z" fill="white"/>
<path d="M208.204 142.138C208.158 142.937 207.817 143.687 207.252 144.238C206.687 144.79 205.938 145.101 205.158 145.11C204.781 145.114 204.407 145.04 204.059 144.89C203.712 144.741 203.397 144.521 203.136 144.242C202.875 143.964 202.673 143.633 202.541 143.271C202.41 142.91 202.352 142.524 202.372 142.138C202.414 141.339 202.753 140.586 203.319 140.033C203.886 139.481 204.637 139.171 205.419 139.167C205.795 139.164 206.168 139.24 206.515 139.389C206.862 139.539 207.176 139.76 207.437 140.038C207.697 140.316 207.9 140.646 208.032 141.007C208.164 141.368 208.222 141.753 208.204 142.138Z" fill="#263238"/>
<path d="M221.241 142.139C221.196 142.937 220.857 143.689 220.291 144.241C219.725 144.793 218.976 145.104 218.194 145.11C217.818 145.113 217.445 145.037 217.099 144.888C216.752 144.738 216.439 144.517 216.179 144.238C215.919 143.96 215.718 143.63 215.587 143.269C215.456 142.908 215.399 142.523 215.419 142.139C215.46 141.34 215.798 140.589 216.362 140.037C216.926 139.485 217.675 139.174 218.455 139.167C218.832 139.163 219.206 139.237 219.554 139.386C219.901 139.536 220.215 139.756 220.476 140.035C220.738 140.313 220.94 140.644 221.071 141.006C221.203 141.367 221.26 141.753 221.241 142.139Z" fill="#263238"/>
<path d="M234.287 142.139C234.242 142.937 233.903 143.689 233.337 144.241C232.771 144.793 232.022 145.104 231.24 145.11C230.864 145.113 230.491 145.037 230.144 144.888C229.797 144.738 229.483 144.517 229.222 144.239C228.962 143.961 228.759 143.631 228.627 143.27C228.495 142.909 228.437 142.524 228.455 142.139C228.499 141.34 228.839 140.588 229.405 140.036C229.97 139.484 230.72 139.173 231.501 139.167C231.878 139.163 232.252 139.237 232.6 139.386C232.947 139.536 233.262 139.756 233.523 140.035C233.784 140.313 233.986 140.644 234.118 141.006C234.249 141.367 234.307 141.753 234.287 142.139Z" fill="#263238"/>
<path d="M206.008 192.394C205.962 193.192 205.621 193.943 205.056 194.494C204.491 195.046 203.742 195.357 202.962 195.366C202.585 195.369 202.212 195.293 201.865 195.143C201.518 194.994 201.204 194.773 200.944 194.495C200.683 194.217 200.48 193.887 200.348 193.526C200.217 193.164 200.158 192.779 200.176 192.394C200.221 191.595 200.56 190.844 201.126 190.292C201.692 189.74 202.441 189.429 203.223 189.423C203.599 189.42 203.973 189.495 204.32 189.645C204.667 189.795 204.98 190.016 205.241 190.294C205.502 190.572 205.704 190.902 205.836 191.263C205.968 191.624 206.027 192.009 206.008 192.394Z" fill="#263238"/>
<path d="M219.045 192.394C219.001 193.192 218.663 193.942 218.099 194.493C217.535 195.045 216.788 195.357 216.009 195.366C215.632 195.37 215.258 195.296 214.91 195.146C214.562 194.997 214.248 194.776 213.987 194.498C213.726 194.219 213.524 193.889 213.392 193.527C213.261 193.165 213.203 192.78 213.223 192.394C213.267 191.595 213.607 190.844 214.173 190.292C214.739 189.74 215.488 189.429 216.27 189.423C216.646 189.42 217.019 189.495 217.365 189.645C217.712 189.795 218.024 190.016 218.284 190.294C218.544 190.573 218.746 190.903 218.877 191.264C219.008 191.625 219.065 192.01 219.045 192.394Z" fill="#263238"/>
<path d="M232.12 192.394C232.076 193.193 231.737 193.945 231.171 194.497C230.605 195.049 229.855 195.359 229.074 195.366C228.698 195.367 228.325 195.291 227.979 195.141C227.633 194.99 227.32 194.77 227.059 194.492C226.799 194.214 226.596 193.885 226.464 193.524C226.331 193.164 226.272 192.779 226.289 192.394C226.335 191.596 226.675 190.846 227.241 190.294C227.806 189.743 228.554 189.432 229.335 189.423C229.712 189.418 230.086 189.493 230.433 189.642C230.781 189.792 231.095 190.012 231.356 190.291C231.617 190.569 231.82 190.9 231.951 191.261C232.083 191.623 232.14 192.009 232.12 192.394Z" fill="#263238"/>
<path d="M245.137 192.394C245.091 193.192 244.751 193.943 244.185 194.494C243.62 195.046 242.871 195.357 242.091 195.366C241.715 195.367 241.342 195.291 240.996 195.141C240.649 194.99 240.336 194.77 240.076 194.492C239.816 194.214 239.613 193.885 239.48 193.524C239.348 193.163 239.288 192.779 239.306 192.394C239.352 191.596 239.692 190.846 240.258 190.294C240.823 189.743 241.571 189.432 242.352 189.423C242.728 189.42 243.102 189.495 243.449 189.645C243.796 189.795 244.109 190.016 244.37 190.294C244.631 190.572 244.833 190.902 244.965 191.263C245.097 191.624 245.156 192.009 245.137 192.394Z" fill="#263238"/>
<path d="M258.233 192.394C258.186 193.192 257.846 193.943 257.281 194.494C256.715 195.046 255.967 195.357 255.186 195.366C254.809 195.37 254.435 195.296 254.088 195.146C253.74 194.997 253.426 194.776 253.165 194.498C252.904 194.219 252.701 193.889 252.57 193.527C252.439 193.165 252.381 192.78 252.401 192.394C252.445 191.595 252.785 190.844 253.35 190.292C253.916 189.74 254.666 189.429 255.447 189.423C255.824 189.42 256.197 189.495 256.544 189.645C256.891 189.795 257.204 190.016 257.465 190.294C257.726 190.572 257.929 190.902 258.06 191.263C258.192 191.624 258.251 192.009 258.233 192.394Z" fill="#263238"/>
<path d="M126.134 155.937C125.215 157.997 124.248 160.265 123.407 162.464C122.565 164.662 121.705 166.93 120.96 169.189C119.44 173.639 118.282 178.211 117.498 182.857L117.285 184.313C117.265 184.562 117.288 184.814 117.353 185.056C117.581 185.876 117.94 186.653 118.417 187.353C119.658 189.167 121.099 190.828 122.71 192.306C124.409 193.924 126.191 195.448 128.049 196.872C129.906 198.337 131.859 199.764 133.784 201.111L131.975 204.587C127.38 202.536 123.018 199.976 118.968 196.951C116.807 195.337 114.857 193.446 113.165 191.325C112.162 190.062 111.38 188.632 110.854 187.096C110.548 186.137 110.391 185.134 110.39 184.125C110.39 183.887 110.39 183.54 110.39 183.372V182.886L110.486 181.896C111.041 176.736 112.1 171.646 113.649 166.703C114.403 164.266 115.206 161.84 116.124 159.472C117.043 157.105 117.991 154.788 119.161 152.381L126.134 155.937Z" fill="#E58A7B"/>
<path d="M132.42 200.494L139.258 196.948L137.488 204.634C137.488 204.634 132.798 205.981 130.622 203.644L132.42 200.494Z" fill="#E58A7B"/>
<path d="M145.516 198.206L143.697 204.565L137.489 204.634L139.258 196.948L145.516 198.206Z" fill="#E58A7B"/>
<path d="M155.167 118.854C155.533 120.226 156.042 121.554 156.686 122.815C156.498 123.034 156.255 123.196 155.985 123.285C155.714 123.374 155.425 123.386 155.148 123.32L155.167 118.854Z" fill="#DF5753"/>
<path d="M154.964 118.913C155.365 118.913 155.69 118.403 155.69 117.774C155.69 117.145 155.365 116.635 154.964 116.635C154.564 116.635 154.239 117.145 154.239 117.774C154.239 118.403 154.564 118.913 154.964 118.913Z" fill="#263238"/>
<path d="M154.751 116.674L156.221 116.248C156.221 116.248 155.505 117.417 154.751 116.674Z" fill="#263238"/>
<path d="M136.279 126.124C137.159 130.73 138.039 139.178 134.887 142.258C134.887 142.258 136.125 146.933 144.49 146.933C153.687 146.933 148.881 142.258 148.881 142.258C143.861 141.03 143.987 137.217 144.867 133.632L136.279 126.124Z" fill="#E58A7B"/>
<path d="M133.833 115.625C134.297 123.321 134.336 126.589 138.127 130.541C143.842 136.484 152.972 134.225 154.761 126.579C156.376 119.646 155.351 108.236 147.991 105.176C146.376 104.494 144.617 104.246 142.882 104.455C141.147 104.663 139.492 105.322 138.075 106.368C136.657 107.414 135.524 108.813 134.781 110.433C134.039 112.053 133.713 113.84 133.833 115.625Z" fill="#E58A7B"/>
<path d="M134.578 106.968C130.806 108.375 125.777 107.325 127.75 119.24C129.839 131.858 126.628 136.008 126.628 136.008C126.628 136.008 140.932 139.128 155.535 135.82C155.535 135.82 151.077 127.837 152.324 121.954C153.92 114.526 152.663 111.782 152.663 111.782C152.663 111.782 139.878 104.988 134.578 106.968Z" fill="#263238"/>
<path d="M150.535 119.636C150.539 121.1 150.948 122.532 151.715 123.766C152.74 125.371 153.949 124.757 154.249 123.053C154.519 121.558 154.316 118.913 153.011 117.883C151.705 116.853 150.554 117.863 150.535 119.636Z" fill="#E58A7B"/>
<path d="M131.299 108.266C130.215 105.146 135.38 100.342 146.308 102.323C157.236 104.304 157.71 113.624 157.71 113.624L155.505 110.93L155.602 113.763L144.374 115.971L131.299 108.266Z" fill="#263238"/>
<path d="M132.227 142.782C132.162 142.33 132.273 141.869 132.535 141.499C132.797 141.129 133.189 140.879 133.629 140.801C137.033 140.226 144.77 139.058 148.658 139.612C151.559 140.028 152.314 141.752 152.439 143.168C152.459 143.416 152.427 143.665 152.344 143.9C152.262 144.134 152.132 144.347 151.962 144.525C151.793 144.704 151.588 144.843 151.362 144.933C151.136 145.024 150.893 145.063 150.65 145.05L133.842 144.277C133.446 144.257 133.069 144.097 132.774 143.824C132.48 143.552 132.287 143.183 132.227 142.782Z" fill="#407BFF"/>
<path opacity="0.6" d="M132.227 142.782C132.162 142.33 132.273 141.869 132.535 141.499C132.797 141.129 133.189 140.879 133.629 140.801C137.033 140.226 144.77 139.058 148.658 139.612C151.559 140.028 152.314 141.752 152.439 143.168C152.459 143.416 152.427 143.665 152.344 143.9C152.262 144.134 152.132 144.347 151.962 144.525C151.793 144.704 151.588 144.843 151.362 144.933C151.136 145.024 150.893 145.063 150.65 145.05L133.842 144.277C133.446 144.257 133.069 144.097 132.774 143.824C132.48 143.552 132.287 143.183 132.227 142.782Z" fill="black"/>
<path d="M141.947 315.811L148.185 320.249L158.62 305.758L152.382 301.331L141.947 315.811Z" fill="#E58A7B"/>
<path d="M127.401 315.525L133.987 319.368L143.223 304.046L136.637 300.203L127.401 315.525Z" fill="#E58A7B"/>
<path d="M158.61 305.758L153.233 313.226L146.995 308.799L152.372 301.331L158.61 305.758Z" fill="#CF6F64"/>
<path d="M136.627 300.203L143.223 304.056L138.465 311.95L131.869 308.097L136.627 300.203Z" fill="#CF6F64"/>
<path d="M147.207 191.155C147.207 191.155 171.559 222.582 166.985 252.642C163.3 276.918 141.927 309.791 141.927 309.791L131.879 304.68C138.961 290.145 145.006 275.104 149.964 259.674C151.493 254.884 151.939 249.8 151.269 244.807C150.599 239.814 148.83 235.042 146.095 230.852C133.755 212.4 113.987 223.384 127.285 191.155H147.207Z" fill="#407BFF"/>
<path opacity="0.6" d="M147.207 191.155C147.207 191.155 171.559 222.582 166.985 252.642C163.3 276.918 141.927 309.791 141.927 309.791L131.879 304.68C138.961 290.145 145.006 275.104 149.964 259.674C151.493 254.884 151.939 249.8 151.269 244.807C150.599 239.814 148.83 235.042 146.095 230.852C133.755 212.4 113.987 223.384 127.285 191.155H147.207Z" fill="black"/>
<path opacity="0.4" d="M159.151 211.342L155.612 207.736C155.612 208.024 162.469 251.375 164.393 263.558C165.529 259.999 166.399 256.357 166.995 252.663C169.258 237.915 164.529 222.851 159.151 211.342Z" fill="black"/>
<path d="M158.077 191.155C158.077 191.155 187.4 230.654 188.232 254.336C188.919 274.145 156.317 312.524 156.317 312.524L146.84 306.245C146.84 306.245 165.921 278.988 170.727 256.723C168.87 234.656 129.606 191.155 129.606 191.155H158.077Z" fill="#407BFF"/>
<path opacity="0.6" d="M158.077 191.155C158.077 191.155 187.4 230.654 188.232 254.336C188.919 274.145 156.317 312.524 156.317 312.524L146.84 306.245C146.84 306.245 165.921 278.988 170.727 256.723C168.87 234.656 129.606 191.155 129.606 191.155H158.077Z" fill="black"/>
<path d="M121.802 144.02C118.669 144.783 115.661 156.45 115.661 156.45L127.914 164.829C127.914 164.829 131.996 155.598 130.564 151.557C129.085 147.348 125.738 143.059 121.802 144.02Z" fill="#407BFF"/>
<path opacity="0.2" d="M124.2 151.538L123.349 161.71L127.904 164.84C129.162 161.94 130.093 158.903 130.68 155.787L124.2 151.538Z" fill="black"/>
<path d="M161.705 144.248C161.705 144.248 165.322 145.546 158.078 191.146H127.266C127.788 178.27 127.798 170.347 121.802 144.021C126.116 143.11 130.489 142.521 134.887 142.258C139.545 141.915 144.222 141.915 148.881 142.258C154.896 142.822 161.705 144.248 161.705 144.248Z" fill="#407BFF"/>
<path d="M164.838 151.538C165.534 153.519 166.269 155.648 167.043 157.699C167.817 159.749 168.552 161.858 169.335 163.938L171.704 170.158L172.304 171.713L172.613 172.486L172.759 172.872C172.759 172.941 172.759 172.941 172.759 172.932C172.582 172.676 172.35 172.466 172.082 172.317C171.699 172.087 171.268 171.954 170.824 171.931C170.456 171.919 170.09 171.99 169.751 172.139C169.306 172.347 169.306 172.436 169.316 172.426C169.396 172.36 169.468 172.284 169.528 172.199C170.064 171.479 170.527 170.706 170.911 169.891C171.366 168.98 171.801 168.009 172.236 167.029C173.087 165.048 173.871 162.997 174.654 160.927C175.437 158.857 176.182 156.768 176.907 154.658L179.112 148.339L182.836 149.329C182.101 153.846 181.153 158.243 180.012 162.72C179.461 164.949 178.813 167.157 178.078 169.386C177.71 170.505 177.304 171.614 176.84 172.753C176.356 173.989 175.76 175.177 175.06 176.299C174.803 176.677 174.519 177.034 174.209 177.369C173.715 177.915 173.116 178.35 172.449 178.646C171.857 178.907 171.216 179.028 170.573 179.003C169.852 178.975 169.15 178.761 168.532 178.379C167.804 177.913 167.199 177.27 166.772 176.507C166.627 176.25 166.501 175.992 166.414 175.804L166.231 175.427L165.863 174.655L165.128 173.12C164.161 171.06 163.194 168.98 162.352 166.89C161.511 164.8 160.621 162.68 159.79 160.551C158.958 158.422 158.213 156.292 157.507 153.994L164.838 151.538Z" fill="#E58A7B"/>
<path d="M161.704 144.248C165.408 145.149 169.577 156.361 169.577 156.361L158.561 165.958C158.561 165.958 151.434 153.736 152.875 149.705C154.374 145.506 156.869 143.069 161.704 144.248Z" fill="#407BFF"/>
<path d="M180.864 144.792L184.732 141.484L187.421 145.773L185.438 149.348C185.438 149.348 182.285 152.32 179.5 150.804C179.058 149.787 178.952 148.649 179.198 147.564C179.444 146.479 180.029 145.506 180.864 144.792Z" fill="#E58A7B"/>
<path d="M191.714 141.494L191.424 142.574L185.302 143.624L184.702 141.484L191.714 141.494Z" fill="#E58A7B"/>
<path d="M157.073 313.03L146.028 305.72L148.011 302.194L160.419 310.009L157.073 313.03Z" fill="#407BFF"/>
<path d="M138.311 318.853C137.342 318.732 136.411 318.394 135.584 317.863C135.549 317.851 135.52 317.828 135.499 317.798C135.478 317.768 135.467 317.732 135.467 317.695C135.467 317.658 135.478 317.621 135.499 317.591C135.52 317.561 135.549 317.538 135.584 317.526C135.883 317.427 138.485 316.605 139.239 317.239C139.324 317.311 139.388 317.405 139.426 317.511C139.463 317.618 139.472 317.732 139.452 317.843C139.439 318.021 139.381 318.193 139.284 318.342C139.188 318.491 139.056 318.613 138.901 318.695C138.72 318.796 138.517 318.851 138.311 318.853ZM136.135 317.764C137.344 318.398 138.311 318.626 138.775 318.388C138.876 318.33 138.961 318.248 139.022 318.147C139.083 318.046 139.118 317.932 139.123 317.813C139.123 317.655 139.123 317.586 139.036 317.546C138.63 317.209 137.179 317.467 136.115 317.764H136.135Z" fill="#263238"/>
<path d="M135.651 317.932C135.6 317.931 135.551 317.909 135.515 317.872C135.501 317.845 135.493 317.814 135.493 317.783C135.493 317.752 135.501 317.721 135.515 317.694C135.515 317.605 136.144 315.455 137.13 314.97C137.256 314.911 137.393 314.881 137.532 314.881C137.67 314.881 137.807 314.911 137.933 314.97C138.069 315.014 138.186 315.103 138.267 315.224C138.348 315.344 138.387 315.488 138.378 315.634C138.31 316.525 136.54 317.753 135.728 317.961L135.651 317.932ZM137.527 315.228C137.433 315.231 137.34 315.254 137.256 315.297C136.656 315.594 136.163 316.753 135.921 317.456C136.773 317.09 137.943 316.119 137.981 315.574C137.981 315.485 137.981 315.376 137.759 315.277C137.687 315.237 137.608 315.211 137.527 315.198V315.228Z" fill="#263238"/>
<path d="M152.111 323.132C151.018 323.132 149.5 321.696 148.668 320.814C148.647 320.784 148.636 320.747 148.636 320.71C148.636 320.673 148.647 320.636 148.668 320.606C148.687 320.574 148.714 320.548 148.747 320.531C148.779 320.513 148.815 320.505 148.852 320.507C149.239 320.507 152.595 321.022 153.069 321.993C153.119 322.08 153.145 322.179 153.145 322.28C153.145 322.381 153.119 322.48 153.069 322.567C152.998 322.718 152.89 322.849 152.756 322.946C152.623 323.043 152.467 323.103 152.305 323.122L152.111 323.132ZM149.307 320.953C150.525 322.161 151.599 322.835 152.208 322.755C152.315 322.741 152.416 322.7 152.504 322.636C152.592 322.572 152.663 322.488 152.711 322.389C152.732 322.355 152.744 322.316 152.744 322.275C152.744 322.235 152.732 322.195 152.711 322.161C152.459 321.626 150.67 321.171 149.307 320.953Z" fill="#263238"/>
<path d="M149.413 320.904C149.196 320.911 148.979 320.894 148.765 320.855C148.735 320.85 148.707 320.838 148.683 320.819C148.659 320.799 148.641 320.774 148.63 320.746C148.615 320.717 148.608 320.684 148.608 320.652C148.608 320.619 148.615 320.587 148.63 320.558C148.688 320.488 149.993 318.874 151.231 318.765C151.581 318.737 151.929 318.851 152.198 319.082C152.575 319.419 152.556 319.716 152.459 319.904C152.217 320.577 150.544 320.904 149.413 320.904ZM149.161 320.538C150.245 320.597 151.976 320.231 152.198 319.745C152.198 319.745 152.276 319.587 152.024 319.369C151.924 319.28 151.807 319.213 151.681 319.172C151.554 319.131 151.421 319.117 151.289 319.131C150.455 319.37 149.713 319.864 149.161 320.548V320.538Z" fill="#263238"/>
<path d="M135.912 316.862L127.711 314.485C127.569 314.441 127.417 314.453 127.283 314.517C127.149 314.581 127.043 314.693 126.985 314.832L124.219 321.201C124.154 321.364 124.124 321.539 124.13 321.715C124.136 321.891 124.178 322.064 124.254 322.222C124.33 322.38 124.437 322.52 124.57 322.632C124.702 322.745 124.856 322.827 125.022 322.874C127.923 323.647 129.316 323.865 132.923 324.925C135.148 325.559 138.32 326.737 141.385 327.629C144.451 328.52 145.476 325.459 144.287 324.806C138.91 321.894 138.484 319.854 137.014 317.675C136.751 317.28 136.361 316.993 135.912 316.862Z" fill="#407BFF"/>
<path d="M148.89 319.656L141.888 314.704C141.769 314.615 141.623 314.574 141.477 314.589C141.331 314.603 141.195 314.673 141.095 314.783L136.453 319.894C136.34 320.026 136.256 320.181 136.206 320.349C136.156 320.517 136.141 320.694 136.163 320.868C136.185 321.043 136.243 321.21 136.333 321.36C136.423 321.509 136.543 321.637 136.685 321.736C139.151 323.429 140.428 324.113 143.513 326.302C145.447 327.649 149.19 330.64 151.801 332.502C154.412 334.364 156.356 331.809 155.428 330.798C151.269 326.252 150.36 323.4 149.673 320.815C149.554 320.346 149.277 319.935 148.89 319.656Z" fill="#407BFF"/>
<path d="M143.214 310.444L130.594 304.016L131.899 300.51L145.381 307.284L143.214 310.444Z" fill="#407BFF"/>
<path d="M126.802 189.294L125.738 192.146C125.632 192.364 125.884 192.592 126.241 192.592H158.233C158.514 192.592 158.746 192.453 158.765 192.275L159.036 189.442C159.036 189.254 158.814 189.086 158.514 189.086H127.305C127.211 189.077 127.117 189.091 127.029 189.127C126.942 189.163 126.864 189.22 126.802 189.294Z" fill="#407BFF"/>
<path opacity="0.4" d="M126.802 189.294L125.738 192.146C125.632 192.364 125.884 192.592 126.241 192.592H158.233C158.514 192.592 158.746 192.453 158.765 192.275L159.036 189.442C159.036 189.254 158.814 189.086 158.514 189.086H127.305C127.211 189.077 127.117 189.091 127.029 189.127C126.942 189.163 126.864 189.22 126.802 189.294Z" fill="white"/>
<path d="M131.84 192.868H130.998C130.834 192.868 130.708 192.779 130.718 192.67L131.115 188.996C131.115 188.897 131.269 188.808 131.434 188.808H132.275C132.439 188.808 132.565 188.897 132.556 188.996L132.159 192.67C132.149 192.779 132.004 192.868 131.84 192.868Z" fill="#407BFF"/>
<path d="M151.569 192.868H150.737C150.573 192.868 150.447 192.779 150.457 192.67L150.844 188.996C150.844 188.897 151.008 188.808 151.173 188.808H152.004C152.169 188.808 152.304 188.897 152.285 188.996L151.898 192.67C151.85 192.779 151.743 192.868 151.569 192.868Z" fill="#407BFF"/>
<g style="mix-blend-mode:multiply">
<path d="M131.105 360.602C145.415 360.602 157.014 359.741 157.014 358.68C157.014 357.619 145.415 356.759 131.105 356.759C116.796 356.759 105.197 357.619 105.197 358.68C105.197 359.741 116.796 360.602 131.105 360.602Z" fill="#F5F5F5"/>
</g>
<path d="M146.888 355.964C142.304 354.598 137.217 352.845 134.142 351.012C134.055 350.953 133.958 350.923 133.871 350.874V329.619H143.146C143.85 329.576 144.511 329.26 144.995 328.734C145.479 328.208 145.748 327.513 145.748 326.791C145.748 326.069 145.479 325.374 144.995 324.848C144.511 324.322 143.85 324.006 143.146 323.963H133.919V227.078H128.349V323.963H119.132C118.756 323.94 118.379 323.997 118.025 324.128C117.67 324.26 117.346 324.465 117.072 324.73C116.797 324.994 116.579 325.314 116.429 325.668C116.28 326.023 116.203 326.405 116.203 326.791C116.203 327.177 116.28 327.559 116.429 327.914C116.579 328.268 116.797 328.588 117.072 328.852C117.346 329.117 117.67 329.322 118.025 329.454C118.379 329.585 118.756 329.642 119.132 329.619H128.349V350.844C128.262 350.844 128.175 350.923 128.088 350.983C124.964 352.845 119.916 354.598 115.332 355.935C115.022 356.031 114.756 356.237 114.582 356.516C114.408 356.796 114.337 357.129 114.383 357.457C114.429 357.785 114.587 358.086 114.831 358.304C115.074 358.523 115.385 358.645 115.709 358.649H146.511C146.82 358.627 147.113 358.498 147.34 358.282C147.567 358.066 147.715 357.777 147.759 357.463C147.803 357.149 147.741 356.829 147.582 356.556C147.424 356.283 147.179 356.074 146.888 355.964Z" fill="#E0E0E0"/>
<path d="M148.31 217.215H113.92C111.153 217.215 108.91 219.512 108.91 222.345V232.814C108.91 235.648 111.153 237.945 113.92 237.945H148.31C151.077 237.945 153.32 235.648 153.32 232.814V222.345C153.32 219.512 151.077 217.215 148.31 217.215Z" fill="#407BFF"/>
<path d="M113.601 237.954V239.757C113.601 241.242 115.177 242.451 117.111 242.451H145.157C147.091 242.451 148.668 241.242 148.668 239.757V237.954H113.601Z" fill="#407BFF"/>
<path opacity="0.3" d="M113.601 237.954V239.757C113.601 241.242 115.177 242.451 117.111 242.451H145.157C147.091 242.451 148.668 241.242 148.668 239.757V237.954H113.601Z" fill="white"/>
<path d="M249.851 60.3942C251.649 59.1481 253.736 58.525 256.091 58.525C257.386 58.525 258.807 58.8538 260.354 59.5461C261.9 60.2211 263.123 61.0172 264.022 61.9345C265.875 64.1498 266.648 66.7286 266.378 69.6708C266.09 72.613 265.083 74.9148 263.339 76.5417L249.689 89.6778C249.348 90.0067 248.916 90.1624 248.412 90.1624C247.909 90.1624 247.495 90.0067 247.154 89.6778C246.987 89.5201 246.857 89.3311 246.77 89.1227C246.684 88.9142 246.643 88.6907 246.65 88.4663C246.65 87.9817 246.812 87.5663 247.154 87.2375L255.408 79.2935C255.858 78.9128 255.858 78.5147 255.408 78.0821C254.958 77.6494 254.545 77.6494 254.149 78.0821L245.895 86.026C245.728 86.1874 245.529 86.3137 245.309 86.3971C245.089 86.4806 244.854 86.5192 244.618 86.5106C244.114 86.5106 243.701 86.3548 243.359 86.026C243.193 85.8683 243.062 85.6793 242.976 85.4709C242.889 85.2624 242.848 85.0389 242.855 84.8145C242.855 84.3299 243.017 83.9145 243.359 83.5857L251.614 75.6417C252.099 75.2091 252.099 74.7764 251.614 74.3437C251.2 73.911 250.804 73.911 250.355 74.3437L242.1 82.3742C241.932 82.5331 241.732 82.6578 241.513 82.7411C241.293 82.8243 241.059 82.8643 240.823 82.8588C240.32 82.8588 239.888 82.703 239.51 82.3742C239.151 82.0454 238.971 81.6473 238.971 81.1627C238.971 80.6781 239.169 80.2454 239.564 79.8647L247.837 71.9034C248.287 71.4707 248.287 71.0727 247.837 70.6919C247.387 70.3112 246.956 70.3112 246.56 70.6919L238.216 78.6705C237.82 79.0166 237.406 79.207 236.957 79.207C236.453 79.207 236.022 79.0339 235.698 78.6705C235.356 78.3244 235.176 77.909 235.176 77.4244C235.176 76.9398 235.356 76.5417 235.698 76.2129C241.201 70.8823 244.6 67.6632 245.895 66.469L252.297 72.5611C252.998 73.2014 253.808 73.5303 254.797 73.5303C256.056 73.5303 257.045 73.0457 257.782 72.0765C258.285 71.3669 258.465 70.5881 258.321 69.7227C258.178 68.8574 257.8 68.1305 257.188 67.5247L249.851 60.3942ZM253.556 71.3496L245.895 63.9594L233.162 76.2129C231.652 74.7418 230.788 72.4919 230.591 69.4285C230.393 66.3824 231.256 63.7345 233.162 61.5191C235.302 59.4769 237.856 58.4385 240.823 58.4385C243.809 58.4385 246.344 59.4769 248.412 61.5191L256.091 68.9093C256.433 69.2381 256.595 69.6362 256.595 70.1208C256.595 70.6054 256.433 71.0207 256.091 71.3496C255.75 71.6611 255.336 71.8342 254.797 71.8342C254.311 71.8342 253.897 71.6611 253.556 71.3496Z" fill="#407BFF"/>
</svg>
