<svg width="627" height="575" viewBox="0 0 627 575" fill="none" xmlns="http://www.w3.org/2000/svg">
<path d="M90.2287 45.1555C111.695 19.4643 140.704 -0.331317 175.279 0.00420226C234.286 0.739149 266.182 53.0642 300.024 93.4223C317.567 114.352 337.486 134.547 363.545 144.389C402.633 159.136 446.171 150.525 484.255 136.832C501.319 130.697 521.525 122.069 540.742 126.479C599.159 139.868 593.083 211.285 583.435 256.517C570.405 317.613 549.226 382.576 506.311 429.453C403.558 541.756 218.642 472.911 125.952 383.295C119.142 376.696 112.62 369.826 106.48 362.525C90.5288 343.894 77.0278 323.291 66.3068 301.221C36.4523 238.99 32.3377 163.354 58.3329 99.0463C66.1388 79.5481 76.897 61.3712 90.2287 45.1555Z" fill="#407BFF"/>
<path opacity="0.7" d="M90.2287 45.1555C111.695 19.4643 140.704 -0.331317 175.279 0.00420226C234.286 0.739149 266.182 53.0642 300.024 93.4223C317.567 114.352 337.486 134.547 363.545 144.389C402.633 159.136 446.171 150.525 484.255 136.832C501.319 130.697 521.525 122.069 540.742 126.479C599.159 139.868 593.083 211.285 583.435 256.517C570.405 317.613 549.226 382.576 506.311 429.453C403.558 541.756 218.642 472.911 125.952 383.295C119.142 376.696 112.62 369.826 106.48 362.525C90.5288 343.894 77.0278 323.291 66.3068 301.221C36.4523 238.99 32.3377 163.354 58.3329 99.0463C66.1388 79.5481 76.897 61.3712 90.2287 45.1555Z" fill="white"/>
<path d="M1 573.934H626" stroke="#263238" stroke-linecap="round" stroke-linejoin="round"/>
<path d="M380.433 250.192V15.1045H394.962" stroke="#263238" stroke-linecap="round" stroke-linejoin="round"/>
<path d="M380.433 278.166V271.935" stroke="#263238" stroke-linecap="round" stroke-linejoin="round"/>
<path d="M432.328 15.1045H582.255V300.088H380.433" stroke="#263238" stroke-linecap="round" stroke-linejoin="round"/>
<path d="M413.956 15.1035H427.129" stroke="#263238" stroke-linecap="round" stroke-linejoin="round"/>
<path d="M574.664 22.6934H388.025V292.499H574.664V22.6934Z" stroke="#263238" stroke-linecap="round" stroke-linejoin="round"/>
<path d="M565.988 37.1357V149.183H396.7V141.866" stroke="#263238" stroke-linecap="round" stroke-linejoin="round"/>
<path d="M396.7 124.739V30.6494H565.988" stroke="#263238" stroke-linecap="round" stroke-linejoin="round"/>
<path d="M396.7 136.257V129.147" stroke="#263238" stroke-linecap="round" stroke-linejoin="round"/>
<path d="M537.393 157.588H574.664" stroke="#263238" stroke-linecap="round" stroke-linejoin="round"/>
<path d="M524.141 157.588H529.419" stroke="#263238" stroke-linecap="round" stroke-linejoin="round"/>
<path d="M388.025 157.588H517.857" stroke="#263238" stroke-linecap="round" stroke-linejoin="round"/>
<path d="M471.959 149.184V145.317H487.572V147.506H481.352V149.184" stroke="#263238" stroke-linecap="round" stroke-linejoin="round"/>
<path d="M388.344 258.5C388.344 258.5 390.943 260.465 392.761 272.352C392.761 272.352 395.951 253.372 399.683 253.084C403.415 252.796 402.713 265.418 402.713 265.418C402.713 265.418 403.351 259.203 406.317 259.491C409.283 259.778 406.317 272.272 406.317 272.272C406.317 272.272 409.889 262.462 413.27 262.686C416.651 262.91 411.038 280.453 411.038 280.453C411.038 280.453 419.713 274.158 423.222 277.257C426.73 280.357 421.276 288.09 421.276 288.09C421.276 288.09 433.716 285.39 435.629 292.707" stroke="#263238" stroke-linecap="round" stroke-linejoin="round"/>
<path d="M435.645 285.66C435.645 285.66 441.068 282.097 445.342 283.759C445.342 283.759 442.631 279.621 445.342 277.097C448.053 274.572 451.53 283.759 451.53 283.759C451.53 283.759 451.928 268.341 457.351 269.124C462.773 269.907 457.351 283.759 457.351 283.759C457.351 283.759 467.031 275.163 469.359 278.151C471.688 281.139 467.765 285.66 467.765 285.66C469.515 285.162 471.364 285.129 473.131 285.563C474.898 285.997 476.522 286.884 477.844 288.137C477.844 288.137 484.334 281.506 491.543 280.548C491.543 280.548 486.759 266.6 489.071 263.788C491.383 260.976 495.626 275.962 495.626 275.962C495.626 275.962 497.476 266.216 503.6 265.449C503.6 265.449 498.544 262.701 500.043 258.531C501.542 254.361 508.512 259.522 508.512 259.522C508.512 259.522 505.641 252.188 510.186 250.175C514.731 248.162 516.565 256.31 516.565 256.31C516.565 256.31 517.841 247.779 523.168 248.322C528.494 248.865 526.772 258.611 526.772 258.611C526.772 258.611 531.796 250.814 534.491 251.597C539.865 253.195 538.239 265.529 538.239 265.529C538.239 265.529 545.734 260.305 547.68 262.717C549.625 265.13 539.865 272 539.865 272C539.865 272 547.313 272.815 551.954 277.176" stroke="#263238" stroke-linecap="round" stroke-linejoin="round"/>
<path d="M574.664 261.375C574.664 261.375 573.802 253.547 565.988 253.131C558.173 252.716 568.141 270.307 568.141 270.307C568.141 270.307 561.682 264.954 559.369 266.6C557.057 268.246 565.988 277.321 565.988 277.321C565.988 277.321 561.698 273.342 557.185 274.573C552.671 275.803 559.752 288.409 559.752 288.409C553.075 287.069 546.145 287.886 539.961 290.741" stroke="#263238" stroke-linecap="round" stroke-linejoin="round"/>
<path d="M308.221 503.986V573.519" stroke="#263238" stroke-linecap="round" stroke-linejoin="round"/>
<path d="M308.221 481.235V496.126" stroke="#263238" stroke-linecap="round" stroke-linejoin="round"/>
<path d="M16.0546 573.933V444.358H308.221V472.798" stroke="#263238" stroke-linecap="round" stroke-linejoin="round"/>
<path d="M58.6198 458.53H33.2626V562.046" stroke="#263238" stroke-linecap="round" stroke-linejoin="round"/>
<path d="M291.013 573.517V458.53H73.3396" stroke="#263238" stroke-linecap="round" stroke-linejoin="round"/>
<path d="M278.861 430.938H270.807" stroke="#263238" stroke-linecap="round" stroke-linejoin="round"/>
<path d="M259.245 430.938H8.79834V444.263H315.477V430.938H283.996" stroke="#263238" stroke-linecap="round" stroke-linejoin="round"/>
<path d="M26.0699 345.559C26.0699 345.559 49.9919 347.46 51.0763 365.194C51.0763 365.194 26.7557 376.41 26.0699 345.559Z" stroke="#263238" stroke-linecap="round" stroke-linejoin="round"/>
<path d="M73.5469 349.967C73.5469 349.967 86.9591 331.801 108.632 341.115C108.632 341.115 95.3956 363.068 73.5469 349.967Z" stroke="#263238" stroke-linecap="round" stroke-linejoin="round"/>
<path d="M106.798 292.608C106.798 292.608 110.658 327.55 78.9055 317.932C78.9055 317.932 88.9846 292.241 106.798 292.608Z" stroke="#263238" stroke-linecap="round" stroke-linejoin="round"/>
<path d="M67.8056 273.149C67.8056 273.149 92.9237 286.73 74.4559 307.308C74.4559 307.308 56.8494 292.61 67.8056 273.149Z" stroke="#263238" stroke-linecap="round" stroke-linejoin="round"/>
<path d="M36.9147 304.383C36.9147 304.383 64.2176 301.635 64.2176 326.943C64.2176 326.943 36.9147 328.029 36.9147 304.383Z" stroke="#263238" stroke-linecap="round" stroke-linejoin="round"/>
<path d="M57.3758 379.491C56.9771 370.991 56.9771 360.063 62.1602 348.512C74.1052 321.862 78.1081 299.414 71.9044 283.597" stroke="#263238" stroke-linecap="round" stroke-linejoin="round"/>
<path d="M45.8773 311.224C45.8773 311.224 62.2399 317.742 67.8057 334.63" stroke="#263238" stroke-linecap="round" stroke-linejoin="round"/>
<path d="M98.2025 306.589C98.2025 306.589 88.7454 319.498 72.6858 318.108" stroke="#263238" stroke-linecap="round" stroke-linejoin="round"/>
<path d="M98.2027 344.774C98.2027 344.774 72.0002 352.332 61.5224 349.855" stroke="#263238" stroke-linecap="round" stroke-linejoin="round"/>
<path d="M33.8845 353.546C33.8845 353.546 45.6063 366.423 57.3758 366.216" stroke="#263238" stroke-linecap="round" stroke-linejoin="round"/>
<path d="M88.5221 379.492H31.6039C31.2359 379.492 30.883 379.639 30.6228 379.899C30.3626 380.16 30.2164 380.514 30.2164 380.882V385.212C30.2164 385.394 30.2524 385.574 30.3223 385.742C30.3923 385.909 30.4947 386.061 30.6238 386.189C30.7528 386.317 30.9059 386.418 31.0741 386.486C31.2424 386.554 31.4224 386.588 31.6039 386.586H33.1987L38.2701 430.938H81.7761L86.8476 386.586H88.5221C88.7028 386.588 88.8821 386.554 89.0495 386.486C89.2169 386.417 89.3689 386.316 89.4967 386.188C89.6245 386.06 89.7254 385.908 89.7936 385.74C89.8618 385.573 89.8958 385.393 89.8936 385.212V380.882C89.8957 380.7 89.8618 380.52 89.7938 380.351C89.7259 380.183 89.6252 380.03 89.4976 379.9C89.37 379.771 89.2181 379.668 89.0507 379.598C88.8832 379.528 88.7036 379.492 88.5221 379.492V379.492Z" stroke="#263238" stroke-miterlimit="10"/>
<path d="M36.9147 386.588H70.0226" stroke="#263238" stroke-linecap="round" stroke-linejoin="round"/>
<path d="M76.2583 386.588H81.2341" stroke="#263238" stroke-linecap="round" stroke-linejoin="round"/>
<path d="M439.026 202.723L432.647 237.457L380.625 269.123L387.817 282.353C387.817 282.353 447.957 263.979 449.424 259.681C450.891 255.383 464.75 209.864 464.75 209.864L439.026 202.723Z" fill="#263238"/>
<path d="M461.816 143.99L458.339 186.106L456.505 208.202C446.474 213.091 436.666 205.742 436.06 205.262C438.787 197.242 441.96 151.979 461.816 143.99Z" fill="#999999" stroke="#263238" stroke-linecap="round" stroke-linejoin="round"/>
<path d="M458.275 186.106L456.441 208.203C446.41 213.092 436.602 205.742 435.996 205.263C436.427 205.455 441.706 207.692 445.134 205.263C443.935 203.966 442.867 202.553 441.945 201.045C441.737 200.214 445.134 199.991 445.134 199.991C445.134 199.991 442.902 182.08 448.85 174.427C451.179 171.519 454.815 177.591 458.275 186.106Z" fill="#263238"/>
<path d="M497.842 534.007L499.437 538.704C497.02 542.701 494.312 546.514 491.336 550.112C491.336 550.112 489.741 549.6 487.125 551.917C485.514 553.527 484.52 555.654 484.318 557.925C484.318 557.925 472.134 572.56 456.681 572.767C441.227 572.975 445.884 565.178 445.884 565.178L497.842 534.007Z" fill="#407BFF" stroke="#263238" stroke-linecap="round" stroke-linejoin="round"/>
<path d="M483.313 496.764C483.313 496.764 462.581 489.111 458.53 504.417C458.53 504.417 462.23 521.273 460.013 530.491C457.797 539.71 446.633 557.317 445.947 560.656C444.592 567.207 445.612 567.654 445.612 567.654C445.612 567.654 453.73 572.352 464.638 567.319C475.547 562.286 494.429 540.621 497.38 536.163C500.33 531.706 488.13 514.131 488.13 514.131L483.313 496.764Z" fill="white"/>
<path opacity="0.4" d="M483.313 496.764C483.313 496.764 462.581 489.111 458.53 504.417C458.53 504.417 462.23 521.273 460.013 530.491C457.797 539.71 446.633 557.317 445.947 560.656C444.592 567.207 445.612 567.654 445.612 567.654C445.612 567.654 453.73 572.352 464.638 567.319C475.547 562.286 494.429 540.621 497.38 536.163C500.33 531.706 488.13 514.131 488.13 514.131L483.313 496.764Z" fill="#407BFF"/>
<path d="M483.313 496.764C483.313 496.764 462.581 489.111 458.53 504.417C458.53 504.417 462.23 521.273 460.013 530.491C457.797 539.71 446.633 557.317 445.947 560.656C444.592 567.207 445.612 567.654 445.612 567.654C445.612 567.654 453.73 572.352 464.638 567.319C475.547 562.286 494.429 540.621 497.38 536.163C500.33 531.706 488.13 514.131 488.13 514.131L483.313 496.764Z" stroke="#263238" stroke-linecap="round" stroke-linejoin="round"/>
<path d="M472.708 518.413C474.512 528.725 472.68 539.344 467.525 548.45" stroke="#263238" stroke-linecap="round" stroke-linejoin="round"/>
<path d="M467.525 552.477C466.754 554.423 465.556 556.17 464.022 557.591C462.488 559.012 460.655 560.071 458.658 560.689C454.479 561.81 450.079 561.81 445.9 560.689L450.876 550.592C456.157 552.7 461.907 553.351 467.525 552.477Z" fill="#407BFF" stroke="#263238" stroke-linecap="round" stroke-linejoin="round"/>
<path d="M470.46 546.356C470.46 546.356 459.615 547.012 453.953 544.759" stroke="#263238" stroke-linecap="round" stroke-linejoin="round"/>
<path d="M472.469 540.365C472.469 540.365 462.326 541.963 456.665 538.768" stroke="#263238" stroke-linecap="round" stroke-linejoin="round"/>
<path d="M474.191 533.702C474.191 533.702 465.308 534.996 459.503 532.248" stroke="#263238" stroke-linecap="round" stroke-linejoin="round"/>
<path d="M475.18 526.162C475.18 526.162 465.292 529.262 460.62 526.162" stroke="#263238" stroke-linecap="round" stroke-linejoin="round"/>
<path d="M476.663 507.535L478.386 518.415C478.386 518.415 465.308 527.043 456.665 516.258V504.898C456.665 504.898 459.918 512.535 476.663 507.535Z" fill="#407BFF" stroke="#263238" stroke-linecap="round" stroke-linejoin="round"/>
<path d="M465.308 263.292C452.056 305.36 410.926 372.831 415.088 390.102C417.369 399.529 430.941 452.94 441.562 476.379C445.597 485.342 454.32 491.333 454.32 491.333L460.62 504.866C475.978 511.56 481.48 497.948 481.48 497.948L478.386 482.61C486.615 467.623 483.17 467.623 472.469 389.942C471.209 380.788 492.404 352.492 492.404 352.492L503.28 423.686L505.051 482.003L510.696 500.025C510.696 500.025 512.1 516.945 511.972 517.967H537.218L539.961 499.37C539.961 499.37 551.682 488.298 551.682 475.516C551.682 462.734 549.163 397.627 551.682 378.663C554.202 359.698 545.782 271.281 545.782 271.281L465.308 263.292Z" fill="#263238"/>
<path d="M293.686 225.805L328.772 228.969C329.567 229.041 330.301 229.426 330.813 230.04C331.324 230.654 331.572 231.446 331.5 232.243L329.247 257.327L288.165 253.623L290.418 228.539C290.49 227.742 290.874 227.007 291.487 226.494C292.1 225.981 292.891 225.734 293.686 225.805Z" fill="#407BFF"/>
<path opacity="0.3" d="M293.686 225.809L328.771 228.977C329.567 229.049 330.301 229.434 330.812 230.048C331.324 230.663 331.572 231.455 331.5 232.252L329.25 257.336L288.169 253.626L290.419 228.542C290.49 227.745 290.875 227.01 291.487 226.497C292.1 225.985 292.891 225.737 293.686 225.809Z" fill="black" fill-opacity="0.7"/>
<path opacity="0.3" d="M329.323 228.537L319.265 227.671L317.537 247.824L327.595 248.689L329.323 228.537Z" fill="white" fill-opacity="0.7"/>
<path d="M293.686 225.805L328.772 228.969C329.567 229.041 330.301 229.426 330.813 230.04C331.324 230.654 331.572 231.446 331.5 232.243L329.247 257.327L288.165 253.623L290.418 228.539C290.49 227.742 290.874 227.007 291.487 226.494C292.1 225.981 292.891 225.734 293.686 225.805V225.805Z" stroke="#263238" stroke-width="1.00404" stroke-linecap="round" stroke-linejoin="round"/>
<path d="M354.246 228.029L389.202 231.037C389.995 231.105 390.727 231.486 391.239 232.095C391.751 232.705 392.001 233.493 391.933 234.287L389.79 259.279L348.859 255.756L351.002 230.764C351.07 229.97 351.45 229.236 352.058 228.723C352.666 228.21 353.453 227.96 354.246 228.029Z" fill="#407BFF"/>
<path opacity="0.3" d="M354.245 228.028L389.202 231.041C389.994 231.109 390.727 231.49 391.239 232.1C391.751 232.709 392 233.498 391.933 234.291L389.793 259.284L348.862 255.756L351.002 230.763C351.07 229.97 351.45 229.235 352.058 228.722C352.666 228.21 353.453 227.96 354.245 228.028Z" fill="black" fill-opacity="0.7"/>
<path opacity="0.3" d="M389.012 233.683L382.942 233.16L381.214 253.313L387.284 253.835L389.012 233.683Z" fill="white" fill-opacity="0.7"/>
<path d="M354.246 228.029L389.202 231.037C389.995 231.105 390.727 231.486 391.239 232.095C391.751 232.705 392.001 233.493 391.933 234.287L389.79 259.279L348.859 255.756L351.002 230.764C351.07 229.97 351.45 229.236 352.058 228.723C352.666 228.21 353.453 227.96 354.246 228.029Z" stroke="#263238" stroke-linecap="round" stroke-linejoin="round"/>
<path d="M341.548 226.925L376.505 229.934C377.297 230.002 378.03 230.382 378.542 230.992C379.054 231.601 379.304 232.39 379.235 233.183L377.092 258.175L336.161 254.653L338.304 229.661C338.372 228.867 338.752 228.133 339.361 227.62C339.969 227.107 340.756 226.857 341.548 226.925Z" fill="#407BFF" stroke="#263238" stroke-linecap="round" stroke-linejoin="round"/>
<path d="M401.914 232.133L436.871 235.142C437.663 235.21 438.396 235.59 438.908 236.2C439.42 236.809 439.67 237.598 439.602 238.391L437.46 263.367L396.529 259.845L398.672 234.853C398.744 234.062 399.126 233.332 399.733 232.823C400.341 232.313 401.125 232.065 401.914 232.133Z" fill="#407BFF" stroke="#263238" stroke-linecap="round" stroke-linejoin="round"/>
<path opacity="0.3" d="M376.992 232.639L366.934 231.773L365.206 251.926L375.264 252.792L376.992 232.639Z" fill="white" fill-opacity="0.7"/>
<path opacity="0.3" d="M436.696 237.772L426.638 236.906L424.91 257.059L434.968 257.925L436.696 237.772Z" fill="white" fill-opacity="0.7"/>
<path d="M455.74 259.121L445.868 374.044L261.047 358.067L270.919 243.16C270.999 242.209 271.266 241.283 271.704 240.436C272.142 239.588 272.743 238.836 273.472 238.221C274.201 237.607 275.044 237.142 275.952 236.855C276.86 236.567 277.816 236.462 278.765 236.545L449.121 251.212C450.076 251.29 451.006 251.558 451.857 251.999C452.709 252.44 453.464 253.046 454.079 253.782C454.695 254.517 455.159 255.368 455.444 256.284C455.729 257.201 455.829 258.165 455.74 259.121Z" fill="#407BFF"/>
<path opacity="0.3" d="M455.74 259.121L445.868 374.044L261.047 358.067L270.919 243.16C270.999 242.209 271.266 241.283 271.704 240.436C272.142 239.588 272.743 238.836 273.472 238.221C274.201 237.607 275.044 237.142 275.952 236.855C276.86 236.567 277.816 236.462 278.765 236.545L449.121 251.212C450.076 251.29 451.006 251.558 451.857 251.999C452.709 252.44 453.464 253.046 454.079 253.782C454.695 254.517 455.159 255.368 455.444 256.284C455.729 257.201 455.829 258.165 455.74 259.121Z" fill="black" fill-opacity="0.7"/>
<path d="M455.74 259.121L445.868 374.044L261.047 358.067L270.919 243.16C270.999 242.209 271.266 241.283 271.704 240.436C272.142 239.588 272.743 238.836 273.472 238.221C274.201 237.607 275.044 237.142 275.952 236.855C276.86 236.567 277.816 236.462 278.765 236.545L449.121 251.212C450.076 251.29 451.006 251.558 451.857 251.999C452.709 252.44 453.464 253.046 454.079 253.782C454.695 254.517 455.159 255.368 455.444 256.284C455.729 257.201 455.829 258.165 455.74 259.121V259.121Z" stroke="#263238" stroke-linecap="round" stroke-linejoin="round"/>
<path d="M455.74 259.12L445.868 374.043L308.716 362.22L318.603 247.313C318.684 246.362 318.95 245.436 319.389 244.589C319.827 243.741 320.427 242.989 321.156 242.374C321.885 241.76 322.728 241.296 323.636 241.008C324.545 240.72 325.501 240.615 326.45 240.699L449.137 251.259C450.086 251.34 451.011 251.607 451.856 252.046C452.702 252.485 453.454 253.087 454.067 253.817C454.68 254.547 455.144 255.392 455.431 256.302C455.718 257.212 455.823 258.169 455.74 259.12Z" fill="#407BFF" stroke="#263238" stroke-linecap="round" stroke-linejoin="round"/>
<path opacity="0.3" d="M446.107 262.412L328.874 252.314C328.092 252.245 327.369 251.872 326.859 251.274C326.349 250.677 326.093 249.903 326.146 249.119C326.216 248.336 326.588 247.611 327.185 247.101C327.781 246.59 328.553 246.334 329.336 246.387L446.569 256.484C447.351 256.554 448.074 256.927 448.584 257.524C449.094 258.122 449.35 258.896 449.297 259.68C449.227 260.463 448.855 261.187 448.258 261.698C447.662 262.209 446.89 262.465 446.107 262.412Z" fill="white" fill-opacity="0.7"/>
<path d="M538.047 518.621C538.047 518.621 529.212 512.31 510.936 513.572C510.936 513.572 509.596 535.541 507.108 541.932C504.62 548.322 491.511 559.395 489.071 561.296C486.631 563.197 486.631 569.828 486.631 569.828H542.162C541.449 560.319 539.972 550.883 537.744 541.612L538.047 518.621Z" fill="white"/>
<path opacity="0.4" d="M538.047 518.621C538.047 518.621 529.212 512.31 510.936 513.572C510.936 513.572 509.596 535.541 507.108 541.932C504.62 548.322 491.511 559.395 489.071 561.296C486.631 563.197 486.631 569.828 486.631 569.828H542.162C541.449 560.319 539.972 550.883 537.744 541.612L538.047 518.621Z" fill="#407BFF"/>
<path d="M538.047 518.621C538.047 518.621 529.212 512.31 510.936 513.572C510.936 513.572 509.596 535.541 507.108 541.932C504.62 548.322 491.511 559.395 489.071 561.296C486.631 563.197 486.631 569.828 486.631 569.828H542.162C541.449 560.319 539.972 550.883 537.744 541.612L538.047 518.621Z" stroke="#263238" stroke-linecap="round" stroke-linejoin="round"/>
<path d="M526.581 521.466C526.581 521.466 525.273 541.693 522.131 547.029C520.453 549.962 518.382 552.649 515.975 555.018" stroke="#263238" stroke-linecap="round" stroke-linejoin="round"/>
<path d="M514.444 557.813C514.444 557.813 511.653 561.296 508.559 561.76C505.465 562.223 489.119 561.296 489.119 561.296L495.785 555.513C495.785 555.513 509.341 553.228 514.444 557.813Z" fill="#407BFF" stroke="#263238" stroke-linecap="round" stroke-linejoin="round"/>
<path d="M520.217 553.066C520.217 553.066 508.384 546.26 499.948 551.469" stroke="#263238" stroke-linecap="round" stroke-linejoin="round"/>
<path d="M523.072 548.45C523.072 548.45 514.811 541.979 505.066 545.526" stroke="#263238" stroke-linecap="round" stroke-linejoin="round"/>
<path d="M526.58 541.404C526.58 541.404 517.681 534.47 508.304 538.88" stroke="#263238" stroke-linecap="round" stroke-linejoin="round"/>
<path d="M527.792 532.602C527.792 532.602 516.996 526.786 509.149 531.196" stroke="#263238" stroke-linecap="round" stroke-linejoin="round"/>
<path d="M542.146 569.828V573.934H535.767C535.767 573.934 530.296 570.739 525.097 573.934H495.147C491.982 573.924 488.858 573.22 485.993 571.873L486.615 569.828H542.146Z" fill="#407BFF" stroke="#263238" stroke-linecap="round" stroke-linejoin="round"/>
<path d="M534.188 517.326L532.768 526.289C532.768 526.289 516.103 520.873 506.901 524.388V513.364C506.901 513.364 524.013 507.356 534.188 517.326Z" fill="#407BFF" stroke="#263238" stroke-linecap="round" stroke-linejoin="round"/>
<path d="M552.209 294.014C552.209 294.014 516.788 300.964 482.038 289.685C474.125 287.159 466.556 283.66 459.503 279.268C459.503 279.268 459.599 277.031 459.663 273.372C459.95 259.089 459.87 223.156 452.359 214.257C447.574 208.649 443.827 173.978 453.06 156.452L481.304 133.7C520.409 141.353 528.67 151.722 535.129 174.09C536.325 178.18 537.441 182.67 538.685 187.623C540.04 193.023 541.316 199.622 542.528 206.795C548.397 242.52 552.209 294.014 552.209 294.014Z" fill="#999999"/>
<path opacity="0.2" d="M542.528 206.796L526.58 278.166C526.58 278.166 503.536 284.557 482.054 289.685C474.136 287.16 466.561 283.661 459.503 279.268C459.503 279.268 459.599 277.031 459.663 273.373C478.96 263.483 507.124 248.944 506.901 248.257C506.534 247.186 506.901 209.912 506.901 209.912C506.901 209.912 532.417 203.984 535.128 174.043C536.325 178.133 537.441 182.623 538.685 187.576C540.04 192.992 541.316 199.542 542.528 206.796Z" fill="black"/>
<path d="M552.209 294.014C552.209 294.014 516.788 300.964 482.038 289.685C474.125 287.159 466.556 283.66 459.503 279.268C459.503 279.268 459.599 277.031 459.663 273.372C459.95 259.089 459.87 223.156 452.359 214.257C447.574 208.649 443.827 173.978 453.06 156.452L481.304 133.7C520.409 141.353 528.67 151.722 535.129 174.09C536.325 178.18 537.441 182.67 538.685 187.623C540.04 193.023 541.316 199.622 542.528 206.795C548.397 242.52 552.209 294.014 552.209 294.014Z" stroke="#263238" stroke-linecap="round" stroke-linejoin="round"/>
<path d="M482.548 103.84C482.548 103.84 470.077 121.734 486.663 135.698C486.663 135.698 466.537 158.322 459.918 155.206C457.127 153.896 459.918 145.732 459.918 145.732L448.244 124.099L482.548 103.84Z" fill="white" stroke="#263238" stroke-linecap="round" stroke-linejoin="round"/>
<path d="M478.481 113.107C482.373 96.0593 480.507 70.6717 456.664 72.9244C439.951 74.5221 428.038 83.7889 432.743 106.253C434.704 115.727 436.315 129.148 444.991 141.258C447.399 144.614 472.596 132.743 471.065 123.14" fill="white"/>
<path d="M478.481 113.107C482.373 96.0593 480.507 70.6717 456.664 72.9244C439.951 74.5221 428.038 83.7889 432.743 106.253C434.704 115.727 436.315 129.148 444.991 141.258C447.399 144.614 472.596 132.743 471.065 123.14" stroke="#263238" stroke-linecap="round" stroke-linejoin="round"/>
<path d="M444.369 102.45C446.05 101.798 447.861 101.549 449.655 101.724C451.45 101.899 453.179 102.492 454.703 103.457" stroke="#263238" stroke-linecap="round" stroke-linejoin="round"/>
<path d="M432.376 104.542C432.682 103.887 433.214 103.366 433.873 103.072C434.532 102.779 435.274 102.733 435.964 102.944" stroke="#263238" stroke-linecap="round" stroke-linejoin="round"/>
<path d="M438.341 108.089C438.341 108.089 433.429 117.052 433.413 118.33C433.397 119.608 439.457 120.04 439.457 120.04" fill="white"/>
<path d="M438.341 108.089C438.341 108.089 433.429 117.052 433.413 118.33C433.397 119.608 439.457 120.04 439.457 120.04" stroke="#263238" stroke-linecap="round" stroke-linejoin="round"/>
<path d="M448.898 109.909C448.898 110.884 448.467 111.683 447.861 111.715C447.255 111.747 446.745 110.948 446.713 109.973C446.681 108.999 447.144 108.2 447.75 108.184C448.356 108.168 448.866 108.967 448.898 109.909Z" fill="#263238"/>
<path d="M441.961 126.56C441.961 126.56 451.386 124.786 453.124 121.463" stroke="#263238" stroke-linecap="round" stroke-linejoin="round"/>
<path d="M432.312 90.7379L439.648 88.597C439.648 88.597 449.935 83.8039 452.12 84.4749C454.304 85.1459 458.738 91.9682 458.594 95.8666C458.594 95.8666 465.516 101.97 466.393 110.821L468.498 109.863C468.498 109.863 468.386 101.874 472.916 102.082C477.445 102.289 479.486 107.722 479.183 109.431C478.88 111.141 473.92 118.235 473.92 118.235C473.92 118.235 485.275 116.541 485.642 94.2689C486.009 71.9968 461.64 68.37 449.791 69.2807C443.792 69.8565 437.764 70.0805 431.738 69.9517L432.408 76.3426L427.623 77.6047L431.228 82.0304L427.273 83.8358L432.312 90.7379Z" fill="#263238"/>
<path d="M473.394 333.588C473.394 333.588 502.26 341.241 510.074 362.778" stroke="white" stroke-linecap="round" stroke-linejoin="round"/>
<path d="M486.615 345.173C486.615 345.173 471.018 371.2 447.144 384.716" stroke="white" stroke-linecap="round" stroke-linejoin="round"/>
<path d="M464.686 491.54C464.686 491.54 473.553 489.543 475.978 486.092" stroke="white" stroke-linecap="round" stroke-linejoin="round"/>
<path d="M514.061 494.846C514.061 494.846 522.737 490.341 531.381 494.846" stroke="white" stroke-linecap="round" stroke-linejoin="round"/>
<path d="M542.145 373.677C542.145 373.677 527.585 411.463 520.217 414.962" stroke="white" stroke-linecap="round" stroke-linejoin="round"/>
<path d="M478.386 314.496C478.785 318.602 495.929 337.631 510.074 345.172" stroke="white" stroke-linecap="round" stroke-linejoin="round"/>
<path d="M493.01 298.44C495.074 303.535 495.503 309.147 494.238 314.497C492.862 319.115 492.862 324.035 494.238 328.653" stroke="white" stroke-linecap="round" stroke-linejoin="round"/>
<path d="M461.816 219.865C461.816 219.865 488.656 254.663 517.506 266.087" stroke="#263238" stroke-linecap="round" stroke-linejoin="round"/>
<path d="M489.597 163.61C489.597 163.61 489.501 187.272 506.534 197.945" stroke="#263238" stroke-linecap="round" stroke-linejoin="round"/>
<path d="M499.182 198.137C495.578 201.684 499.501 246.196 499.501 246.196C499.501 246.196 478.561 254.408 472.007 259.697C465.452 264.985 434.401 277.128 434.401 277.128C434.401 277.128 429.617 293.456 435.581 294.016C441.546 294.575 503.312 273.485 517.442 266.088C517.442 266.088 526.644 211.766 526.58 197.945" fill="white"/>
<path d="M499.182 198.137C495.578 201.684 499.501 246.196 499.501 246.196C499.501 246.196 478.561 254.408 472.007 259.697C465.452 264.985 434.401 277.128 434.401 277.128C434.401 277.128 429.617 293.456 435.581 294.016C441.546 294.575 503.312 273.485 517.442 266.088C517.442 266.088 526.644 211.766 526.58 197.945" stroke="#263238" stroke-linecap="round" stroke-linejoin="round"/>
<path d="M436.857 276.153C433.987 275.61 428.883 273.724 426.204 274.347C423.525 274.971 418.629 277.926 413.589 279.141C408.55 280.355 410.639 282.336 413.589 282.927C415.749 283.287 417.953 283.287 420.112 282.927L416.013 286.937C413.666 288.21 411.243 289.336 408.757 290.309C407.274 290.309 402.027 291.731 402.378 293.967C402.729 296.204 405.743 295.948 409.108 296.076C409.108 296.076 403.749 297.147 404.323 300.198C404.674 302.291 410.703 300.406 413.781 300.406C413.781 300.406 411.261 303.154 413.143 304.001C415.025 304.848 419.203 302.739 419.203 302.739C419.203 302.739 419.043 305.008 420.925 305.231C422.807 305.455 427.544 303.633 430.765 301.684C433.938 299.636 436.974 297.384 439.855 294.942C441.075 293.825 442.471 292.918 443.986 292.258" fill="white"/>
<path d="M436.857 276.153C433.987 275.61 428.883 273.724 426.204 274.347C423.525 274.971 418.629 277.926 413.589 279.141C408.55 280.355 410.639 282.336 413.589 282.927C415.749 283.287 417.953 283.287 420.112 282.927L416.013 286.937C413.666 288.21 411.243 289.336 408.757 290.309C407.274 290.309 402.027 291.731 402.378 293.967C402.729 296.204 405.743 295.948 409.108 296.076C409.108 296.076 403.749 297.147 404.323 300.198C404.674 302.291 410.703 300.406 413.781 300.406C413.781 300.406 411.261 303.154 413.143 304.001C415.025 304.848 419.203 302.739 419.203 302.739C419.203 302.739 419.043 305.008 420.925 305.231C422.807 305.455 427.544 303.633 430.765 301.684C433.938 299.636 436.974 297.384 439.855 294.942C441.075 293.825 442.471 292.918 443.986 292.258" stroke="#263238" stroke-linecap="round" stroke-linejoin="round"/>
<path d="M409.188 296.141C410.669 296.06 412.144 295.89 413.605 295.629C414.865 295.31 416.125 294.895 416.125 294.895" stroke="#263238" stroke-linecap="round" stroke-linejoin="round"/>
<path d="M413.797 300.469C415.724 300.198 417.581 299.558 419.267 298.584" stroke="#263238" stroke-linecap="round" stroke-linejoin="round"/>
<path d="M419.219 302.802C420.645 302.622 422.009 302.114 423.206 301.316" stroke="#263238" stroke-linecap="round" stroke-linejoin="round"/>
<path d="M416.524 288.15C416.524 288.15 415.375 290.787 416.524 292.257C417.672 293.726 419.059 293.854 419.267 295.452C419.474 297.05 422.217 297.05 423.206 298.088C424.195 299.127 424.944 301.124 428.102 301.284" stroke="#263238" stroke-linecap="round" stroke-linejoin="round"/>
<path d="M497.842 151.979C486.982 176.599 497.842 210.758 497.842 210.758C497.842 210.758 524.125 219.705 526.549 215.855C528.973 212.004 533.406 193.12 534.156 184.396" fill="#999999"/>
<path d="M497.842 151.979C486.982 176.599 497.842 210.758 497.842 210.758C497.842 210.758 524.125 219.705 526.549 215.855C528.973 212.004 533.406 193.12 534.156 184.396" stroke="#263238" stroke-linecap="round" stroke-linejoin="round"/>
<path d="M526.581 187.127C526.581 187.127 515.417 202.513 506.534 202.721" stroke="#263238" stroke-linecap="round" stroke-linejoin="round"/>
<path d="M127.563 573.937C127.563 573.937 124.836 563.503 128.025 559.637C133.735 552.703 127.324 546.855 133.065 544.475L135.473 547.271C135.936 544.443 134.596 535.799 145.249 534.681C158.135 533.323 158.374 542.669 159.076 545.865L158.853 541.535C164.355 541.535 161.5 547.031 169.825 556.01C172.007 558.435 173.669 561.283 174.706 564.378C175.743 567.472 176.133 570.748 175.853 574L127.563 573.937Z" fill="#263238"/>
<path d="M225.786 573.935C220.603 571.618 225.355 552.03 225.355 552.03C225.355 552.03 218.386 547.349 225.355 542.444C228.051 544.732 231.319 546.239 234.807 546.802C238.295 547.366 241.87 546.963 245.147 545.639C245.147 545.639 246.502 532.538 254.716 534.216C254.716 534.216 256.821 542.524 261.621 547.269C274.619 560.051 291.412 561.648 294.219 567.784C295.064 569.637 294.043 573.871 294.043 573.871L225.786 573.935Z" fill="#263238"/>
<path d="M203.635 261.549L210.014 275.098C210.014 275.098 236.392 329.707 252.547 392.242C252.93 393.728 261.286 423.349 254.588 497.115L258.416 510.057L254.237 531.434C254.237 531.434 260.521 540.525 260.298 543.497C260.298 543.497 244.796 546.389 239.565 549.169C235.546 551.342 223.474 563.277 223.474 563.277C220.045 562.574 219.742 548.706 219.742 548.706C219.742 548.706 212.581 425.57 210.524 420.266C208.467 414.961 195.9 392.082 176.284 339.725C176.284 339.725 175.837 412.852 170.606 431.354C165.934 447.81 171.468 493.872 171.468 493.872L168.278 545.143C168.278 545.143 179.314 556.63 170.367 559.714C170.367 559.714 164.387 548.194 147.354 545.574C138.695 544.232 127.914 559.634 127.914 559.634C124.118 558.42 129.508 539.071 129.508 539.071C117.436 447.81 126.319 464.33 123.927 419.722C122.332 391.091 114.278 268.611 123.783 258.657L203.635 261.549Z" fill="#BFBFBF"/>
<path opacity="0.2" d="M119.35 303.729C161.994 307.084 198.914 293.104 214.942 285.802C211.896 278.964 210.03 275.098 210.03 275.098L203.65 261.565L123.911 258.657C120.53 262.252 119.334 280.514 119.35 303.729Z" fill="black"/>
<path opacity="0.2" d="M176.714 340.667C196.123 392.353 208.61 414.977 210.62 420.249C211.784 423.317 214.639 465.129 216.871 500.215C219.423 468.261 222.054 434.597 222.278 427.998C222.756 414.833 213.267 396.795 211.848 392.13C210.428 387.464 213.634 382.416 213.634 382.416L196.57 360.847C197.144 353.529 188.101 321.591 188.101 321.591C182.727 326.688 177.942 337.536 176.714 340.667Z" fill="black"/>
<path d="M203.635 261.549L210.014 275.098C210.014 275.098 236.392 329.707 252.547 392.242C252.93 393.728 261.286 423.349 254.588 497.115L258.416 510.057L254.237 531.434C254.237 531.434 260.521 540.525 260.298 543.497C260.298 543.497 244.796 546.389 239.565 549.169C235.546 551.342 223.474 563.277 223.474 563.277C220.045 562.574 219.742 548.706 219.742 548.706C219.742 548.706 212.581 425.57 210.524 420.266C208.467 414.961 195.9 392.082 176.284 339.725C176.284 339.725 175.837 412.852 170.606 431.354C165.934 447.81 171.468 493.872 171.468 493.872L168.278 545.143C168.278 545.143 179.314 556.63 170.367 559.714C170.367 559.714 164.387 548.194 147.354 545.574C138.695 544.232 127.914 559.634 127.914 559.634C124.118 558.42 129.508 539.071 129.508 539.071C117.436 447.81 126.319 464.33 123.927 419.722C122.332 391.091 114.278 268.611 123.783 258.657L203.635 261.549Z" stroke="#263238" stroke-linecap="round" stroke-linejoin="round"/>
<path d="M176.348 339.725C176.348 339.725 186.092 320.888 194.401 315.632" stroke="#263238" stroke-linecap="round" stroke-linejoin="round"/>
<path d="M198.069 309.53C198.069 309.53 168.469 318.557 158.199 320.299" stroke="#263238" stroke-linecap="round" stroke-linejoin="round"/>
<path d="M182.918 279.268C184.194 303.952 192.886 308.154 184.513 313.538C184.513 313.538 184.752 325.09 180.574 332.407" stroke="#263238" stroke-linecap="round" stroke-linejoin="round"/>
<path d="M131.055 269.826C131.055 269.826 134.548 307.772 122.89 314.914" stroke="#263238" stroke-linecap="round" stroke-linejoin="round"/>
<path d="M122.89 282.064C122.89 282.064 122.013 307.324 122.89 327.679C122.89 327.679 125.809 413.716 128.727 424.516C131.646 435.317 124.23 451.677 124.868 498.362" stroke="#263238" stroke-linecap="round" stroke-linejoin="round"/>
<path d="M150.831 534.902C148.071 534.301 145.188 534.685 142.681 535.989" stroke="#263238" stroke-linecap="round" stroke-linejoin="round"/>
<path d="M168.374 545.143C164.716 541.577 160.477 538.664 155.839 536.531" stroke="#263238" stroke-linecap="round" stroke-linejoin="round"/>
<path d="M163.589 345.686C157.05 353.035 146.684 366.887 136.063 368.053" stroke="#263238" stroke-linecap="round" stroke-linejoin="round"/>
<path d="M173.589 333.733C171.579 336.274 169.506 338.766 167.401 341.243" stroke="#263238" stroke-linecap="round" stroke-linejoin="round"/>
<path d="M164.275 419.722C164.275 419.722 149.412 439.997 141.262 441.163" stroke="#263238" stroke-linecap="round" stroke-linejoin="round"/>
<path d="M181.754 336.067C181.754 336.067 208.227 409.93 217.429 417.215C217.429 417.215 218.466 471.537 218.769 490.502C219.072 509.467 223.426 534.679 223.426 534.679" stroke="#263238" stroke-linecap="round" stroke-linejoin="round"/>
<path d="M251.686 534.135C251.686 534.135 241.495 537.666 236.535 539.919C233.49 541.408 231.103 543.975 229.837 547.124" stroke="#263238" stroke-linecap="round" stroke-linejoin="round"/>
<path d="M225.898 390.582C211.688 381.651 192.949 370.483 185.39 354.745" stroke="#263238" stroke-linecap="round" stroke-linejoin="round"/>
<path d="M238.289 397.948C235.594 396.462 232.947 394.912 230.315 393.314" stroke="#263238" stroke-linecap="round" stroke-linejoin="round"/>
<path d="M193.508 289.253C185.869 289.141 177.56 288.134 170.973 283.805" stroke="#263238" stroke-linecap="round" stroke-linejoin="round"/>
<path d="M205.644 288.535C203.459 288.839 201.258 289.031 199.057 289.143" stroke="#263238" stroke-linecap="round" stroke-linejoin="round"/>
<path d="M219.822 118.922C213.985 110.071 184.242 107.818 165.152 107.818C146.063 107.818 122.89 104.623 112.428 126.192C104.454 142.664 122.826 229.772 122.826 229.772L118.329 267.382C152.904 278.246 212.135 275.849 212.135 275.849L204.161 241.85C204.161 241.85 225.659 127.758 219.822 118.922Z" fill="#263238"/>
<path d="M153.813 85.9463C153.813 85.9463 156.381 106.445 148.598 110.871C148.598 110.871 152.489 125.905 166.141 126.848C179.792 127.79 185.821 113.107 185.821 113.107L153.813 85.9463Z" fill="white" stroke="#263238" stroke-linecap="round" stroke-linejoin="round"/>
<path d="M226.159 33.3149L261.096 30.0865C261.888 30.0133 262.676 30.2583 263.288 30.7674C263.899 31.2766 264.284 32.0083 264.357 32.8016L266.657 57.7796L225.812 61.554L223.512 36.576C223.44 35.7936 223.677 35.0141 224.172 34.4045C224.666 33.7949 225.38 33.4037 226.159 33.3149Z" fill="#407BFF"/>
<path opacity="0.3" d="M226.159 33.3122L261.097 30.086C261.888 30.0129 262.677 30.2579 263.288 30.7671C263.9 31.2763 264.285 32.0081 264.358 32.8013L266.659 57.7792L225.814 61.5509L223.513 36.573C223.44 35.7907 223.677 35.0112 224.172 34.4016C224.666 33.792 225.38 33.4009 226.159 33.3122Z" fill="black" fill-opacity="0.7"/>
<path opacity="0.3" d="M262.114 32.6101L252.062 33.5391L253.916 53.6806L263.969 52.7517L262.114 32.6101Z" fill="white" fill-opacity="0.7"/>
<path d="M226.159 33.3149L261.096 30.0865C261.888 30.0133 262.676 30.2583 263.288 30.7674C263.899 31.2766 264.284 32.0083 264.357 32.8016L266.657 57.7796L225.812 61.554L223.512 36.576C223.44 35.7936 223.677 35.0141 224.172 34.4045C224.666 33.7949 225.38 33.4037 226.159 33.3149V33.3149Z" stroke="#263238" stroke-linecap="round" stroke-linejoin="round"/>
<path d="M286.566 27.6968L321.503 24.4683C322.295 24.3951 323.083 24.6401 323.695 25.1493C324.306 25.6585 324.691 26.3902 324.764 27.1834L327.064 52.1614L286.155 55.9417L283.856 30.9637C283.783 30.1704 284.027 29.3806 284.535 28.7679C285.044 28.1552 285.774 27.7699 286.566 27.6968Z" fill="#407BFF"/>
<path opacity="0.3" d="M286.566 27.6999L321.503 24.4737C322.295 24.4006 323.084 24.6456 323.695 25.1548C324.307 25.664 324.691 26.3958 324.765 27.189L327.066 52.1669L286.157 55.9444L283.856 30.9666C283.783 30.1733 284.027 29.3835 284.536 28.7709C285.044 28.1583 285.774 27.773 286.566 27.6999Z" fill="black" fill-opacity="0.7"/>
<path opacity="0.3" d="M321.799 27.1142L315.733 27.6748L317.587 47.8163L323.654 47.2557L321.799 27.1142Z" fill="white" fill-opacity="0.7"/>
<path d="M286.566 27.6968L321.503 24.4683C322.295 24.3951 323.083 24.6401 323.695 25.1493C324.306 25.6585 324.691 26.3902 324.764 27.1834L327.064 52.1614L286.155 55.9417L283.856 30.9637C283.783 30.1704 284.027 29.3806 284.535 28.7679C285.044 28.1552 285.774 27.7699 286.566 27.6968V27.6968Z" stroke="#263238" stroke-linecap="round" stroke-linejoin="round"/>
<path d="M273.873 28.8605L308.81 25.6321C309.602 25.5589 310.39 25.8038 311.001 26.313C311.613 26.8222 311.998 27.5539 312.071 28.3472L314.37 53.3252L273.399 57.1113L271.099 32.1333C271.062 31.7351 271.105 31.3336 271.225 30.9522C271.345 30.5709 271.54 30.2175 271.799 29.9126C272.057 29.6078 272.374 29.3577 272.73 29.1771C273.086 28.9964 273.474 28.8888 273.873 28.8605Z" fill="#407BFF" stroke="#263238" stroke-linecap="round" stroke-linejoin="round"/>
<path d="M334.219 23.2837L369.156 20.0552C369.948 19.982 370.736 20.227 371.347 20.7362C371.959 21.2454 372.344 21.9771 372.417 22.7703L374.716 47.7483L333.808 51.5286L331.508 26.5506C331.435 25.7573 331.68 24.9675 332.188 24.3548C332.696 23.7421 333.427 23.3569 334.219 23.2837Z" fill="#407BFF" stroke="#263238" stroke-linecap="round" stroke-linejoin="round"/>
<path opacity="0.3" d="M309.768 28.2127L299.716 29.1416L301.57 49.2831L311.623 48.3542L309.768 28.2127Z" fill="white" fill-opacity="0.7"/>
<path opacity="0.3" d="M369.452 22.6805L359.4 23.6094L361.254 43.7509L371.307 42.822L369.452 22.6805Z" fill="white" fill-opacity="0.7"/>
<path d="M391.98 40.2823L402.569 155.126L217.812 172.221L207.287 57.3458C207.109 55.4263 207.7 53.5149 208.929 52.0317C210.158 50.5486 211.925 49.6154 213.841 49.4372L384.101 33.6997C385.051 33.6119 386.008 33.7126 386.918 33.9961C387.828 34.2797 388.673 34.7405 389.405 35.352C390.137 35.9636 390.741 36.7139 391.183 37.56C391.625 38.406 391.896 39.3312 391.98 40.2823Z" fill="#407BFF"/>
<path opacity="0.3" d="M391.98 40.2823L402.569 155.126L217.812 172.221L207.287 57.3458C207.109 55.4263 207.7 53.5149 208.929 52.0317C210.158 50.5486 211.925 49.6154 213.841 49.4372L384.101 33.6997C385.051 33.6119 386.008 33.7126 386.918 33.9961C387.828 34.2797 388.673 34.7405 389.405 35.352C390.137 35.9636 390.741 36.7139 391.183 37.56C391.625 38.406 391.896 39.3312 391.98 40.2823Z" fill="black" fill-opacity="0.7"/>
<path d="M391.98 40.2823L402.569 155.126L217.812 172.221L207.287 57.3458C207.109 55.4263 207.7 53.5149 208.929 52.0317C210.158 50.5486 211.925 49.6154 213.841 49.4372L384.101 33.6997C385.051 33.6119 386.008 33.7126 386.918 33.9961C387.828 34.2797 388.673 34.7405 389.405 35.352C390.137 35.9636 390.741 36.7139 391.183 37.56C391.625 38.406 391.896 39.3312 391.98 40.2823V40.2823Z" stroke="#263238" stroke-linecap="round" stroke-linejoin="round"/>
<path d="M391.98 40.2822L402.569 155.126L265.417 167.795L254.843 52.9521C254.666 51.0326 255.257 49.1211 256.486 47.638C257.715 46.1549 259.482 45.2216 261.398 45.0434L384.022 33.6997C384.977 33.6006 385.942 33.693 386.862 33.9714C387.781 34.2498 388.636 34.7087 389.377 35.3213C390.117 35.9339 390.729 36.688 391.176 37.5397C391.623 38.3914 391.896 39.3237 391.98 40.2822Z" fill="#407BFF" stroke="#263238" stroke-linecap="round" stroke-linejoin="round"/>
<path opacity="0.3" d="M383.097 45.2213L265.927 56.0537C265.147 56.1072 264.377 55.8531 263.781 55.3457C263.185 54.8383 262.81 54.1177 262.737 53.3376C262.68 52.5576 262.93 51.7859 263.434 51.1885C263.938 50.591 264.655 50.2154 265.433 50.1422L382.602 39.3097C383.382 39.2563 384.153 39.5104 384.748 40.0178C385.344 40.5252 385.719 41.2458 385.792 42.0258C385.841 42.8041 385.588 43.5713 385.086 44.1669C384.584 44.7625 383.871 45.1403 383.097 45.2213Z" fill="white" fill-opacity="0.7"/>
<path d="M177.209 45.2989C177.209 45.2989 150.177 39.8667 147.147 57.2977C144.117 74.7287 154.02 82.1421 154.02 82.1421L177.209 45.2989Z" fill="#263238"/>
<path d="M154.021 91.714C150.932 83.0488 150.449 73.6659 152.633 64.7287C155.281 53.5447 168.581 38.1587 188.755 52.1387C199.137 59.3444 199.775 74.986 196.538 89.3014C195.772 92.7206 196.346 96.0598 195.214 99.2073C191.227 110.231 183.939 118.715 179.952 118.907C173.302 119.243 160.001 111.174 160.543 104.144" fill="white"/>
<path d="M154.021 91.714C150.932 83.0488 150.449 73.6659 152.633 64.7287C155.281 53.5447 168.581 38.1587 188.755 52.1387C199.137 59.3444 199.775 74.986 196.538 89.3015C195.772 92.7206 196.346 96.0598 195.214 99.2073C191.227 110.231 183.939 118.715 179.952 118.907C173.302 119.243 160.001 111.174 160.543 104.144" stroke="#263238" stroke-linecap="round" stroke-linejoin="round"/>
<path d="M180.956 86.6479C180.956 86.6479 175.582 82.7494 170.415 85.9449" stroke="#263238" stroke-linecap="round" stroke-linejoin="round"/>
<path d="M191.099 85.9457C191.099 85.9457 195.166 82.207 197.813 82.7502" stroke="#263238" stroke-linecap="round" stroke-linejoin="round"/>
<path d="M173.365 92.6234C173.365 93.614 173.86 94.4288 174.482 94.4288C175.104 94.4288 175.614 93.614 175.614 92.6234C175.614 91.6328 175.104 90.834 174.482 90.834C173.86 90.834 173.365 91.6328 173.365 92.6234Z" fill="#263238"/>
<path d="M191.099 93.4236C191.725 93.4236 192.232 92.6224 192.232 91.6342C192.232 90.6459 191.725 89.8447 191.099 89.8447C190.474 89.8447 189.967 90.6459 189.967 91.6342C189.967 92.6224 190.474 93.4236 191.099 93.4236Z" fill="#263238"/>
<path d="M188.819 89.7178C186.841 92.3061 189.616 102.164 188.819 102.867C188.021 103.57 182.95 101.573 182.95 101.573C182.95 101.573 181.77 100.071 184.242 99.2721" stroke="#263238" stroke-linecap="round" stroke-linejoin="round"/>
<path d="M184.322 107.82C184.322 107.82 177.512 107.82 175.694 105.327" stroke="#263238" stroke-linecap="round" stroke-linejoin="round"/>
<path d="M168.023 70.8947L167.496 79.1389C167.496 79.1389 161.659 82.1585 160.192 85.2261C159.319 87.2353 159 89.4422 159.267 91.617C159.267 91.617 155.727 85.4179 153.813 85.9291C153.127 86.1049 153.127 88.7091 153.127 88.7091C153.127 88.7091 145.153 70.8787 152.362 61.4522C159.57 52.0257 168.023 70.8947 168.023 70.8947Z" fill="#757575" stroke="#263238" stroke-linecap="round" stroke-linejoin="round"/>
<path d="M156.779 89.8449C156.779 89.8449 155.184 83.8535 149.81 82.2718C144.436 80.6901 148.12 95.0535 152.697 96.9228C157.274 98.7921 158.422 100.118 158.693 98.4087" fill="white"/>
<path d="M156.779 89.8449C156.779 89.8449 155.184 83.8535 149.81 82.2718C144.436 80.6901 148.12 95.0535 152.697 96.9228C157.274 98.7921 158.422 100.118 158.693 98.4087" stroke="#263238" stroke-linecap="round" stroke-linejoin="round"/>
<path d="M149.459 69.8562C149.013 69.2491 147.035 53.8791 157.162 46.977C167.289 40.0749 184.401 40.8099 195.294 50.3642C206.186 59.9185 203.092 76.4867 195.294 82.1426V75.2245C195.294 75.2245 191.705 82.1586 180.941 82.7338L184.226 77.653C184.226 77.653 178.931 80.8485 169.602 80.5769C169.602 80.5769 173.987 77.0779 173.349 73.9623C173.365 73.9623 158.55 82.3184 149.459 69.8562Z" fill="#263238"/>
<path d="M151.357 125.266C143.893 126.161 133.272 135.923 140.193 153.258C144.611 164.25 180.909 157.715 180.909 157.715C194.369 152.155 214.032 132.152 228.465 122.869C228.465 122.869 225.419 103.697 221.911 106.413C205.596 118.923 192.184 119.786 169.426 130.746C169.474 130.682 156.046 124.707 151.357 125.266Z" fill="white" stroke="#263238" stroke-linecap="round" stroke-linejoin="round"/>
<path d="M168.023 146.546C167.799 153.704 170.734 154.966 175.678 156.659L168.023 146.546Z" fill="white"/>
<path d="M168.023 146.546C167.799 153.704 170.734 154.966 175.678 156.659" stroke="#263238" stroke-linecap="round" stroke-linejoin="round"/>
<path d="M220.827 107.818C221.161 106.78 227.206 96.139 228.912 93.4388C230.619 90.7387 238.242 88.2942 241.192 86.6645C244.142 85.0349 244.382 82.5584 245.976 84.3319C247.571 86.1054 245.976 90.1476 237.141 94.4454C240.281 94.6193 243.427 94.6193 246.567 94.4454C248.927 94.0939 251.032 91.953 252.085 93.4388C253.137 94.9247 253.344 97.5929 248.082 99.2225C245.579 100.132 242.957 100.67 240.299 100.82C242.874 101.371 245.405 102.108 247.874 103.025C248.72 103.648 249.979 105.102 251.239 105.326C252.499 105.549 253.871 106.924 251.558 108.521C250.738 108.975 249.82 109.222 248.883 109.238C247.946 109.255 247.019 109.042 246.184 108.617C246.184 108.617 252.292 111.573 250.394 113.41C248.496 115.248 242.42 114.88 242.42 114.88C242.42 114.88 233.409 125.888 225.786 123.588" fill="white"/>
<path d="M220.827 107.818C221.161 106.78 227.206 96.139 228.912 93.4388C230.619 90.7387 238.242 88.2942 241.192 86.6645C244.142 85.0349 244.382 82.5584 245.976 84.3319C247.571 86.1054 245.976 90.1476 237.141 94.4454C240.281 94.6193 243.427 94.6193 246.567 94.4454C248.927 94.0939 251.032 91.953 252.085 93.4388C253.137 94.9247 253.344 97.5929 248.082 99.2225C245.579 100.132 242.957 100.67 240.299 100.82C242.874 101.371 245.405 102.108 247.874 103.025C248.72 103.648 249.979 105.102 251.239 105.326C252.499 105.549 253.871 106.924 251.558 108.521C250.738 108.975 249.82 109.222 248.883 109.238C247.946 109.255 247.019 109.042 246.184 108.617C246.184 108.617 252.292 111.573 250.394 113.41C248.496 115.248 242.42 114.88 242.42 114.88C242.42 114.88 233.409 125.888 225.786 123.588" stroke="#263238" stroke-linecap="round" stroke-linejoin="round"/>
<path d="M231.623 93.4229C232.139 93.5428 232.611 93.8033 232.988 94.1755C233.366 94.5477 233.633 95.0171 233.76 95.5318C234.286 97.4171 235.833 97.529 236.774 99.638C237.715 101.747 237.444 105.006 238.369 106.125C239.294 107.243 238.369 111.956 238.369 111.956" stroke="#263238" stroke-linecap="round" stroke-linejoin="round"/>
<path d="M152.92 123.907C149.013 118.922 140.241 121.175 140.241 121.175" stroke="white" stroke-linecap="round" stroke-linejoin="round"/>
<path d="M135.457 111.99C135.457 111.99 144.484 113.316 147.147 120.842" stroke="white" stroke-linecap="round" stroke-linejoin="round"/>
<path d="M151.357 159.633C151.357 159.633 142.554 166.455 129.158 156.661" stroke="white" stroke-linecap="round" stroke-linejoin="round"/>
<path d="M140.242 161.691C140.242 161.691 135.776 167.875 124.9 167.795" stroke="white" stroke-linecap="round" stroke-linejoin="round"/>
<path d="M196.187 239.484C196.187 239.484 173.158 257.874 149.762 255.461" stroke="white" stroke-linecap="round" stroke-linejoin="round"/>
<path d="M133.942 199.079C133.942 199.079 169.681 225.345 196.139 227.023" stroke="white" stroke-linecap="round" stroke-linejoin="round"/>
<path d="M134.883 393.522C141.031 390.105 148.259 389.2 155.057 390.997C166.715 393.937 197 437.331 201.21 441.565C205.421 445.799 213.299 447.956 220.555 455.609C232.038 467.607 248.735 478.216 250.426 478.216C252.116 478.216 253.472 477.162 255.577 476.746C257.682 476.331 273.981 474.845 273.981 474.845C273.981 474.845 279.451 476.059 273.981 478.408C268.511 480.757 268.925 482.85 268.925 482.85C268.925 482.85 267.825 484.623 270.026 486.317C272.227 488.01 273.518 487.083 276.66 491.541C279.802 495.999 272.227 493.474 272.227 493.474C272.227 493.474 273.901 498.267 270.536 497.788C267.171 497.309 270.122 502.469 264.651 501.767C259.181 501.064 247.475 493.666 244.541 485.917C244.541 485.917 196.793 463.054 189.648 457.158C182.503 451.263 152.426 419.644 150.368 419.229" fill="#263238"/>
<path d="M259.803 436.34H294.889C295.684 436.34 296.447 436.656 297.009 437.22C297.571 437.783 297.887 438.547 297.887 439.344V464.428H256.805V439.344C256.805 438.547 257.121 437.783 257.683 437.22C258.246 436.656 259.008 436.34 259.803 436.34Z" fill="#407BFF"/>
<path opacity="0.3" d="M259.803 436.34H294.889C295.684 436.34 296.447 436.656 297.009 437.22C297.571 437.783 297.887 438.547 297.887 439.344V464.428H256.805V439.344C256.805 438.547 257.121 437.783 257.683 437.22C258.246 436.656 259.008 436.34 259.803 436.34Z" fill="black" fill-opacity="0.7"/>
<path opacity="0.3" d="M295.607 438.992H285.512V459.219H295.607V438.992Z" fill="white" fill-opacity="0.7"/>
<path d="M259.803 436.34H294.889C295.684 436.34 296.447 436.656 297.009 437.22C297.571 437.783 297.887 438.547 297.887 439.344V464.428H256.805V439.344C256.805 438.547 257.121 437.783 257.683 437.22C258.246 436.656 259.008 436.34 259.803 436.34V436.34Z" stroke="#263238" stroke-linecap="round" stroke-linejoin="round"/>
<path d="M320.405 436.34H355.491C356.286 436.34 357.049 436.656 357.611 437.22C358.173 437.783 358.489 438.547 358.489 439.344V464.428H317.407V439.344C317.407 438.949 317.485 438.558 317.635 438.194C317.786 437.83 318.007 437.499 318.285 437.22C318.564 436.941 318.894 436.719 319.258 436.568C319.622 436.418 320.012 436.34 320.405 436.34Z" fill="#407BFF"/>
<path opacity="0.3" d="M320.405 436.34H355.491C356.286 436.34 357.049 436.656 357.611 437.22C358.173 437.783 358.489 438.547 358.489 439.344V464.428H317.407V439.344C317.407 438.949 317.485 438.558 317.635 438.194C317.786 437.83 318.007 437.499 318.285 437.22C318.564 436.941 318.894 436.719 319.258 436.568C319.622 436.418 320.012 436.34 320.405 436.34Z" fill="black" fill-opacity="0.7"/>
<path opacity="0.3" d="M355.539 438.992H349.447V459.219H355.539V438.992Z" fill="white" fill-opacity="0.7"/>
<path d="M320.405 436.34H355.491C356.286 436.34 357.049 436.656 357.611 437.22C358.173 437.783 358.489 438.547 358.489 439.344V464.428H317.407V439.344C317.407 438.949 317.485 438.558 317.635 438.194C317.786 437.83 318.007 437.499 318.285 437.22C318.564 436.941 318.894 436.719 319.258 436.568C319.622 436.418 320.012 436.34 320.405 436.34V436.34Z" stroke="#263238" stroke-linecap="round" stroke-linejoin="round"/>
<path d="M307.647 436.34H342.733C343.528 436.34 344.29 436.656 344.853 437.22C345.415 437.783 345.731 438.547 345.731 439.344V464.428H304.649V439.344C304.649 438.949 304.726 438.558 304.877 438.194C305.028 437.83 305.249 437.499 305.527 437.22C305.805 436.941 306.136 436.719 306.5 436.568C306.863 436.418 307.253 436.34 307.647 436.34Z" fill="#407BFF" stroke="#263238" stroke-linecap="round" stroke-linejoin="round"/>
<path d="M368.249 436.34H403.335C404.13 436.34 404.893 436.656 405.455 437.22C406.017 437.783 406.333 438.547 406.333 439.344V464.428H365.251V439.344C365.251 438.547 365.567 437.783 366.129 437.22C366.692 436.656 367.454 436.34 368.249 436.34Z" fill="#407BFF" stroke="#263238" stroke-linecap="round" stroke-linejoin="round"/>
<path opacity="0.3" d="M343.45 438.992H333.355V459.219H343.45V438.992Z" fill="white" fill-opacity="0.7"/>
<path opacity="0.3" d="M403.383 438.992H393.287V459.219H403.383V438.992Z" fill="white" fill-opacity="0.7"/>
<path d="M424.211 458.579V573.918H238.72V458.579C238.72 456.651 239.485 454.802 240.845 453.439C242.206 452.075 244.052 451.31 245.976 451.31H416.954C418.879 451.31 420.724 452.075 422.085 453.439C423.446 454.802 424.211 456.651 424.211 458.579Z" fill="#407BFF"/>
<path opacity="0.3" d="M424.211 458.579V573.918H238.72V458.579C238.72 456.651 239.485 454.802 240.845 453.439C242.206 452.075 244.052 451.31 245.976 451.31H416.954C418.879 451.31 420.724 452.075 422.085 453.439C423.446 454.802 424.211 456.651 424.211 458.579Z" fill="black" fill-opacity="0.7"/>
<path d="M424.211 458.579V573.918H238.72V458.579C238.72 456.651 239.485 454.802 240.845 453.439C242.206 452.075 244.052 451.31 245.976 451.31H416.954C418.879 451.31 420.724 452.075 422.085 453.439C423.446 454.802 424.211 456.651 424.211 458.579V458.579Z" stroke="#263238" stroke-linecap="round" stroke-linejoin="round"/>
<path d="M424.21 458.579V573.918H286.564V458.579C286.564 456.651 287.328 454.802 288.689 453.439C290.05 452.075 291.896 451.31 293.82 451.31H416.954C418.879 451.31 420.724 452.075 422.085 453.439C423.446 454.802 424.21 456.651 424.21 458.579Z" fill="#407BFF" stroke="#263238" stroke-linecap="round" stroke-linejoin="round"/>
<path opacity="0.3" d="M414.897 462.685H297.233C296.438 462.685 295.675 462.368 295.113 461.805C294.551 461.242 294.235 460.478 294.235 459.681C294.226 459.281 294.298 458.884 294.444 458.512C294.591 458.14 294.811 457.801 295.09 457.516C295.369 457.23 295.703 457.003 296.071 456.848C296.439 456.693 296.834 456.613 297.233 456.613H414.897C415.692 456.613 416.455 456.93 417.017 457.493C417.579 458.056 417.895 458.82 417.895 459.617C417.904 460.017 417.832 460.414 417.685 460.786C417.539 461.158 417.319 461.497 417.04 461.782C416.761 462.068 416.427 462.295 416.059 462.45C415.691 462.605 415.296 462.685 414.897 462.685Z" fill="white" fill-opacity="0.7"/>
<path d="M197.08 573.918C187.511 573.918 174.067 567.75 158.581 561.232C142.522 554.458 124.23 547.3 105.666 546.229C98.7448 545.83 102.939 573.918 102.939 573.918H87.7886C87.7886 573.918 72.8294 553.914 71.0911 536.004C71.0911 536.004 83.3072 528.447 86.2416 528.015C87.2534 527.909 88.2704 527.861 89.2877 527.872C92.573 527.872 96.9586 528.015 96.9586 528.015C96.2569 527.6 85.0774 520.858 78.9056 514.004C73.8182 508.348 71.4898 499.416 71.3143 494.08C71.5115 490.547 71.9002 487.026 72.4785 483.535L152.091 484.861C152.091 484.861 152.952 485.468 154.483 486.603C163.717 493.345 197.463 518.461 214.336 537.394C219.79 543.513 223.474 548.977 224.016 552.972C226.552 571.393 211.513 573.918 197.08 573.918Z" fill="#757575" stroke="#263238" stroke-linecap="round" stroke-linejoin="round"/>
<path d="M214.351 537.364L175.63 546.231C168.991 550.036 163.183 555.138 158.55 561.234C142.49 554.459 124.198 547.302 105.634 546.231C98.7129 545.832 102.907 573.92 102.907 573.92H87.7567C87.7567 573.92 72.8294 553.916 71.0911 536.006C71.0911 536.006 85.189 556.137 88.6338 566.362C88.6338 566.362 94.1039 547.445 102.987 539.856C98.9749 535.329 94.4159 531.32 89.4152 527.921C92.7005 527.921 97.0862 528.065 97.0862 528.065C96.3845 527.65 85.205 520.907 79.0331 514.053C73.9458 508.397 71.8885 499.45 71.4419 494.13C71.2186 491.51 71.5376 483.585 71.5376 483.585C71.5376 483.585 130.912 492.069 154.61 486.653C163.733 493.363 197.479 518.431 214.351 537.364Z" fill="#263238"/>
<path d="M152.107 536.005C152.107 536.005 183.652 551.838 192.072 558.037C200.493 564.236 202.997 562.559 202.997 562.559" stroke="#263238" stroke-linecap="round" stroke-linejoin="round"/>
<path d="M78.9219 534.327C78.9219 534.327 86.4971 545.911 86.8958 549.378" stroke="#263238" stroke-linecap="round" stroke-linejoin="round"/>
<path d="M205.803 311.991C205.803 311.991 222.597 304.673 221.002 335.797C219.407 366.92 225.101 368.518 225.101 368.518C225.101 368.518 182.838 385.901 172.105 371.042C161.373 356.183 171.563 315.522 205.803 311.991Z" fill="#263238"/>
<path d="M203.459 368.515C203.459 368.515 186.076 376.728 184.497 384.317C182.918 391.906 161.149 380.482 161.149 380.482L176.922 357.763L203.459 368.515Z" fill="white" stroke="#263238" stroke-linecap="round" stroke-linejoin="round"/>
<path d="M89.4795 451.82C49.6096 502.691 81.968 527.232 127.164 523.174L118.106 537.553L140.848 541.5C140.848 541.5 158.279 530.092 182.041 517.901C222.485 497.131 238.832 498.377 234.67 477.591C230.507 456.805 180.941 443.32 131.247 465.225C131.199 465.209 104.215 433.095 89.4795 451.82Z" fill="#757575" stroke="#263238" stroke-linecap="round" stroke-linejoin="round"/>
<path d="M103.386 562.557C103.386 562.557 113.768 533.799 118.106 532.201C122.444 530.603 138.838 536.834 140.848 541.468C140.848 541.468 146.382 532.968 148.646 536.579C150.911 540.189 147.641 546.165 148.646 550.734C149.651 555.304 160.862 561.695 165.344 562.541C169.825 563.388 172.377 565.913 172.377 568.437V573.917H103.386C102.62 572.122 102.226 570.19 102.226 568.237C102.226 566.285 102.62 564.353 103.386 562.557Z" fill="white" stroke="#263238" stroke-linecap="round" stroke-linejoin="round"/>
<path d="M148.646 546.23C148.646 546.23 139.508 550.752 136.175 549.426C132.842 548.1 137.881 557.015 139.141 557.862C140.401 558.709 148.71 554.906 148.71 554.906" stroke="#263238" stroke-linecap="round" stroke-linejoin="round"/>
<path d="M112.014 541.484C112.014 541.484 124.421 541.724 128.201 546.278" stroke="#263238" stroke-linecap="round" stroke-linejoin="round"/>
<path d="M103.386 562.559C103.386 562.559 123.161 567.192 124.836 567.192C127.555 566.651 130.223 565.876 132.81 564.875C132.81 564.875 138.232 567.607 141.836 569.301C145.44 570.995 168.948 569.301 168.948 569.301" stroke="#263238" stroke-linecap="round" stroke-linejoin="round"/>
<path d="M127.164 523.209C146.046 521.163 182.727 497.853 195.485 489.752C208.243 481.652 211.433 483.777 211.433 483.777" stroke="#263238" stroke-linecap="round" stroke-linejoin="round"/>
<path d="M71.4264 483.503L74.4406 460.576L81.7128 455.08C93.4984 426.433 146.892 372.925 161.453 373.101C183.317 373.357 187.177 396.348 189.872 421.512C192.567 446.676 158.502 442.889 158.502 442.889V449.2L139.125 459.25L150.863 458.882C150.863 458.882 117.101 491.763 71.4264 483.503Z" fill="#407BFF" stroke="#263238" stroke-linecap="round" stroke-linejoin="round"/>
<path d="M166.061 328.797C170.638 314.418 191.578 310.583 199.105 312.932C205.284 315.349 210.348 319.978 213.315 325.921C215.228 330.059 211.226 337.377 214.08 341.643C218.163 347.762 217.812 360.671 216.345 368.804C215.547 373.118 197.638 375.674 182.998 365.608C167.273 354.712 161.627 342.633 166.061 328.797Z" fill="white" stroke="#263238" stroke-linecap="round" stroke-linejoin="round"/>
<path d="M187.224 308.634C187.224 308.634 205.66 305.63 205.787 310.375C206.601 341.898 187.734 348.513 187.734 348.513C187.734 348.513 180.031 342.362 178.309 346.579C176.587 350.797 181.02 362.461 186.474 362.7C185.217 364.656 184.531 366.925 184.491 369.251C184.452 371.577 185.061 373.868 186.251 375.865C186.251 375.865 155.025 381.09 152.441 366.599C153.649 361.561 154.512 356.448 155.025 351.293C157.05 330.986 152.314 317.325 187.224 308.634Z" fill="#263238"/>
<path d="M211.848 340.763C215.691 344.23 218.45 344.23 218.402 345.476C218.259 349.358 213.618 351.292 213.618 351.292" fill="white"/>
<path d="M211.848 340.763C215.691 344.23 218.45 344.23 218.402 345.476C218.259 349.358 213.618 351.292 213.618 351.292" stroke="#263238" stroke-linecap="round" stroke-linejoin="round"/>
<path d="M213.522 357.763C210.806 358.684 207.875 358.756 205.118 357.97" stroke="#263238" stroke-linecap="round" stroke-linejoin="round"/>
<path d="M203.3 321.415C203.3 321.415 215.564 317.852 213.315 337.791C213.315 337.791 218.418 330.841 218.402 323.029C218.402 309.496 200.333 312.212 200.333 312.212L202.694 321.798" fill="#263238"/>
<path d="M214.447 331.179C213.983 330.87 213.461 330.658 212.913 330.556C212.364 330.455 211.801 330.465 211.258 330.588" stroke="#263238" stroke-linecap="round" stroke-linejoin="round"/>
<path d="M206.186 330.955C206.186 330.955 199.6 331.339 196.745 335.748" stroke="#263238" stroke-linecap="round" stroke-linejoin="round"/>
<path d="M204.607 341.451C204.703 342.505 204.256 343.416 203.603 343.48C202.949 343.544 202.343 342.729 202.231 341.674C202.119 340.62 202.582 339.709 203.236 339.645C203.89 339.581 204.512 340.396 204.607 341.451Z" fill="#263238"/>
<path d="M128.201 527.998C128.201 527.998 142.873 529.596 146.062 535.987" stroke="#263238" stroke-linecap="round" stroke-linejoin="round"/>
<path d="M165.343 383.886C171.491 380.469 178.72 379.565 185.518 381.361C197.191 384.317 227.461 427.695 231.671 431.929C235.881 436.163 243.759 438.32 251.016 445.973C262.498 457.972 279.196 468.58 280.886 468.58C282.577 468.58 283.932 467.526 286.037 467.111C288.143 466.695 304.441 465.209 304.441 465.209C304.441 465.209 309.912 466.44 304.441 468.772C298.971 471.105 299.386 473.23 299.386 473.23C299.386 473.23 298.301 474.987 300.486 476.681C302.671 478.374 303.979 477.448 307.121 481.905C310.262 486.363 302.687 483.839 302.687 483.839C302.687 483.839 304.362 488.632 300.997 488.152C297.632 487.673 300.582 492.834 295.112 492.131C289.642 491.428 277.936 484.03 275.001 476.281C275.001 476.281 227.253 453.418 220.109 447.523C212.964 441.627 182.918 410.008 180.797 409.593" fill="white"/>
<path d="M165.343 383.886C171.491 380.469 178.72 379.565 185.518 381.361C197.191 384.317 227.461 427.695 231.671 431.929C235.881 436.163 243.759 438.32 251.016 445.973C262.498 457.972 279.196 468.58 280.886 468.58C282.577 468.58 283.932 467.526 286.037 467.111C288.143 466.695 304.441 465.209 304.441 465.209C304.441 465.209 309.912 466.44 304.441 468.772C298.971 471.105 299.386 473.23 299.386 473.23C299.386 473.23 298.301 474.987 300.486 476.681C302.671 478.374 303.979 477.448 307.121 481.905C310.262 486.363 302.687 483.839 302.687 483.839C302.687 483.839 304.362 488.632 300.997 488.152C297.632 487.673 300.582 492.834 295.112 492.131C289.642 491.428 277.936 484.03 275.001 476.281C275.001 476.281 227.253 453.418 220.109 447.523C212.964 441.627 182.918 410.008 180.797 409.593" stroke="#263238" stroke-linecap="round" stroke-linejoin="round"/>
<path d="M158.486 379.252C158.486 379.252 182.025 372.941 190.238 377.574C198.451 382.208 214.017 403.697 214.017 403.697C214.017 403.697 195.038 420.712 189.17 419.163C183.301 417.613 165.343 415.072 165.343 415.072" fill="#407BFF"/>
<path d="M158.486 379.252C158.486 379.252 182.025 372.941 190.238 377.574C198.451 382.208 214.017 403.697 214.017 403.697C214.017 403.697 195.038 420.712 189.17 419.163C183.301 417.613 165.343 415.072 165.343 415.072" stroke="#263238" stroke-linecap="round" stroke-linejoin="round"/>
<path d="M178.899 417.151C178.899 417.151 170.367 421.849 167.225 421.849" stroke="#263238" stroke-linecap="round" stroke-linejoin="round"/>
<path d="M165.343 393.585C166.061 394.847 165.822 408.667 180.797 412.965" stroke="#263238" stroke-linecap="round" stroke-linejoin="round"/>
<path d="M85.301 455.528C85.301 455.528 117.197 461.008 128.201 451.31" stroke="#263238" stroke-linecap="round" stroke-linejoin="round"/>
<path d="M139.109 459.25C139.109 459.25 131.135 457.844 128.201 461.95C125.266 466.056 109.286 469.939 109.286 469.939" stroke="#263238" stroke-linecap="round" stroke-linejoin="round"/>
<path d="M74.9984 489.75C74.9984 489.75 70.3894 509.657 90.0532 518.509" stroke="#263238" stroke-linecap="round" stroke-linejoin="round"/>
<path d="M85.301 491.124C85.301 491.124 85.4126 500.933 88.4906 506.302L98.2666 509.497L109.207 503.394C109.207 503.394 106.879 490.852 106.671 488.312" stroke="#263238" stroke-linecap="round" stroke-linejoin="round"/>
</svg>
