<svg width="651" height="536" viewBox="0 0 651 536" fill="none" xmlns="http://www.w3.org/2000/svg">
<path d="M252.749 524.559C252.749 530.858 208.042 535.959 152.895 535.959C97.7471 535.959 53.0403 530.824 53.0403 524.559C53.0403 518.295 97.7471 513.16 152.895 513.16C208.042 513.16 252.749 518.295 252.749 524.559Z" fill="#EEEEEE"/>
<path d="M402.975 409.659C404.498 411.438 405.888 413.326 407.134 415.307" stroke="#263238" stroke-width="0.5" stroke-linecap="round" stroke-linejoin="round"/>
<path d="M397.156 414.624C398.408 416.139 399.552 417.741 400.579 419.417" stroke="#263238" stroke-width="0.5" stroke-linecap="round" stroke-linejoin="round"/>
<path d="M405.166 412.415L399.004 416.951" stroke="#263238" stroke-width="0.5" stroke-linecap="round" stroke-linejoin="round"/>
<path d="M407.631 416.097C408.843 418.101 409.912 420.189 410.831 422.344" stroke="#263238" stroke-width="0.5" stroke-linecap="round" stroke-linejoin="round"/>
<path d="M401.092 420.065C402.109 421.767 403.012 423.534 403.797 425.354" stroke="#263238" stroke-width="0.5" stroke-linecap="round" stroke-linejoin="round"/>
<path d="M409.342 419.158L402.53 422.667" stroke="#263238" stroke-width="0.5" stroke-linecap="round" stroke-linejoin="round"/>
<path d="M411.191 423.198C412.071 425.374 412.792 427.61 413.348 429.891" stroke="#263238" stroke-width="0.5" stroke-linecap="round" stroke-linejoin="round"/>
<path d="M404.088 426.074C404.836 427.909 405.448 429.797 405.919 431.723" stroke="#263238" stroke-width="0.5" stroke-linecap="round" stroke-linejoin="round"/>
<path d="M412.389 426.503L405.098 428.865" stroke="#263238" stroke-width="0.5" stroke-linecap="round" stroke-linejoin="round"/>
<path d="M413.553 430.78C414.069 433.075 414.424 435.402 414.614 437.746" stroke="#263238" stroke-width="0.5" stroke-linecap="round" stroke-linejoin="round"/>
<path d="M406.09 432.476C406.526 434.409 406.823 436.371 406.98 438.346" stroke="#263238" stroke-width="0.5" stroke-linecap="round" stroke-linejoin="round"/>
<path d="M414.203 434.237L406.638 435.384" stroke="#263238" stroke-width="0.5" stroke-linecap="round" stroke-linejoin="round"/>
<path d="M414.665 438.654C414.751 439.818 414.768 440.999 414.751 442.077L414.58 445.586" stroke="#263238" stroke-width="0.5" stroke-linecap="round" stroke-linejoin="round"/>
<path d="M407.032 439.115C407.032 440.108 407.117 441.101 407.032 442.093L406.878 445.072" stroke="#263238" stroke-width="0.5" stroke-linecap="round" stroke-linejoin="round"/>
<path d="M414.751 442.164L407.1 442.096" stroke="#263238" stroke-width="0.5" stroke-linecap="round" stroke-linejoin="round"/>
<path d="M414.528 446.597C414.374 447.761 414.186 448.907 414.015 450.02C413.912 450.602 413.844 451.184 413.724 451.731L413.279 453.443" stroke="#263238" stroke-width="0.5" stroke-linecap="round" stroke-linejoin="round"/>
<path d="M406.912 445.843L406.467 448.787C406.381 449.266 406.33 449.762 406.227 450.242L405.851 451.679" stroke="#263238" stroke-width="0.5" stroke-linecap="round" stroke-linejoin="round"/>
<path d="M414.015 450.071L406.467 448.787" stroke="#263238" stroke-width="0.5" stroke-linecap="round" stroke-linejoin="round"/>
<path d="M413.057 454.399C412.8 455.563 412.463 456.707 412.047 457.823C411.636 458.918 411.242 460.031 410.814 461.126" stroke="#263238" stroke-width="0.5" stroke-linecap="round" stroke-linejoin="round"/>
<path d="M405.662 452.433C405.445 453.399 405.159 454.348 404.807 455.274C404.447 456.198 404.139 457.14 403.762 458.064" stroke="#263238" stroke-width="0.5" stroke-linecap="round" stroke-linejoin="round"/>
<path d="M412.047 457.772L404.807 455.273" stroke="#263238" stroke-width="0.5" stroke-linecap="round" stroke-linejoin="round"/>
<path d="M410.421 461.897L408.88 465.064C408.298 466.091 407.682 467.084 407.066 468.076" stroke="#263238" stroke-width="0.5" stroke-linecap="round" stroke-linejoin="round"/>
<path d="M403.437 458.748L402.137 461.435L400.613 463.986" stroke="#263238" stroke-width="0.5" stroke-linecap="round" stroke-linejoin="round"/>
<path d="M408.88 465.064L402.137 461.436" stroke="#263238" stroke-width="0.5" stroke-linecap="round" stroke-linejoin="round"/>
<path d="M406.621 468.864C406.005 469.857 405.252 470.764 404.567 471.706L403.506 473.109L402.325 474.427" stroke="#263238" stroke-width="0.5" stroke-linecap="round" stroke-linejoin="round"/>
<path d="M400.202 464.653C399.689 465.492 399.039 466.245 398.491 467.05L397.601 468.248L396.608 469.343" stroke="#263238" stroke-width="0.5" stroke-linecap="round" stroke-linejoin="round"/>
<path d="M404.533 471.703L398.457 467.048" stroke="#263238" stroke-width="0.5" stroke-linecap="round" stroke-linejoin="round"/>
<path d="M401.674 475.095C400.91 475.987 400.087 476.828 399.21 477.611C398.337 478.381 397.498 479.203 396.591 479.939" stroke="#263238" stroke-width="0.5" stroke-linecap="round" stroke-linejoin="round"/>
<path d="M396.043 469.908C395.411 470.692 394.712 471.419 393.955 472.082C393.219 472.732 392.5 473.434 391.747 474.067" stroke="#263238" stroke-width="0.5" stroke-linecap="round" stroke-linejoin="round"/>
<path d="M399.21 477.61L393.955 472.03" stroke="#263238" stroke-width="0.5" stroke-linecap="round" stroke-linejoin="round"/>
<path d="M395.855 480.502L393.031 482.607L390.036 484.439" stroke="#263238" stroke-width="0.5" stroke-linecap="round" stroke-linejoin="round"/>
<path d="M391.131 474.478L388.752 476.258L386.202 477.798" stroke="#263238" stroke-width="0.5" stroke-linecap="round" stroke-linejoin="round"/>
<path d="M393.031 482.608L388.752 476.258" stroke="#263238" stroke-width="0.5" stroke-linecap="round" stroke-linejoin="round"/>
<path d="M389.248 484.902C388.221 485.484 387.143 485.946 386.099 486.477L384.507 487.23L382.795 487.829" stroke="#263238" stroke-width="0.5" stroke-linecap="round" stroke-linejoin="round"/>
<path d="M385.534 478.208C384.678 478.687 383.823 479.081 382.881 479.526C382.436 479.731 381.991 479.971 381.529 480.159L380.143 480.673" stroke="#263238" stroke-width="0.5" stroke-linecap="round" stroke-linejoin="round"/>
<path d="M386.099 486.476L382.881 479.527" stroke="#263238" stroke-width="0.5" stroke-linecap="round" stroke-linejoin="round"/>
<path d="M381.991 488.152C379.781 488.937 377.523 489.577 375.23 490.069" stroke="#263238" stroke-width="0.5" stroke-linecap="round" stroke-linejoin="round"/>
<path d="M379.407 480.931C377.547 481.629 375.643 482.2 373.707 482.642" stroke="#263238" stroke-width="0.5" stroke-linecap="round" stroke-linejoin="round"/>
<path d="M378.636 489.215L376.583 481.838" stroke="#263238" stroke-width="0.5" stroke-linecap="round" stroke-linejoin="round"/>
<path d="M374.323 490.223L370.9 490.753C369.753 490.89 368.572 490.89 367.477 490.976" stroke="#263238" stroke-width="0.5" stroke-linecap="round" stroke-linejoin="round"/>
<path d="M372.937 482.693L370.01 483.138C369.017 483.258 368.025 483.258 367.032 483.327" stroke="#263238" stroke-width="0.5" stroke-linecap="round" stroke-linejoin="round"/>
<path d="M370.832 490.754L370.01 483.138" stroke="#263238" stroke-width="0.5" stroke-linecap="round" stroke-linejoin="round"/>
<path d="M366.416 491.01C364.072 491.033 361.729 490.919 359.398 490.668" stroke="#263238" stroke-width="0.5" stroke-linecap="round" stroke-linejoin="round"/>
<path d="M366.262 483.36C365.27 483.429 364.275 483.429 363.283 483.36C362.292 483.355 361.303 483.281 360.322 483.138" stroke="#263238" stroke-width="0.5" stroke-linecap="round" stroke-linejoin="round"/>
<path d="M362.907 490.942L363.283 483.291" stroke="#263238" stroke-width="0.5" stroke-linecap="round" stroke-linejoin="round"/>
<path d="M358.491 490.533C357.344 490.345 356.163 490.208 355.068 489.951L351.645 489.078" stroke="#263238" stroke-width="0.5" stroke-linecap="round" stroke-linejoin="round"/>
<path d="M359.552 482.95C358.577 482.778 357.584 482.693 356.625 482.47L353.75 481.734" stroke="#263238" stroke-width="0.5" stroke-linecap="round" stroke-linejoin="round"/>
<path d="M355.017 489.951L356.625 482.472" stroke="#263238" stroke-width="0.5" stroke-linecap="round" stroke-linejoin="round"/>
<path d="M350.72 488.854C348.493 488.121 346.315 487.246 344.199 486.235" stroke="#263238" stroke-width="0.5" stroke-linecap="round" stroke-linejoin="round"/>
<path d="M352.997 481.547C351.113 480.927 349.272 480.184 347.485 479.322" stroke="#263238" stroke-width="0.5" stroke-linecap="round" stroke-linejoin="round"/>
<path d="M347.417 487.639L350.207 480.519" stroke="#263238" stroke-width="0.5" stroke-linecap="round" stroke-linejoin="round"/>
<path d="M343.292 485.775L341.717 485.005L340.211 484.098C339.218 483.464 338.174 482.917 337.233 482.215" stroke="#263238" stroke-width="0.5" stroke-linecap="round" stroke-linejoin="round"/>
<path d="M346.715 478.928L345.38 478.278L344.114 477.508C343.275 476.977 342.402 476.515 341.598 475.916" stroke="#263238" stroke-width="0.5" stroke-linecap="round" stroke-linejoin="round"/>
<path d="M340.28 484.164L344.182 477.574" stroke="#263238" stroke-width="0.5" stroke-linecap="round" stroke-linejoin="round"/>
<path d="M336.566 481.735C335.641 481.034 334.683 480.349 333.776 479.613L331.174 477.217" stroke="#263238" stroke-width="0.5" stroke-linecap="round" stroke-linejoin="round"/>
<path d="M341.05 475.504C340.263 474.905 339.441 474.34 338.671 473.707L336.446 471.722" stroke="#263238" stroke-width="0.5" stroke-linecap="round" stroke-linejoin="round"/>
<path d="M333.776 479.612L338.671 473.724" stroke="#263238" stroke-width="0.5" stroke-linecap="round" stroke-linejoin="round"/>
<path d="M330.489 476.617C328.849 474.94 327.322 473.156 325.919 471.276" stroke="#263238" stroke-width="0.5" stroke-linecap="round" stroke-linejoin="round"/>
<path d="M335.898 471.209C334.523 469.783 333.237 468.274 332.047 466.69" stroke="#263238" stroke-width="0.5" stroke-linecap="round" stroke-linejoin="round"/>
<path d="M328.127 474.033L333.895 469.001" stroke="#263238" stroke-width="0.5" stroke-linecap="round" stroke-linejoin="round"/>
<path d="M325.372 470.558C325.029 470.079 324.653 469.617 324.328 469.138L323.42 467.632C322.838 466.605 322.154 465.646 321.709 464.585" stroke="#263238" stroke-width="0.5" stroke-linecap="round" stroke-linejoin="round"/>
<path d="M331.568 466.075C331.277 465.664 330.969 465.287 330.695 464.876L329.925 463.593C329.445 462.737 328.846 461.881 328.435 461.025" stroke="#263238" stroke-width="0.5" stroke-linecap="round" stroke-linejoin="round"/>
<path d="M323.42 467.632L329.925 463.593" stroke="#263238" stroke-width="0.5" stroke-linecap="round" stroke-linejoin="round"/>
<path d="M321.247 463.762C320.75 462.701 320.203 461.657 319.758 460.579L318.542 457.275" stroke="#263238" stroke-width="0.5" stroke-linecap="round" stroke-linejoin="round"/>
<path d="M328.093 460.322C327.682 459.432 327.203 458.61 326.827 457.635L325.817 454.845" stroke="#263238" stroke-width="0.5" stroke-linecap="round" stroke-linejoin="round"/>
<path d="M319.758 460.58L326.827 457.636" stroke="#263238" stroke-width="0.5" stroke-linecap="round" stroke-linejoin="round"/>
<path d="M318.234 456.403C317.563 454.158 317.042 451.871 316.677 449.557" stroke="#263238" stroke-width="0.5" stroke-linecap="round" stroke-linejoin="round"/>
<path d="M325.543 454.127C324.984 452.229 324.549 450.296 324.242 448.342" stroke="#263238" stroke-width="0.5" stroke-linecap="round" stroke-linejoin="round"/>
<path d="M317.344 452.997L324.807 451.251" stroke="#263238" stroke-width="0.5" stroke-linecap="round" stroke-linejoin="round"/>
<path d="M316.54 448.631L316.283 446.92C316.283 446.338 316.283 445.739 316.163 445.208L316.009 441.699" stroke="#263238" stroke-width="0.5" stroke-linecap="round" stroke-linejoin="round"/>
<path d="M324.122 447.572L323.9 446.101C323.874 445.605 323.874 445.107 323.9 444.611L323.746 441.65" stroke="#263238" stroke-width="0.5" stroke-linecap="round" stroke-linejoin="round"/>
<path d="M316.163 445.141L323.814 444.61" stroke="#263238" stroke-width="0.5" stroke-linecap="round" stroke-linejoin="round"/>
<path d="M316.044 440.725L316.215 437.216C316.215 436.035 316.54 434.888 316.694 433.793" stroke="#263238" stroke-width="0.5" stroke-linecap="round" stroke-linejoin="round"/>
<path d="M323.694 440.861L323.848 437.9C323.848 436.907 324.122 435.932 324.242 434.956" stroke="#263238" stroke-width="0.5" stroke-linecap="round" stroke-linejoin="round"/>
<path d="M316.215 437.217L323.848 437.901" stroke="#263238" stroke-width="0.5" stroke-linecap="round" stroke-linejoin="round"/>
<path d="M316.831 432.816C317.021 431.661 317.278 430.518 317.601 429.393C317.856 428.233 318.182 427.09 318.577 425.97" stroke="#263238" stroke-width="0.5" stroke-linecap="round" stroke-linejoin="round"/>
<path d="M324.362 434.187C324.518 433.211 324.735 432.244 325.012 431.295C325.224 430.325 325.498 429.37 325.834 428.437" stroke="#263238" stroke-width="0.5" stroke-linecap="round" stroke-linejoin="round"/>
<path d="M317.601 429.376L325.012 431.293" stroke="#263238" stroke-width="0.5" stroke-linecap="round" stroke-linejoin="round"/>
<path d="M318.885 425.149C319.313 424.054 319.638 422.924 320.168 421.863L321.692 418.696" stroke="#263238" stroke-width="0.5" stroke-linecap="round" stroke-linejoin="round"/>
<path d="M326.176 427.718C326.536 426.793 326.792 425.818 327.237 424.945L328.538 422.258" stroke="#263238" stroke-width="0.5" stroke-linecap="round" stroke-linejoin="round"/>
<path d="M320.168 421.862L327.169 424.943" stroke="#263238" stroke-width="0.5" stroke-linecap="round" stroke-linejoin="round"/>
<path d="M322.12 417.876C323.273 415.836 324.56 413.875 325.971 412.005" stroke="#263238" stroke-width="0.5" stroke-linecap="round" stroke-linejoin="round"/>
<path d="M328.812 421.573C329.798 419.852 330.889 418.194 332.081 416.609" stroke="#263238" stroke-width="0.5" stroke-linecap="round" stroke-linejoin="round"/>
<path d="M323.934 414.862L330.37 419.039" stroke="#263238" stroke-width="0.5" stroke-linecap="round" stroke-linejoin="round"/>
<path d="M326.518 411.268C327.216 410.322 327.977 409.425 328.795 408.581C329.599 407.742 330.335 406.869 331.225 406.048" stroke="#263238" stroke-width="0.5" stroke-linecap="round" stroke-linejoin="round"/>
<path d="M332.543 415.992C333.136 415.191 333.782 414.43 334.477 413.716C335.113 412.957 335.799 412.242 336.531 411.576" stroke="#263238" stroke-width="0.5" stroke-linecap="round" stroke-linejoin="round"/>
<path d="M328.795 408.58L334.477 413.715" stroke="#263238" stroke-width="0.5" stroke-linecap="round" stroke-linejoin="round"/>
<path d="M331.91 405.433C332.8 404.68 333.621 403.807 334.563 403.123L337.37 401.018" stroke="#263238" stroke-width="0.5" stroke-linecap="round" stroke-linejoin="round"/>
<path d="M337.096 411.063C337.849 410.413 338.534 409.677 339.338 409.112L341.717 407.4" stroke="#263238" stroke-width="0.5" stroke-linecap="round" stroke-linejoin="round"/>
<path d="M334.563 403.12L339.338 409.111" stroke="#263238" stroke-width="0.5" stroke-linecap="round" stroke-linejoin="round"/>
<path d="M338.157 400.502C340.115 399.215 342.163 398.071 344.285 397.079" stroke="#263238" stroke-width="0.5" stroke-linecap="round" stroke-linejoin="round"/>
<path d="M342.368 406.887C344.011 405.805 345.726 404.839 347.503 403.994" stroke="#263238" stroke-width="0.5" stroke-linecap="round" stroke-linejoin="round"/>
<path d="M341.135 398.671L344.901 405.346" stroke="#263238" stroke-width="0.5" stroke-linecap="round" stroke-linejoin="round"/>
<path d="M345.106 396.772C346.161 396.263 347.247 395.822 348.358 395.454C349.476 395.014 350.619 394.642 351.782 394.342" stroke="#263238" stroke-width="0.5" stroke-linecap="round" stroke-linejoin="round"/>
<path d="M348.256 403.617C349.143 403.192 350.058 402.826 350.994 402.521C351.912 402.141 352.856 401.827 353.818 401.58" stroke="#263238" stroke-width="0.5" stroke-linecap="round" stroke-linejoin="round"/>
<path d="M348.358 395.369L350.994 402.558" stroke="#263238" stroke-width="0.5" stroke-linecap="round" stroke-linejoin="round"/>
<path d="M352.586 394.017C353.733 393.76 354.845 393.383 356.009 393.212L359.432 392.682" stroke="#263238" stroke-width="0.5" stroke-linecap="round" stroke-linejoin="round"/>
<path d="M354.572 401.41C355.53 401.187 356.471 400.862 357.447 400.725L360.391 400.28" stroke="#263238" stroke-width="0.5" stroke-linecap="round" stroke-linejoin="round"/>
<path d="M356.009 393.211L357.447 400.725" stroke="#263238" stroke-width="0.5" stroke-linecap="round" stroke-linejoin="round"/>
<path d="M360.408 392.544C362.748 392.361 365.096 392.298 367.443 392.355" stroke="#263238" stroke-width="0.5" stroke-linecap="round" stroke-linejoin="round"/>
<path d="M361.161 400.195C363.146 400.195 365.115 399.904 367.1 400.024" stroke="#263238" stroke-width="0.5" stroke-linecap="round" stroke-linejoin="round"/>
<path d="M363.9 392.356L364.139 400.007" stroke="#263238" stroke-width="0.5" stroke-linecap="round" stroke-linejoin="round"/>
<path d="M368.333 392.39C370.673 392.528 373.001 392.832 375.299 393.297" stroke="#263238" stroke-width="0.5" stroke-linecap="round" stroke-linejoin="round"/>
<path d="M367.888 400.023C369.867 400.14 371.835 400.403 373.775 400.811" stroke="#263238" stroke-width="0.5" stroke-linecap="round" stroke-linejoin="round"/>
<path d="M371.841 392.733L370.849 400.316" stroke="#263238" stroke-width="0.5" stroke-linecap="round" stroke-linejoin="round"/>
<path d="M376.206 393.484C378.495 393.999 380.743 394.68 382.933 395.521" stroke="#263238" stroke-width="0.5" stroke-linecap="round" stroke-linejoin="round"/>
<path d="M374.529 400.949C376.46 401.388 378.359 401.959 380.211 402.661" stroke="#263238" stroke-width="0.5" stroke-linecap="round" stroke-linejoin="round"/>
<path d="M379.612 394.392L377.404 401.717" stroke="#263238" stroke-width="0.5" stroke-linecap="round" stroke-linejoin="round"/>
<path d="M383.806 395.847C385.982 396.727 388.093 397.762 390.121 398.945" stroke="#263238" stroke-width="0.5" stroke-linecap="round" stroke-linejoin="round"/>
<path d="M380.947 402.951C382.778 403.697 384.557 404.566 386.27 405.553" stroke="#263238" stroke-width="0.5" stroke-linecap="round" stroke-linejoin="round"/>
<path d="M387.006 397.284L383.651 404.165" stroke="#263238" stroke-width="0.5" stroke-linecap="round" stroke-linejoin="round"/>
<path d="M390.909 399.39C392.91 400.616 394.825 401.977 396.642 403.463" stroke="#263238" stroke-width="0.5" stroke-linecap="round" stroke-linejoin="round"/>
<path d="M386.955 405.944C388.645 406.974 390.264 408.118 391.799 409.368" stroke="#263238" stroke-width="0.5" stroke-linecap="round" stroke-linejoin="round"/>
<path d="M393.852 401.323L389.437 407.588" stroke="#263238" stroke-width="0.5" stroke-linecap="round" stroke-linejoin="round"/>
<path d="M397.361 404.046C399.137 405.573 400.812 407.214 402.376 408.958" stroke="#263238" stroke-width="0.5" stroke-linecap="round" stroke-linejoin="round"/>
<path d="M392.398 409.883C393.908 411.168 395.327 412.558 396.642 414.042" stroke="#263238" stroke-width="0.5" stroke-linecap="round" stroke-linejoin="round"/>
<path d="M399.946 406.425L394.589 411.885" stroke="#263238" stroke-width="0.5" stroke-linecap="round" stroke-linejoin="round"/>
<path d="M382.659 466.057C379.201 468.5 375.263 470.181 371.107 470.988C366.95 471.795 362.67 471.711 358.549 470.74C354.427 469.769 350.559 467.934 347.2 465.356C343.842 462.779 341.068 459.517 339.064 455.787" stroke="#263238" stroke-width="2" stroke-miterlimit="10"/>
<path d="M394.246 433.997C395.803 439.885 395.528 446.108 393.457 451.835C391.387 457.563 387.62 462.523 382.659 466.055" stroke="#407BFF" stroke-width="5" stroke-miterlimit="10"/>
<path d="M343.788 421.058C347.452 417.223 352.071 414.432 357.171 412.973C362.271 411.514 367.667 411.44 372.805 412.757C377.943 414.075 382.638 416.737 386.406 420.47C390.174 424.203 392.88 428.873 394.246 433.998" stroke="#263238" stroke-width="2" stroke-miterlimit="10"/>
<path d="M339.047 455.771C336.084 450.222 334.947 443.88 335.798 437.648C336.649 431.415 339.446 425.61 343.788 421.06" stroke="#407BFF" stroke-width="5" stroke-miterlimit="10"/>
<path d="M506.886 479.271C505.098 480.789 503.205 482.179 501.221 483.43" stroke="#263238" stroke-width="0.5" stroke-linecap="round" stroke-linejoin="round"/>
<path d="M501.905 473.434C500.403 474.726 498.807 475.904 497.13 476.959" stroke="#263238" stroke-width="0.5" stroke-linecap="round" stroke-linejoin="round"/>
<path d="M504.13 481.462L499.577 475.283" stroke="#263238" stroke-width="0.5" stroke-linecap="round" stroke-linejoin="round"/>
<path d="M500.45 483.925C498.434 485.127 496.342 486.196 494.186 487.125" stroke="#263238" stroke-width="0.5" stroke-linecap="round" stroke-linejoin="round"/>
<path d="M496.462 477.37C494.769 478.395 493.007 479.304 491.191 480.092" stroke="#263238" stroke-width="0.5" stroke-linecap="round" stroke-linejoin="round"/>
<path d="M497.37 485.637L493.878 478.825" stroke="#263238" stroke-width="0.5" stroke-linecap="round" stroke-linejoin="round"/>
<path d="M493.33 487.486C491.153 488.361 488.917 489.082 486.638 489.643" stroke="#263238" stroke-width="0.5" stroke-linecap="round" stroke-linejoin="round"/>
<path d="M490.489 480.382C488.654 481.128 486.766 481.734 484.841 482.196" stroke="#263238" stroke-width="0.5" stroke-linecap="round" stroke-linejoin="round"/>
<path d="M490.027 488.684L487.682 481.393" stroke="#263238" stroke-width="0.5" stroke-linecap="round" stroke-linejoin="round"/>
<path d="M485.748 489.849C483.46 490.366 481.138 490.715 478.799 490.893" stroke="#263238" stroke-width="0.5" stroke-linecap="round" stroke-linejoin="round"/>
<path d="M484.07 482.352C482.131 482.786 480.164 483.083 478.183 483.242" stroke="#263238" stroke-width="0.5" stroke-linecap="round" stroke-linejoin="round"/>
<path d="M482.29 490.499L481.144 482.934" stroke="#263238" stroke-width="0.5" stroke-linecap="round" stroke-linejoin="round"/>
<path d="M477.874 490.91C476.711 490.996 475.53 491.013 474.366 490.996L470.857 490.808" stroke="#263238" stroke-width="0.5" stroke-linecap="round" stroke-linejoin="round"/>
<path d="M477.412 483.326C476.42 483.326 475.427 483.412 474.434 483.326L471.473 483.189" stroke="#263238" stroke-width="0.5" stroke-linecap="round" stroke-linejoin="round"/>
<path d="M474.366 491.046L474.434 483.378" stroke="#263238" stroke-width="0.5" stroke-linecap="round" stroke-linejoin="round"/>
<path d="M469.95 490.91L466.527 490.396C465.945 490.293 465.363 490.225 464.815 490.105L463.103 489.66" stroke="#263238" stroke-width="0.5" stroke-linecap="round" stroke-linejoin="round"/>
<path d="M470.686 483.191L467.759 482.763C467.263 482.677 466.766 482.626 466.287 482.523L464.849 482.146" stroke="#263238" stroke-width="0.5" stroke-linecap="round" stroke-linejoin="round"/>
<path d="M466.458 490.309L467.759 482.761" stroke="#263238" stroke-width="0.5" stroke-linecap="round" stroke-linejoin="round"/>
<path d="M462.128 489.352C460.962 489.098 459.818 488.754 458.705 488.325C457.609 487.931 456.497 487.537 455.418 487.109" stroke="#263238" stroke-width="0.5" stroke-linecap="round" stroke-linejoin="round"/>
<path d="M464.096 481.957C463.13 481.74 462.181 481.454 461.255 481.102C460.331 480.742 459.389 480.434 458.482 480.058" stroke="#263238" stroke-width="0.5" stroke-linecap="round" stroke-linejoin="round"/>
<path d="M458.756 488.324L461.255 481.101" stroke="#263238" stroke-width="0.5" stroke-linecap="round" stroke-linejoin="round"/>
<path d="M454.631 486.699L451.465 485.176C450.455 484.594 449.462 483.978 448.452 483.361" stroke="#263238" stroke-width="0.5" stroke-linecap="round" stroke-linejoin="round"/>
<path d="M457.78 479.715L455.093 478.431L452.56 476.908" stroke="#263238" stroke-width="0.5" stroke-linecap="round" stroke-linejoin="round"/>
<path d="M451.465 485.175L455.093 478.432" stroke="#263238" stroke-width="0.5" stroke-linecap="round" stroke-linejoin="round"/>
<path d="M447.699 482.881C446.706 482.265 445.799 481.512 444.858 480.827L443.454 479.766L442.154 478.585" stroke="#263238" stroke-width="0.5" stroke-linecap="round" stroke-linejoin="round"/>
<path d="M451.893 476.496C451.054 475.983 450.284 475.332 449.479 474.785L448.298 473.895L447.203 472.885" stroke="#263238" stroke-width="0.5" stroke-linecap="round" stroke-linejoin="round"/>
<path d="M444.824 480.826L449.479 474.75" stroke="#263238" stroke-width="0.5" stroke-linecap="round" stroke-linejoin="round"/>
<path d="M441.435 477.968C440.548 477.204 439.713 476.38 438.936 475.503C438.149 474.631 437.344 473.792 436.591 472.885" stroke="#263238" stroke-width="0.5" stroke-linecap="round" stroke-linejoin="round"/>
<path d="M446.621 472.338C445.863 471.695 445.154 470.997 444.499 470.25C443.848 469.514 443.146 468.795 442.513 468.042" stroke="#263238" stroke-width="0.5" stroke-linecap="round" stroke-linejoin="round"/>
<path d="M438.936 475.504L444.498 470.249" stroke="#263238" stroke-width="0.5" stroke-linecap="round" stroke-linejoin="round"/>
<path d="M436.043 472.149L433.938 469.325L432.107 466.33" stroke="#263238" stroke-width="0.5" stroke-linecap="round" stroke-linejoin="round"/>
<path d="M442.051 467.407L440.271 465.028L438.73 462.495" stroke="#263238" stroke-width="0.5" stroke-linecap="round" stroke-linejoin="round"/>
<path d="M433.938 469.325L440.271 465.029" stroke="#263238" stroke-width="0.5" stroke-linecap="round" stroke-linejoin="round"/>
<path d="M431.627 465.543C431.045 464.516 430.583 463.437 430.07 462.393C429.813 461.863 429.539 461.332 429.317 460.801L428.7 459.09" stroke="#263238" stroke-width="0.5" stroke-linecap="round" stroke-linejoin="round"/>
<path d="M438.32 461.812C437.84 460.957 437.447 460.101 437.002 459.159C436.796 458.714 436.574 458.269 436.368 457.807L435.872 456.421" stroke="#263238" stroke-width="0.5" stroke-linecap="round" stroke-linejoin="round"/>
<path d="M430.07 462.395L437.002 459.177" stroke="#263238" stroke-width="0.5" stroke-linecap="round" stroke-linejoin="round"/>
<path d="M428.392 458.287C427.595 456.08 426.948 453.821 426.458 451.526" stroke="#263238" stroke-width="0.5" stroke-linecap="round" stroke-linejoin="round"/>
<path d="M435.598 455.702C434.908 453.84 434.336 451.936 433.887 450.002" stroke="#263238" stroke-width="0.5" stroke-linecap="round" stroke-linejoin="round"/>
<path d="M427.314 454.932L434.691 452.878" stroke="#263238" stroke-width="0.5" stroke-linecap="round" stroke-linejoin="round"/>
<path d="M426.321 450.617L425.791 447.194C425.637 446.03 425.637 444.867 425.568 443.686" stroke="#263238" stroke-width="0.5" stroke-linecap="round" stroke-linejoin="round"/>
<path d="M433.852 449.232L433.39 446.288C433.27 445.313 433.288 444.32 433.219 443.327" stroke="#263238" stroke-width="0.5" stroke-linecap="round" stroke-linejoin="round"/>
<path d="M425.791 447.127L433.39 446.288" stroke="#263238" stroke-width="0.5" stroke-linecap="round" stroke-linejoin="round"/>
<path d="M425.448 442.71C425.383 441.57 425.383 440.427 425.448 439.287C425.48 438.114 425.572 436.943 425.722 435.778" stroke="#263238" stroke-width="0.5" stroke-linecap="round" stroke-linejoin="round"/>
<path d="M433.168 442.555C433.099 441.564 433.099 440.569 433.168 439.577C433.182 438.587 433.256 437.598 433.39 436.616" stroke="#263238" stroke-width="0.5" stroke-linecap="round" stroke-linejoin="round"/>
<path d="M425.585 439.203L433.236 439.58" stroke="#263238" stroke-width="0.5" stroke-linecap="round" stroke-linejoin="round"/>
<path d="M425.996 434.786C426.201 433.639 426.321 432.458 426.578 431.363L427.451 427.939" stroke="#263238" stroke-width="0.5" stroke-linecap="round" stroke-linejoin="round"/>
<path d="M433.578 435.847C433.75 434.872 433.835 433.879 434.058 432.92L434.811 430.045" stroke="#263238" stroke-width="0.5" stroke-linecap="round" stroke-linejoin="round"/>
<path d="M426.578 431.312L434.058 432.921" stroke="#263238" stroke-width="0.5" stroke-linecap="round" stroke-linejoin="round"/>
<path d="M427.691 427.015C428.418 424.788 429.287 422.61 430.292 420.494" stroke="#263238" stroke-width="0.5" stroke-linecap="round" stroke-linejoin="round"/>
<path d="M434.999 429.291C435.613 427.407 436.351 425.566 437.207 423.779" stroke="#263238" stroke-width="0.5" stroke-linecap="round" stroke-linejoin="round"/>
<path d="M428.889 423.711L436.026 426.501" stroke="#263238" stroke-width="0.5" stroke-linecap="round" stroke-linejoin="round"/>
<path d="M430.686 419.657L431.473 418.082L432.38 416.576C432.996 415.583 433.561 414.539 434.246 413.598" stroke="#263238" stroke-width="0.5" stroke-linecap="round" stroke-linejoin="round"/>
<path d="M437.549 423.08L438.183 421.745L438.97 420.478C439.501 419.639 439.946 418.766 440.545 417.962" stroke="#263238" stroke-width="0.5" stroke-linecap="round" stroke-linejoin="round"/>
<path d="M432.38 416.574L438.97 420.477" stroke="#263238" stroke-width="0.5" stroke-linecap="round" stroke-linejoin="round"/>
<path d="M434.794 412.86C435.513 411.936 436.18 410.977 436.933 410.07L439.295 407.469" stroke="#263238" stroke-width="0.5" stroke-linecap="round" stroke-linejoin="round"/>
<path d="M441.007 417.31C441.606 416.523 442.171 415.701 442.804 414.931L444.807 412.74" stroke="#263238" stroke-width="0.5" stroke-linecap="round" stroke-linejoin="round"/>
<path d="M436.933 410.071L442.804 414.966" stroke="#263238" stroke-width="0.5" stroke-linecap="round" stroke-linejoin="round"/>
<path d="M439.911 406.784C441.595 405.151 443.378 403.625 445.252 402.214" stroke="#263238" stroke-width="0.5" stroke-linecap="round" stroke-linejoin="round"/>
<path d="M445.32 412.174C446.746 410.799 448.255 409.513 449.839 408.323" stroke="#263238" stroke-width="0.5" stroke-linecap="round" stroke-linejoin="round"/>
<path d="M442.513 404.423L447.528 410.191" stroke="#263238" stroke-width="0.5" stroke-linecap="round" stroke-linejoin="round"/>
<path d="M445.988 401.668C446.45 401.325 446.912 400.949 447.408 400.624L448.914 399.716C449.924 399.135 450.883 398.45 451.944 398.005" stroke="#263238" stroke-width="0.5" stroke-linecap="round" stroke-linejoin="round"/>
<path d="M450.472 407.862C450.866 407.571 451.259 407.263 451.67 406.989L452.937 406.219C453.767 405.679 454.624 405.182 455.504 404.729" stroke="#263238" stroke-width="0.5" stroke-linecap="round" stroke-linejoin="round"/>
<path d="M448.914 399.715L452.937 406.219" stroke="#263238" stroke-width="0.5" stroke-linecap="round" stroke-linejoin="round"/>
<path d="M452.834 397.541C453.912 397.045 454.939 396.497 456.035 396.052L459.338 394.837" stroke="#263238" stroke-width="0.5" stroke-linecap="round" stroke-linejoin="round"/>
<path d="M456.257 404.389C457.147 403.978 457.969 403.499 458.944 403.122L461.734 402.112" stroke="#263238" stroke-width="0.5" stroke-linecap="round" stroke-linejoin="round"/>
<path d="M455.966 396.052L458.893 403.121" stroke="#263238" stroke-width="0.5" stroke-linecap="round" stroke-linejoin="round"/>
<path d="M460.125 394.528C462.37 393.857 464.657 393.336 466.972 392.971" stroke="#263238" stroke-width="0.5" stroke-linecap="round" stroke-linejoin="round"/>
<path d="M462.402 401.905C464.305 401.344 466.243 400.91 468.204 400.604" stroke="#263238" stroke-width="0.5" stroke-linecap="round" stroke-linejoin="round"/>
<path d="M463.531 393.64L465.294 401.102" stroke="#263238" stroke-width="0.5" stroke-linecap="round" stroke-linejoin="round"/>
<path d="M467.896 392.836L469.607 392.579C470.189 392.579 470.771 392.579 471.319 392.459L474.828 392.288" stroke="#263238" stroke-width="0.5" stroke-linecap="round" stroke-linejoin="round"/>
<path d="M468.974 400.417L470.429 400.195C470.925 400.195 471.422 400.195 471.918 400.092L474.896 399.955" stroke="#263238" stroke-width="0.5" stroke-linecap="round" stroke-linejoin="round"/>
<path d="M471.388 392.458L471.918 400.092" stroke="#263238" stroke-width="0.5" stroke-linecap="round" stroke-linejoin="round"/>
<path d="M475.821 392.338L479.329 392.509C480.493 392.509 481.657 392.834 482.753 392.988" stroke="#263238" stroke-width="0.5" stroke-linecap="round" stroke-linejoin="round"/>
<path d="M475.667 399.99L478.645 400.144C479.637 400.144 480.596 400.418 481.589 400.538" stroke="#263238" stroke-width="0.5" stroke-linecap="round" stroke-linejoin="round"/>
<path d="M479.329 392.51L478.645 400.143" stroke="#263238" stroke-width="0.5" stroke-linecap="round" stroke-linejoin="round"/>
<path d="M483.643 393.127C484.798 393.315 485.941 393.573 487.066 393.897C488.226 394.15 489.37 394.476 490.489 394.873" stroke="#263238" stroke-width="0.5" stroke-linecap="round" stroke-linejoin="round"/>
<path d="M482.359 400.656C483.335 400.816 484.301 401.033 485.251 401.307C486.215 401.52 487.164 401.795 488.093 402.128" stroke="#263238" stroke-width="0.5" stroke-linecap="round" stroke-linejoin="round"/>
<path d="M487.151 393.896L485.251 401.308" stroke="#263238" stroke-width="0.5" stroke-linecap="round" stroke-linejoin="round"/>
<path d="M491.396 395.181C492.491 395.609 493.621 395.934 494.665 396.464L497.849 397.988" stroke="#263238" stroke-width="0.5" stroke-linecap="round" stroke-linejoin="round"/>
<path d="M488.777 402.402C489.702 402.762 490.66 403.019 491.55 403.464L494.22 404.764" stroke="#263238" stroke-width="0.5" stroke-linecap="round" stroke-linejoin="round"/>
<path d="M494.665 396.464L491.601 403.464" stroke="#263238" stroke-width="0.5" stroke-linecap="round" stroke-linejoin="round"/>
<path d="M498.653 398.482C500.695 399.632 502.657 400.918 504.524 402.334" stroke="#263238" stroke-width="0.5" stroke-linecap="round" stroke-linejoin="round"/>
<path d="M494.956 405.106C496.683 406.082 498.342 407.174 499.92 408.376" stroke="#263238" stroke-width="0.5" stroke-linecap="round" stroke-linejoin="round"/>
<path d="M501.666 400.229L497.506 406.664" stroke="#263238" stroke-width="0.5" stroke-linecap="round" stroke-linejoin="round"/>
<path d="M505.26 402.814C506.206 403.512 507.103 404.273 507.947 405.091C508.837 405.852 509.683 406.664 510.48 407.521" stroke="#263238" stroke-width="0.5" stroke-linecap="round" stroke-linejoin="round"/>
<path d="M500.553 408.837C502.094 410.082 503.563 411.413 504.952 412.825" stroke="#263238" stroke-width="0.5" stroke-linecap="round" stroke-linejoin="round"/>
<path d="M507.947 405.09L502.812 410.772" stroke="#263238" stroke-width="0.5" stroke-linecap="round" stroke-linejoin="round"/>
<path d="M511.028 408.206C511.798 409.096 512.654 409.918 513.339 410.859L515.444 413.666" stroke="#263238" stroke-width="0.5" stroke-linecap="round" stroke-linejoin="round"/>
<path d="M505.482 413.39C506.116 414.143 506.852 414.827 507.434 415.632L509.145 418.011" stroke="#263238" stroke-width="0.5" stroke-linecap="round" stroke-linejoin="round"/>
<path d="M513.407 410.858L507.434 415.634" stroke="#263238" stroke-width="0.5" stroke-linecap="round" stroke-linejoin="round"/>
<path d="M516.026 414.436C517.313 416.393 518.457 418.441 519.449 420.563" stroke="#263238" stroke-width="0.5" stroke-linecap="round" stroke-linejoin="round"/>
<path d="M509.642 418.664C510.723 420.307 511.69 422.023 512.534 423.799" stroke="#263238" stroke-width="0.5" stroke-linecap="round" stroke-linejoin="round"/>
<path d="M517.857 417.43L511.199 421.195" stroke="#263238" stroke-width="0.5" stroke-linecap="round" stroke-linejoin="round"/>
<path d="M519.86 421.4C520.362 422.458 520.802 423.544 521.178 424.652C521.609 425.742 521.975 426.857 522.273 427.99" stroke="#263238" stroke-width="0.5" stroke-linecap="round" stroke-linejoin="round"/>
<path d="M512.876 424.55C513.307 425.437 513.679 426.352 513.989 427.288C514.354 428.212 514.668 429.155 514.93 430.112" stroke="#263238" stroke-width="0.5" stroke-linecap="round" stroke-linejoin="round"/>
<path d="M521.178 424.653L513.989 427.289" stroke="#263238" stroke-width="0.5" stroke-linecap="round" stroke-linejoin="round"/>
<path d="M522.513 428.882C522.787 430.029 523.146 431.141 523.334 432.305L523.865 435.728" stroke="#263238" stroke-width="0.5" stroke-linecap="round" stroke-linejoin="round"/>
<path d="M515.119 430.867C515.341 431.826 515.666 432.767 515.803 433.743L516.266 436.687" stroke="#263238" stroke-width="0.5" stroke-linecap="round" stroke-linejoin="round"/>
<path d="M523.334 432.304L515.803 433.741" stroke="#263238" stroke-width="0.5" stroke-linecap="round" stroke-linejoin="round"/>
<path d="M523.985 436.685C524.07 439.029 524.327 441.374 524.19 443.719" stroke="#263238" stroke-width="0.5" stroke-linecap="round" stroke-linejoin="round"/>
<path d="M516.368 437.455C516.368 439.441 516.676 441.409 516.539 443.394" stroke="#263238" stroke-width="0.5" stroke-linecap="round" stroke-linejoin="round"/>
<path d="M524.173 440.194L516.522 440.434" stroke="#263238" stroke-width="0.5" stroke-linecap="round" stroke-linejoin="round"/>
<path d="M524.156 444.695C524.003 447.035 523.694 449.363 523.232 451.662" stroke="#263238" stroke-width="0.5" stroke-linecap="round" stroke-linejoin="round"/>
<path d="M516.505 444.182C516.386 446.16 516.128 448.127 515.735 450.07" stroke="#263238" stroke-width="0.5" stroke-linecap="round" stroke-linejoin="round"/>
<path d="M523.814 448.118L516.214 447.143" stroke="#263238" stroke-width="0.5" stroke-linecap="round" stroke-linejoin="round"/>
<path d="M523.009 452.501C522.494 454.79 521.814 457.038 520.972 459.228" stroke="#263238" stroke-width="0.5" stroke-linecap="round" stroke-linejoin="round"/>
<path d="M515.581 450.824C515.148 452.757 514.576 454.656 513.869 456.507" stroke="#263238" stroke-width="0.5" stroke-linecap="round" stroke-linejoin="round"/>
<path d="M522.153 455.906L514.811 453.698" stroke="#263238" stroke-width="0.5" stroke-linecap="round" stroke-linejoin="round"/>
<path d="M520.699 460.1C519.804 462.27 518.77 464.38 517.601 466.415" stroke="#263238" stroke-width="0.5" stroke-linecap="round" stroke-linejoin="round"/>
<path d="M513.595 457.243C512.844 459.075 511.969 460.853 510.977 462.566" stroke="#263238" stroke-width="0.5" stroke-linecap="round" stroke-linejoin="round"/>
<path d="M519.244 463.302L512.363 459.947" stroke="#263238" stroke-width="0.5" stroke-linecap="round" stroke-linejoin="round"/>
<path d="M517.138 467.204C515.912 469.201 514.557 471.117 513.082 472.938" stroke="#263238" stroke-width="0.5" stroke-linecap="round" stroke-linejoin="round"/>
<path d="M510.583 463.249C509.554 464.94 508.41 466.558 507.16 468.093" stroke="#263238" stroke-width="0.5" stroke-linecap="round" stroke-linejoin="round"/>
<path d="M515.204 470.148L508.957 465.715" stroke="#263238" stroke-width="0.5" stroke-linecap="round" stroke-linejoin="round"/>
<path d="M512.5 473.639C510.971 475.424 509.324 477.105 507.571 478.671" stroke="#263238" stroke-width="0.5" stroke-linecap="round" stroke-linejoin="round"/>
<path d="M506.663 468.657C505.355 470.168 503.954 471.597 502.47 472.936" stroke="#263238" stroke-width="0.5" stroke-linecap="round" stroke-linejoin="round"/>
<path d="M510.121 476.24L504.644 470.883" stroke="#263238" stroke-width="0.5" stroke-linecap="round" stroke-linejoin="round"/>
<path d="M450.472 458.937C448.029 455.479 446.348 451.541 445.541 447.385C444.733 443.229 444.818 438.948 445.789 434.827C446.759 430.706 448.594 426.838 451.172 423.479C453.75 420.12 457.012 417.347 460.742 415.343" stroke="#263238" stroke-width="2" stroke-miterlimit="10"/>
<path d="M482.547 470.541C476.655 472.097 470.428 471.82 464.698 469.747C458.967 467.674 454.004 463.903 450.472 458.937" stroke="#407BFF" stroke-width="5" stroke-miterlimit="10"/>
<path d="M495.47 420.084C499.305 423.747 502.097 428.365 503.557 433.463C505.017 438.562 505.093 443.957 503.777 449.095C502.461 454.233 499.801 458.928 496.07 462.697C492.339 466.466 487.671 469.174 482.547 470.542" stroke="#263238" stroke-width="2" stroke-miterlimit="10"/>
<path d="M460.759 415.344C466.307 412.38 472.649 411.243 478.882 412.094C485.114 412.946 490.919 415.742 495.47 420.085" stroke="#407BFF" stroke-width="5" stroke-miterlimit="10"/>
<path d="M535.11 445.536C534.947 443.194 534.947 440.843 535.11 438.501" stroke="#263238" stroke-width="0.5" stroke-linecap="round" stroke-linejoin="round"/>
<path d="M542.744 444.934C542.598 442.957 542.598 440.972 542.744 438.995" stroke="#263238" stroke-width="0.5" stroke-linecap="round" stroke-linejoin="round"/>
<path d="M534.956 442.025L542.624 441.956" stroke="#263238" stroke-width="0.5" stroke-linecap="round" stroke-linejoin="round"/>
<path d="M535.127 437.593C535.331 435.255 535.691 432.933 536.206 430.644" stroke="#263238" stroke-width="0.5" stroke-linecap="round" stroke-linejoin="round"/>
<path d="M542.761 438.21C542.927 436.234 543.23 434.272 543.668 432.339" stroke="#263238" stroke-width="0.5" stroke-linecap="round" stroke-linejoin="round"/>
<path d="M535.538 434.101L543.103 435.264" stroke="#263238" stroke-width="0.5" stroke-linecap="round" stroke-linejoin="round"/>
<path d="M536.428 429.754C536.979 427.47 537.706 425.233 538.602 423.062" stroke="#263238" stroke-width="0.5" stroke-linecap="round" stroke-linejoin="round"/>
<path d="M543.856 431.585C544.322 429.664 544.934 427.782 545.688 425.954" stroke="#263238" stroke-width="0.5" stroke-linecap="round" stroke-linejoin="round"/>
<path d="M537.387 426.366L544.661 428.745" stroke="#263238" stroke-width="0.5" stroke-linecap="round" stroke-linejoin="round"/>
<path d="M538.961 422.207C539.885 420.053 540.966 417.971 542.196 415.977" stroke="#263238" stroke-width="0.5" stroke-linecap="round" stroke-linejoin="round"/>
<path d="M545.979 425.236C546.761 423.414 547.677 421.652 548.717 419.964" stroke="#263238" stroke-width="0.5" stroke-linecap="round" stroke-linejoin="round"/>
<path d="M540.467 419.038L547.262 422.547" stroke="#263238" stroke-width="0.5" stroke-linecap="round" stroke-linejoin="round"/>
<path d="M542.675 415.189C543.291 414.196 543.959 413.238 544.678 412.296L546.869 409.558" stroke="#263238" stroke-width="0.5" stroke-linecap="round" stroke-linejoin="round"/>
<path d="M549.128 419.295C549.659 418.457 550.223 417.584 550.84 416.848L552.705 414.537" stroke="#263238" stroke-width="0.5" stroke-linecap="round" stroke-linejoin="round"/>
<path d="M544.678 412.295L550.822 416.848" stroke="#263238" stroke-width="0.5" stroke-linecap="round" stroke-linejoin="round"/>
<path d="M547.451 408.856C548.255 408 549.162 407.144 549.915 406.34C550.326 405.929 550.72 405.484 551.165 405.09L552.517 403.978" stroke="#263238" stroke-width="0.5" stroke-linecap="round" stroke-linejoin="round"/>
<path d="M553.184 413.888L555.255 411.765C555.615 411.406 555.94 411.046 556.317 410.704L557.463 409.763" stroke="#263238" stroke-width="0.5" stroke-linecap="round" stroke-linejoin="round"/>
<path d="M549.915 406.338L555.256 411.815" stroke="#263238" stroke-width="0.5" stroke-linecap="round" stroke-linejoin="round"/>
<path d="M553.219 403.378C554.109 402.613 555.047 401.904 556.026 401.256C557.001 400.605 557.96 399.938 558.953 399.305" stroke="#263238" stroke-width="0.5" stroke-linecap="round" stroke-linejoin="round"/>
<path d="M558.063 409.319C558.804 408.687 559.593 408.115 560.425 407.607C561.246 407.059 562.051 406.477 562.889 405.896" stroke="#263238" stroke-width="0.5" stroke-linecap="round" stroke-linejoin="round"/>
<path d="M556.026 401.255L560.425 407.536" stroke="#263238" stroke-width="0.5" stroke-linecap="round" stroke-linejoin="round"/>
<path d="M559.757 398.876L562.872 397.164C563.933 396.685 565.029 396.257 566.107 395.795" stroke="#263238" stroke-width="0.5" stroke-linecap="round" stroke-linejoin="round"/>
<path d="M563.574 405.519L566.193 404.098L568.931 402.951" stroke="#263238" stroke-width="0.5" stroke-linecap="round" stroke-linejoin="round"/>
<path d="M562.872 397.199L566.193 404.097" stroke="#263238" stroke-width="0.5" stroke-linecap="round" stroke-linejoin="round"/>
<path d="M566.946 395.469C568.041 395.041 569.171 394.75 570.283 394.374L571.995 393.86L573.706 393.501" stroke="#263238" stroke-width="0.5" stroke-linecap="round" stroke-linejoin="round"/>
<path d="M569.633 402.642C570.557 402.265 571.533 402.043 572.474 401.717L573.878 401.272L575.35 400.981" stroke="#263238" stroke-width="0.5" stroke-linecap="round" stroke-linejoin="round"/>
<path d="M570.283 394.375L572.474 401.718" stroke="#263238" stroke-width="0.5" stroke-linecap="round" stroke-linejoin="round"/>
<path d="M574.596 393.348C575.724 393.079 576.867 392.885 578.02 392.766C579.184 392.646 580.347 392.492 581.443 392.406" stroke="#263238" stroke-width="0.5" stroke-linecap="round" stroke-linejoin="round"/>
<path d="M576.068 400.828C577.03 400.586 578.008 400.42 578.995 400.332C579.988 400.229 580.964 400.092 581.956 400.023" stroke="#263238" stroke-width="0.5" stroke-linecap="round" stroke-linejoin="round"/>
<path d="M578.054 392.733L579.03 400.333" stroke="#263238" stroke-width="0.5" stroke-linecap="round" stroke-linejoin="round"/>
<path d="M582.47 392.373L585.996 392.321L589.505 392.595" stroke="#263238" stroke-width="0.5" stroke-linecap="round" stroke-linejoin="round"/>
<path d="M582.761 400.006L585.739 399.972L588.7 400.211" stroke="#263238" stroke-width="0.5" stroke-linecap="round" stroke-linejoin="round"/>
<path d="M585.996 392.321L585.739 399.972" stroke="#263238" stroke-width="0.5" stroke-linecap="round" stroke-linejoin="round"/>
<path d="M590.412 392.682C591.576 392.819 592.722 393.058 593.835 393.264L595.546 393.589L597.258 394.068" stroke="#263238" stroke-width="0.5" stroke-linecap="round" stroke-linejoin="round"/>
<path d="M589.47 400.195C590.463 400.315 591.421 400.538 592.397 400.709C592.893 400.794 593.39 400.863 593.869 400.966L595.29 401.376" stroke="#263238" stroke-width="0.5" stroke-linecap="round" stroke-linejoin="round"/>
<path d="M593.886 393.263L592.397 400.777" stroke="#263238" stroke-width="0.5" stroke-linecap="round" stroke-linejoin="round"/>
<path d="M598.182 394.307C600.433 394.97 602.64 395.776 604.789 396.72" stroke="#263238" stroke-width="0.5" stroke-linecap="round" stroke-linejoin="round"/>
<path d="M596.043 401.667C597.943 402.223 599.807 402.897 601.623 403.687" stroke="#263238" stroke-width="0.5" stroke-linecap="round" stroke-linejoin="round"/>
<path d="M601.52 395.418L598.85 402.59" stroke="#263238" stroke-width="0.5" stroke-linecap="round" stroke-linejoin="round"/>
<path d="M605.611 397.131L608.743 398.842C609.77 399.407 610.711 400.092 611.704 400.725" stroke="#263238" stroke-width="0.5" stroke-linecap="round" stroke-linejoin="round"/>
<path d="M602.307 404.046L604.943 405.398C605.816 405.877 606.655 406.476 607.459 407.007" stroke="#263238" stroke-width="0.5" stroke-linecap="round" stroke-linejoin="round"/>
<path d="M608.743 398.756L604.943 405.397" stroke="#263238" stroke-width="0.5" stroke-linecap="round" stroke-linejoin="round"/>
<path d="M612.474 401.135C614.384 402.493 616.213 403.961 617.951 405.534" stroke="#263238" stroke-width="0.5" stroke-linecap="round" stroke-linejoin="round"/>
<path d="M608.109 407.417C608.934 407.935 609.723 408.506 610.471 409.129C611.269 409.727 612.029 410.373 612.748 411.063" stroke="#263238" stroke-width="0.5" stroke-linecap="round" stroke-linejoin="round"/>
<path d="M615.281 403.26L610.471 409.216" stroke="#263238" stroke-width="0.5" stroke-linecap="round" stroke-linejoin="round"/>
<path d="M618.602 406.168C619.423 407.007 620.313 407.794 621.083 408.684L623.325 411.388" stroke="#263238" stroke-width="0.5" stroke-linecap="round" stroke-linejoin="round"/>
<path d="M613.296 411.696C613.98 412.398 614.733 413.048 615.384 413.802L617.284 416.095" stroke="#263238" stroke-width="0.5" stroke-linecap="round" stroke-linejoin="round"/>
<path d="M621.083 408.684L615.384 413.801" stroke="#263238" stroke-width="0.5" stroke-linecap="round" stroke-linejoin="round"/>
<path d="M623.993 412.175C625.368 414.079 626.62 416.068 627.741 418.131" stroke="#263238" stroke-width="0.5" stroke-linecap="round" stroke-linejoin="round"/>
<path d="M617.78 416.678C618.929 418.294 619.986 419.974 620.946 421.71" stroke="#263238" stroke-width="0.5" stroke-linecap="round" stroke-linejoin="round"/>
<path d="M625.876 415.018L619.44 419.143" stroke="#263238" stroke-width="0.5" stroke-linecap="round" stroke-linejoin="round"/>
<path d="M628.101 418.85L628.922 420.407L629.607 422.033C630.035 423.111 630.566 424.173 630.908 425.285" stroke="#263238" stroke-width="0.5" stroke-linecap="round" stroke-linejoin="round"/>
<path d="M621.306 422.444L622.008 423.745L622.59 425.114C622.949 426.039 623.394 426.929 623.685 427.87" stroke="#263238" stroke-width="0.5" stroke-linecap="round" stroke-linejoin="round"/>
<path d="M629.607 422.034L622.59 425.064" stroke="#263238" stroke-width="0.5" stroke-linecap="round" stroke-linejoin="round"/>
<path d="M631.182 426.178C631.524 427.29 631.901 428.403 632.209 429.601L632.928 433.024" stroke="#263238" stroke-width="0.5" stroke-linecap="round" stroke-linejoin="round"/>
<path d="M623.993 428.573C624.267 429.515 624.592 430.456 624.849 431.414L625.465 434.324" stroke="#263238" stroke-width="0.5" stroke-linecap="round" stroke-linejoin="round"/>
<path d="M632.209 429.531L624.78 431.414" stroke="#263238" stroke-width="0.5" stroke-linecap="round" stroke-linejoin="round"/>
<path d="M633.116 433.88C633.449 436.199 633.638 438.537 633.681 440.88" stroke="#263238" stroke-width="0.5" stroke-linecap="round" stroke-linejoin="round"/>
<path d="M625.551 435.076C625.833 437.044 625.987 439.028 626.013 441.015" stroke="#263238" stroke-width="0.5" stroke-linecap="round" stroke-linejoin="round"/>
<path d="M633.51 437.37L625.876 438.038" stroke="#263238" stroke-width="0.5" stroke-linecap="round" stroke-linejoin="round"/>
<path d="M633.681 441.803C633.681 442.385 633.681 442.967 633.681 443.514L633.527 445.226C633.407 446.39 633.407 447.571 633.184 448.649" stroke="#263238" stroke-width="0.5" stroke-linecap="round" stroke-linejoin="round"/>
<path d="M626.03 441.787C626.03 442.283 626.03 442.78 626.03 443.276L625.893 444.748C625.848 445.74 625.751 446.728 625.602 447.709" stroke="#263238" stroke-width="0.5" stroke-linecap="round" stroke-linejoin="round"/>
<path d="M633.544 445.312L625.91 444.747" stroke="#263238" stroke-width="0.5" stroke-linecap="round" stroke-linejoin="round"/>
<path d="M633.03 449.71C632.808 450.857 632.654 452.021 632.38 453.133L631.404 456.556" stroke="#263238" stroke-width="0.5" stroke-linecap="round" stroke-linejoin="round"/>
<path d="M625.482 448.479C625.294 449.437 625.157 450.43 624.934 451.388L624.113 454.247" stroke="#263238" stroke-width="0.5" stroke-linecap="round" stroke-linejoin="round"/>
<path d="M632.38 453.168L624.934 451.388" stroke="#263238" stroke-width="0.5" stroke-linecap="round" stroke-linejoin="round"/>
<path d="M631.165 457.432C630.382 459.646 629.456 461.807 628.392 463.901" stroke="#263238" stroke-width="0.5" stroke-linecap="round" stroke-linejoin="round"/>
<path d="M623.993 454.965C623.325 456.826 622.541 458.644 621.648 460.408" stroke="#263238" stroke-width="0.5" stroke-linecap="round" stroke-linejoin="round"/>
<path d="M629.881 460.717L622.812 457.756" stroke="#263238" stroke-width="0.5" stroke-linecap="round" stroke-linejoin="round"/>
<path d="M627.964 464.721L627.16 466.278C626.869 466.792 626.526 467.271 626.218 467.767L624.301 470.711" stroke="#263238" stroke-width="0.5" stroke-linecap="round" stroke-linejoin="round"/>
<path d="M621.203 461.144L620.536 462.462C620.279 462.889 619.988 463.3 619.731 463.711L618.105 466.21" stroke="#263238" stroke-width="0.5" stroke-linecap="round" stroke-linejoin="round"/>
<path d="M626.218 467.767L619.731 463.711" stroke="#263238" stroke-width="0.5" stroke-linecap="round" stroke-linejoin="round"/>
<path d="M623.719 471.413L621.511 474.152C620.775 475.076 619.902 475.863 619.098 476.702" stroke="#263238" stroke-width="0.5" stroke-linecap="round" stroke-linejoin="round"/>
<path d="M617.609 466.811L615.743 469.121C615.127 469.908 614.374 470.559 613.689 471.278" stroke="#263238" stroke-width="0.5" stroke-linecap="round" stroke-linejoin="round"/>
<path d="M621.511 474.153L615.743 469.121" stroke="#263238" stroke-width="0.5" stroke-linecap="round" stroke-linejoin="round"/>
<path d="M618.448 477.354C617.622 478.188 616.741 478.965 615.812 479.681C614.93 480.453 614.004 481.174 613.039 481.838" stroke="#263238" stroke-width="0.5" stroke-linecap="round" stroke-linejoin="round"/>
<path d="M613.159 471.825C612.456 472.531 611.707 473.188 610.916 473.794C610.183 474.456 609.405 475.068 608.589 475.625" stroke="#263238" stroke-width="0.5" stroke-linecap="round" stroke-linejoin="round"/>
<path d="M615.812 479.68L610.916 473.792" stroke="#263238" stroke-width="0.5" stroke-linecap="round" stroke-linejoin="round"/>
<path d="M612.269 482.352C611.293 482.985 610.352 483.721 609.325 484.269L606.227 485.98" stroke="#263238" stroke-width="0.5" stroke-linecap="round" stroke-linejoin="round"/>
<path d="M607.938 476.053C607.1 476.583 606.329 477.2 605.457 477.662L602.838 479.065" stroke="#263238" stroke-width="0.5" stroke-linecap="round" stroke-linejoin="round"/>
<path d="M609.325 484.269L605.457 477.662" stroke="#263238" stroke-width="0.5" stroke-linecap="round" stroke-linejoin="round"/>
<path d="M605.405 486.339C603.273 487.32 601.078 488.155 598.833 488.838" stroke="#263238" stroke-width="0.5" stroke-linecap="round" stroke-linejoin="round"/>
<path d="M602.136 479.424C600.335 480.244 598.482 480.947 596.59 481.529" stroke="#263238" stroke-width="0.5" stroke-linecap="round" stroke-linejoin="round"/>
<path d="M602.153 487.708L599.398 480.57" stroke="#263238" stroke-width="0.5" stroke-linecap="round" stroke-linejoin="round"/>
<path d="M597.943 489.196C596.822 489.555 595.679 489.835 594.519 490.035C593.391 490.307 592.248 490.512 591.096 490.651" stroke="#263238" stroke-width="0.5" stroke-linecap="round" stroke-linejoin="round"/>
<path d="M595.837 481.751C594.897 482.053 593.936 482.288 592.962 482.453C591.998 482.689 591.021 482.866 590.035 482.983" stroke="#263238" stroke-width="0.5" stroke-linecap="round" stroke-linejoin="round"/>
<path d="M594.537 489.949L592.962 482.452" stroke="#263238" stroke-width="0.5" stroke-linecap="round" stroke-linejoin="round"/>
<path d="M590.172 490.668C589.008 490.83 587.837 490.933 586.663 490.976H583.155" stroke="#263238" stroke-width="0.5" stroke-linecap="round" stroke-linejoin="round"/>
<path d="M589.265 483.069C588.272 483.069 587.297 483.343 586.304 483.343H583.326" stroke="#263238" stroke-width="0.5" stroke-linecap="round" stroke-linejoin="round"/>
<path d="M586.663 490.977L586.304 483.343" stroke="#263238" stroke-width="0.5" stroke-linecap="round" stroke-linejoin="round"/>
<path d="M582.23 491.012C579.886 490.896 577.552 490.615 575.247 490.174" stroke="#263238" stroke-width="0.5" stroke-linecap="round" stroke-linejoin="round"/>
<path d="M582.555 483.362C580.574 483.257 578.601 483.022 576.65 482.66" stroke="#263238" stroke-width="0.5" stroke-linecap="round" stroke-linejoin="round"/>
<path d="M578.721 490.721L579.594 483.121" stroke="#263238" stroke-width="0.5" stroke-linecap="round" stroke-linejoin="round"/>
<path d="M574.357 490.018C572.067 489.515 569.809 488.875 567.596 488.101" stroke="#263238" stroke-width="0.5" stroke-linecap="round" stroke-linejoin="round"/>
<path d="M575.897 482.521C573.962 482.097 572.053 481.56 570.181 480.912" stroke="#263238" stroke-width="0.5" stroke-linecap="round" stroke-linejoin="round"/>
<path d="M570.934 489.163L573.022 481.803" stroke="#263238" stroke-width="0.5" stroke-linecap="round" stroke-linejoin="round"/>
<path d="M566.723 487.777C565.645 487.314 564.515 486.955 563.471 486.424L560.356 484.815" stroke="#263238" stroke-width="0.5" stroke-linecap="round" stroke-linejoin="round"/>
<path d="M569.462 480.639C568.555 480.245 567.596 479.954 566.723 479.509L564.07 478.14" stroke="#263238" stroke-width="0.5" stroke-linecap="round" stroke-linejoin="round"/>
<path d="M563.471 486.424L566.723 479.492" stroke="#263238" stroke-width="0.5" stroke-linecap="round" stroke-linejoin="round"/>
<path d="M559.535 484.389C557.583 483.088 555.547 481.907 553.732 480.418" stroke="#263238" stroke-width="0.5" stroke-linecap="round" stroke-linejoin="round"/>
<path d="M563.386 477.764C561.76 476.651 559.962 475.676 558.473 474.341" stroke="#263238" stroke-width="0.5" stroke-linecap="round" stroke-linejoin="round"/>
<path d="M556.591 482.471L560.904 476.138" stroke="#263238" stroke-width="0.5" stroke-linecap="round" stroke-linejoin="round"/>
<path d="M553.013 479.851C551.191 478.358 549.475 476.739 547.879 475.007" stroke="#263238" stroke-width="0.5" stroke-linecap="round" stroke-linejoin="round"/>
<path d="M557.874 473.931C556.339 472.674 554.897 471.307 553.561 469.84" stroke="#263238" stroke-width="0.5" stroke-linecap="round" stroke-linejoin="round"/>
<path d="M550.378 477.525L555.649 471.962" stroke="#263238" stroke-width="0.5" stroke-linecap="round" stroke-linejoin="round"/>
<path d="M547.297 474.341C545.746 472.578 544.322 470.708 543.035 468.744" stroke="#263238" stroke-width="0.5" stroke-linecap="round" stroke-linejoin="round"/>
<path d="M553.031 469.273C551.726 467.782 550.525 466.204 549.436 464.549" stroke="#263238" stroke-width="0.5" stroke-linecap="round" stroke-linejoin="round"/>
<path d="M545.072 471.619L551.148 466.964" stroke="#263238" stroke-width="0.5" stroke-linecap="round" stroke-linejoin="round"/>
<path d="M542.521 467.974C541.292 465.977 540.194 463.901 539.235 461.761" stroke="#263238" stroke-width="0.5" stroke-linecap="round" stroke-linejoin="round"/>
<path d="M549.008 463.899C547.963 462.214 547.037 460.458 546.235 458.645" stroke="#263238" stroke-width="0.5" stroke-linecap="round" stroke-linejoin="round"/>
<path d="M540.776 464.927L547.536 461.315" stroke="#263238" stroke-width="0.5" stroke-linecap="round" stroke-linejoin="round"/>
<path d="M538.859 460.922C537.953 458.757 537.198 456.533 536.599 454.264" stroke="#263238" stroke-width="0.5" stroke-linecap="round" stroke-linejoin="round"/>
<path d="M545.91 457.944C545.147 456.113 544.512 454.231 544.01 452.312" stroke="#263238" stroke-width="0.5" stroke-linecap="round" stroke-linejoin="round"/>
<path d="M537.626 457.635L544.866 455.153" stroke="#263238" stroke-width="0.5" stroke-linecap="round" stroke-linejoin="round"/>
<path d="M536.377 453.373C535.82 451.094 535.425 448.777 535.196 446.441" stroke="#263238" stroke-width="0.5" stroke-linecap="round" stroke-linejoin="round"/>
<path d="M543.805 451.543C543.345 449.616 543.014 447.66 542.812 445.689" stroke="#263238" stroke-width="0.5" stroke-linecap="round" stroke-linejoin="round"/>
<path d="M535.675 449.934L543.223 448.65" stroke="#263238" stroke-width="0.5" stroke-linecap="round" stroke-linejoin="round"/>
<path d="M584.626 411.816C588.86 411.864 593.036 412.813 596.875 414.598C600.714 416.384 604.13 418.966 606.895 422.173C609.66 425.38 611.711 429.138 612.912 433.198C614.113 437.259 614.436 441.528 613.86 445.723" stroke="#263238" stroke-width="2" stroke-miterlimit="10"/>
<path d="M556.471 431.003C558.646 425.314 562.509 420.427 567.542 416.997C572.575 413.568 578.536 411.76 584.626 411.816" stroke="#407BFF" stroke-width="5" stroke-miterlimit="10"/>
<path d="M589.761 471.055C584.546 472.013 579.17 471.566 574.185 469.758C569.2 467.951 564.786 464.849 561.396 460.771C558.007 456.693 555.764 451.787 554.898 446.555C554.033 441.324 554.575 435.956 556.471 431.004" stroke="#263238" stroke-width="2" stroke-miterlimit="10"/>
<path d="M613.929 445.723C613.081 451.952 610.289 457.755 605.949 462.304C601.609 466.852 595.944 469.915 589.761 471.054" stroke="#407BFF" stroke-width="5" stroke-miterlimit="10"/>
<path d="M297.456 308.403H327.871" stroke="#263238" stroke-width="2" stroke-linecap="round" stroke-linejoin="round"/>
<path d="M297.456 315.248H327.871" stroke="#263238" stroke-width="2" stroke-linecap="round" stroke-linejoin="round"/>
<path d="M297.456 322.078H327.871" stroke="#263238" stroke-width="2" stroke-linecap="round" stroke-linejoin="round"/>
<path d="M335.744 350.97L357.464 310.234L375.487 350.97L394.708 282.54L415.23 350.97L435.41 331.595L454.991 350.97L474.4 315.882L491.721 350.97L513.373 331.595L534.477 350.97L552.346 258.287L574.22 350.97L594.793 331.595L613.963 350.97" stroke="#263238" stroke-linecap="round" stroke-linejoin="round"/>
<path d="M613.963 343.489L594.793 298.235L574.22 298.919L552.346 224.944L534.477 246.202L513.373 298.235L491.721 300.186L474.4 271.277L454.991 317.627L435.41 326.75L415.23 304.636L394.708 264.653L375.487 288.65L357.464 280.999L335.744 343.489" stroke="#263238" stroke-linecap="round" stroke-linejoin="round"/>
<path d="M335.402 359.237V366.409" stroke="#263238" stroke-width="0.5" stroke-linecap="round" stroke-linejoin="round"/>
<path d="M375.145 359.237V366.409" stroke="#263238" stroke-width="0.5" stroke-linecap="round" stroke-linejoin="round"/>
<path d="M414.888 359.237V366.409" stroke="#263238" stroke-width="0.5" stroke-linecap="round" stroke-linejoin="round"/>
<path d="M454.631 359.237V366.409" stroke="#263238" stroke-width="0.5" stroke-linecap="round" stroke-linejoin="round"/>
<path d="M494.374 359.237V366.409" stroke="#263238" stroke-width="0.5" stroke-linecap="round" stroke-linejoin="round"/>
<path d="M534.117 359.237V366.409" stroke="#263238" stroke-width="0.5" stroke-linecap="round" stroke-linejoin="round"/>
<path d="M573.861 359.237V366.409" stroke="#263238" stroke-width="0.5" stroke-linecap="round" stroke-linejoin="round"/>
<path d="M613.621 359.237V366.409" stroke="#263238" stroke-width="0.5" stroke-linecap="round" stroke-linejoin="round"/>
<path d="M326.69 359.237H623.035" stroke="#263238" stroke-width="0.5" stroke-linecap="round" stroke-linejoin="round"/>
<path d="M523.968 227.854C523.098 227.835 522.255 227.553 521.551 227.044C520.846 226.534 520.313 225.822 520.023 225.003C519.733 224.183 519.7 223.294 519.928 222.455C520.155 221.616 520.633 220.866 521.298 220.306C537.54 206.721 549.681 188.884 556.362 168.791C563.042 148.698 563.999 127.142 559.124 106.536C558.863 105.431 559.051 104.267 559.649 103.301C560.246 102.335 561.202 101.645 562.307 101.384C563.413 101.123 564.576 101.312 565.543 101.909C566.509 102.506 567.198 103.462 567.459 104.568C569.643 113.846 570.746 123.346 570.745 132.877C570.763 150.808 566.834 168.523 559.238 184.765C551.641 201.008 540.564 215.379 526.792 226.861C526.002 227.524 524.998 227.877 523.968 227.854V227.854Z" fill="#407BFF" stroke="#263238" stroke-miterlimit="10"/>
<path d="M448.195 226.776C500.054 226.776 542.093 184.737 542.093 132.878C542.093 81.02 500.054 38.9805 448.195 38.9805C396.337 38.9805 354.298 81.02 354.298 132.878C354.298 184.737 396.337 226.776 448.195 226.776Z" stroke="#263238" stroke-miterlimit="10"/>
<path d="M448.195 63.7803C434.529 63.7769 421.168 67.8265 409.803 75.4169C398.437 83.0073 389.578 93.7976 384.346 106.423C379.114 119.049 377.743 132.942 380.407 146.347C383.071 159.752 389.651 172.065 399.313 181.73C408.976 191.395 421.288 197.978 434.692 200.645C448.096 203.313 461.99 201.945 474.617 196.716C487.243 191.487 498.036 182.631 505.629 171.267C513.222 159.904 517.275 146.544 517.275 132.877C517.275 114.555 509.998 96.9821 497.043 84.0244C484.089 71.0667 466.518 63.7848 448.195 63.7803V63.7803ZM448.195 183.592C438.152 183.578 428.337 180.587 419.993 174.995C411.65 169.404 405.152 161.464 401.32 152.179C397.489 142.895 396.497 132.683 398.47 122.834C400.443 112.986 405.292 103.944 412.403 96.8515C419.515 89.7589 428.57 84.9345 438.424 82.9884C448.277 81.0422 458.487 82.0616 467.761 85.9177C477.035 89.7739 484.957 96.2935 490.526 104.652C496.095 113.011 499.06 122.833 499.047 132.877C499.047 139.552 497.731 146.161 495.175 152.327C492.618 158.493 488.871 164.094 484.149 168.81C479.426 173.527 473.819 177.266 467.65 179.814C461.481 182.362 454.87 183.669 448.195 183.66V183.592Z" fill="#407BFF" stroke="#263238" stroke-miterlimit="10"/>
<path d="M457.797 132.878C457.797 134.781 457.233 136.642 456.175 138.224C455.117 139.806 453.614 141.039 451.855 141.767C450.097 142.494 448.162 142.684 446.295 142.311C444.429 141.938 442.715 141.021 441.371 139.674C440.026 138.327 439.111 136.611 438.742 134.744C438.373 132.877 438.566 130.942 439.296 129.185C440.027 127.428 441.263 125.927 442.847 124.872C444.431 123.817 446.292 123.255 448.195 123.259C450.744 123.263 453.186 124.279 454.986 126.082C456.786 127.886 457.797 130.33 457.797 132.878Z" fill="#263238" stroke="#263238" stroke-linecap="round" stroke-linejoin="round"/>
<path d="M523.968 98.5604L591.695 80.0752" stroke="#263238" stroke-linecap="round" stroke-linejoin="round"/>
<path d="M396.009 180.854L360.75 212.74H319.381" stroke="#263238" stroke-linecap="round" stroke-linejoin="round"/>
<path d="M419.988 61.2141L400.117 7.84668H376.172" stroke="#263238" stroke-linecap="round" stroke-linejoin="round"/>
<path d="M330.335 1H360.75" stroke="#263238" stroke-width="2" stroke-linecap="round" stroke-linejoin="round"/>
<path d="M330.335 7.84668H360.75" stroke="#263238" stroke-width="2" stroke-linecap="round" stroke-linejoin="round"/>
<path d="M330.335 14.6924H360.75" stroke="#263238" stroke-width="2" stroke-linecap="round" stroke-linejoin="round"/>
<path d="M319.381 221.024H349.813" stroke="#263238" stroke-width="2" stroke-linecap="round" stroke-linejoin="round"/>
<path d="M319.381 227.855H349.813" stroke="#263238" stroke-width="2" stroke-linecap="round" stroke-linejoin="round"/>
<path d="M319.381 234.7H349.813" stroke="#263238" stroke-width="2" stroke-linecap="round" stroke-linejoin="round"/>
<path d="M599.911 63.0273H630.326" stroke="#263238" stroke-width="2" stroke-linecap="round" stroke-linejoin="round"/>
<path d="M599.911 69.8574H630.326" stroke="#263238" stroke-width="2" stroke-linecap="round" stroke-linejoin="round"/>
<path d="M599.911 76.7051H630.326" stroke="#263238" stroke-width="2" stroke-linecap="round" stroke-linejoin="round"/>
<path d="M599.911 157.73H630.326" stroke="#263238" stroke-width="2" stroke-linecap="round" stroke-linejoin="round"/>
<path d="M599.911 164.559H630.326" stroke="#263238" stroke-width="2" stroke-linecap="round" stroke-linejoin="round"/>
<path d="M599.911 171.406H630.326" stroke="#263238" stroke-width="2" stroke-linecap="round" stroke-linejoin="round"/>
<path d="M448.195 42.1133V49.0281" stroke="#263238" stroke-linecap="round" stroke-linejoin="round"/>
<path d="M424.695 45.2109L426.492 51.8861" stroke="#263238" stroke-linecap="round" stroke-linejoin="round"/>
<path d="M402.804 54.2812L406.261 60.2547" stroke="#263238" stroke-linecap="round" stroke-linejoin="round"/>
<path d="M384.011 68.6943L388.889 73.5895" stroke="#263238" stroke-linecap="round" stroke-linejoin="round"/>
<path d="M369.582 87.5039L375.573 90.9442" stroke="#263238" stroke-linecap="round" stroke-linejoin="round"/>
<path d="M360.511 109.396L367.186 111.176" stroke="#263238" stroke-linecap="round" stroke-linejoin="round"/>
<path d="M357.43 132.879H364.327" stroke="#263238" stroke-linecap="round" stroke-linejoin="round"/>
<path d="M360.511 156.361L367.186 154.581" stroke="#263238" stroke-linecap="round" stroke-linejoin="round"/>
<path d="M369.582 178.252L375.573 174.812" stroke="#263238" stroke-linecap="round" stroke-linejoin="round"/>
<path d="M384.011 197.064L388.889 192.169" stroke="#263238" stroke-linecap="round" stroke-linejoin="round"/>
<path d="M402.804 211.473L406.261 205.5" stroke="#263238" stroke-linecap="round" stroke-linejoin="round"/>
<path d="M424.695 220.546L426.492 213.871" stroke="#263238" stroke-linecap="round" stroke-linejoin="round"/>
<path d="M448.195 223.643V216.729" stroke="#263238" stroke-linecap="round" stroke-linejoin="round"/>
<path d="M471.679 220.546L469.898 213.871" stroke="#263238" stroke-linecap="round" stroke-linejoin="round"/>
<path d="M493.57 211.473L490.112 205.5" stroke="#263238" stroke-linecap="round" stroke-linejoin="round"/>
<path d="M512.363 197.064L507.485 192.169" stroke="#263238" stroke-linecap="round" stroke-linejoin="round"/>
<path d="M520.801 174.812L566.775 201.341H598.182" stroke="#263238" stroke-linecap="round" stroke-linejoin="round"/>
<path d="M535.863 156.361L529.188 154.581" stroke="#263238" stroke-linecap="round" stroke-linejoin="round"/>
<path d="M538.944 132.879H532.046" stroke="#263238" stroke-linecap="round" stroke-linejoin="round"/>
<path d="M535.863 109.396L529.188 111.176" stroke="#263238" stroke-linecap="round" stroke-linejoin="round"/>
<path d="M526.792 87.5039L520.801 90.9442" stroke="#263238" stroke-linecap="round" stroke-linejoin="round"/>
<path d="M512.363 68.6943L507.485 73.5895" stroke="#263238" stroke-linecap="round" stroke-linejoin="round"/>
<path d="M493.57 54.2812L490.112 60.2547" stroke="#263238" stroke-linecap="round" stroke-linejoin="round"/>
<path d="M471.679 45.2109L469.898 51.8861" stroke="#263238" stroke-linecap="round" stroke-linejoin="round"/>
<path d="M285.646 111.876H320.014V90.7554H300.074L298.038 85.6035H285.646V111.876Z" fill="#407BFF" stroke="#263238" stroke-miterlimit="10"/>
<path d="M285.646 146.023H320.014V124.902H300.074L298.038 119.733H285.646V146.023Z" fill="#407BFF" stroke="#263238" stroke-miterlimit="10"/>
<path d="M285.646 180.153H320.014V159.032H300.074L298.038 153.88H285.646V180.153Z" fill="#407BFF" stroke="#263238" stroke-miterlimit="10"/>
<path d="M368.333 249.387C368.333 250.179 368.098 250.953 367.658 251.612C367.217 252.271 366.592 252.784 365.86 253.087C365.128 253.39 364.323 253.47 363.546 253.315C362.769 253.161 362.056 252.779 361.495 252.219C360.935 251.659 360.554 250.945 360.399 250.168C360.245 249.391 360.324 248.586 360.627 247.854C360.93 247.122 361.444 246.497 362.102 246.057C362.761 245.617 363.535 245.382 364.327 245.382C365.388 245.386 366.404 245.81 367.155 246.56C367.905 247.31 368.328 248.326 368.333 249.387Z" fill="#407BFF"/>
<path d="M383.617 253.392C385.829 253.392 387.622 251.599 387.622 249.387C387.622 247.175 385.829 245.382 383.617 245.382C381.405 245.382 379.612 247.175 379.612 249.387C379.612 251.599 381.405 253.392 383.617 253.392Z" fill="#407BFF"/>
<path d="M402.89 253.392C405.102 253.392 406.895 251.599 406.895 249.387C406.895 247.175 405.102 245.382 402.89 245.382C400.678 245.382 398.885 247.175 398.885 249.387C398.885 251.599 400.678 253.392 402.89 253.392Z" fill="#407BFF"/>
<path d="M422.162 253.392C424.374 253.392 426.167 251.599 426.167 249.387C426.167 247.175 424.374 245.382 422.162 245.382C419.95 245.382 418.157 247.175 418.157 249.387C418.157 251.599 419.95 253.392 422.162 253.392Z" fill="#407BFF"/>
<path d="M290.695 392.648H15.0771L23.6522 381.368H279.604L290.695 392.648Z" fill="white" stroke="#263238" stroke-linecap="round" stroke-linejoin="round"/>
<path d="M178.979 382.909C175.983 381.683 173.083 380.236 170.301 378.579C170.301 378.579 186.339 298.921 186.938 272.751C187.537 246.581 191.097 192.478 191.097 192.478H119.296C119.296 192.478 122.856 246.598 123.455 272.751C124.054 298.904 136.703 378.579 136.703 378.579C133.924 380.239 131.023 381.687 128.025 382.909C124.174 384.364 119.364 386.332 121.761 387.257C125.029 388.308 128.486 388.635 131.893 388.215C136.924 386.877 141.775 384.935 146.339 382.43C148.256 380.992 150.841 225.768 150.841 225.768H155.975C155.975 225.768 158.68 380.992 160.597 382.43C165.165 384.937 170.022 386.88 175.06 388.215C178.461 388.634 181.913 388.307 185.175 387.257C187.537 386.281 182.779 384.364 178.979 382.909Z" fill="#263238" stroke="#263238" stroke-linecap="round" stroke-linejoin="round"/>
<path d="M144.867 91.9727L122.257 111.588V195.438H180.537V110.988L161.949 92.4177L144.867 91.9727Z" fill="white" stroke="#263238" stroke-linecap="round" stroke-linejoin="round"/>
<path d="M158.748 112.649L153.014 110.013L148.667 112.067L152.278 123.791L146.134 186.196L151.953 192.477L158.748 185.939L154.589 123.791L158.748 112.649Z" fill="#407BFF"/>
<path d="M114.144 107.342L77.7899 153.332L102.385 156.156L114.469 145.254L114.144 107.342Z" fill="white" stroke="#263238" stroke-linecap="round" stroke-linejoin="round"/>
<path d="M141.136 91.459L114.144 107.343V300.222H143.036V92.4175L141.136 91.459Z" fill="white" stroke="#263238" stroke-linecap="round" stroke-linejoin="round"/>
<path d="M190.858 107.342L227.708 148.591L203.113 151.415L190.652 145.254L190.858 107.342Z" fill="white" stroke="#263238" stroke-linecap="round" stroke-linejoin="round"/>
<path d="M163.849 91.459L190.858 107.343V300.222H161.949V92.4175L163.849 91.459Z" fill="white" stroke="#263238" stroke-linecap="round" stroke-linejoin="round"/>
<path d="M153.168 110.011L140.195 115.916V98.9375H165.663V115.916L153.168 110.011Z" fill="white" stroke="#263238" stroke-linecap="round" stroke-linejoin="round"/>
<path d="M165.663 98.9386L153.014 110.013L140.622 98.9386V69.3965H165.663V98.9386Z" fill="white" stroke="#263238" stroke-linecap="round" stroke-linejoin="round"/>
<g style="mix-blend-mode:multiply">
<path d="M140.229 88.4462L149.215 98.8526H157.379L165.663 89.6956L164.876 81.0179L140.622 79.8711L140.229 88.4462Z" fill="#E1BEE7"/>
</g>
<path d="M137.901 61.5582C137.901 61.5582 133.263 60.343 133.725 63.595C134.187 66.8471 135.59 72.889 137.918 74.2925L140.229 75.6789L137.901 61.5582Z" fill="white" stroke="#263238" stroke-linecap="round" stroke-linejoin="round"/>
<path d="M169.018 61.5582C169.018 61.5582 173.656 60.343 173.194 63.595C172.732 66.8471 171.328 72.889 169.018 74.2925L166.69 75.6789L169.018 61.5582Z" fill="white" stroke="#263238" stroke-linecap="round" stroke-linejoin="round"/>
<path d="M171.191 56.1666C171.205 53.6084 170.662 51.0778 169.601 48.7498C168.54 46.4219 166.986 44.3521 165.047 42.6838C163.108 41.0155 160.829 39.7883 158.368 39.0873C155.908 38.3862 153.325 38.228 150.797 38.6235C148.27 39.019 145.858 39.9589 143.73 41.378C141.601 42.7971 139.806 44.6617 138.469 46.8428C137.132 49.0239 136.285 51.4693 135.986 54.0101C135.686 56.5509 135.943 59.1262 136.737 61.5581L141.221 82.6963L149.437 94.2153H157.362L165.321 84.1854L170.182 62.0545C170.85 60.1635 171.192 58.1724 171.191 56.1666V56.1666Z" fill="white" stroke="#263238" stroke-linecap="round" stroke-linejoin="round"/>
<path d="M140.229 59.6748C140.229 59.6748 143.07 56.5939 145.62 57.6209C148.171 58.6478 147.178 61.7287 154.606 62.4989C158.782 63.0062 163.019 62.5615 166.998 61.1981L167.392 54.7625L140.177 51.0312L140.229 59.6748Z" fill="#E1BEE7"/>
<path d="M167.392 54.7631C166.405 56.9767 165.781 59.3346 165.543 61.7463C165.937 64.6232 166.72 67.4331 167.871 70.0989C167.871 70.0989 173.434 58.4943 173.006 54.3009C172.578 50.1075 166.998 53.3767 167.392 54.7631Z" fill="#263238" stroke="#263238" stroke-linecap="round" stroke-linejoin="round"/>
<path d="M138.123 69.1738C138.123 69.1738 138.123 68.4549 138.243 67.3595C138.5 64.3642 139.202 58.579 140.913 57.552C143.241 56.1656 143.001 48.84 143.001 48.84C143.001 48.84 139.749 52.5028 150.909 56.217C162.069 59.9312 171.123 58.4934 177.165 50.5859C183.207 42.6783 177.627 37.1156 176.686 39.9055C175.744 42.6954 173.896 46.4096 170.644 43.6197C167.392 40.8298 162.291 35.25 152.997 35.25C143.703 35.25 139.527 43.6197 139.527 43.6197C138.035 44.3438 136.768 45.4611 135.863 46.8514C134.958 48.2417 134.45 49.8524 134.392 51.5101C134.478 57.0899 138.123 69.1738 138.123 69.1738Z" fill="#263238" stroke="#263238" stroke-linecap="round" stroke-linejoin="round"/>
<path d="M170.815 54.4541C164.242 54.7109 158.646 50.2778 152.929 46.3754C147.212 42.473 143.344 46.3754 143.344 46.3754C143.788 44.252 144.918 42.3337 146.561 40.9168C148.203 39.5 150.267 38.6634 152.432 38.5363C160.203 38.04 162.702 48.7032 169.959 49.6446" stroke="white" stroke-width="0.5" stroke-linecap="round" stroke-linejoin="round"/>
<path d="M152.278 68.7793H136.72L138.432 73.9141C138.584 74.4053 138.888 74.8357 139.3 75.1432C139.712 75.4508 140.211 75.6197 140.725 75.6257H148.753C149.289 75.6225 149.809 75.4407 150.23 75.109C150.652 74.7774 150.951 74.3148 151.08 73.7943L152.278 68.7793Z" fill="white" stroke="#263238" stroke-linecap="round" stroke-linejoin="round"/>
<path d="M169.514 68.7793H153.973L155.684 73.9141C155.831 74.4053 156.131 74.8367 156.541 75.1448C156.95 75.4528 157.448 75.6214 157.961 75.6257H165.988C166.527 75.6263 167.051 75.4463 167.476 75.1143C167.901 74.7824 168.203 74.3176 168.333 73.7943L169.514 68.7793Z" fill="white" stroke="#263238" stroke-linecap="round" stroke-linejoin="round"/>
<path d="M136.72 68.7796L135.95 61.1973" stroke="#263238" stroke-linecap="round" stroke-linejoin="round"/>
<path d="M169.514 68.7795L171.294 61.5908" stroke="#263238" stroke-linecap="round" stroke-linejoin="round"/>
<path d="M152.278 68.7793H153.973" stroke="#263238" stroke-linecap="round" stroke-linejoin="round"/>
<path d="M151.85 71.21H154.606" stroke="#263238" stroke-linecap="round" stroke-linejoin="round"/>
<path d="M156.369 81.0176C156.369 81.0176 155.188 82.7292 153.819 82.7292C152.449 82.7292 151.251 81.0176 151.251 81.0176" stroke="#263238" stroke-linecap="round" stroke-linejoin="round"/>
<path d="M140.691 91.4756L143.344 116.191L143.07 171.766L127.837 119.426L136.566 115.472L127.203 111.33L135.727 93.8889L140.691 91.4756Z" fill="white" stroke="#263238" stroke-linecap="round" stroke-linejoin="round"/>
<path d="M165.834 91.4756L162 114.462L162.137 172.571L178.705 119.426L169.976 115.472L179.321 111.33L170.798 93.8889L165.834 91.4756Z" fill="white" stroke="#263238" stroke-linecap="round" stroke-linejoin="round"/>
<path d="M116.301 155.541L126.93 149.294V155.165L116.301 155.541Z" fill="white" stroke="#263238" stroke-linecap="round" stroke-linejoin="round"/>
<path d="M168.384 143.457C168.384 143.457 164.345 137.227 162.89 137.227C161.435 137.227 158.115 142.721 158.851 144.569C159.587 146.418 163.626 142.002 163.626 142.002L166.553 150.064L168.384 143.457Z" fill="white" stroke="#263238" stroke-linecap="round" stroke-linejoin="round"/>
<path d="M166.998 145.254L161.504 145.63C159.961 146.706 158.213 147.451 156.369 147.821C153.802 148.198 152.33 148.934 154.538 150.765C156.746 152.597 161.504 149.67 161.504 149.67L166.998 151.861C167.444 151.434 167.8 150.921 168.042 150.354C168.285 149.786 168.41 149.175 168.41 148.557C168.41 147.94 168.285 147.329 168.042 146.761C167.8 146.193 167.444 145.681 166.998 145.254Z" fill="white" stroke="#263238" stroke-linecap="round" stroke-linejoin="round"/>
<path d="M169.12 156.258C170.392 157.527 172.058 158.324 173.844 158.518C176.754 158.792 182.813 154.307 182.813 154.307L181.752 149.566L173.314 146.879L169.12 156.258Z" fill="white" stroke="#263238" stroke-linecap="round" stroke-linejoin="round"/>
<path d="M168.384 141.231C168.384 141.231 162.89 148.557 162.89 150.029C162.89 151.501 167.289 156.259 169.12 156.259C170.319 156.259 173.451 154.068 175.453 152.545C175.697 152.364 175.903 152.137 176.06 151.877C176.216 151.616 176.319 151.327 176.364 151.027C176.408 150.727 176.393 150.42 176.319 150.126C176.245 149.831 176.114 149.554 175.933 149.31C173.844 146.435 169.719 141.231 168.384 141.231Z" fill="white" stroke="#263238" stroke-linecap="round" stroke-linejoin="round"/>
<path d="M164.876 152.734L171.465 144.296" stroke="#263238" stroke-linecap="round" stroke-linejoin="round"/>
<path d="M174.632 148.507L166.998 155.096" stroke="#263238" stroke-linecap="round" stroke-linejoin="round"/>
<path d="M178.26 147.582V170.312L222.145 165.177C224.195 164.892 226.068 163.862 227.407 162.283C228.746 160.705 229.456 158.688 229.403 156.619V153.35C229.381 152.22 229.133 151.105 228.672 150.072C228.211 149.04 227.548 148.11 226.72 147.339C225.893 146.568 224.92 145.971 223.858 145.583C222.795 145.196 221.666 145.026 220.537 145.083L178.26 147.582Z" fill="white" stroke="#263238" stroke-linecap="round" stroke-linejoin="round"/>
<path d="M152.929 179.88H129.908C129.111 179.88 128.345 179.572 127.771 179.02C127.196 178.468 126.858 177.715 126.827 176.919L125.441 139.264C125.429 138.851 125.5 138.44 125.65 138.056C125.799 137.671 126.024 137.32 126.311 137.024C126.598 136.727 126.942 136.491 127.321 136.329C127.701 136.167 128.109 136.082 128.522 136.08H154.298C154.711 136.08 155.121 136.163 155.501 136.324C155.882 136.485 156.226 136.721 156.514 137.018C156.801 137.315 157.026 137.667 157.175 138.053C157.323 138.439 157.393 138.85 157.379 139.264L155.993 176.919C155.966 177.713 155.631 178.466 155.06 179.019C154.488 179.572 153.724 179.88 152.929 179.88Z" fill="#263238" stroke="#263238" stroke-linecap="round" stroke-linejoin="round"/>
<path d="M116.301 155.523L125.098 152.596L139.048 152.955C139.048 152.955 140.503 155.523 139.048 155.899C137.593 156.276 131.346 156.635 131.346 156.635L139.784 158.466C139.784 158.466 139.784 161.034 138.312 161.034C136.84 161.034 130.233 165.073 128.402 166.528C126.57 167.983 115.205 165.809 115.205 165.809L110.07 165.433V156.259L116.301 155.523Z" fill="white" stroke="#263238" stroke-linecap="round" stroke-linejoin="round"/>
<path d="M112.997 154.429V177.176L79.2619 172.777C77.212 172.489 75.3392 171.458 73.9985 169.881C72.6577 168.304 71.9423 166.289 71.9876 164.22V160.968C72.0092 159.838 72.2572 158.725 72.7168 157.694C73.1765 156.662 73.8386 155.734 74.6638 154.963C75.489 154.192 76.4605 153.594 77.5208 153.206C78.5811 152.817 79.7086 152.645 80.8366 152.701L112.997 154.429Z" fill="white" stroke="#263238" stroke-linecap="round" stroke-linejoin="round"/>
<path d="M190.858 213.684H172.355V219.126H190.858V213.684Z" fill="white" stroke="#263238" stroke-linecap="round" stroke-linejoin="round"/>
<path d="M132.646 213.684H114.144V219.126H132.646V213.684Z" fill="white" stroke="#263238" stroke-linecap="round" stroke-linejoin="round"/>
<path d="M245.902 386.81V265.989C245.904 262.642 246.619 259.333 248 256.285C249.381 253.236 251.397 250.516 253.913 248.308L276.985 228.129C279.458 225.964 281.439 223.295 282.797 220.302C284.155 217.309 284.858 214.06 284.858 210.773V201.753C284.858 200.091 284.531 198.445 283.894 196.909C283.257 195.373 282.324 193.978 281.148 192.803C279.971 191.628 278.575 190.697 277.038 190.062C275.502 189.428 273.855 189.102 272.193 189.105H104.679C101.324 189.105 98.1072 190.437 95.7351 192.809C93.363 195.181 92.0304 198.399 92.0304 201.753V214.06C92.0257 219.925 89.7856 225.569 85.766 229.84L65.2269 251.629C61.1385 255.989 58.8621 261.741 58.8597 267.718V386.81" stroke="#263238" stroke-width="5" stroke-linecap="round" stroke-linejoin="round"/>
<path d="M57.1995 315.25V386.812" stroke="white" stroke-linecap="round" stroke-linejoin="round"/>
<path d="M90.3187 208.496V214.059C90.3141 219.924 88.0739 225.568 84.0543 229.84L63.5152 251.628C59.4268 255.988 57.1504 261.74 57.1481 267.717V304.636" stroke="white" stroke-linecap="round" stroke-linejoin="round"/>
<path d="M110.07 189.104H102.967C99.6128 189.104 96.3955 190.437 94.0234 192.809C91.6514 195.181 90.3187 198.399 90.3187 201.753" stroke="white" stroke-linecap="round" stroke-linejoin="round"/>
<path d="M244.191 341.761V265.989C244.192 262.642 244.907 259.333 246.288 256.284C247.669 253.235 249.685 250.516 252.201 248.308L275.273 228.129C277.746 225.963 279.728 223.295 281.086 220.302C282.444 217.309 283.146 214.06 283.147 210.773V201.753" stroke="white" stroke-linecap="round" stroke-linejoin="round"/>
<path d="M244.191 386.81V350.97" stroke="white" stroke-linecap="round" stroke-linejoin="round"/>
<path d="M80.905 363.43H33.5795V397.525H80.905V363.43Z" fill="#407BFF" stroke="#263238" stroke-linecap="round" stroke-linejoin="round"/>
<path d="M80.905 398.482H33.5795V422.719H80.905V398.482Z" fill="#407BFF" stroke="#263238" stroke-linecap="round" stroke-linejoin="round"/>
<path d="M267.075 398.482H219.749V422.719H267.075V398.482Z" fill="#407BFF" stroke="#263238" stroke-linecap="round" stroke-linejoin="round"/>
<path d="M71.457 441.393H43.0617L33.5966 422.736H80.9221L71.457 441.393Z" fill="#407BFF" stroke="#263238" stroke-linecap="round" stroke-linejoin="round"/>
<path d="M39.8268 423.405L46.0399 438.416" stroke="#263238" stroke-linecap="round" stroke-linejoin="round"/>
<path d="M48.5216 430.337L49.1378 432.066" stroke="#263238" stroke-linecap="round" stroke-linejoin="round"/>
<path d="M46.0399 423.405L47.683 428.009" stroke="#263238" stroke-linecap="round" stroke-linejoin="round"/>
<path d="M257.627 441.393H229.214L219.749 422.736H267.092L257.627 441.393Z" fill="#407BFF" stroke="#263238" stroke-linecap="round" stroke-linejoin="round"/>
<path d="M224.73 423.405L230.943 437.218" stroke="#263238" stroke-linecap="round" stroke-linejoin="round"/>
<path d="M230.943 423.405L233.75 429.379" stroke="#263238" stroke-linecap="round" stroke-linejoin="round"/>
<path d="M257.284 434.188L255.179 438.416" stroke="#263238" stroke-linecap="round" stroke-linejoin="round"/>
<path d="M262.642 423.405L258.346 432.066" stroke="#263238" stroke-linecap="round" stroke-linejoin="round"/>
<path d="M267.075 363.43H219.749V397.525H267.075V363.43Z" fill="#407BFF" stroke="#263238" stroke-linecap="round" stroke-linejoin="round"/>
<path d="M85.2182 397.508H215.47V416.506C215.47 421.046 213.667 425.399 210.457 428.609C207.247 431.819 202.894 433.622 198.354 433.622H102.163C97.6235 433.622 93.27 431.819 90.0601 428.609C86.8503 425.399 85.047 421.046 85.047 416.506V397.508H85.2182Z" fill="#407BFF" stroke="#263238" stroke-linecap="round" stroke-linejoin="round"/>
<path d="M290.695 392.648H15.0771V414.078H290.695V392.648Z" fill="#407BFF" stroke="#263238" stroke-linecap="round" stroke-linejoin="round"/>
<path d="M15.0771 405.554H99.4928L123.421 398.964H239.963L245.475 393.436" stroke="#263238" stroke-linecap="round" stroke-linejoin="round"/>
</svg>
