<?xml version="1.0" encoding="utf-8"?>
<!-- Generator: Adobe Illustrator 19.0.0, SVG Export Plug-In . SVG Version: 6.00 Build 0)  -->
<svg version="1.1" id="Layer_1" xmlns="http://www.w3.org/2000/svg" xmlns:xlink="http://www.w3.org/1999/xlink" x="0px" y="0px"
	 viewBox="-205 297 200 200" style="enable-background:new -205 297 200 200;" xml:space="preserve">
<style type="text/css">
	.st0{fill:#F4F8F9;}
	.st1{fill:#343C3C;}
	.st2{fill:#25C196;}
	.st3{fill:#007BFF;}
	.st4{fill:#FCFAF0;}
</style>
<rect x="-205" y="297" class="st0" width="200" height="200"/>
<g>
	<g>
		<g>
			<path class="st1" d="M-134.5,348.2c0.9-0.3,1.9-0.1,2.9-0.2c18.3,0,36.7,0,54.9,0c2.5-0.1,4.8,2.2,4.7,4.8c0,29.5,0,59,0,88.5
				c0.1,2.6-2.2,4.9-4.7,4.8c-18.9,0-37.9,0-56.9,0c-2.5-0.1-4.7-2.5-4.4-5.1c0-29.4,0-58.8,0-88.2
				C-138,350.7-136.6,348.7-134.5,348.2z M-134.1,357.4c-0.1,2.1,0,4.2,0,6.3c0,24.2-0.1,48.6,0,72.8c19.4,0,38.9,0,58.4,0
				c0.1-4.7,0-9.3,0.1-14c0-21.7,0.1-43.4-0.1-65.1C-95.2,357.4-114.7,357.4-134.1,357.4z"/>
		</g>
		<path class="st2" d="M-117.8,366.3c0.6,0.6,1.4,1.1,2.1,1.6c-0.6,0.9-1.3,1.7-1.9,2.6c-1.4,1.8-2.9,3.7-4.4,5.5
			c-0.5,0-0.9,0-1.4,0c-1.4-1.8-2.9-3.5-4.2-5.4c0.6-0.6,1.4-1.1,2.1-1.6c0.9,1.2,1.8,2.4,2.9,3.6c1.7-1.9,3.3-4,4.8-6.1
			C-117.9,366.4-117.8,366.4-117.8,366.3z"/>
		<path class="st2" d="M-117.8,382.8c0.6,0.6,1.4,1.1,2.1,1.6c-0.6,0.9-1.3,1.7-1.9,2.6c-1.4,1.8-2.9,3.7-4.4,5.5
			c-0.5,0-0.9,0-1.4,0c-1.4-1.8-2.9-3.5-4.2-5.4c0.6-0.6,1.4-1.1,2.1-1.6c0.9,1.2,1.9,2.4,2.9,3.6c1.7-1.9,3.3-4,4.8-6.1
			C-117.9,382.9-117.8,382.9-117.8,382.8z"/>
		<path class="st2" d="M-117.8,399.3c0.6,0.6,1.4,1.1,2.1,1.6c-0.6,0.9-1.3,1.7-1.9,2.6c-1.4,1.8-2.9,3.7-4.4,5.5
			c-0.5,0-0.9,0-1.4,0c-1.4-1.8-2.9-3.5-4.2-5.4c0.6-0.6,1.4-1.1,2.1-1.6c0.9,1.2,1.9,2.4,2.9,3.6c1.6-1.9,3.3-4,4.8-6.1
			C-117.9,399.4-117.8,399.3-117.8,399.3z"/>
	</g>
	<g>
		<g>
			<path class="st3" d="M-134.1,357.4c19.4,0,38.9,0,58.4,0c0.1,21.7,0,43.4,0.1,65.1c0,4.7,0.1,9.3-0.1,14c-19.4,0.1-38.9,0-58.4,0
				c-0.1-24.2,0-48.6,0-72.8C-134.1,361.6-134.2,359.5-134.1,357.4z M-128.5,366.5c-0.1,3.4-0.1,6.9,0,10.3c0.7,0.4,1.6,0.3,2.4,0.3
				c2.4,0,4.8,0,7.2,0c0.6,0.1,1.4-0.4,1.2-1.1c0-1.9,0-3.7,0-5.6c0.6-0.9,1.4-1.6,1.9-2.6c-0.7-0.5-1.4-1.1-2.1-1.6
				c-0.1,0.1-0.1,0.2-0.1,0.2c-0.6-0.4-1.4-0.4-2.1-0.4c-2.5,0.1-4.9-0.1-7.5,0C-127.8,366.2-128.2,366.4-128.5,366.5z M-112,367.1
				c0,0.9,0,1.8,0,2.7c10.3,0,20.4,0,30.7,0c0-0.9,0-1.8,0-2.7C-91.6,367-101.8,367-112,367.1z M-112,372.5c0,0.9,0,1.8,0,2.7
				c5.1,0,10.2,0.1,15.3-0.1c0-0.9,0-1.8,0-2.7C-101.8,372.5-106.9,372.5-112,372.5z M-128.5,383c-0.1,3.4-0.1,6.9,0,10.3
				c0.7,0.4,1.6,0.3,2.4,0.3c2.4,0,4.8,0,7.2,0c0.6,0.1,1.4-0.4,1.2-1.1c0-1.9,0-3.7,0-5.6c0.6-0.9,1.4-1.6,1.9-2.6
				c-0.7-0.5-1.4-1.1-2.1-1.6c-0.1,0.1-0.1,0.2-0.1,0.2c-0.6-0.4-1.4-0.4-2.1-0.4c-2.5,0.1-4.9-0.1-7.5,0
				C-127.8,382.7-128.2,382.9-128.5,383z M-112,383.5c0,0.9,0,1.8,0,2.7c10.3,0,20.4,0.1,30.7,0c0-0.9,0-1.8,0-2.7
				C-91.6,383.5-101.8,383.5-112,383.5z M-112,389c0,0.9,0,1.8,0,2.7c5.1,0,10.2,0.1,15.3-0.1c0-0.9,0-1.8,0-2.7
				C-101.8,389-106.9,389-112,389z M-128.5,399.5c-0.1,3.4-0.1,6.9,0,10.3c0.4,0.1,0.9,0.3,1.3,0.3c2.7,0,5.5,0,8.2,0
				c0.6,0.1,1.4-0.4,1.2-1.1c0-1.9,0-3.7,0-5.6c0.6-0.9,1.4-1.6,1.9-2.6c-0.7-0.5-1.4-1.1-2.1-1.6c-0.1,0.1-0.1,0.2-0.1,0.2
				c-0.5-0.4-1.2-0.4-1.8-0.4c-2.5,0.1-4.9,0-7.5,0C-127.7,399.2-128.1,399.4-128.5,399.5z M-112,400c0,0.9,0,1.8,0,2.7
				c10.3,0,20.4,0.1,30.7,0c0-0.9,0-1.8,0-2.7C-91.6,400-101.8,400-112,400z M-112,405.5c0,0.9,0,1.8,0,2.7c5.1,0,10.2,0.1,15.3-0.1
				c0-0.9,0-1.8,0-2.7C-101.8,405.5-106.9,405.5-112,405.5z M-127.9,415.7c-0.7,0.1-0.7,1-0.7,1.6c0,2.7,0,5.3,0,8
				c-0.1,0.6,0.2,1.4,0.9,1.4c2.9,0.1,5.9,0,8.8,0c0.6,0.1,1.4-0.4,1.3-1.1c0-2.9,0-5.8,0-8.8c0-0.6-0.6-1.3-1.2-1.1
				C-121.9,415.7-124.9,415.6-127.9,415.7z M-112.1,416.5c-0.1,0.9-0.1,1.8,0,2.7c10.3,0,20.5,0.1,30.8,0c0-0.9,0-1.8,0-2.7
				C-91.6,416.4-101.8,416.5-112.1,416.5z M-112.1,422c-0.1,0.9-0.1,1.8,0,2.7c5.1,0,10.3,0.1,15.3,0c0-0.9,0-1.8,0-2.7
				C-101.8,422-106.9,422-112.1,422z"/>
		</g>
	</g>
	<g>
		<path class="st4" d="M-128.5,366.5c0.4-0.1,0.6-0.3,1-0.3c2.5-0.1,4.9,0,7.5,0c0.7,0,1.4-0.1,2.1,0.4c-1.6,2.1-3.2,4.1-4.8,6.1
			c-1.1-1.1-1.9-2.4-2.9-3.6c-0.7,0.5-1.4,1-2.1,1.6c1.4,1.9,2.8,3.6,4.2,5.4c0.5,0,0.9,0,1.4,0c1.4-1.8,2.9-3.7,4.4-5.5
			c0.1,1.9,0,3.7,0,5.6c0.1,0.6-0.6,1.1-1.2,1.1c-2.4,0-4.8,0-7.2,0c-0.8,0-1.6,0.1-2.4-0.3C-128.6,373.4-128.6,370-128.5,366.5z"/>
		<path class="st4" d="M-112,367.1c10.3-0.1,20.4,0,30.7,0c0,0.9,0,1.8,0,2.7c-10.3,0.1-20.4,0-30.7,0
			C-112,368.9-112,367.9-112,367.1z"/>
		<path class="st4" d="M-112,372.5c5.1,0,10.2,0,15.3,0c0,0.9,0,1.8,0,2.7c-5.1,0.1-10.2,0-15.3,0.1C-112,374.3-112,373.5-112,372.5
			z"/>
		<path class="st4" d="M-128.5,383c0.4-0.1,0.6-0.3,1-0.3c2.5-0.1,4.9,0,7.5,0c0.7,0,1.4-0.1,2.1,0.4c-1.6,2.1-3.2,4.1-4.8,6.1
			c-1.1-1.1-1.9-2.4-2.9-3.6c-0.7,0.5-1.4,1-2.1,1.6c1.4,1.9,2.8,3.6,4.2,5.4c0.5,0,0.9,0,1.4,0c1.4-1.8,2.9-3.7,4.4-5.5
			c0.1,1.9,0,3.7,0,5.6c0.1,0.6-0.6,1.1-1.2,1.1c-2.4,0-4.8,0-7.2,0c-0.8,0-1.6,0.1-2.4-0.3C-128.6,389.9-128.6,386.5-128.5,383z"/>
		<path class="st4" d="M-112,383.5c10.3,0,20.4,0,30.7,0c0,0.9,0,1.8,0,2.7c-10.3,0.1-20.4,0-30.7,0C-112,385.4-112,384.4-112,383.5
			z"/>
		<path class="st4" d="M-112,389c5.1-0.1,10.2,0,15.3,0c0,0.9,0,1.8,0,2.7c-5.1,0.1-10.2,0-15.3,0.1C-112,390.8-112,390-112,389z"/>
		<path class="st4" d="M-128.5,399.5c0.4-0.1,0.9-0.3,1.3-0.3c2.5-0.1,4.9,0,7.5,0c0.6,0,1.3,0,1.8,0.4c-1.6,2.1-3.2,4.2-4.8,6.1
			c-1-1.1-1.9-2.4-2.9-3.6c-0.7,0.5-1.4,1-2.1,1.6c1.4,1.9,2.8,3.6,4.2,5.4c0.5,0,0.9,0,1.4,0c1.4-1.8,2.9-3.7,4.4-5.5
			c0.1,1.9,0,3.7,0,5.6c0.1,0.6-0.6,1.1-1.2,1.1c-2.7,0-5.5,0-8.2,0c-0.4,0-0.9-0.1-1.3-0.3C-128.6,406.4-128.6,403-128.5,399.5z"/>
		<path class="st4" d="M-112,400c10.3,0,20.4,0,30.7,0c0,0.9,0,1.8,0,2.7c-10.3,0.1-20.4,0-30.7,0C-112,401.9-112,400.9-112,400z"/>
		<path class="st4" d="M-112,405.5c5.1,0,10.2,0,15.3,0c0,0.9,0,1.8,0,2.7c-5.1,0.1-10.2,0-15.3,0.1C-112,407.3-112,406.5-112,405.5
			z"/>
		<path class="st4" d="M-127.9,415.7c3-0.1,6,0,9-0.1c0.7-0.1,1.3,0.5,1.2,1.1c0.1,2.9,0,5.8,0,8.8c0.1,0.6-0.6,1.1-1.3,1.1
			c-2.9,0-5.9,0.1-8.8,0c-0.7,0-1-0.8-0.9-1.4c0-2.7,0-5.3,0-8C-128.7,416.7-128.7,415.9-127.9,415.7z"/>
		<path class="st4" d="M-112.1,416.5c10.3,0,20.5,0,30.8,0c0,0.9,0,1.8,0,2.7c-10.3,0.1-20.5,0-30.8,0
			C-112.2,418.3-112.2,417.4-112.1,416.5z"/>
		<path class="st4" d="M-112.1,422c5.2,0,10.3,0,15.4,0c0,0.9,0,1.8,0,2.7c-5.1,0.1-10.3,0-15.3,0
			C-112.2,423.8-112.2,422.9-112.1,422z"/>
	</g>
</g>
</svg>
