<?xml version="1.0" encoding="utf-8"?>
<!-- Generator: Adobe Illustrator 19.0.0, SVG Export Plug-In . SVG Version: 6.00 Build 0)  -->
<svg version="1.1" id="Layer_1" xmlns="http://www.w3.org/2000/svg" xmlns:xlink="http://www.w3.org/1999/xlink" x="0px" y="0px"
	 viewBox="0 0 257 294" style="enable-background:new 0 0 257 294;" xml:space="preserve">
<style type="text/css">
	.st0{fill:#737F91;}
</style>
<g>
	<g>
		<path class="st0" d="M61.4,0H68c3.4,0.6,6.2,3.6,6,7.1c0.1,9.9,0,19.7,0,29.6c36.8,0,73.5,0,110.3,0c0-9.9-0.1-19.8,0-29.7
			c-0.2-3.5,2.7-6.6,6.1-7.1h6.6c3.1,0.9,5.8,3.5,5.7,7c0.3,9.9,0,19.9,0.1,29.8c9.9,0.1,19.8-0.2,29.6,0.1
			c12.6,0.7,23.6,11.2,25.1,23.7v209.8c-1.6,12.6-12.8,23-25.5,23.7H26.3c-13.4-0.7-25-12.2-25.8-25.6V62.6
			c0.7-13.2,11.8-24.7,25-25.7c10.1-0.3,20.2,0,30.2-0.1c0-10.2-0.1-20.5,0-30.7C55.8,2.9,58.7,0.8,61.4,0z M19,64
			c0,9.3,0,18.7,0,28c73.5,0,147,0,220.5,0c0-8.7,0-17.4,0-26c0.1-3.4-1-7.1-4-9.1c-2.9-2.2-6.7-1.5-10.1-1.6c-66,0-132,0-198,0
			C23,55.3,18.9,59.4,19,64z M19,110.3c0,52.3,0,104.5,0,156.8c0,5.3,5.3,9,10.4,8.7c66.1,0.1,132.1,0,198.1,0
			c3.2,0,6.7-0.3,9.1-2.7c2.5-2.3,3-5.8,2.9-9c0-51.3,0-102.5,0-153.8C166,110.3,92.5,110.3,19,110.3z"/>
	</g>
	<path class="st0" d="M59.9,147.6c7.7-1.3,15.8-0.2,23.6-0.6c3.9-0.6,8.4,1.8,8.8,5.9c0.6,6.3,0.1,12.7,0.3,19.1
		c-0.1,3.1,0.4,6.7-1.7,9.2c-1.5,1.9-3.9,2.7-6.2,2.6c-7.4,0-14.8,0-22.2,0c-3.5,0-6.9-3-6.7-6.6c0-7.7,0-15.4,0-23.2
		C55.5,151.2,57.4,148.6,59.9,147.6z"/>
	<path class="st0" d="M114.9,147.6c4.7-1.3,9.7-0.3,14.6-0.6c4,0.1,8-0.2,12,0.1c3.3,0.3,6,3.4,6,6.7c0.1,7.8,0.1,15.6,0,23.3
		c0,3.6-3.3,6.8-6.9,6.6c-7.7,0-15.4,0-23,0c-3.6,0-6.8-3.1-6.8-6.7c0-7.7,0-15.3,0-23C110.7,151.3,112.4,148.7,114.9,147.6z"/>
	<path class="st0" d="M169.9,147.6c1.7-0.8,3.7-0.6,5.5-0.7c6.7,0.1,13.5,0,20.2,0c3.7-0.1,7,3.2,7,6.9c0.2,7.7,0.2,15.4,0,23.1
		c0,3.7-3.4,6.8-7,6.7c-7.4,0-14.8,0-22.2,0c-3.8,0.3-7.7-2.8-7.4-6.7c0-7.7,0-15.3,0-23C165.7,151.3,167.5,148.7,169.9,147.6z"/>
	<path class="st0" d="M60.7,202.4c8.3-0.3,16.6,0,24.8-0.1c3.6-0.3,6.8,3.1,6.8,6.6c0.3,7.5,0.1,14.9,0.1,22.4
		c0.2,3.8-2.7,7.6-6.7,7.6c-7.5,0.3-15,0.1-22.5,0.1c-3.5,0.2-7.3-2.3-7.5-6c-0.1-8,0-16,0-24C55.5,206,57.8,203.1,60.7,202.4z"/>
	<path class="st0" d="M115.8,202.4c8.3-0.4,16.5,0,24.8-0.1c3.6-0.3,6.8,3.1,6.9,6.6c0,7.7,0,15.5,0,23.2c0,3.6-3.1,6.8-6.7,6.8
		c-7.4,0.3-14.9,0.1-22.4,0.1c-3.9,0.3-7.7-2.9-7.6-6.9c-0.1-7.4,0-14.7,0-22.1C110.5,206.7,112.5,203.1,115.8,202.4z"/>
	<path class="st0" d="M170.9,202.4c8.2-0.4,16.4,0,24.6-0.2c3.8-0.4,7.1,3.1,7.1,6.8c0.3,6.3,0,12.6,0.1,18.9c0,3.1,0.2,6.8-2.3,9.1
		c-2.4,2.3-5.9,2-8.9,2c-6.4-0.2-12.8,0.2-19.2-0.2c-3.4-0.1-6.6-3.3-6.3-6.8c0-7.7,0-15.4,0-23.1
		C165.8,206,168.1,203.1,170.9,202.4z"/>
</g>
</svg>
