<?xml version="1.0" encoding="utf-8"?>
<!-- Generator: Adobe Illustrator 19.0.0, SVG Export Plug-In . SVG Version: 6.00 Build 0)  -->
<svg version="1.1" id="Layer_1" xmlns="http://www.w3.org/2000/svg" xmlns:xlink="http://www.w3.org/1999/xlink" x="0px" y="0px"
	 viewBox="0 0 144.6 25.6" style="enable-background:new 0 0 144.6 25.6;" xml:space="preserve">
<style type="text/css">
	.st0{fill:#0957E8;}
</style>
<g>
	<g>
		<g>
			<path class="st0" d="M16.7,6.1L9.4,25.3H4.9l2.3-5.5L1.8,6.1h4.6l2.9,8.4h0.1l2.8-8.4H16.7z"/>
			<path class="st0" d="M16.8,13.3c0-0.9,0.2-1.8,0.5-2.7c0.3-0.9,0.8-1.7,1.4-2.5c0.6-0.7,1.4-1.3,2.4-1.8c1-0.5,2.1-0.7,3.4-0.7
				S27,5.9,28,6.3c1,0.5,1.8,1.1,2.4,1.8c0.6,0.7,1.1,1.6,1.4,2.5c0.3,0.9,0.5,1.8,0.5,2.7s-0.2,1.8-0.5,2.7
				c-0.3,0.9-0.8,1.7-1.4,2.5c-0.6,0.7-1.4,1.3-2.4,1.8c-1,0.5-2.1,0.7-3.4,0.7s-2.5-0.2-3.4-0.7c-1-0.5-1.8-1.1-2.4-1.8
				c-0.6-0.7-1.1-1.6-1.4-2.5C17,15.1,16.8,14.2,16.8,13.3z M21.1,13.3c0,0.5,0.1,1,0.3,1.5c0.2,0.5,0.4,0.8,0.8,1.2
				c0.3,0.3,0.7,0.6,1.1,0.8c0.4,0.2,0.9,0.3,1.3,0.3s0.9-0.1,1.3-0.3s0.8-0.4,1.1-0.8c0.3-0.3,0.6-0.7,0.8-1.2
				c0.2-0.5,0.3-0.9,0.3-1.5c0-0.5-0.1-1-0.3-1.5c-0.2-0.5-0.4-0.8-0.8-1.2c-0.3-0.3-0.7-0.6-1.1-0.8S25,9.6,24.6,9.6
				s-0.9,0.1-1.3,0.3c-0.4,0.2-0.8,0.4-1.1,0.8c-0.3,0.3-0.6,0.7-0.8,1.2C21.2,12.3,21.1,12.8,21.1,13.3z"/>
			<path class="st0" d="M51.4,20.5V1.3h2.7v6.8h0.1c0.6-0.8,1.3-1.4,2.2-1.8c0.9-0.4,1.8-0.6,2.8-0.6c1,0,1.9,0.2,2.8,0.6
				c0.9,0.4,1.7,0.9,2.4,1.6c0.7,0.7,1.2,1.5,1.7,2.4c0.4,0.9,0.6,1.9,0.6,3.1c0,1-0.2,2-0.6,2.9c-0.4,0.9-0.9,1.7-1.6,2.4
				c-0.7,0.7-1.4,1.2-2.3,1.6c-0.9,0.4-1.9,0.6-2.9,0.6c-0.3,0-0.7,0-1.1-0.1c-0.4-0.1-0.9-0.2-1.3-0.4c-0.5-0.2-0.9-0.4-1.4-0.7
				c-0.5-0.3-0.9-0.7-1.2-1.2h-0.1v2.1H51.4z M54.1,13.3c0,0.8,0.1,1.5,0.4,2.2c0.3,0.6,0.7,1.2,1.1,1.6c0.5,0.4,1,0.8,1.6,1
				c0.6,0.2,1.2,0.4,1.8,0.4c0.6,0,1.3-0.1,1.9-0.4c0.6-0.3,1.1-0.6,1.6-1.1c0.5-0.5,0.8-1,1.1-1.6c0.3-0.6,0.4-1.3,0.4-2
				c0-0.7-0.1-1.3-0.4-1.9c-0.2-0.6-0.6-1.2-1-1.6c-0.4-0.5-1-0.9-1.6-1.1c-0.6-0.3-1.3-0.4-2-0.4c-0.7,0-1.4,0.1-2,0.4
				c-0.6,0.3-1.1,0.7-1.5,1.1c-0.4,0.5-0.8,1-1,1.6C54.2,12,54.1,12.6,54.1,13.3z"/>
			<path class="st0" d="M71.3,14.5c0.2,0.7,0.4,1.3,0.8,1.8s0.7,0.9,1.2,1.2c0.4,0.3,0.9,0.6,1.4,0.7c0.5,0.1,1,0.2,1.4,0.2
				c1,0,1.9-0.2,2.6-0.7c0.7-0.5,1.2-1.1,1.5-1.7h2.7c-0.3,0.9-0.8,1.7-1.4,2.3c-0.6,0.6-1.1,1.1-1.8,1.5c-0.6,0.4-1.3,0.6-1.9,0.8
				c-0.7,0.2-1.3,0.2-1.8,0.2c-1,0-2-0.2-2.9-0.6c-0.9-0.4-1.7-1-2.3-1.7c-0.7-0.7-1.2-1.5-1.6-2.4c-0.4-0.9-0.6-1.9-0.6-2.9
				c0-1.1,0.2-2.1,0.6-3c0.4-0.9,0.9-1.7,1.6-2.4c0.7-0.7,1.4-1.2,2.3-1.6C74,5.9,75,5.7,76,5.7c1,0,1.9,0.2,2.8,0.6
				c0.9,0.4,1.7,0.9,2.3,1.5c0.7,0.7,1.2,1.4,1.6,2.3c0.4,0.9,0.6,1.9,0.6,2.9c0,0.2,0,0.5,0,0.8c0,0.3,0,0.5-0.1,0.6H71.3z
				 M80.6,12.4c0-0.5-0.2-1-0.4-1.5c-0.2-0.5-0.6-1-1-1.4c-0.4-0.4-0.9-0.7-1.5-0.9S76.6,8.2,76,8.2c-0.7,0-1.3,0.1-1.8,0.4
				c-0.5,0.2-1,0.6-1.4,0.9c-0.4,0.4-0.7,0.8-1,1.4c-0.2,0.5-0.4,1-0.4,1.5H80.6z"/>
			<path class="st0" d="M85.8,1.3h4.3v6.1h0.1c0.4-0.7,0.9-1.1,1.5-1.4c0.7-0.3,1.4-0.4,2.2-0.4c0.3,0,0.7,0,1.1,0.1
				c0.4,0.1,0.7,0.2,1.1,0.3c0.3,0.1,0.7,0.3,1,0.5c0.3,0.2,0.6,0.4,0.8,0.7c0.3,0.4,0.6,0.7,0.7,1.1C98.7,8.6,98.9,9,99,9.4
				c0.1,0.4,0.2,0.9,0.2,1.4c0,0.5,0,1.1,0,1.7v8.1h-4.3v-7.9c0-0.2,0-0.4,0-0.8c0-0.3-0.1-0.7-0.2-1c-0.1-0.3-0.4-0.6-0.7-0.9
				c-0.3-0.3-0.8-0.4-1.3-0.4c-0.6,0-1.1,0.1-1.4,0.4c-0.3,0.2-0.6,0.5-0.7,0.8c-0.1,0.3-0.2,0.6-0.3,0.9c0,0.3,0,0.6,0,0.7v8h-4.3
				V1.3z"/>
			<path class="st0" d="M116.2,16c-0.3,0.8-0.8,1.5-1.3,2.1c-0.5,0.6-1.1,1.1-1.7,1.5c-1.2,0.9-2.6,1.3-4.1,1.3c-1,0-2-0.2-2.9-0.6
				c-0.9-0.4-1.7-0.9-2.4-1.6c-0.7-0.7-1.3-1.5-1.7-2.4c-0.4-0.9-0.6-1.9-0.6-3c0-1,0.2-2,0.6-2.9c0.4-0.9,0.9-1.8,1.6-2.5
				c0.7-0.7,1.5-1.3,2.4-1.7c0.9-0.4,1.9-0.6,3-0.6c1.1,0,2.1,0.2,3,0.6c0.9,0.4,1.7,1,2.4,1.7c0.7,0.7,1.2,1.5,1.6,2.5
				c0.4,1,0.6,2,0.6,3.1c0,0.3,0,0.5,0,0.7c0,0.1,0,0.3-0.1,0.5h-10.8c0.1,0.9,0.5,1.5,1.2,2c0.6,0.5,1.4,0.7,2.2,0.7
				c0.7,0,1.2-0.1,1.6-0.4c0.4-0.3,0.7-0.6,1-1H116.2z M112.3,11.7c-0.1-0.2-0.1-0.5-0.3-0.7c-0.1-0.3-0.3-0.6-0.6-0.8
				c-0.3-0.3-0.6-0.5-1-0.6c-0.4-0.2-0.9-0.3-1.4-0.3c-0.6,0-1,0.1-1.4,0.3c-0.4,0.2-0.7,0.4-1,0.6s-0.5,0.5-0.6,0.8
				c-0.1,0.3-0.2,0.5-0.3,0.7H112.3z"/>
			<path class="st0" d="M119,6.1h4.1v1.5h0.1c0.1-0.2,0.2-0.4,0.4-0.6c0.2-0.2,0.4-0.5,0.6-0.7c0.3-0.2,0.6-0.4,1-0.5
				c0.4-0.1,0.9-0.2,1.6-0.2v4.3c-0.5,0-1,0.1-1.4,0.1c-0.4,0.1-0.8,0.2-1.1,0.4c-0.3,0.2-0.5,0.5-0.7,0.8c-0.2,0.3-0.2,0.8-0.2,1.3
				v7.9H119V6.1z"/>
			<path class="st0" d="M127.3,13.3c0-0.9,0.2-1.8,0.5-2.7s0.8-1.7,1.4-2.5s1.4-1.3,2.4-1.8c1-0.5,2.1-0.7,3.4-0.7
				c1.3,0,2.5,0.2,3.4,0.7c1,0.5,1.8,1.1,2.4,1.8c0.6,0.7,1.1,1.6,1.4,2.5c0.3,0.9,0.5,1.8,0.5,2.7s-0.2,1.8-0.5,2.7
				c-0.3,0.9-0.8,1.7-1.4,2.5c-0.6,0.7-1.4,1.3-2.4,1.8c-1,0.5-2.1,0.7-3.4,0.7c-1.3,0-2.5-0.2-3.4-0.7c-1-0.5-1.8-1.1-2.4-1.8
				s-1.1-1.6-1.4-2.5C127.5,15.1,127.3,14.2,127.3,13.3z M131.6,13.3c0,0.5,0.1,1,0.3,1.5c0.2,0.5,0.4,0.8,0.8,1.2
				c0.3,0.3,0.7,0.6,1.1,0.8c0.4,0.2,0.9,0.3,1.3,0.3c0.5,0,0.9-0.1,1.3-0.3s0.8-0.4,1.1-0.8c0.3-0.3,0.6-0.7,0.8-1.2
				c0.2-0.5,0.3-0.9,0.3-1.5c0-0.5-0.1-1-0.3-1.5c-0.2-0.5-0.4-0.8-0.8-1.2c-0.3-0.3-0.7-0.6-1.1-0.8s-0.9-0.3-1.3-0.3
				c-0.5,0-0.9,0.1-1.3,0.3c-0.4,0.2-0.8,0.4-1.1,0.8c-0.3,0.3-0.6,0.7-0.8,1.2C131.7,12.3,131.6,12.8,131.6,13.3z"/>
		</g>
	</g>
	<g id="XMLID_30_">
		<path id="XMLID_31_" class="st0" d="M43.7,12.9V14c0,0.2,0,0.5,0,0.9c0,0.3-0.1,0.7-0.2,0.9c-0.1,0.3-0.4,0.5-0.7,0.8
			c-0.3,0.2-0.8,0.3-1.3,0.3c-0.6,0-1-0.1-1.3-0.3c-0.3-0.2-0.5-0.5-0.7-0.8c-0.1-0.3-0.2-0.6-0.2-0.9c0-0.3,0-0.6,0-0.9v-1.1h-4.3
			v1.8c0,0.5,0,0.9,0,1.3c0,0.4,0.1,0.8,0.2,1.1c0.1,0.3,0.2,0.7,0.4,1c0.2,0.3,0.4,0.7,0.7,1c0.3,0.4,0.7,0.7,1.1,1
			c0.4,0.2,0.8,0.4,1.2,0.6c0.4,0.1,0.8,0.2,1.1,0.2c0.3,0,0.6,0.1,0.9,0.1c0.3,0,1.8,0,2.1,0c0.2,0,0.5,0,0.9-0.1
			c0.3,0,0.7-0.1,1.1-0.2c0.4-0.1,0.8-0.3,1.2-0.6c0.4-0.2,0.8-0.6,1.1-1c0.3-0.4,0.5-0.7,0.7-1c0.2-0.3,0.3-0.6,0.4-1
			c0.1-0.3,0.2-0.7,0.2-1.1c0-0.4,0-0.8,0-1.3v-1.8H43.7z"/>
		<polygon id="XMLID_32_" class="st0" points="48,9.6 48,6.1 46.1,6.1 43.7,6.1 43.7,9.6 		"/>
		<polygon id="XMLID_33_" class="st0" points="39.1,9.6 39.1,6.1 36.9,6.1 34.8,6.1 34.8,9.6 		"/>
	</g>
</g>
</svg>
