<?xml version="1.0" encoding="utf-8"?>
<!-- Generator: Adobe Illustrator 19.0.0, SVG Export Plug-In . SVG Version: 6.00 Build 0)  -->
<svg version="1.1" id="Layer_1" xmlns="http://www.w3.org/2000/svg" xmlns:xlink="http://www.w3.org/1999/xlink" x="0px" y="0px"
	 viewBox="-327 388.4 144.6 25.6" style="enable-background:new -327 388.4 144.6 25.6;" xml:space="preserve">
<style type="text/css">
	.st0{fill:#FFFFFF;}
</style>
<g>
	<g>
		<g>
			<path class="st0" d="M-310.3,394.5l-7.3,19.2h-4.5l2.3-5.5l-5.4-13.7h4.6l2.9,8.4h0.1l2.8-8.4
				C-314.8,394.5-310.3,394.5-310.3,394.5z"/>
			<path class="st0" d="M-310.2,401.7c0-0.9,0.2-1.8,0.5-2.7c0.3-0.9,0.8-1.7,1.4-2.5c0.6-0.7,1.4-1.3,2.4-1.8s2.1-0.7,3.4-0.7
				s2.5,0.3,3.5,0.7c1,0.5,1.8,1.1,2.4,1.8c0.6,0.7,1.1,1.6,1.4,2.5c0.3,0.9,0.5,1.8,0.5,2.7c0,0.9-0.2,1.8-0.5,2.7
				c-0.3,0.9-0.8,1.7-1.4,2.5c-0.6,0.7-1.4,1.3-2.4,1.8s-2.1,0.7-3.4,0.7c-1.3,0-2.5-0.2-3.4-0.7c-1-0.5-1.8-1.1-2.4-1.8
				c-0.6-0.7-1.1-1.6-1.4-2.5C-310,403.5-310.2,402.6-310.2,401.7z M-305.9,401.7c0,0.5,0.1,1,0.3,1.5c0.2,0.5,0.4,0.8,0.8,1.2
				c0.3,0.3,0.7,0.6,1.1,0.8c0.4,0.2,0.9,0.3,1.3,0.3s0.9-0.1,1.3-0.3c0.4-0.2,0.8-0.4,1.1-0.8c0.3-0.3,0.6-0.7,0.8-1.2
				c0.2-0.5,0.3-0.9,0.3-1.5c0-0.5-0.1-1-0.3-1.5c-0.2-0.5-0.4-0.8-0.8-1.2c-0.3-0.3-0.7-0.6-1.1-0.8c-0.4-0.2-0.9-0.2-1.3-0.2
				s-0.9,0.1-1.3,0.3c-0.4,0.2-0.8,0.4-1.1,0.8c-0.3,0.3-0.6,0.7-0.8,1.2C-305.8,400.7-305.9,401.2-305.9,401.7z"/>
			<path class="st0" d="M-275.6,408.9v-19.2h2.7v6.8h0.1c0.6-0.8,1.3-1.4,2.2-1.8c0.9-0.4,1.8-0.6,2.8-0.6s1.9,0.2,2.8,0.6
				c0.9,0.4,1.7,0.9,2.4,1.6c0.7,0.7,1.2,1.5,1.7,2.4c0.4,0.9,0.6,1.9,0.6,3.1c0,1-0.2,2-0.6,2.9c-0.4,0.9-0.9,1.7-1.6,2.4
				c-0.7,0.7-1.4,1.2-2.3,1.6c-0.9,0.4-1.9,0.6-2.9,0.6c-0.3,0-0.7,0-1.1-0.1c-0.4-0.1-0.9-0.2-1.3-0.4c-0.5-0.2-0.9-0.4-1.4-0.7
				c-0.5-0.3-0.9-0.7-1.2-1.2h-0.1v2.1h-2.8V408.9z M-272.9,401.7c0,0.8,0.1,1.5,0.4,2.2c0.3,0.6,0.7,1.2,1.1,1.6
				c0.5,0.4,1,0.8,1.6,1c0.6,0.2,1.2,0.4,1.8,0.4s1.3-0.1,1.9-0.4c0.6-0.3,1.1-0.6,1.6-1.1s0.8-1,1.1-1.6c0.3-0.6,0.4-1.3,0.4-2
				c0-0.7-0.1-1.3-0.4-1.9c-0.2-0.6-0.6-1.2-1-1.6c-0.4-0.5-1-0.9-1.6-1.1c-0.6-0.3-1.3-0.4-2-0.4s-1.4,0.1-2,0.4
				c-0.6,0.3-1.1,0.7-1.5,1.1c-0.4,0.5-0.8,1-1,1.6C-272.8,400.4-272.9,401-272.9,401.7z"/>
			<path class="st0" d="M-255.7,402.9c0.2,0.7,0.4,1.3,0.8,1.8s0.7,0.9,1.2,1.2c0.4,0.3,0.9,0.6,1.4,0.7c0.5,0.1,1,0.2,1.4,0.2
				c1,0,1.9-0.2,2.6-0.7c0.7-0.5,1.2-1.1,1.5-1.7h2.7c-0.3,0.9-0.8,1.7-1.4,2.3c-0.6,0.6-1.1,1.1-1.8,1.5c-0.6,0.4-1.3,0.6-1.9,0.8
				c-0.7,0.2-1.3,0.2-1.8,0.2c-1,0-2-0.2-2.9-0.6c-0.9-0.4-1.7-1-2.3-1.7c-0.7-0.7-1.2-1.5-1.6-2.4s-0.6-1.9-0.6-2.9
				c0-1.1,0.2-2.1,0.6-3c0.4-0.9,0.9-1.7,1.6-2.4c0.7-0.7,1.4-1.2,2.3-1.6c0.9-0.3,1.9-0.5,2.9-0.5s1.9,0.2,2.8,0.6
				c0.9,0.4,1.7,0.9,2.3,1.5c0.7,0.7,1.2,1.4,1.6,2.3c0.4,0.9,0.6,1.9,0.6,2.9c0,0.2,0,0.5,0,0.8c0,0.3,0,0.5-0.1,0.6h-11.9V402.9z
				 M-246.4,400.8c0-0.5-0.2-1-0.4-1.5s-0.6-1-1-1.4s-0.9-0.7-1.5-0.9c-0.6-0.2-1.1-0.4-1.7-0.4c-0.7,0-1.3,0.1-1.8,0.4
				c-0.5,0.2-1,0.6-1.4,0.9c-0.4,0.4-0.7,0.8-1,1.4c-0.2,0.5-0.4,1-0.4,1.5C-255.6,400.8-246.4,400.8-246.4,400.8z"/>
			<path class="st0" d="M-241.2,389.7h4.3v6.1h0.1c0.4-0.7,0.9-1.1,1.5-1.4c0.7-0.3,1.4-0.4,2.2-0.4c0.3,0,0.7,0,1.1,0.1
				c0.4,0.1,0.7,0.2,1.1,0.3c0.3,0.1,0.7,0.3,1,0.5c0.3,0.2,0.6,0.4,0.8,0.7c0.3,0.4,0.6,0.7,0.7,1.1c0.1,0.3,0.3,0.7,0.4,1.1
				s0.2,0.9,0.2,1.4s0,1.1,0,1.7v8.1h-4.3v-7.9c0-0.2,0-0.4,0-0.8c0-0.3-0.1-0.7-0.2-1c-0.1-0.3-0.4-0.6-0.7-0.9
				c-0.3-0.3-0.8-0.4-1.3-0.4c-0.6,0-1.1,0.1-1.4,0.4c-0.3,0.2-0.6,0.5-0.7,0.8c-0.1,0.3-0.2,0.6-0.3,0.9c0,0.3,0,0.6,0,0.7v8h-4.3
				v-19.1H-241.2z"/>
			<path class="st0" d="M-210.8,404.4c-0.3,0.8-0.8,1.5-1.3,2.1s-1.1,1.1-1.7,1.5c-1.2,0.9-2.6,1.3-4.1,1.3c-1,0-2-0.2-2.9-0.6
				c-0.9-0.4-1.7-0.9-2.4-1.6c-0.7-0.7-1.3-1.5-1.7-2.4c-0.4-0.9-0.6-1.9-0.6-3c0-1,0.2-2,0.6-2.9c0.4-0.9,0.9-1.8,1.6-2.5
				c0.7-0.7,1.5-1.3,2.4-1.7c0.9-0.4,1.9-0.6,3-0.6c1.1,0,2.1,0.2,3,0.6c0.9,0.4,1.7,1,2.4,1.7c0.7,0.7,1.2,1.5,1.6,2.5
				c0.4,1,0.6,2,0.6,3.1c0,0.3,0,0.5,0,0.7c0,0.1,0,0.3-0.1,0.5h-10.8c0.1,0.9,0.5,1.5,1.2,2c0.6,0.5,1.4,0.7,2.2,0.7
				c0.7,0,1.2-0.1,1.6-0.4s0.7-0.6,1-1C-215.2,404.4-210.8,404.4-210.8,404.4z M-214.7,400.1c-0.1-0.2-0.1-0.5-0.3-0.7
				c-0.1-0.3-0.3-0.6-0.6-0.8c-0.3-0.3-0.6-0.5-1-0.6c-0.4-0.2-0.9-0.3-1.4-0.3c-0.6,0-1,0.1-1.4,0.3c-0.4,0.2-0.7,0.4-1,0.6
				c-0.3,0.2-0.5,0.5-0.6,0.8s-0.2,0.5-0.3,0.7H-214.7z"/>
			<path class="st0" d="M-208,394.5h4.1v1.5h0.1c0.1-0.2,0.2-0.4,0.4-0.6c0.2-0.2,0.4-0.5,0.6-0.7c0.3-0.2,0.6-0.4,1-0.5
				c0.4-0.1,0.9-0.2,1.6-0.2v4.3c-0.5,0-1,0.1-1.4,0.1c-0.4,0.1-0.8,0.2-1.1,0.4c-0.3,0.2-0.5,0.5-0.7,0.8c-0.2,0.3-0.2,0.8-0.2,1.3
				v7.9h-4.4V394.5z"/>
			<path class="st0" d="M-199.7,401.7c0-0.9,0.2-1.8,0.5-2.7s0.8-1.7,1.4-2.5c0.6-0.8,1.4-1.3,2.4-1.8s2.1-0.7,3.4-0.7
				c1.3,0,2.5,0.2,3.4,0.7c1,0.5,1.8,1.1,2.4,1.8c0.6,0.7,1.1,1.6,1.4,2.5c0.3,0.9,0.5,1.8,0.5,2.7c0,0.9-0.2,1.8-0.5,2.7
				s-0.8,1.7-1.4,2.5c-0.6,0.7-1.4,1.3-2.4,1.8s-2.1,0.7-3.4,0.7c-1.3,0-2.5-0.2-3.4-0.7c-1-0.5-1.8-1.1-2.4-1.8s-1.1-1.6-1.4-2.5
				C-199.5,403.5-199.7,402.6-199.7,401.7z M-195.4,401.7c0,0.5,0.1,1,0.3,1.5s0.4,0.8,0.8,1.2c0.3,0.3,0.7,0.6,1.1,0.8
				c0.4,0.2,0.9,0.3,1.3,0.3c0.5,0,0.9-0.1,1.3-0.3c0.4-0.2,0.8-0.4,1.1-0.8c0.3-0.3,0.6-0.7,0.8-1.2s0.3-0.9,0.3-1.5
				c0-0.5-0.1-1-0.3-1.5s-0.4-0.8-0.8-1.2c-0.3-0.3-0.7-0.6-1.1-0.8c-0.4-0.2-0.9-0.3-1.3-0.3c-0.5,0-0.9,0.1-1.3,0.3
				c-0.4,0.2-0.8,0.4-1.1,0.8c-0.3,0.3-0.6,0.7-0.8,1.2C-195.3,400.7-195.4,401.2-195.4,401.7z"/>
		</g>
	</g>
	<g id="XMLID_30_">
		<path id="XMLID_31_" class="st0" d="M-283.3,401.3v1.1c0,0.2,0,0.5,0,0.9c0,0.3-0.1,0.7-0.2,0.9c-0.1,0.3-0.4,0.5-0.7,0.8
			c-0.3,0.2-0.8,0.3-1.3,0.3c-0.6,0-1-0.1-1.3-0.3c-0.3-0.2-0.5-0.5-0.7-0.8c-0.1-0.3-0.2-0.6-0.2-0.9c0-0.3,0-0.6,0-0.9v-1.1h-4.3
			v1.8c0,0.5,0,0.9,0,1.3s0.1,0.8,0.2,1.1c0.1,0.3,0.2,0.7,0.4,1c0.2,0.3,0.4,0.7,0.7,1c0.3,0.4,0.7,0.7,1.1,1
			c0.4,0.2,0.8,0.4,1.2,0.6c0.4,0.1,0.8,0.2,1.1,0.2c0.3,0,0.6,0.1,0.9,0.1c0.3,0,1.8,0,2.1,0c0.2,0,0.5,0,0.9-0.1
			c0.3,0,0.7-0.1,1.1-0.2c0.4-0.1,0.8-0.3,1.2-0.6c0.4-0.2,0.8-0.6,1.1-1s0.5-0.7,0.7-1c0.2-0.3,0.3-0.6,0.4-1
			c0.1-0.3,0.2-0.7,0.2-1.1s0-0.8,0-1.3v-1.8C-278.7,401.3-283.3,401.3-283.3,401.3z"/>
		<polygon id="XMLID_32_" class="st0" points="-279,398 -279,394.5 -280.9,394.5 -283.3,394.5 -283.3,398 		"/>
		<polygon id="XMLID_33_" class="st0" points="-287.9,398 -287.9,394.5 -290.1,394.5 -292.2,394.5 -292.2,398 		"/>
	</g>
</g>
</svg>
