<?xml version="1.0" encoding="utf-8"?>
<!-- Generator: Adobe Illustrator 25.0.0, SVG Export Plug-In . SVG Version: 6.00 Build 0)  -->
<svg version="1.1" id="Layer_1" xmlns="http://www.w3.org/2000/svg" xmlns:xlink="http://www.w3.org/1999/xlink" x="0px" y="0px"
	 viewBox="0 0 317.43 37.33" style="enable-background:new 0 0 317.43 37.33;" xml:space="preserve">
<style type="text/css">
	.st0{fill:#0957E8;}
	.st1{fill:#FFFFFF;}
	.st2{fill:#7A7A7A;}
</style>
<g>
	<g>
		<path class="st0" d="M18.9,11.95l-7.41,19.73H6.8l2.35-5.68L3.65,11.95h4.72l2.96,8.58h0.05l2.83-8.58H18.9z"/>
		<path class="st0" d="M19.03,19.33c0-0.91,0.16-1.83,0.49-2.76c0.33-0.93,0.82-1.78,1.48-2.53s1.48-1.37,2.48-1.85
			c1-0.48,2.17-0.72,3.52-0.72s2.52,0.24,3.52,0.72c1,0.48,1.82,1.1,2.48,1.85c0.66,0.76,1.15,1.6,1.48,2.53
			c0.33,0.93,0.49,1.85,0.49,2.76s-0.17,1.83-0.49,2.76c-0.33,0.93-0.82,1.78-1.48,2.53c-0.66,0.76-1.48,1.37-2.48,1.85
			s-2.17,0.72-3.52,0.72s-2.52-0.24-3.52-0.72c-1-0.48-1.82-1.1-2.48-1.85s-1.15-1.6-1.48-2.53S19.03,20.24,19.03,19.33z
			 M23.46,19.33c0,0.53,0.09,1.03,0.28,1.49c0.19,0.46,0.44,0.86,0.77,1.19c0.33,0.33,0.71,0.59,1.13,0.77s0.88,0.28,1.36,0.28
			s0.93-0.09,1.36-0.28s0.8-0.44,1.13-0.77c0.33-0.33,0.59-0.72,0.77-1.19c0.19-0.46,0.28-0.96,0.28-1.49s-0.09-1.03-0.28-1.49
			c-0.19-0.46-0.44-0.86-0.77-1.19c-0.33-0.33-0.71-0.59-1.13-0.77c-0.43-0.19-0.88-0.28-1.36-0.28s-0.93,0.09-1.36,0.28
			c-0.43,0.19-0.8,0.44-1.13,0.77c-0.33,0.33-0.59,0.72-0.77,1.19C23.55,18.3,23.46,18.8,23.46,19.33z"/>
		<path class="st0" d="M54.57,26.74V7.01h2.77v7.01h0.05c0.6-0.85,1.35-1.47,2.23-1.87c0.88-0.39,1.83-0.59,2.84-0.59
			c0.98,0,1.93,0.19,2.85,0.57c0.92,0.38,1.74,0.92,2.45,1.61c0.71,0.69,1.28,1.52,1.71,2.47c0.43,0.95,0.64,2,0.64,3.13
			c0,1.07-0.2,2.07-0.59,3.01c-0.39,0.94-0.92,1.76-1.6,2.47c-0.68,0.7-1.48,1.26-2.4,1.67c-0.92,0.41-1.93,0.61-3.01,0.61
			c-0.34,0-0.72-0.04-1.16-0.11c-0.44-0.07-0.88-0.2-1.35-0.39c-0.46-0.19-0.92-0.44-1.39-0.76c-0.46-0.32-0.88-0.74-1.25-1.25
			h-0.05v2.13H54.57z M57.26,19.3c0,0.84,0.15,1.58,0.44,2.23c0.29,0.65,0.68,1.2,1.15,1.65s1.01,0.8,1.61,1.04
			c0.6,0.24,1.22,0.36,1.84,0.36c0.66,0,1.29-0.13,1.91-0.4s1.15-0.64,1.61-1.11c0.46-0.47,0.83-1.03,1.11-1.67s0.41-1.32,0.41-2.05
			c0-0.69-0.12-1.35-0.37-1.99c-0.25-0.63-0.6-1.19-1.05-1.68c-0.45-0.49-0.99-0.88-1.6-1.16s-1.28-0.43-2.01-0.43
			c-0.76,0-1.46,0.15-2.08,0.44c-0.62,0.29-1.15,0.68-1.59,1.17c-0.44,0.49-0.77,1.04-1.01,1.67C57.38,18.01,57.26,18.65,57.26,19.3
			z"/>
		<path class="st0" d="M74.93,20.56c0.18,0.71,0.44,1.32,0.79,1.83s0.75,0.92,1.2,1.25c0.45,0.33,0.93,0.57,1.43,0.72
			c0.5,0.15,0.98,0.23,1.44,0.23c1.03,0,1.91-0.25,2.62-0.76s1.25-1.08,1.59-1.72h2.77c-0.36,0.96-0.82,1.76-1.39,2.4
			c-0.57,0.64-1.18,1.15-1.83,1.53c-0.65,0.38-1.32,0.66-2,0.83c-0.68,0.17-1.31,0.25-1.88,0.25c-1.05,0-2.03-0.21-2.95-0.63
			c-0.92-0.42-1.71-0.98-2.39-1.69c-0.68-0.71-1.21-1.54-1.6-2.48c-0.39-0.94-0.59-1.94-0.59-2.99c0-1.1,0.2-2.13,0.6-3.08
			c0.4-0.95,0.94-1.77,1.63-2.47c0.68-0.69,1.48-1.23,2.4-1.63c0.92-0.39,1.9-0.59,2.95-0.59c1,0,1.95,0.19,2.85,0.57
			s1.71,0.91,2.4,1.59c0.69,0.68,1.24,1.48,1.65,2.4c0.41,0.92,0.61,1.93,0.61,3.01c0,0.25-0.01,0.52-0.03,0.83
			c-0.02,0.3-0.04,0.5-0.05,0.59H74.93z M84.48,18.42c-0.04-0.53-0.18-1.06-0.43-1.59c-0.25-0.52-0.59-0.99-1.01-1.39
			s-0.92-0.72-1.49-0.97s-1.18-0.37-1.84-0.37c-0.68,0-1.29,0.12-1.85,0.37c-0.56,0.25-1.05,0.57-1.48,0.97
			c-0.43,0.4-0.76,0.86-1.01,1.39c-0.25,0.52-0.39,1.05-0.43,1.59H84.48z"/>
		<path class="st0" d="M89.84,7.01h4.42v6.29h0.05c0.37-0.67,0.9-1.15,1.59-1.44c0.68-0.28,1.43-0.43,2.23-0.43
			c0.36,0,0.72,0.03,1.09,0.09c0.37,0.06,0.74,0.16,1.09,0.29c0.35,0.13,0.69,0.3,1.01,0.51c0.32,0.2,0.59,0.45,0.83,0.73
			c0.32,0.37,0.57,0.74,0.75,1.09c0.18,0.36,0.32,0.75,0.41,1.17c0.1,0.43,0.16,0.89,0.19,1.4c0.03,0.51,0.04,1.09,0.04,1.75v8.26
			h-4.43v-8.05c0-0.18-0.01-0.44-0.04-0.79c-0.03-0.35-0.11-0.69-0.25-1.03c-0.14-0.34-0.38-0.64-0.71-0.89
			c-0.33-0.26-0.79-0.39-1.37-0.39c-0.62,0-1.1,0.12-1.44,0.36c-0.34,0.24-0.58,0.52-0.73,0.84c-0.15,0.32-0.24,0.64-0.27,0.97
			c-0.03,0.33-0.04,0.58-0.04,0.76v8.21h-4.42V7.01z"/>
		<path class="st0" d="M120.94,22.1c-0.36,0.84-0.79,1.57-1.31,2.2s-1.08,1.16-1.71,1.59c-1.24,0.89-2.65,1.33-4.21,1.33
			c-1.07,0-2.07-0.2-3.01-0.6c-0.94-0.4-1.77-0.96-2.49-1.67c-0.72-0.71-1.29-1.54-1.71-2.49c-0.42-0.95-0.63-1.98-0.63-3.08
			c0-1.03,0.19-2.03,0.57-2.99c0.38-0.96,0.92-1.8,1.61-2.53c0.69-0.73,1.52-1.31,2.47-1.76c0.95-0.44,1.99-0.67,3.11-0.67
			c1.12,0,2.16,0.21,3.12,0.63s1.79,0.99,2.48,1.72c0.69,0.73,1.23,1.59,1.63,2.57c0.39,0.99,0.59,2.04,0.59,3.16
			c0,0.3-0.01,0.53-0.03,0.68c-0.02,0.15-0.04,0.32-0.08,0.49h-11.09c0.14,0.89,0.54,1.58,1.19,2.07c0.65,0.49,1.41,0.73,2.28,0.73
			c0.68,0,1.22-0.13,1.63-0.4c0.41-0.27,0.76-0.6,1.07-0.99H120.94z M117.03,17.7c-0.05-0.21-0.15-0.47-0.28-0.76
			c-0.13-0.29-0.33-0.57-0.6-0.84c-0.27-0.27-0.6-0.49-1.01-0.67c-0.41-0.18-0.9-0.27-1.47-0.27c-0.57,0-1.06,0.09-1.47,0.27
			c-0.41,0.18-0.75,0.4-1.01,0.67c-0.27,0.27-0.47,0.55-0.6,0.84c-0.13,0.29-0.23,0.55-0.28,0.76H117.03z"/>
		<path class="st0" d="M123.88,11.95h4.16v1.57h0.05c0.09-0.18,0.21-0.39,0.37-0.63c0.16-0.24,0.38-0.47,0.65-0.68
			s0.63-0.4,1.07-0.55c0.44-0.15,0.97-0.23,1.61-0.23v4.45c-0.52,0.02-0.99,0.06-1.41,0.13c-0.43,0.07-0.8,0.2-1.11,0.4
			c-0.31,0.2-0.55,0.47-0.72,0.83c-0.17,0.36-0.25,0.81-0.25,1.36v8.13h-4.42V11.95z"/>
		<path class="st0" d="M132.35,19.33c0-0.91,0.16-1.83,0.49-2.76c0.33-0.93,0.82-1.78,1.48-2.53s1.48-1.37,2.48-1.85
			c1-0.48,2.17-0.72,3.52-0.72s2.52,0.24,3.52,0.72c1,0.48,1.82,1.1,2.48,1.85c0.66,0.76,1.15,1.6,1.48,2.53
			c0.33,0.93,0.49,1.85,0.49,2.76s-0.17,1.83-0.49,2.76c-0.33,0.93-0.82,1.78-1.48,2.53c-0.66,0.76-1.48,1.37-2.48,1.85
			s-2.17,0.72-3.52,0.72s-2.52-0.24-3.52-0.72c-1-0.48-1.82-1.1-2.48-1.85s-1.15-1.6-1.48-2.53S132.35,20.24,132.35,19.33z
			 M136.78,19.33c0,0.53,0.09,1.03,0.28,1.49c0.19,0.46,0.44,0.86,0.77,1.19c0.33,0.33,0.71,0.59,1.13,0.77s0.88,0.28,1.36,0.28
			s0.93-0.09,1.36-0.28s0.8-0.44,1.13-0.77c0.33-0.33,0.59-0.72,0.77-1.19c0.19-0.46,0.28-0.96,0.28-1.49s-0.09-1.03-0.28-1.49
			c-0.19-0.46-0.44-0.86-0.77-1.19c-0.33-0.33-0.71-0.59-1.13-0.77c-0.43-0.19-0.88-0.28-1.36-0.28s-0.93,0.09-1.36,0.28
			c-0.43,0.19-0.8,0.44-1.13,0.77c-0.33,0.33-0.59,0.72-0.77,1.19C136.87,18.3,136.78,18.8,136.78,19.33z"/>
	</g>
	<path class="st0" d="M46.59,11.91v8.18c0,0.25-0.01,0.55-0.04,0.89c-0.03,0.35-0.11,0.67-0.25,0.97c-0.14,0.3-0.38,0.56-0.71,0.77
		c-0.32,0.21-0.77,0.31-1.34,0.32c-0.57,0-1.02-0.11-1.34-0.32c-0.33-0.21-0.56-0.47-0.71-0.77c-0.14-0.3-0.23-0.63-0.25-0.97
		c-0.03-0.35-0.04-0.64-0.04-0.89v-8.18h-2.27h-2.16v8.85c0,0.52,0.01,0.97,0.04,1.37c0.03,0.4,0.09,0.77,0.19,1.12
		c0.1,0.35,0.23,0.68,0.4,1.01c0.17,0.33,0.4,0.68,0.71,1.05c0.32,0.41,0.68,0.74,1.09,0.99c0.41,0.25,0.82,0.44,1.23,0.57
		c0.41,0.13,0.79,0.22,1.15,0.25c0.36,0.04,0.65,0.05,0.88,0.05c0.28,0,1.89,0,2.18,0c0.23,0,0.52-0.02,0.88-0.05
		c0.36-0.04,0.74-0.12,1.15-0.25c0.41-0.13,0.82-0.32,1.23-0.57c0.41-0.25,0.77-0.58,1.09-0.99c0.3-0.37,0.54-0.72,0.71-1.05
		c0.17-0.33,0.3-0.67,0.4-1.01c0.1-0.35,0.16-0.72,0.19-1.12c0.03-0.4,0.04-0.86,0.04-1.37v-8.85h-1.96H46.59z"/>
</g>
<rect x="36.76" y="15.17" transform="matrix(-1 8.011890e-11 -8.011890e-11 -1 88.487 34.1267)" class="st1" width="14.96" height="3.79"/>
<g>
	<path class="st2" d="M158.74,27.04V14.19h-1.37v-2.66h1.37v-0.76c0-1.65,0.64-2.8,1.85-3.61c1.26-0.76,2.07-0.84,3.78-0.84v2.66
		c-1.93,0-2.72,0.7-2.72,1.79v0.76h2.72v2.66h-2.72v12.85H158.74z"/>
	<path class="st2" d="M173.42,27.43c-5.21,0-8.37-4.34-8.37-8.26c0-4.23,3.56-8.06,8.37-8.06c4.7,0,8.37,3.7,8.37,8.12
		C181.79,23.01,178.68,27.43,173.42,27.43z M173.42,13.77c-3.28,0-5.46,2.72-5.46,5.49c0,2.8,2.21,5.52,5.46,5.52
		c3.14,0,5.46-2.6,5.46-5.54C178.88,16.48,176.69,13.77,173.42,13.77z"/>
	<path class="st2" d="M184.76,27.04V11.53h2.72v1.4h0.06c1.23-1.74,3.22-1.79,3.95-1.82v3c-0.45,0-1.4,0.2-2.1,0.56
		c-0.92,0.5-1.71,1.68-1.71,3.89v8.48H184.76z"/>
	<path class="st2" d="M201.47,27.04V6.32h2.91v7.36h0.06c1.26-1.76,3.22-2.58,5.32-2.58c4.12,0,8.04,3.39,8.04,8.18
		c0,4.48-3.44,8.15-7.98,8.15c-1.43,0-3.81-0.5-5.4-2.63h-0.06v2.24H201.47z M209.59,24.77c2.8,0,5.29-2.41,5.29-5.49
		c0-2.91-2.24-5.52-5.29-5.52c-3.19,0-5.29,2.72-5.29,5.46C204.3,22.73,206.99,24.77,209.59,24.77z"/>
	<path class="st2" d="M223.34,11.53v8.4c0,3.83,1.71,4.84,3.86,4.84c2.41,0,4.06-1.54,4.06-4.93v-8.32h2.91v15.51h-2.66v-1.68h-0.06
		c-0.78,1.34-2.6,2.07-4.56,2.07c-1.76,0-3.3-0.56-4.42-1.54c-1.29-1.12-2.04-2.86-2.04-5.96v-8.4H223.34z"/>
	<path class="st2" d="M244.03,15.65c-0.17-1.26-0.92-1.88-1.99-1.88c-1.06,0-1.82,0.67-1.82,1.65c0,1.29,1.12,1.62,2.41,2.02
		c1.2,0.36,4.68,1.34,4.68,5.04c0,2.74-1.9,4.96-5.21,4.96c-1.96,0-5.49-1.23-5.49-5.49h2.91c0.11,1.74,1.01,2.83,2.63,2.83
		c1.32,0,2.24-0.81,2.24-2.13c0-1.37-1.2-1.85-2.72-2.38c-1.68-0.62-4.37-1.37-4.37-4.68c0-2.3,1.93-4.48,4.87-4.48
		c1.76,0,4.68,1.09,4.76,4.54H244.03z"/>
	<path class="st2" d="M252.71,9.74h-2.91V6.32h2.91V9.74z M252.71,27.04h-2.91V11.53h2.91V27.04z"/>
	<path class="st2" d="M267.3,27.04v-8.43c0-1.2,0-4.84-3.86-4.84c-2.44,0-4.09,1.71-4.09,4.82v8.46h-2.91V11.53h2.72v1.65h0.06
		c1.57-2.07,3.92-2.07,4.54-2.07c2.41,0,4.37,1.04,5.49,2.77c0.62,1.01,0.95,2.24,0.98,3.98v9.18H267.3z"/>
	<path class="st2" d="M276.06,20.55c0.73,3,3.14,4.23,5.1,4.23c2.16,0,3.72-1.26,4.42-2.6h2.91c-1.48,4-5.04,5.26-7.45,5.26
		c-4.4,0-7.9-3.78-7.9-8.18c0-4.65,3.58-8.15,7.95-8.15c4.2,0,7.87,3.42,7.9,7.95c0,0.5-0.06,1.29-0.08,1.48H276.06z M286.09,18.31
		c-0.14-2.27-2.21-4.54-5.01-4.54c-2.8,0-4.87,2.27-5.01,4.54H286.09z"/>
	<path class="st2" d="M298.01,15.65c-0.17-1.26-0.92-1.88-1.99-1.88c-1.06,0-1.82,0.67-1.82,1.65c0,1.29,1.12,1.62,2.41,2.02
		c1.2,0.36,4.68,1.34,4.68,5.04c0,2.74-1.9,4.96-5.21,4.96c-1.96,0-5.49-1.23-5.49-5.49h2.91c0.11,1.74,1.01,2.83,2.63,2.83
		c1.32,0,2.24-0.81,2.24-2.13c0-1.37-1.2-1.85-2.72-2.38c-1.68-0.62-4.37-1.37-4.37-4.68c0-2.3,1.93-4.48,4.87-4.48
		c1.76,0,4.68,1.09,4.76,4.54H298.01z"/>
	<path class="st2" d="M309.89,15.65c-0.17-1.26-0.92-1.88-1.99-1.88c-1.06,0-1.82,0.67-1.82,1.65c0,1.29,1.12,1.62,2.41,2.02
		c1.2,0.36,4.68,1.34,4.68,5.04c0,2.74-1.9,4.96-5.21,4.96c-1.96,0-5.49-1.23-5.49-5.49h2.91c0.11,1.74,1.01,2.83,2.63,2.83
		c1.32,0,2.24-0.81,2.24-2.13c0-1.37-1.2-1.85-2.72-2.38c-1.68-0.62-4.37-1.37-4.37-4.68c0-2.3,1.93-4.48,4.87-4.48
		c1.76,0,4.68,1.09,4.76,4.54H309.89z"/>
</g>
</svg>
