<?xml version="1.0" encoding="utf-8"?>
<!-- Generator: Adobe Illustrator 23.0.3, SVG Export Plug-In . SVG Version: 6.00 Build 0)  -->
<svg version="1.1" id="Layer_1" xmlns="http://www.w3.org/2000/svg" xmlns:xlink="http://www.w3.org/1999/xlink" x="0px" y="0px"
	 viewBox="0 0 130.2 22.2" style="enable-background:new 0 0 130.2 22.2;" xml:space="preserve">
<style type="text/css">
	.st0{fill:#0957E8;}
</style>
<g>
	<g>
		<g>
			<path class="st0" d="M13.8,4.5L7.1,22.2H2.9L5,17.1L0,4.4h4.3L7,12.2h0.1l2.6-7.8C9.6,4.5,13.8,4.5,13.8,4.5z"/>
			<path class="st0" d="M13.9,11.1c0-0.8,0.2-1.7,0.5-2.5s0.7-1.6,1.3-2.3c0.6-0.6,1.3-1.2,2.2-1.7C18.8,4.1,19.8,4,21,4
				s2.3,0.3,3.2,0.6c0.9,0.5,1.7,1,2.2,1.7c0.6,0.6,1,1.5,1.3,2.3s0.5,1.7,0.5,2.5s-0.2,1.7-0.5,2.5s-0.7,1.6-1.3,2.3
				c-0.6,0.6-1.3,1.2-2.2,1.7c-0.9,0.5-1.9,0.6-3.1,0.6S18.8,18,18,17.6c-0.9-0.5-1.7-1-2.2-1.7c-0.6-0.6-1-1.5-1.3-2.3
				C14,12.8,13.9,11.9,13.9,11.1z M17.8,11.1c0,0.5,0.1,0.9,0.3,1.4s0.4,0.7,0.7,1.1c0.3,0.3,0.6,0.6,1,0.7s0.8,0.3,1.2,0.3
				c0.4,0,0.8-0.1,1.2-0.3s0.7-0.4,1-0.7c0.3-0.3,0.6-0.6,0.7-1.1s0.3-0.8,0.3-1.4c0-0.5-0.1-0.9-0.3-1.4c-0.2-0.5-0.4-0.7-0.7-1.1
				c-0.3-0.3-0.6-0.6-1-0.7S21.4,7.7,21,7.7S20.2,7.8,19.8,8s-0.7,0.4-1,0.7c-0.3,0.3-0.6,0.6-0.7,1.1
				C17.9,10.2,17.8,10.6,17.8,11.1z"/>
			<path class="st0" d="M45.8,17.8V0.1h2.5v6.3h0.1c0.6-0.7,1.2-1.3,2-1.7c0.8-0.4,1.7-0.6,2.6-0.6s1.8,0.2,2.6,0.6
				c0.8,0.4,1.6,0.8,2.2,1.5c0.6,0.6,1.1,1.4,1.6,2.2c0.4,0.8,0.6,1.8,0.6,2.9c0,0.9-0.2,1.8-0.6,2.7c-0.4,0.8-0.8,1.6-1.5,2.2
				c-0.6,0.6-1.3,1.1-2.1,1.5c-0.8,0.4-1.8,0.6-2.7,0.6c-0.3,0-0.6,0-1-0.1s-0.8-0.2-1.2-0.4c-0.5-0.2-0.8-0.4-1.3-0.6
				s-0.8-0.6-1.1-1.1h-0.1V18L45.8,17.8L45.8,17.8z M48.3,11.1c0,0.7,0.1,1.4,0.4,2s0.6,1.1,1,1.5c0.5,0.4,0.9,0.7,1.5,0.9
				c0.6,0.2,1.1,0.4,1.7,0.4s1.2-0.1,1.8-0.4s1-0.6,1.5-1s0.7-0.9,1-1.5s0.4-1.2,0.4-1.8c0-0.6-0.1-1.2-0.4-1.8
				c-0.2-0.6-0.6-1.1-0.9-1.5c-0.4-0.5-0.9-0.8-1.5-1c-0.6-0.3-1.2-0.4-1.8-0.4c-0.6,0-1.3,0.1-1.8,0.4c-0.6,0.3-1,0.6-1.4,1
				c-0.4,0.5-0.7,0.9-0.9,1.5C48.4,9.9,48.3,10.5,48.3,11.1z"/>
			<path class="st0" d="M64.2,12.2c0.2,0.6,0.4,1.2,0.7,1.7c0.4,0.5,0.6,0.8,1.1,1.1c0.4,0.3,0.8,0.6,1.3,0.6
				c0.5,0.1,0.9,0.2,1.3,0.2c0.9,0,1.8-0.2,2.4-0.6c0.6-0.5,1.1-1,1.4-1.6h2.5c-0.3,0.8-0.7,1.6-1.3,2.1c-0.6,0.6-1,1-1.7,1.4
				c-0.6,0.4-1.2,0.6-1.8,0.7C69.5,18,68.9,18,68.4,18c-0.9,0-1.8-0.2-2.7-0.6c-0.8-0.4-1.6-0.9-2.1-1.6c-0.6-0.6-1.1-1.4-1.5-2.2
				c-0.4-0.8-0.6-1.8-0.6-2.7c0-1,0.2-1.9,0.6-2.8s0.8-1.6,1.5-2.2c0.6-0.6,1.3-1.1,2.1-1.5c0.8-0.3,1.8-0.5,2.7-0.5
				c0.9,0,1.8,0.2,2.6,0.6s1.6,0.8,2.1,1.4c0.6,0.6,1.1,1.3,1.5,2.1c0.4,0.8,0.6,1.8,0.6,2.7c0,0.2,0,0.5,0,0.7c0,0.3,0,0.5-0.1,0.6
				L64.2,12.2L64.2,12.2z M72.8,10.3c0-0.5-0.2-0.9-0.4-1.4S71.8,8,71.5,7.6S70.7,7,70.1,6.8s-1-0.4-1.6-0.4s-1.2,0.1-1.7,0.4
				c-0.5,0.2-0.9,0.6-1.3,0.8c-0.4,0.4-0.6,0.7-0.9,1.3c-0.2,0.5-0.4,0.9-0.4,1.4C64.3,10.3,72.8,10.3,72.8,10.3z"/>
			<path class="st0" d="M77.6,0h4v5.6h0.1c0.4-0.6,0.8-1,1.4-1.3c0.6-0.3,1.3-0.4,2-0.4c0.3,0,0.6,0,1,0.1s0.6,0.2,1,0.3
				c0.3,0.1,0.6,0.3,0.9,0.5c0.3,0.2,0.6,0.4,0.7,0.6c0.3,0.4,0.6,0.6,0.6,1c0.1,0.3,0.3,0.6,0.4,1s0.2,0.8,0.2,1.3s0,1,0,1.6v7.5
				h-4v-7.3c0-0.2,0-0.4,0-0.7c0-0.3-0.1-0.6-0.2-0.9s-0.4-0.6-0.6-0.8c-0.3-0.3-0.7-0.4-1.2-0.4c-0.6,0-1,0.1-1.3,0.4
				C82.3,8.3,82,8.6,82,8.8c-0.1,0.3-0.2,0.6-0.3,0.8c0,0.3,0,0.6,0,0.6v7.4h-4L77.6,0L77.6,0L77.6,0z"/>
			<path class="st0" d="M105.7,13.6c-0.3,0.7-0.7,1.4-1.2,1.9c-0.5,0.6-1,1-1.6,1.4c-1.1,0.8-2.4,1.2-3.8,1.2
				c-0.9,0-1.8-0.2-2.7-0.6c-0.8-0.4-1.6-0.8-2.2-1.5c-0.6-0.6-1.2-1.4-1.6-2.2C92.2,13,92,12,92,11c0-0.9,0.2-1.8,0.6-2.7
				s0.8-1.7,1.5-2.3s1.4-1.2,2.2-1.6s1.8-0.6,2.8-0.6s1.9,0.2,2.8,0.6c0.8,0.4,1.6,0.9,2.2,1.6c0.6,0.6,1.1,1.4,1.5,2.3
				s0.6,1.8,0.6,2.9c0,0.3,0,0.5,0,0.6s0,0.3-0.1,0.5h-10c0.1,0.8,0.5,1.4,1.1,1.8c0.6,0.5,1.3,0.6,2,0.6c0.6,0,1.1-0.1,1.5-0.4
				s0.6-0.6,0.9-0.9C101.6,13.6,105.7,13.6,105.7,13.6z M102.1,9.6C102,9.4,102,9.1,101.8,9c-0.1-0.3-0.3-0.6-0.6-0.7
				c-0.3-0.3-0.6-0.5-0.9-0.6c-0.4-0.2-0.8-0.3-1.3-0.3c-0.6,0-0.9,0.1-1.3,0.3s-0.6,0.4-0.9,0.6c-0.3,0.2-0.5,0.5-0.6,0.7
				S96,9.5,95.9,9.6H102.1z"/>
			<path class="st0" d="M108.3,4.5h3.8v1.4h0.1c0.1-0.2,0.2-0.4,0.4-0.6s0.4-0.5,0.6-0.6c0.3-0.2,0.6-0.4,0.9-0.5
				c0.4-0.1,0.8-0.2,1.5-0.2v4c-0.5,0-0.9,0.1-1.3,0.1c-0.4,0.1-0.7,0.2-1,0.4c-0.3,0.2-0.5,0.5-0.6,0.7c-0.2,0.3-0.2,0.7-0.2,1.2
				v7.3h-4.1L108.3,4.5L108.3,4.5z"/>
			<path class="st0" d="M116,11.1c0-0.8,0.2-1.7,0.5-2.5s0.7-1.6,1.3-2.3s1.3-1.2,2.2-1.7s1.9-0.6,3.1-0.6s2.3,0.2,3.1,0.6
				c0.9,0.5,1.7,1,2.2,1.7c0.6,0.6,1,1.5,1.3,2.3s0.5,1.7,0.5,2.5s-0.2,1.7-0.5,2.5s-0.7,1.6-1.3,2.3c-0.6,0.6-1.3,1.2-2.2,1.7
				s-1.9,0.6-3.1,0.6c-1.2,0-2.3-0.2-3.1-0.6c-0.9-0.5-1.7-1-2.2-1.7c-0.6-0.6-1-1.5-1.3-2.3C116.2,12.8,116,11.9,116,11.1z
				 M119.9,11.1c0,0.5,0.1,0.9,0.3,1.4s0.4,0.7,0.7,1.1c0.3,0.3,0.6,0.6,1,0.7c0.4,0.2,0.8,0.3,1.2,0.3c0.5,0,0.8-0.1,1.2-0.3
				s0.7-0.4,1-0.7c0.3-0.3,0.6-0.6,0.7-1.1s0.3-0.8,0.3-1.4c0-0.5-0.1-0.9-0.3-1.4s-0.4-0.7-0.7-1.1c-0.3-0.3-0.6-0.6-1-0.7
				s-0.8-0.3-1.2-0.3c-0.5,0-0.8,0.1-1.2,0.3s-0.7,0.4-1,0.7c-0.3,0.3-0.6,0.6-0.7,1.1C120,10.2,119.9,10.6,119.9,11.1z"/>
		</g>
	</g>
	<g id="XMLID_30_">
		<path id="XMLID_31_" class="st0" d="M38.7,10.7v1c0,0.2,0,0.5,0,0.8s-0.1,0.6-0.2,0.8c-0.1,0.3-0.4,0.5-0.6,0.7
			c-0.3,0.2-0.7,0.3-1.2,0.3c-0.6,0-0.9-0.1-1.2-0.3c-0.3-0.2-0.5-0.5-0.6-0.7c-0.1-0.3-0.2-0.6-0.2-0.8s0-0.6,0-0.8v-1h-4v1.7
			c0,0.5,0,0.8,0,1.2c0,0.4,0.1,0.7,0.2,1s0.2,0.6,0.4,0.9s0.4,0.6,0.6,0.9c0.3,0.4,0.6,0.6,1,0.9c0.4,0.2,0.7,0.4,1.1,0.6
			c0.4,0.1,0.7,0.2,1,0.2s0.6,0.1,0.8,0.1s1.7,0,1.9,0c0.2,0,0.5,0,0.8-0.1c0.3,0,0.6-0.1,1-0.2s0.7-0.3,1.1-0.6
			c0.4-0.2,0.7-0.6,1-0.9c0.3-0.4,0.5-0.6,0.6-0.9s0.3-0.6,0.4-0.9s0.2-0.6,0.2-1s0-0.7,0-1.2v-1.7C43,10.7,38.7,10.7,38.7,10.7z"/>
		<polygon id="XMLID_32_" class="st0" points="42.7,7.7 42.7,4.5 40.9,4.5 38.7,4.5 38.7,7.7 		"/>
		<polygon id="XMLID_33_" class="st0" points="34.5,7.7 34.5,4.5 32.4,4.5 30.5,4.5 30.5,7.7 		"/>
	</g>
</g>
</svg>
