<svg width="807" height="434" viewBox="0 0 807 434" fill="none" xmlns="http://www.w3.org/2000/svg">
<g clip-path="url(#clip0)">
<rect width="807" height="434" fill="white"/>
<path d="M259.742 40.6356C260.916 42.3003 261.741 44.1853 262.167 46.1771C262.593 48.1689 262.612 50.2263 262.222 52.2256C261.414 56.2248 259.704 59.9868 257.222 63.2256C252.612 69.5956 244.882 74.2856 237.652 77.3856C234.742 69.1556 238.332 59.6856 240.462 55.0056C243.812 47.5956 254.382 36.2356 259.732 40.6356" fill="#F5F5F5"/>
<path d="M238.002 92.3656C238.708 90.2009 239.973 88.2611 241.669 86.7422C243.366 85.2233 245.433 84.1792 247.662 83.7156C249.904 83.2876 252.208 83.3113 254.44 83.7852C256.673 84.2591 258.788 85.1738 260.662 86.4756C262.402 87.6456 264.072 89.2856 264.272 91.3756C264.307 92.3594 264.078 93.3347 263.608 94.1999C263.139 95.0652 262.446 95.7888 261.602 96.2956C259.9 97.2902 257.964 97.8148 255.992 97.8156C249.272 98.1356 242.712 97.2156 238.042 92.3656" fill="#F5F5F5"/>
<path d="M222.362 104.296C223.316 102.851 224.418 101.51 225.652 100.296C226.945 98.9053 228.399 97.6734 229.982 96.6256C231.876 95.299 233.853 94.0965 235.902 93.0256C239.674 91.066 243.872 90.0697 248.122 90.1256C249.401 90.1685 250.671 90.3461 251.912 90.6556C252.378 90.7377 252.825 90.9038 253.232 91.1456C253.232 91.2956 251.282 90.7156 248.112 90.7456C243.999 90.8697 239.964 91.9082 236.302 93.7856C234.288 94.8385 232.335 96.0037 230.452 97.2756C228.885 98.2625 227.427 99.4122 226.102 100.706C224.936 101.984 223.687 103.183 222.362 104.296V104.296Z" fill="#E0E0E0"/>
<path d="M252.462 49.9956C252.181 50.8286 251.826 51.6351 251.402 52.4056C250.672 53.9256 249.592 56.1156 248.222 58.8156C245.492 64.2056 241.632 71.6056 237.172 79.6756C232.712 87.7456 228.452 94.9456 225.302 100.066C223.712 102.636 222.402 104.696 221.462 106.066C221.021 106.824 220.513 107.54 219.942 108.206C220.287 107.4 220.698 106.624 221.172 105.886L224.772 99.7056C227.772 94.4856 231.962 87.2556 236.432 79.1956C240.902 71.1356 244.742 63.9056 247.702 58.4656L251.132 52.1856C251.51 51.4178 251.955 50.685 252.462 49.9956V49.9956Z" fill="#E0E0E0"/>
<path d="M227.882 90.1156C228.877 85.4201 228.738 80.5551 227.477 75.924C226.216 71.2928 223.87 67.0289 220.632 63.4856C218.982 61.7056 216.562 60.0156 214.282 60.8756C212.002 61.7356 211.282 64.6156 211.282 67.0556C211.352 72.1504 212.928 77.1105 215.813 81.3105C218.698 85.5104 222.762 88.7622 227.492 90.6556" fill="#F5F5F5"/>
<path d="M219.532 70.5356C219.532 70.5356 219.902 70.8756 220.442 71.5356C220.982 72.1956 221.722 73.2956 222.592 74.6256C224.887 78.1148 226.52 81.9959 227.412 86.0756C227.848 88.3504 227.909 90.6812 227.592 92.9756C227.121 96.0979 225.941 99.0706 224.142 101.666C223.632 102.396 223.332 102.776 223.282 102.746C223.232 102.716 224.282 101.026 225.422 98.1356C226.09 96.4415 226.547 94.6715 226.782 92.8656C227.046 90.6569 226.968 88.4208 226.552 86.2356C225.658 82.2582 224.139 78.4476 222.052 74.9456C221.128 73.5252 220.287 72.0528 219.532 70.5356Z" fill="#E0E0E0"/>
<path d="M24.7021 145.126C24.3795 147.353 23.8744 149.551 23.1921 151.696C22.6979 153.886 22.0291 156.032 21.1921 158.116C21.5082 155.888 22.01 153.69 22.6921 151.546C23.1887 149.355 23.8609 147.208 24.7021 145.126V145.126Z" fill="#E0E0E0"/>
<path d="M123.623 195.162C122.023 195.162 120.413 195.162 118.793 195.002C104.47 194.055 90.7492 188.883 79.3657 180.138C67.9823 171.394 59.4473 159.471 54.8401 145.876C50.2329 132.281 49.7603 117.625 53.4821 103.762C57.2038 89.8982 64.9528 77.4496 75.7492 67.99C86.5456 58.5304 99.9045 52.4846 114.137 50.617C128.369 48.7494 142.836 51.1439 155.707 57.4978C168.579 63.8517 179.277 73.8795 186.45 86.3134C193.622 98.7473 196.947 113.029 196.003 127.352L185.523 126.662L196.003 127.352C194.767 145.719 186.609 162.933 173.175 175.519C159.74 188.105 142.032 195.125 123.623 195.162V195.162ZM123.503 70.992C110.141 71.0416 97.32 76.2734 87.7382 85.5861C78.1563 94.8987 72.5614 107.566 72.1312 120.921C71.701 134.275 76.4691 147.276 85.4317 157.186C94.3942 167.096 106.852 173.143 120.183 174.052C121.323 174.122 122.473 174.162 123.613 174.162C136.695 174.138 149.281 169.15 158.827 160.205C168.373 151.26 174.169 139.025 175.043 125.972C175.49 119.213 174.601 112.432 172.427 106.016C170.253 99.6006 166.836 93.676 162.373 88.5808C157.909 83.4856 152.485 79.3195 146.411 76.3205C140.337 73.3215 133.732 71.5482 126.973 71.102C125.813 71.022 124.653 70.992 123.503 70.992V70.992Z" fill="#EBEBEB"/>
<path d="M2.4583 309.031C2.4583 309.031 -4.9017 313.031 5.8483 328.391C16.5983 343.751 23.5683 351.101 23.5683 351.101C23.5683 351.101 25.5683 354.731 22.4583 355.781C19.3483 356.831 12.0283 356.681 11.1383 360.841C10.2483 365.001 13.7383 368.601 20.2583 371.151C26.7783 373.701 40.8383 379.821 42.1083 380.381C43.3783 380.941 44.7583 382.551 42.7183 383.611C40.6783 384.671 24.9183 388.611 27.2183 395.941C29.5183 403.271 48.8383 407.441 50.9383 407.941C53.0383 408.441 53.6383 409.211 53.6283 410.331C53.6183 411.451 48.1883 412.261 43.7483 413.561C39.3083 414.861 34.3883 417.131 36.0683 421.271C37.7483 425.411 49.8983 432.921 76.7083 431.821L89.0883 430.501L94.3483 419.151C104.108 394.151 100.978 380.231 97.6083 377.291C94.2383 374.351 90.4783 378.291 87.8083 382.041C85.1383 385.791 82.6083 390.681 81.5483 390.331C80.4883 389.981 79.9383 389.161 80.1583 387.011C80.3783 384.861 82.7683 365.251 76.5483 360.681C70.3283 356.111 61.4983 369.741 59.8383 371.321C58.1783 372.901 57.0983 371.041 56.9883 369.681C56.8783 368.321 55.6883 353.031 55.3883 346.031C55.0883 339.031 52.9883 334.591 48.6083 334.031C44.3883 333.521 42.1583 340.441 40.1383 343.081C38.1183 345.721 35.3583 342.611 35.3583 342.611C35.3583 342.611 30.6583 333.611 19.6383 318.441C8.6183 303.271 2.3183 309.101 2.3183 309.101" fill="#EBEBEB"/>
<path d="M89.8721 433.336C81.8721 422.166 67.8721 402.076 55.7621 384.896C43.6521 367.716 32.7621 352.176 24.7621 340.966L15.2821 327.706C14.1721 326.146 13.2821 324.936 12.7121 324.096L12.0421 323.156L11.8321 322.826L12.0821 323.126L12.7721 324.046L15.4021 327.616C17.6921 330.716 20.9621 335.226 24.9821 340.806C33.0421 351.976 43.9821 367.496 56.1121 384.676C68.2421 401.856 82.1121 421.966 90.1121 433.176" fill="#E0E0E0"/>
<path d="M21.0521 361.486C21.3558 361.491 21.6578 361.531 21.9521 361.606C22.5221 361.706 23.3421 361.866 24.3521 362.086C26.3521 362.526 29.1521 363.196 32.2021 363.996L40.0121 366.066L42.3821 366.686C42.6788 366.735 42.9679 366.822 43.2421 366.946C42.9424 366.933 42.6444 366.893 42.3521 366.826C41.7821 366.726 40.9621 366.566 39.9521 366.336C37.9521 365.876 35.1621 365.166 32.1121 364.336L24.2921 362.336L21.9121 361.726C21.6181 361.675 21.33 361.594 21.0521 361.486V361.486Z" fill="#E0E0E0"/>
<path d="M43.9821 366.066C43.8721 366.066 44.9821 360.256 46.5221 353.136C48.0621 346.016 49.3421 340.266 49.4521 340.286C49.5621 340.306 48.4521 346.096 46.9021 353.216C45.3521 360.336 44.0821 366.066 43.9821 366.066Z" fill="#E0E0E0"/>
<path d="M61.3521 393.266C61.4518 392.976 61.5826 392.697 61.7421 392.436L62.9221 390.236C63.9221 388.376 65.2821 385.796 66.6821 382.906C68.0821 380.016 69.2721 377.346 70.1121 375.406L71.1121 373.116C71.2146 372.826 71.3523 372.551 71.5221 372.296C71.4568 372.596 71.3664 372.89 71.2521 373.176C71.0521 373.736 70.7521 374.536 70.3621 375.516C69.5921 377.516 68.4421 380.166 67.0321 383.076C65.6221 385.986 64.2221 388.536 63.1621 390.366C62.6321 391.286 62.1621 392.016 61.8721 392.516C61.7307 392.786 61.556 393.038 61.3521 393.266V393.266Z" fill="#E0E0E0"/>
<path d="M39.7121 393.706C39.9867 393.637 40.269 393.603 40.5521 393.606L42.8621 393.466C44.8621 393.366 47.5021 393.256 50.4721 393.156C53.4421 393.056 56.1421 392.996 58.1021 392.966H60.4121C60.6964 392.95 60.9816 392.966 61.2621 393.016C60.984 393.084 60.6985 393.117 60.4121 393.116L58.1021 393.256C56.1621 393.356 53.4621 393.466 50.4921 393.566C47.5221 393.666 44.8221 393.726 42.8721 393.756H40.5621C40.2778 393.773 39.9924 393.756 39.7121 393.706V393.706Z" fill="#E0E0E0"/>
<path d="M51.9921 419.686C52.347 419.609 52.709 419.568 53.0721 419.566L56.0721 419.376C58.5621 419.236 62.0121 419.066 65.8221 418.906C69.6321 418.746 73.0921 418.616 75.5921 418.546L78.5921 418.486C78.9544 418.447 79.3198 418.447 79.6821 418.486C79.3261 418.555 78.9648 418.595 78.6021 418.606L75.6021 418.796C73.1021 418.936 69.6521 419.106 65.8421 419.266C62.0321 419.426 58.5821 419.546 56.0821 419.626L53.0821 419.686C52.7198 419.724 52.3544 419.724 51.9921 419.686V419.686Z" fill="#E0E0E0"/>
<path d="M78.9321 418.356C79.0637 417.988 79.2207 417.631 79.4021 417.286L80.8021 414.446C81.9821 412.036 83.5921 408.716 85.2721 404.986C86.9521 401.256 88.3921 397.856 89.4121 395.386L90.6221 392.456C90.7511 392.087 90.9152 391.732 91.1121 391.396C91.0249 391.774 90.9078 392.145 90.7621 392.506C90.5221 393.216 90.1421 394.236 89.6621 395.506C88.6621 398.006 87.3121 401.436 85.6621 405.166C84.0121 408.896 82.3321 412.216 81.0921 414.586C80.4621 415.776 79.9521 416.726 79.5821 417.376C79.3933 417.72 79.1759 418.048 78.9321 418.356V418.356Z" fill="#E0E0E0"/>
<path d="M516.952 123.666C530.592 111.776 531.872 92.2956 529.432 75.1656C529.032 72.3056 529.022 69.2456 527.432 66.8756C525.842 64.5056 522.432 63.1356 519.992 64.6156C517.992 65.8456 517.302 68.4256 516.332 70.6156C515.047 73.5176 512.967 75.9965 510.332 77.7656C508.612 78.9156 506.412 79.7656 504.502 78.9356C501.882 77.8356 501.222 74.4556 500.932 71.5956L499.312 55.5956C499.173 52.7248 498.572 49.8952 497.532 47.2156C496.352 44.6056 494.122 42.2956 491.322 41.8256C488.522 41.3556 485.322 43.2856 485.072 46.1456C485.088 47.3379 485.188 48.5276 485.372 49.7056C485.454 50.293 485.36 50.8915 485.102 51.4254C484.844 51.9594 484.433 52.4049 483.922 52.7056C482.812 53.1656 481.582 52.4856 480.642 51.7056C477.382 49.1456 474.992 45.6456 472.722 42.1556C470.452 38.6656 468.232 35.0856 465.222 32.2256C462.212 29.3656 458.222 27.2856 454.132 27.4956C450.042 27.7056 445.942 30.6956 445.342 34.8156C444.742 38.9356 447.522 42.8156 450.432 45.8156C454.711 50.2432 459.604 54.032 464.962 57.0656C465.996 57.5006 466.865 58.2537 467.442 59.2156C468.272 61.0456 466.672 63.1256 464.852 63.9556C462.852 64.8956 460.472 64.9556 458.282 65.4256C456.092 65.8956 453.772 67.1656 453.162 69.3656C452.302 72.3656 455.072 75.1956 457.692 76.9456C462.932 80.437 468.733 83.0011 474.842 84.5256C477.032 85.0656 479.312 85.5256 481.162 86.7956C483.012 88.0656 484.312 90.5456 483.502 92.6656C482.692 94.7856 480.142 95.7156 477.902 95.5456C475.662 95.3756 473.562 94.3856 471.382 93.8256C467.302 92.7656 462.262 93.5856 460.112 97.2456C459.472 98.4948 459.13 99.8753 459.112 101.279C459.095 102.682 459.403 104.071 460.012 105.336C461.25 107.849 462.981 110.086 465.102 111.916C472.122 118.702 480.819 123.502 490.302 125.826C499.732 128.006 508.302 127.946 516.942 123.666" fill="#F5F5F5"/>
<path d="M511.352 113.376C507.492 104.317 503.111 95.4889 498.232 86.9356L494.442 80.1756C493.192 77.9656 491.952 75.7756 490.602 73.6956C488.012 69.7235 485.205 65.8977 482.192 62.2356C479.342 58.7156 476.502 55.4856 473.832 52.4756C471.162 49.4656 468.602 46.7356 466.162 44.3256C462.344 40.507 458.228 36.9992 453.852 33.8356C452.312 32.7156 451.082 31.8356 450.242 31.3356L449.292 30.7156C449.185 30.6388 449.071 30.5719 448.952 30.5156C449.045 30.6079 449.149 30.6885 449.262 30.7556L450.182 31.4256C451.002 32.0056 452.182 32.8556 453.732 34.0056C458.049 37.2243 462.118 40.7644 465.902 44.5956C468.312 47.0056 470.842 49.7656 473.502 52.7756C476.162 55.7856 478.982 59.0256 481.812 62.5456C484.809 66.201 487.6 70.0203 490.172 73.9856C491.502 76.0456 492.732 78.2256 493.982 80.4456L497.772 87.1956C502.637 95.7304 507.021 104.531 510.902 113.556" fill="#E0E0E0"/>
<path d="M490.452 73.6956C490.551 73.2863 490.602 72.8667 490.602 72.4456C490.662 71.6456 490.722 70.4456 490.772 69.0356C490.862 66.1456 490.862 62.1556 490.842 57.7656C490.822 53.3756 490.842 49.3856 491.022 46.5056C491.092 45.0756 491.152 43.9056 491.212 43.1056C491.262 42.6871 491.262 42.2641 491.212 41.8456C491.107 42.2454 491.037 42.6536 491.002 43.0656C490.882 43.8656 490.762 45.0656 490.652 46.4656C490.412 49.3456 490.302 53.3356 490.322 57.7456C490.342 62.1556 490.372 66.0056 490.392 69.0056V72.4156C490.366 72.8432 490.387 73.2723 490.452 73.6956V73.6956Z" fill="#E0E0E0"/>
<path d="M453.022 70.7956C453.515 70.8388 454.01 70.8388 454.502 70.7956C455.452 70.7956 456.832 70.7956 458.502 70.7956C461.902 70.7956 466.592 70.9556 471.772 71.3656C476.952 71.7756 481.612 72.3656 484.972 72.8756C486.652 73.1256 487.972 73.3656 488.972 73.5156C489.455 73.6289 489.947 73.6959 490.442 73.7156C489.981 73.5326 489.501 73.3985 489.012 73.3156C488.082 73.0956 486.732 72.8056 485.012 72.5056C481.652 71.8956 477.012 71.2556 471.792 70.8356C467.362 70.4667 462.916 70.3265 458.472 70.4156C456.772 70.4156 455.392 70.5356 454.472 70.6256C453.984 70.6308 453.498 70.6878 453.022 70.7956V70.7956Z" fill="#E0E0E0"/>
<path d="M510.832 112.746C510.912 112.591 510.979 112.431 511.032 112.266L511.512 110.876C511.932 109.666 512.512 107.876 513.142 105.696C514.462 101.296 516.092 95.1756 517.792 88.3856C519.492 81.5956 521.072 75.4656 522.302 71.0656C522.902 68.9156 523.402 67.1456 523.772 65.8356C523.922 65.2656 524.052 64.8356 524.162 64.4156C524.218 64.2507 524.251 64.0792 524.262 63.9056C524.17 64.0504 524.103 64.2091 524.062 64.3756C523.932 64.7556 523.772 65.2156 523.572 65.7756C523.162 66.9856 522.572 68.7756 521.942 70.9556C520.632 75.3456 519.002 81.4756 517.292 88.2656C515.582 95.0556 514.022 101.186 512.792 105.596L511.302 110.816C511.142 111.386 511.012 111.816 510.912 112.236C510.862 112.401 510.836 112.573 510.832 112.746V112.746Z" fill="#E0E0E0"/>
<path d="M460.382 102.286C460.54 102.361 460.709 102.411 460.882 102.436L462.352 102.756L467.752 103.886C472.322 104.886 478.602 106.226 485.552 107.776C492.502 109.326 498.802 110.656 503.382 111.516C505.672 111.946 507.532 112.276 508.822 112.516L510.302 112.746C510.478 112.768 510.656 112.768 510.832 112.746C510.67 112.672 510.498 112.621 510.322 112.596L508.852 112.276L503.452 111.146C498.892 110.146 492.602 108.806 485.662 107.256C478.722 105.706 472.412 104.376 467.822 103.516C465.532 103.086 463.682 102.756 462.392 102.516L460.902 102.286C460.73 102.263 460.555 102.263 460.382 102.286V102.286Z" fill="#E0E0E0"/>
<path d="M553.082 101.096L584.002 433.566H553.082V101.096Z" fill="#E0E0E0"/>
<path d="M553.082 101.096H107.952V433.566H553.082V101.096Z" fill="#FAFAFA"/>
<path d="M553.082 101.096H107.952V182.926H553.082V101.096Z" fill="#6772E5"/>
<path d="M192.75 162H190.75L181.025 148.7V162H178.95V145.325H181.075L190.675 158.35V145.325H192.75V162ZM204.25 162.3C201.8 162.3 199.808 161.483 198.275 159.85C196.742 158.217 195.975 156.158 195.975 153.675C195.975 151.192 196.742 149.133 198.275 147.5C199.808 145.867 201.8 145.05 204.25 145.05C206.683 145.05 208.667 145.867 210.2 147.5C211.75 149.133 212.525 151.192 212.525 153.675C212.525 156.158 211.75 158.217 210.2 159.85C208.667 161.483 206.683 162.3 204.25 162.3ZM204.25 160.45C206.083 160.45 207.558 159.817 208.675 158.55C209.808 157.267 210.375 155.642 210.375 153.675C210.375 151.692 209.808 150.067 208.675 148.8C207.558 147.533 206.083 146.9 204.25 146.9C202.4 146.9 200.917 147.533 199.8 148.8C198.683 150.067 198.125 151.692 198.125 153.675C198.125 155.642 198.683 157.267 199.8 158.55C200.917 159.817 202.4 160.45 204.25 160.45ZM229.566 162H227.566L217.841 148.7V162H215.766V145.325H217.891L227.491 158.35V145.325H229.566V162ZM235.542 162H233.467V145.325H240.167C241.783 145.325 243.058 145.808 243.992 146.775C244.925 147.742 245.392 148.933 245.392 150.35C245.392 151.767 244.917 152.958 243.967 153.925C243.033 154.892 241.767 155.375 240.167 155.375H235.542V162ZM239.917 153.525C240.9 153.525 241.7 153.233 242.317 152.65C242.933 152.05 243.242 151.283 243.242 150.35C243.242 149.417 242.933 148.658 242.317 148.075C241.7 147.475 240.9 147.175 239.917 147.175H235.542V153.525H239.917ZM260.239 162H257.789L253.539 155.375H250.214V162H248.139V145.325H254.839C256.389 145.325 257.648 145.783 258.614 146.7C259.581 147.617 260.064 148.833 260.064 150.35C260.064 151.783 259.648 152.925 258.814 153.775C257.981 154.625 256.956 155.1 255.739 155.2L260.239 162ZM254.589 153.55C255.573 153.55 256.373 153.25 256.989 152.65C257.606 152.05 257.914 151.283 257.914 150.35C257.914 149.417 257.606 148.658 256.989 148.075C256.373 147.475 255.573 147.175 254.589 147.175H250.214V153.55H254.589ZM270.949 162.3C268.499 162.3 266.508 161.483 264.974 159.85C263.441 158.217 262.674 156.158 262.674 153.675C262.674 151.192 263.441 149.133 264.974 147.5C266.508 145.867 268.499 145.05 270.949 145.05C273.383 145.05 275.366 145.867 276.899 147.5C278.449 149.133 279.224 151.192 279.224 153.675C279.224 156.158 278.449 158.217 276.899 159.85C275.366 161.483 273.383 162.3 270.949 162.3ZM270.949 160.45C272.783 160.45 274.258 159.817 275.374 158.55C276.508 157.267 277.074 155.642 277.074 153.675C277.074 151.692 276.508 150.067 275.374 148.8C274.258 147.533 272.783 146.9 270.949 146.9C269.099 146.9 267.616 147.533 266.499 148.8C265.383 150.067 264.824 151.692 264.824 153.675C264.824 155.642 265.383 157.267 266.499 158.55C267.616 159.817 269.099 160.45 270.949 160.45ZM284.541 162H282.466V145.325H293.391V147.175H284.541V152.55H293.216V154.4H284.541V162ZM298.286 162H296.211V145.325H298.286V162ZM308.392 162H306.317V147.175H301.042V145.325H313.692V147.175H308.392V162ZM330.495 162.3C328.045 162.3 326.054 161.483 324.52 159.85C322.987 158.217 322.22 156.158 322.22 153.675C322.22 151.192 322.987 149.133 324.52 147.5C326.054 145.867 328.045 145.05 330.495 145.05C332.929 145.05 334.912 145.867 336.445 147.5C337.995 149.133 338.77 151.192 338.77 153.675C338.77 156.158 337.995 158.217 336.445 159.85C334.912 161.483 332.929 162.3 330.495 162.3ZM330.495 160.45C332.329 160.45 333.804 159.817 334.92 158.55C336.054 157.267 336.62 155.642 336.62 153.675C336.62 151.692 336.054 150.067 334.92 148.8C333.804 147.533 332.329 146.9 330.495 146.9C328.645 146.9 327.162 147.533 326.045 148.8C324.929 150.067 324.37 151.692 324.37 153.675C324.37 155.642 324.929 157.267 326.045 158.55C327.162 159.817 328.645 160.45 330.495 160.45ZM344.086 162H342.011V145.325H352.936V147.175H344.086V152.55H352.761V154.4H344.086V162ZM368.402 162H366.327V147.175H361.052V145.325H373.702V147.175H368.402V162ZM390.36 162H388.285V154.35H378.535V162H376.46V145.325H378.535V152.5H388.285V145.325H390.36V162ZM405.183 162H394.258V145.325H405.183V147.175H396.333V152.55H405.008V154.4H396.333V160.15H405.183V162ZM429.936 162H427.686L424.011 148.55L420.336 162H418.086L413.336 145.325H415.636L419.336 159.225L423.161 145.325H424.886L428.711 159.225L432.386 145.325H434.686L429.936 162ZM447.932 162H437.007V145.325H447.932V147.175H439.082V152.55H447.757V154.4H439.082V160.15H447.932V162ZM462.165 162H451.24V145.325H462.165V147.175H453.315V152.55H461.99V154.4H453.315V160.15H462.165V162ZM478.123 162H475.548L469.223 154.5L467.548 156.4V162H465.473V145.325H467.548V153.95L474.923 145.325H477.523L470.573 153.25L478.123 162Z" fill="white"/>
<path d="M107.952 101.066L553.082 100.826H553.302V101.066C553.302 200.876 553.302 314.066 553.302 433.496V433.796H553.042L107.912 433.746H107.692V433.536C107.822 232.226 107.912 102.826 107.912 101.066C107.912 102.826 107.992 232.226 108.122 433.536L107.912 433.326L553.042 433.276L552.782 433.536C552.782 314.086 552.782 200.916 552.782 101.106L553.022 101.336L107.952 101.066Z" fill="#263238"/>
<path d="M553.492 181.656C553.492 181.806 453.202 181.916 329.492 181.916C205.782 181.916 105.492 181.806 105.492 181.656C105.492 181.506 205.762 181.396 329.492 181.396C453.222 181.396 553.492 181.516 553.492 181.656Z" fill="#263238"/>
<path d="M493.642 286.896H151.672C138.473 286.896 127.772 297.594 127.772 310.791C127.772 323.987 138.473 334.686 151.672 334.686H493.642C506.842 334.686 517.542 323.987 517.542 310.791C517.542 297.594 506.842 286.896 493.642 286.896Z" fill="#6772E5"/>
<path d="M178.942 124.956C183.962 124.956 188.032 120.886 188.032 115.866C188.032 110.845 183.962 106.776 178.942 106.776C173.922 106.776 169.852 110.845 169.852 115.866C169.852 120.886 173.922 124.956 178.942 124.956Z" fill="#263238"/>
<path d="M178.942 125.456C177.045 125.458 175.19 124.897 173.611 123.844C172.033 122.792 170.802 121.295 170.075 119.542C169.348 117.79 169.156 115.862 169.525 114.001C169.894 112.14 170.807 110.43 172.147 109.088C173.488 107.746 175.197 106.831 177.058 106.461C178.918 106.09 180.847 106.279 182.6 107.005C184.353 107.73 185.851 108.959 186.905 110.537C187.959 112.114 188.522 113.968 188.522 115.866C188.519 118.406 187.51 120.843 185.714 122.64C183.918 124.438 181.483 125.45 178.942 125.456V125.456ZM178.942 107.286C177.242 107.284 175.58 107.786 174.166 108.729C172.752 109.672 171.649 111.014 170.998 112.584C170.347 114.154 170.176 115.882 170.507 117.549C170.838 119.216 171.656 120.748 172.858 121.95C174.06 123.152 175.592 123.97 177.259 124.301C178.926 124.632 180.654 124.461 182.224 123.81C183.794 123.158 185.136 122.056 186.079 120.642C187.022 119.228 187.524 117.565 187.522 115.866C187.519 113.591 186.615 111.41 185.006 109.802C183.398 108.193 181.217 107.288 178.942 107.286V107.286Z" fill="#263238"/>
<path d="M253.882 124.956C258.902 124.956 262.972 120.886 262.972 115.866C262.972 110.845 258.902 106.776 253.882 106.776C248.862 106.776 244.792 110.845 244.792 115.866C244.792 120.886 248.862 124.956 253.882 124.956Z" fill="#263238"/>
<path d="M253.882 125.456C251.985 125.456 250.131 124.893 248.554 123.839C246.977 122.786 245.748 121.288 245.022 119.536C244.296 117.783 244.106 115.855 244.476 113.995C244.846 112.134 245.76 110.426 247.101 109.084C248.442 107.743 250.151 106.83 252.011 106.46C253.871 106.09 255.8 106.28 257.552 107.006C259.304 107.731 260.802 108.961 261.856 110.538C262.91 112.115 263.472 113.969 263.472 115.866C263.469 118.408 262.458 120.846 260.66 122.644C258.862 124.442 256.425 125.453 253.882 125.456V125.456ZM253.882 107.286C252.183 107.286 250.522 107.79 249.109 108.734C247.696 109.678 246.595 111.02 245.945 112.591C245.295 114.161 245.126 115.889 245.458 117.555C245.79 119.222 246.609 120.752 247.812 121.953C249.014 123.154 250.545 123.971 252.212 124.302C253.879 124.632 255.607 124.461 257.176 123.809C258.746 123.157 260.087 122.055 261.029 120.641C261.972 119.227 262.474 117.565 262.472 115.866C262.467 113.59 261.56 111.409 259.95 109.801C258.34 108.193 256.158 107.288 253.882 107.286V107.286Z" fill="#263238"/>
<path d="M328.822 124.956C333.842 124.956 337.912 120.886 337.912 115.866C337.912 110.845 333.842 106.776 328.822 106.776C323.802 106.776 319.732 110.845 319.732 115.866C319.732 120.886 323.802 124.956 328.822 124.956Z" fill="#263238"/>
<path d="M328.822 125.456C326.925 125.456 325.071 124.893 323.494 123.839C321.917 122.786 320.688 121.288 319.962 119.536C319.236 117.783 319.046 115.855 319.416 113.995C319.786 112.134 320.7 110.426 322.041 109.084C323.382 107.743 325.091 106.83 326.951 106.46C328.811 106.09 330.74 106.28 332.492 107.006C334.244 107.731 335.742 108.961 336.796 110.538C337.85 112.115 338.412 113.969 338.412 115.866C338.409 118.408 337.398 120.846 335.6 122.644C333.802 124.442 331.365 125.453 328.822 125.456V125.456ZM328.822 107.286C327.123 107.286 325.462 107.79 324.049 108.734C322.636 109.678 321.535 111.02 320.885 112.591C320.235 114.161 320.066 115.889 320.398 117.555C320.73 119.222 321.549 120.752 322.752 121.953C323.954 123.154 325.485 123.971 327.152 124.302C328.819 124.632 330.547 124.461 332.116 123.809C333.686 123.157 335.027 122.055 335.969 120.641C336.912 119.227 337.414 117.565 337.412 115.866C337.409 113.589 336.503 111.407 334.893 109.798C333.282 108.189 331.099 107.286 328.822 107.286V107.286Z" fill="#263238"/>
<path d="M403.772 124.956C408.792 124.956 412.862 120.886 412.862 115.866C412.862 110.845 408.792 106.776 403.772 106.776C398.752 106.776 394.682 110.845 394.682 115.866C394.682 120.886 398.752 124.956 403.772 124.956Z" fill="#263238"/>
<path d="M403.772 125.456C401.875 125.458 400.02 124.897 398.442 123.844C396.863 122.792 395.632 121.295 394.905 119.542C394.178 117.79 393.986 115.862 394.355 114.001C394.724 112.14 395.637 110.43 396.977 109.088C398.318 107.746 400.027 106.831 401.888 106.461C403.748 106.09 405.677 106.279 407.43 107.005C409.183 107.73 410.681 108.959 411.735 110.537C412.789 112.114 413.352 113.968 413.352 115.866C413.349 118.406 412.34 120.843 410.544 122.64C408.748 124.438 406.313 125.45 403.772 125.456V125.456ZM403.772 107.286C402.072 107.284 400.41 107.786 398.996 108.729C397.582 109.672 396.479 111.014 395.828 112.584C395.177 114.154 395.006 115.882 395.337 117.549C395.668 119.216 396.486 120.748 397.688 121.95C398.89 123.152 400.422 123.97 402.089 124.301C403.756 124.632 405.484 124.461 407.054 123.81C408.624 123.158 409.966 122.056 410.909 120.642C411.852 119.228 412.354 117.565 412.352 115.866C412.349 113.591 411.445 111.41 409.836 109.802C408.228 108.193 406.047 107.288 403.772 107.286V107.286Z" fill="#263238"/>
<path d="M478.712 124.956C483.732 124.956 487.802 120.886 487.802 115.866C487.802 110.845 483.732 106.776 478.712 106.776C473.692 106.776 469.622 110.845 469.622 115.866C469.622 120.886 473.692 124.956 478.712 124.956Z" fill="#263238"/>
<path d="M478.712 125.456C476.815 125.456 474.961 124.893 473.384 123.839C471.807 122.786 470.578 121.288 469.852 119.536C469.126 117.783 468.936 115.855 469.306 113.995C469.676 112.134 470.59 110.426 471.931 109.084C473.272 107.743 474.981 106.83 476.841 106.46C478.701 106.09 480.63 106.28 482.382 107.006C484.134 107.731 485.632 108.961 486.686 110.538C487.74 112.115 488.302 113.969 488.302 115.866C488.299 118.408 487.288 120.846 485.49 122.644C483.692 124.442 481.255 125.453 478.712 125.456V125.456ZM478.712 107.286C477.013 107.286 475.352 107.79 473.939 108.734C472.526 109.678 471.425 111.02 470.775 112.591C470.125 114.161 469.956 115.889 470.288 117.555C470.62 119.222 471.439 120.752 472.642 121.953C473.844 123.154 475.375 123.971 477.042 124.302C478.709 124.632 480.437 124.461 482.006 123.809C483.576 123.157 484.917 122.055 485.859 120.641C486.802 119.227 487.304 117.565 487.302 115.866C487.297 113.59 486.39 111.409 484.78 109.801C483.17 108.193 480.988 107.288 478.712 107.286V107.286Z" fill="#263238"/>
<path d="M150.172 199.366V217.446H147.612V201.616H143.532V199.366H150.172Z" fill="#263238"/>
<path d="M213.492 215.196V217.446H200.492V215.696L207.852 208.586C209.772 206.726 210.132 205.586 210.132 204.456C210.132 202.596 208.812 201.456 206.282 201.456C205.409 201.412 204.537 201.57 203.734 201.917C202.932 202.263 202.219 202.79 201.652 203.456L199.902 201.936C200.732 201.017 201.755 200.295 202.898 199.821C204.042 199.347 205.276 199.133 206.512 199.196C210.282 199.196 212.712 201.136 212.712 204.196C212.712 205.956 212.192 207.526 209.712 209.876L204.182 215.196H213.492Z" fill="#263238"/>
<path d="M268.072 212.126C268.072 215.176 265.822 217.656 261.232 217.656C258.829 217.725 256.478 216.946 254.592 215.456L255.772 213.456C257.293 214.749 259.236 215.44 261.232 215.396C263.942 215.396 265.492 214.156 265.492 212.196C265.492 210.236 264.122 209.036 261.022 209.036H259.572V207.236L264.122 201.656H255.412V199.366H267.352V201.126L262.622 206.956C266.242 207.296 268.072 209.336 268.072 212.126Z" fill="#263238"/>
<path d="M328.852 213.006H325.412V217.446H322.912V213.006H312.862V211.196L322.112 199.366H324.902L316.042 210.786H322.992V206.856H325.412V210.786H328.852V213.006Z" fill="#263238"/>
<path d="M381.472 212.066C381.472 215.186 379.252 217.696 374.622 217.696C372.221 217.755 369.873 216.977 367.982 215.496L369.172 213.496C370.683 214.786 372.616 215.476 374.602 215.436C377.332 215.436 378.882 214.166 378.882 212.206C378.882 210.246 377.592 208.896 373.412 208.896H369.302L370.302 199.446H380.502V201.696H372.502L372.002 206.696H374.002C379.352 206.576 381.472 208.816 381.472 212.066Z" fill="#263238"/>
<path d="M438.902 211.946C438.902 215.436 436.082 217.656 432.492 217.656C427.642 217.656 424.902 214.396 424.902 208.656C424.902 202.486 428.392 199.176 433.452 199.176C435.017 199.12 436.568 199.486 437.942 200.236L436.942 202.236C435.896 201.62 434.694 201.321 433.482 201.376C429.812 201.376 427.482 203.676 427.482 208.196C427.468 208.412 427.468 208.629 427.482 208.846C428.081 208.049 428.87 207.414 429.776 206.999C430.682 206.583 431.677 206.4 432.672 206.466C436.302 206.466 438.902 208.616 438.902 211.946ZM436.392 212.046C436.392 209.926 434.792 208.566 432.262 208.566C429.732 208.566 428.102 210.066 428.102 212.066C428.102 214.066 429.602 215.556 432.392 215.556C434.742 215.566 436.392 214.196 436.392 212.066V212.046Z" fill="#263238"/>
<path d="M493.942 199.366V201.126L486.632 217.446H483.892L491.042 201.616H482.782V204.846H480.302V199.366H493.942Z" fill="#263238"/>
<path d="M158.832 260.066C158.832 263.346 156.042 265.386 151.622 265.386C147.202 265.386 144.462 263.386 144.462 260.066C144.446 259.091 144.747 258.137 145.321 257.349C145.895 256.56 146.709 255.98 147.642 255.696C146.874 255.38 146.219 254.838 145.767 254.141C145.315 253.444 145.087 252.626 145.112 251.796C145.112 248.796 147.722 246.896 151.622 246.896C155.522 246.896 158.182 248.776 158.182 251.796C158.204 252.629 157.97 253.449 157.513 254.146C157.055 254.843 156.395 255.384 155.622 255.696C156.56 255.976 157.38 256.554 157.959 257.343C158.538 258.131 158.845 259.087 158.832 260.066ZM156.242 259.986C156.242 257.986 154.492 256.756 151.622 256.756C148.752 256.756 147.052 257.996 147.052 259.986C147.052 261.976 148.752 263.296 151.622 263.296C154.492 263.296 156.242 261.986 156.242 259.946V259.986ZM147.672 251.906C147.672 253.686 149.142 254.796 151.622 254.796C154.102 254.796 155.622 253.686 155.622 251.906C155.622 250.126 154.022 248.986 151.622 248.986C149.222 248.986 147.672 250.066 147.672 251.866V251.906Z" fill="#263238"/>
<path d="M214.242 255.866C214.242 262.036 210.752 265.346 205.682 265.346C204.117 265.406 202.565 265.04 201.192 264.286L202.192 262.286C203.25 262.898 204.461 263.193 205.682 263.136C209.352 263.136 211.682 260.836 211.682 256.316V255.666C211.08 256.467 210.287 257.104 209.375 257.52C208.463 257.936 207.462 258.116 206.462 258.046C202.872 258.046 200.292 255.906 200.292 252.566C200.292 249.226 203.082 246.866 206.672 246.866C211.502 246.856 214.242 250.066 214.242 255.866ZM211.062 252.436C211.062 250.576 209.562 248.946 206.742 248.946C204.392 248.946 202.742 250.316 202.742 252.456C202.742 254.596 204.312 255.946 206.842 255.946C209.372 255.946 211.062 254.416 211.062 252.436Z" fill="#263238"/>
<path d="M261.302 247.066V265.156H258.752V249.306H254.662V247.066H261.302Z" fill="#263238"/>
<path d="M265.302 256.066C265.302 250.176 268.452 246.826 272.682 246.826C276.912 246.826 280.052 250.176 280.052 256.066C280.052 261.956 276.892 265.316 272.682 265.316C268.472 265.316 265.302 261.986 265.302 256.066ZM277.462 256.066C277.462 251.446 275.462 249.116 272.682 249.116C269.902 249.116 267.882 251.446 267.882 256.066C267.882 260.686 269.882 263.066 272.682 263.066C275.482 263.066 277.422 260.726 277.422 256.066H277.462Z" fill="#263238"/>
<path d="M318.722 247.066V265.156H316.172V249.306H312.082V247.066H318.722Z" fill="#263238"/>
<path d="M328.302 247.066V265.156H325.742V249.306H321.662V247.066H328.302Z" fill="#263238"/>
<path d="M374.392 247.066V265.156H371.832V249.306H367.752V247.066H374.392Z" fill="#263238"/>
<path d="M391.052 262.896V265.146H378.052V263.386L385.412 256.276C387.322 254.416 387.682 253.276 387.682 252.146C387.682 250.286 386.372 249.146 383.832 249.146C382.96 249.101 382.089 249.258 381.288 249.605C380.487 249.952 379.776 250.479 379.212 251.146L377.452 249.616C378.284 248.698 379.31 247.977 380.455 247.505C381.6 247.033 382.835 246.821 384.072 246.886C387.842 246.886 390.272 248.816 390.272 251.886C390.272 253.646 389.752 255.226 387.272 257.576L381.742 262.896H391.052Z" fill="#263238"/>
<path d="M430.502 247.066V265.156H427.952V249.306H423.872V247.066H430.502Z" fill="#263238"/>
<path d="M446.832 259.816C446.832 262.866 444.582 265.346 439.992 265.346C437.59 265.418 435.24 264.643 433.352 263.156L434.532 261.156C436.056 262.442 437.998 263.129 439.992 263.086C442.702 263.086 444.252 261.846 444.252 259.886C444.252 257.926 442.882 256.736 439.782 256.736H438.302V254.926L442.852 249.346H434.142V247.066H446.082V248.826L441.352 254.666C445.002 254.986 446.832 257.066 446.832 259.816Z" fill="#263238"/>
<path d="M486.372 247.066V265.156H483.812V249.306H479.732V247.066H486.372Z" fill="#263238"/>
<path d="M506.052 260.696H502.622V265.146H500.112V260.696H490.112V258.886L499.302 247.066H502.092L493.232 258.486H500.182V254.556H502.612V258.486H506.042L506.052 260.696Z" fill="#263238"/>
<path d="M150.172 299.696V317.786H147.612V301.946H143.532V299.696H150.172Z" fill="white"/>
<path d="M166.812 312.356C166.812 315.486 164.592 317.986 159.962 317.986C157.562 318.046 155.215 317.272 153.322 315.796L154.512 313.796C156.028 315.077 157.958 315.763 159.942 315.726C162.682 315.726 164.232 314.466 164.232 312.496C164.232 310.526 162.932 309.196 158.752 309.196H154.642L155.642 299.736H165.842V301.986H157.842L157.352 306.986H159.352C164.692 306.906 166.812 309.156 166.812 312.356Z" fill="white"/>
<path d="M206.382 299.696V317.786H203.822V301.946H199.742V299.696H206.382Z" fill="white"/>
<path d="M224.302 312.276C224.302 315.766 221.482 317.986 217.892 317.986C213.032 317.986 210.302 314.736 210.302 308.986C210.302 302.806 213.782 299.506 218.852 299.506C220.417 299.445 221.969 299.811 223.342 300.566L222.342 302.566C221.295 301.954 220.093 301.658 218.882 301.716C215.212 301.716 212.882 304.016 212.882 308.536C212.882 308.736 212.882 308.946 212.882 309.176C213.483 308.379 214.274 307.746 215.182 307.332C216.09 306.918 217.087 306.737 218.082 306.806C221.732 306.806 224.302 308.946 224.302 312.276ZM221.792 312.386C221.792 310.266 220.192 308.896 217.662 308.896C215.132 308.896 213.502 310.416 213.502 312.406C213.502 314.396 215.002 315.896 217.792 315.896C220.182 315.896 221.832 314.526 221.832 312.386H221.792Z" fill="white"/>
<path d="M261.302 299.696V317.786H258.752V301.946H254.662V299.696H261.302Z" fill="white"/>
<path d="M278.432 299.696V301.456L271.122 317.786H268.382L275.542 301.946H267.302V305.176H264.822V299.696H278.432Z" fill="white"/>
<path d="M318.722 299.696V317.786H316.172V301.946H312.082V299.696H318.722Z" fill="white"/>
<path d="M336.942 312.666C336.942 315.946 334.152 317.986 329.732 317.986C325.312 317.986 322.572 315.986 322.572 312.666C322.555 311.692 322.856 310.739 323.43 309.952C324.004 309.165 324.819 308.587 325.752 308.306C324.984 307.987 324.33 307.443 323.878 306.745C323.426 306.046 323.197 305.227 323.222 304.396C323.222 301.396 325.832 299.496 329.732 299.496C333.632 299.496 336.292 301.376 336.292 304.396C336.313 305.23 336.079 306.051 335.622 306.75C335.165 307.448 334.505 307.991 333.732 308.306C334.669 308.584 335.489 309.16 336.068 309.947C336.648 310.734 336.954 311.689 336.942 312.666ZM334.352 312.586C334.352 310.586 332.602 309.356 329.732 309.356C326.862 309.356 325.162 310.596 325.162 312.586C325.162 314.576 326.862 315.896 329.732 315.896C332.602 315.896 334.352 314.626 334.352 312.586V312.586ZM325.782 304.506C325.782 306.286 327.252 307.396 329.732 307.396C332.212 307.396 333.732 306.286 333.732 304.506C333.732 302.726 332.132 301.586 329.732 301.586C327.332 301.586 325.782 302.696 325.782 304.506V304.506Z" fill="white"/>
<path d="M374.392 299.696V317.786H371.832V301.946H367.752V299.696H374.392Z" fill="white"/>
<path d="M391.802 308.506C391.802 314.686 388.312 317.986 383.252 317.986C381.687 318.046 380.135 317.68 378.762 316.926L379.762 314.926C380.819 315.539 382.031 315.834 383.252 315.776C386.912 315.776 389.252 313.476 389.252 308.956V308.316C388.649 309.115 387.855 309.75 386.943 310.164C386.032 310.578 385.031 310.758 384.032 310.686C380.442 310.686 377.862 308.546 377.862 305.216C377.862 301.726 380.652 299.506 384.242 299.506C389.062 299.496 391.802 302.746 391.802 308.506ZM388.622 305.066C388.622 303.206 387.132 301.576 384.312 301.576C381.962 301.576 380.312 302.946 380.312 305.086C380.312 307.226 381.892 308.576 384.422 308.576C386.952 308.576 388.622 307.066 388.622 305.066Z" fill="white"/>
<path d="M437.612 315.536V317.786H424.612V316.066L431.972 308.966C433.882 307.106 434.242 305.966 434.242 304.826C434.242 302.966 432.922 301.826 430.392 301.826C429.52 301.781 428.65 301.939 427.848 302.286C427.047 302.633 426.337 303.16 425.772 303.826L424.012 302.296C424.842 301.379 425.866 300.658 427.01 300.186C428.153 299.714 429.387 299.502 430.622 299.566C434.402 299.566 436.822 301.496 436.822 304.566C436.822 306.326 436.312 307.906 433.822 310.256L428.302 315.536H437.612Z" fill="white"/>
<path d="M439.652 308.736C439.652 302.846 442.802 299.496 447.042 299.496C451.282 299.496 454.402 302.846 454.402 308.736C454.402 314.626 451.252 317.986 447.042 317.986C442.832 317.986 439.652 314.626 439.652 308.736ZM451.822 308.736C451.822 304.116 449.822 301.796 447.042 301.796C444.262 301.796 442.232 304.116 442.232 308.736C442.232 313.356 444.232 315.686 447.042 315.686C449.852 315.686 451.822 313.366 451.822 308.736V308.736Z" fill="white"/>
<path d="M493.472 315.536V317.786H480.472V316.066L487.832 308.966C489.742 307.106 490.102 305.966 490.102 304.826C490.102 302.966 488.792 301.826 486.262 301.826C485.389 301.781 484.517 301.939 483.714 302.286C482.911 302.632 482.199 303.159 481.632 303.826L479.872 302.296C480.704 301.378 481.73 300.657 482.875 300.185C484.02 299.713 485.255 299.501 486.492 299.566C490.262 299.566 492.692 301.496 492.692 304.566C492.692 306.326 492.172 307.906 489.692 310.256L484.162 315.576L493.472 315.536Z" fill="white"/>
<path d="M501.202 299.696V317.786H498.642V301.946H494.562V299.696H501.202Z" fill="white"/>
<path d="M157.302 367.686V369.936H144.302V368.176L151.662 361.076C153.582 359.216 153.942 358.076 153.942 356.936C153.942 355.076 152.622 353.936 150.092 353.936C149.219 353.892 148.347 354.05 147.544 354.397C146.742 354.743 146.029 355.27 145.462 355.936L143.712 354.416C144.542 353.497 145.565 352.775 146.708 352.301C147.852 351.827 149.086 351.613 150.322 351.676C154.092 351.676 156.522 353.616 156.522 356.676C156.522 358.426 156.002 360.006 153.522 362.356L147.992 367.676L157.302 367.686Z" fill="#263238"/>
<path d="M172.112 367.686V369.936H159.112V368.176L166.472 361.076C168.392 359.216 168.752 358.076 168.752 356.936C168.752 355.076 167.432 353.936 164.902 353.936C164.029 353.891 163.157 354.049 162.354 354.396C161.551 354.742 160.839 355.269 160.272 355.936L158.522 354.416C159.351 353.496 160.374 352.773 161.518 352.299C162.661 351.825 163.896 351.612 165.132 351.676C168.902 351.676 171.332 353.616 171.332 356.676C171.332 358.426 170.812 360.006 168.332 362.356L162.802 367.676L172.112 367.686Z" fill="#263238"/>
<path d="M213.492 367.686V369.936H200.492V368.176L207.852 361.076C209.772 359.216 210.132 358.076 210.132 356.936C210.132 355.076 208.812 353.936 206.282 353.936C205.409 353.892 204.537 354.05 203.734 354.397C202.932 354.743 202.219 355.27 201.652 355.936L199.902 354.416C200.732 353.497 201.755 352.775 202.898 352.301C204.042 351.827 205.276 351.613 206.512 351.676C210.282 351.676 212.712 353.616 212.712 356.676C212.712 358.426 212.192 360.006 209.712 362.356L204.182 367.676L213.492 367.686Z" fill="#263238"/>
<path d="M227.982 364.616C227.982 367.666 225.732 370.146 221.132 370.146C218.73 370.212 216.38 369.433 214.492 367.946L215.682 365.946C217.202 367.234 219.14 367.923 221.132 367.886C223.852 367.886 225.402 366.646 225.402 364.676C225.402 362.706 224.032 361.526 220.932 361.526H219.482V359.716L224.032 354.136H215.302V351.896H227.302V353.646L222.572 359.486C226.152 359.786 227.982 361.826 227.982 364.616Z" fill="#263238"/>
<path d="M268.412 367.686V369.936H255.412V368.176L262.782 361.076C264.692 359.216 265.052 358.076 265.052 356.936C265.052 355.076 263.732 353.936 261.202 353.936C260.33 353.891 259.46 354.049 258.658 354.396C257.857 354.743 257.147 355.27 256.582 355.936L254.822 354.416C255.652 353.497 256.675 352.775 257.818 352.301C258.962 351.827 260.196 351.613 261.432 351.676C265.202 351.676 267.632 353.616 267.632 356.676C267.632 358.426 267.122 360.006 264.632 362.356L259.102 367.676L268.412 367.686Z" fill="#263238"/>
<path d="M285.772 365.496H282.302V369.936H279.802V365.496H269.802V363.686L279.052 351.856H281.842L272.972 363.266H279.972V359.346H282.302V363.266H285.742L285.772 365.496Z" fill="#263238"/>
<path d="M157.302 413.966V416.206H144.302V414.456L151.662 407.346C153.582 405.486 153.942 404.346 153.942 403.216C153.942 401.356 152.622 400.216 150.092 400.216C149.219 400.171 148.346 400.328 147.543 400.675C146.74 401.021 146.028 401.549 145.462 402.216L143.712 400.686C144.542 399.767 145.565 399.045 146.708 398.571C147.852 398.097 149.086 397.883 150.322 397.946C154.092 397.946 156.522 399.886 156.522 402.946C156.522 404.706 156.002 406.276 153.522 408.626L147.992 413.956L157.302 413.966Z" fill="#263238"/>
<path d="M172.852 406.936C172.852 413.106 169.372 416.416 164.302 416.416C162.737 416.471 161.187 416.105 159.812 415.356L160.812 413.356C161.87 413.968 163.081 414.263 164.302 414.206C167.972 414.206 170.302 411.906 170.302 407.386V406.736C169.7 407.537 168.907 408.174 167.995 408.59C167.083 409.006 166.082 409.186 165.082 409.116C161.492 409.116 158.912 406.976 158.912 403.636C158.912 400.296 161.702 397.926 165.292 397.926C170.122 397.916 172.852 401.176 172.852 406.936ZM169.682 403.496C169.682 401.636 168.182 400.016 165.362 400.016C163.012 400.016 161.362 401.386 161.362 403.526C161.362 405.666 162.942 407.016 165.472 407.016C168.002 407.016 169.682 405.486 169.682 403.496V403.496Z" fill="#263238"/>
<path d="M213.152 410.886C213.152 413.936 210.902 416.416 206.302 416.416C203.902 416.484 201.555 415.705 199.672 414.216L200.852 412.216C202.37 413.508 204.309 414.198 206.302 414.156C209.022 414.156 210.572 412.916 210.572 410.956C210.572 408.996 209.202 407.806 206.102 407.806H204.652V405.996L209.202 400.416H200.492V398.166H212.432V399.926L207.702 405.766C211.302 406.066 213.152 408.066 213.152 410.886Z" fill="#263238"/>
<path d="M215.552 407.166C215.552 401.276 218.712 397.916 222.942 397.916C227.172 397.916 230.302 401.276 230.302 407.166C230.302 413.056 227.152 416.416 222.942 416.416C218.732 416.416 215.552 413.066 215.552 407.166ZM227.722 407.166C227.722 402.546 225.722 400.166 222.942 400.166C220.162 400.166 218.142 402.496 218.142 407.166C218.142 411.836 220.142 414.116 222.942 414.116C225.742 414.116 227.722 411.796 227.722 407.166Z" fill="#263238"/>
<path d="M268.072 410.886C268.072 413.936 265.822 416.416 261.232 416.416C258.829 416.485 256.478 415.706 254.592 414.216L255.772 412.216C257.293 413.509 259.236 414.2 261.232 414.156C263.942 414.156 265.492 412.916 265.492 410.956C265.492 408.996 264.122 407.806 261.022 407.806H259.572V405.996L264.122 400.416H255.412V398.166H267.352V399.926L262.622 405.766C266.242 406.066 268.072 408.066 268.072 410.886Z" fill="#263238"/>
<path d="M276.082 398.126V416.206H273.522V400.376H269.442V398.126H276.082Z" fill="#263238"/>
<path d="M325.832 367.686V369.936H312.832V368.176L320.202 361.076C322.112 359.216 322.472 358.076 322.472 356.936C322.472 355.076 321.152 353.936 318.622 353.936C317.75 353.891 316.88 354.049 316.078 354.396C315.277 354.743 314.567 355.27 314.002 355.936L312.242 354.416C313.072 353.497 314.095 352.775 315.238 352.301C316.382 351.827 317.616 351.613 318.852 351.676C322.622 351.676 325.052 353.616 325.052 356.676C325.052 358.426 324.532 360.006 322.052 362.356L316.522 367.676L325.832 367.686Z" fill="#263238"/>
<path d="M340.632 364.506C340.632 367.636 338.412 370.146 333.782 370.146C331.384 370.204 329.04 369.426 327.152 367.946L328.332 365.946C329.847 367.23 331.777 367.919 333.762 367.886C336.502 367.886 338.052 366.616 338.052 364.656C338.052 362.696 336.762 361.346 332.572 361.346H328.462L329.462 351.896H339.662V354.066H331.662L331.172 359.066H333.172C338.512 359.066 340.632 361.306 340.632 364.506Z" fill="#263238"/>
<path d="M381.492 367.686V369.936H368.492V368.176L375.852 361.076C377.762 359.216 378.132 358.076 378.132 356.936C378.132 355.076 376.812 353.936 374.282 353.936C373.409 353.891 372.537 354.049 371.734 354.396C370.931 354.742 370.219 355.269 369.652 355.936L367.902 354.416C368.731 353.496 369.754 352.773 370.897 352.299C372.041 351.825 373.276 351.612 374.512 351.676C378.282 351.676 380.712 353.616 380.712 356.676C380.712 358.426 380.192 360.006 377.712 362.356L372.182 367.676L381.492 367.686Z" fill="#263238"/>
<path d="M397.542 364.436C397.542 367.916 394.722 370.146 391.132 370.146C386.272 370.146 383.542 366.886 383.542 361.146C383.542 354.976 387.022 351.666 392.092 351.666C393.657 351.605 395.209 351.971 396.582 352.726L395.582 354.726C394.535 354.114 393.333 353.818 392.122 353.876C388.452 353.876 386.122 356.176 386.122 360.696C386.108 360.912 386.108 361.129 386.122 361.346C386.721 360.549 387.51 359.914 388.416 359.499C389.322 359.083 390.317 358.9 391.312 358.966C394.932 358.956 397.542 361.066 397.542 364.436ZM395.032 364.536C395.032 362.416 393.432 361.046 390.902 361.046C388.372 361.046 386.742 362.576 386.742 364.566C386.742 366.556 388.242 368.046 391.032 368.046C393.382 368.066 395.032 366.676 395.032 364.536Z" fill="#263238"/>
<path d="M437.612 367.686V369.936H424.612V368.176L431.972 361.076C433.882 359.216 434.242 358.076 434.242 356.936C434.242 355.076 432.922 353.936 430.392 353.936C429.52 353.891 428.65 354.049 427.848 354.396C427.047 354.743 426.337 355.27 425.772 355.936L424.012 354.416C424.842 353.498 425.866 352.776 427.009 352.302C428.152 351.828 429.386 351.614 430.622 351.676C434.402 351.676 436.822 353.616 436.822 356.676C436.822 358.426 436.312 360.006 433.822 362.356L428.302 367.686H437.612Z" fill="#263238"/>
<path d="M452.832 351.856V353.606L445.522 369.936H442.782L449.932 354.066H441.672V357.296H439.192V351.826L452.832 351.856Z" fill="#263238"/>
<path d="M493.472 367.686V369.936H480.472V368.176L487.832 361.076C489.742 359.216 490.112 358.076 490.112 356.936C490.112 355.076 488.792 353.936 486.262 353.936C485.389 353.891 484.517 354.049 483.714 354.396C482.911 354.742 482.199 355.269 481.632 355.936L479.882 354.416C480.711 353.496 481.734 352.773 482.878 352.299C484.021 351.825 485.256 351.612 486.492 351.676C490.262 351.676 492.692 353.616 492.692 356.676C492.692 358.426 492.172 360.006 489.692 362.356L484.162 367.676L493.472 367.686Z" fill="#263238"/>
<path d="M509.852 364.816C509.852 368.096 507.062 370.146 502.652 370.146C498.242 370.146 495.492 368.096 495.492 364.816C495.476 363.842 495.778 362.89 496.352 362.103C496.926 361.316 497.74 360.738 498.672 360.456C497.903 360.14 497.249 359.598 496.797 358.901C496.345 358.204 496.117 357.386 496.142 356.556C496.142 353.556 498.742 351.646 502.652 351.646C506.562 351.646 509.212 353.526 509.212 356.556C509.23 357.388 508.994 358.207 508.537 358.903C508.08 359.599 507.423 360.14 506.652 360.456C507.587 360.736 508.405 361.313 508.982 362.1C509.56 362.886 509.865 363.84 509.852 364.816V364.816ZM507.272 364.746C507.272 362.746 505.512 361.516 502.652 361.516C499.792 361.516 498.072 362.756 498.072 364.746C498.072 366.736 499.782 368.046 502.652 368.046C505.522 368.046 507.302 366.786 507.302 364.746H507.272ZM498.692 356.656C498.692 358.436 500.162 359.546 502.692 359.546C505.222 359.546 506.692 358.436 506.692 356.656C506.692 354.876 505.092 353.736 502.692 353.736C500.292 353.736 498.692 354.846 498.692 356.656V356.656Z" fill="#263238"/>
<path d="M178.942 116.066C178.224 116.067 177.513 115.927 176.85 115.653C176.186 115.379 175.583 114.977 175.075 114.47C174.567 113.963 174.164 113.36 173.889 112.697C173.614 112.034 173.472 111.323 173.472 110.606V83.7056C173.475 82.2566 174.052 80.8679 175.078 79.8442C176.103 78.8205 177.493 78.2456 178.942 78.2456V78.2456C180.389 78.2482 181.777 78.8243 182.8 79.8477C183.823 80.8711 184.4 82.2583 184.402 83.7056V110.606C184.402 112.054 183.827 113.442 182.803 114.466C181.779 115.49 180.39 116.066 178.942 116.066V116.066Z" fill="#E0E0E0"/>
<path d="M178.942 116.066C178.942 116.066 179.252 116.066 179.822 115.936C180.895 115.738 181.882 115.221 182.655 114.452C183.428 113.683 183.95 112.697 184.152 111.626C184.256 110.797 184.283 109.96 184.232 109.126C184.232 108.226 184.232 107.276 184.232 106.286C184.232 102.286 184.232 97.5356 184.172 92.2856C184.172 89.6556 184.172 86.8856 184.172 84.0156C184.203 83.3188 184.096 82.6228 183.857 81.9673C183.619 81.3119 183.253 80.7098 182.782 80.1956C182.296 79.6671 181.706 79.2452 181.048 78.9566C180.39 78.668 179.68 78.519 178.962 78.519C178.244 78.519 177.534 78.668 176.876 78.9566C176.219 79.2452 175.628 79.6671 175.142 80.1956C174.19 81.2378 173.69 82.6152 173.752 84.0256C173.752 86.8956 173.752 89.6656 173.752 92.2956C173.752 97.5556 173.752 102.296 173.752 106.296C173.752 107.296 173.752 108.236 173.752 109.136C173.706 109.97 173.733 110.806 173.832 111.636C174.034 112.709 174.557 113.696 175.332 114.466C176.107 115.236 177.097 115.752 178.172 115.946C178.742 116.066 179.052 116.046 179.052 116.076C178.754 116.12 178.451 116.12 178.152 116.076C177.283 115.943 176.459 115.599 175.752 115.076C174.613 114.262 173.824 113.047 173.542 111.676C173.387 110.814 173.307 109.941 173.302 109.066C173.302 108.166 173.302 107.216 173.302 106.226C173.302 102.226 173.302 97.4756 173.242 92.2256C173.242 89.5956 173.242 86.8256 173.242 83.9556C173.175 82.416 173.722 80.9128 174.762 79.7756C175.297 79.195 175.946 78.7316 176.669 78.4146C177.392 78.0976 178.173 77.934 178.962 77.934C179.751 77.934 180.532 78.0976 181.255 78.4146C181.978 78.7316 182.627 79.195 183.162 79.7756C184.198 80.915 184.744 82.4167 184.682 83.9556C184.682 86.8256 184.682 89.5956 184.682 92.2256C184.682 97.4856 184.682 102.226 184.622 106.226C184.622 107.226 184.622 108.166 184.622 109.066C184.651 109.921 184.607 110.777 184.492 111.626C184.214 112.999 183.424 114.214 182.282 115.026C181.578 115.548 180.758 115.891 179.892 116.026C179.579 116.088 179.259 116.102 178.942 116.066V116.066Z" fill="#263238"/>
<path d="M253.882 116.066C253.165 116.067 252.454 115.927 251.791 115.653C251.128 115.379 250.526 114.977 250.018 114.469C249.511 113.962 249.109 113.36 248.835 112.697C248.561 112.034 248.421 111.323 248.422 110.606V83.7056C248.422 82.2575 248.997 80.8688 250.021 79.8448C251.045 78.8209 252.434 78.2456 253.882 78.2456C255.33 78.2456 256.719 78.8209 257.743 79.8448C258.767 80.8688 259.342 82.2575 259.342 83.7056V110.606C259.343 111.323 259.203 112.034 258.929 112.697C258.655 113.36 258.253 113.962 257.746 114.469C257.239 114.977 256.636 115.379 255.973 115.653C255.31 115.927 254.6 116.067 253.882 116.066V116.066Z" fill="#E0E0E0"/>
<path d="M253.882 116.066C253.882 116.066 254.192 116.066 254.762 115.936C255.835 115.738 256.824 115.22 257.598 114.451C258.373 113.682 258.897 112.697 259.102 111.626C259.196 110.796 259.223 109.96 259.182 109.126C259.182 108.226 259.182 107.276 259.182 106.286C259.182 102.286 259.182 97.5356 259.122 92.2856C259.122 89.6556 259.122 86.8856 259.122 84.0156C259.153 83.3188 259.046 82.6228 258.807 81.9673C258.569 81.3119 258.203 80.7098 257.732 80.1956C257.247 79.665 256.657 79.2415 256 78.9522C255.342 78.6629 254.631 78.5142 253.912 78.5156C253.195 78.5166 252.485 78.6654 251.828 78.9527C251.171 79.24 250.58 79.6597 250.092 80.1856C249.14 81.2278 248.64 82.6052 248.702 84.0156C248.702 86.8856 248.702 89.6556 248.702 92.2856C248.702 97.5456 248.702 102.286 248.642 106.286C248.642 107.286 248.642 108.226 248.642 109.126C248.601 109.96 248.628 110.796 248.722 111.626C248.928 112.697 249.452 113.682 250.226 114.451C251 115.22 251.989 115.738 253.062 115.936C253.632 116.056 253.942 116.036 253.942 116.066C253.644 116.11 253.34 116.11 253.042 116.066C252.175 115.934 251.354 115.59 250.652 115.066C249.507 114.257 248.716 113.04 248.442 111.666C248.316 110.805 248.269 109.935 248.302 109.066C248.302 108.166 248.302 107.216 248.302 106.226C248.302 102.226 248.302 97.4756 248.252 92.2256C248.252 89.5956 248.252 86.8256 248.252 83.9556C248.19 82.4167 248.736 80.915 249.772 79.7756C250.307 79.195 250.956 78.7316 251.679 78.4146C252.402 78.0976 253.183 77.934 253.972 77.934C254.761 77.934 255.542 78.0976 256.265 78.4146C256.988 78.7316 257.637 79.195 258.172 79.7756C259.212 80.9128 259.759 82.416 259.692 83.9556C259.692 86.8256 259.692 89.5956 259.692 92.2256C259.692 97.4856 259.692 102.226 259.692 106.226C259.692 107.226 259.692 108.166 259.692 109.066C259.726 109.921 259.682 110.778 259.562 111.626C259.288 113 258.497 114.217 257.352 115.026C256.65 115.55 255.829 115.894 254.962 116.026C254.607 116.103 254.242 116.116 253.882 116.066V116.066Z" fill="#263238"/>
<path d="M328.822 116.066C327.374 116.066 325.985 115.49 324.961 114.466C323.937 113.442 323.362 112.054 323.362 110.606V83.7056C323.365 82.2583 323.941 80.8711 324.964 79.8477C325.988 78.8243 327.375 78.2482 328.822 78.2456C330.271 78.2456 331.661 78.8205 332.686 79.8442C333.712 80.8679 334.289 82.2566 334.292 83.7056V110.606C334.292 111.323 334.151 112.034 333.876 112.697C333.601 113.36 333.197 113.963 332.689 114.47C332.181 114.977 331.578 115.379 330.915 115.653C330.251 115.927 329.54 116.067 328.822 116.066V116.066Z" fill="#E0E0E0"/>
<path d="M328.822 116.066C328.822 116.066 329.132 116.066 329.712 115.936C330.785 115.738 331.772 115.221 332.545 114.452C333.318 113.683 333.84 112.697 334.042 111.626C334.141 110.796 334.168 109.96 334.122 109.126C334.122 108.226 334.122 107.276 334.122 106.286C334.122 102.286 334.122 97.5356 334.072 92.2856C334.072 89.6556 334.072 86.8856 334.072 84.0156C334.103 83.3188 333.996 82.6228 333.757 81.9673C333.519 81.3119 333.153 80.7099 332.682 80.1956C332.197 79.6674 331.607 79.2456 330.951 78.9571C330.294 78.6686 329.584 78.5196 328.867 78.5196C328.15 78.5196 327.44 78.6686 326.784 78.9571C326.127 79.2456 325.537 79.6674 325.052 80.1956C324.577 80.71 324.209 81.3132 323.969 81.9706C323.729 82.628 323.621 83.3264 323.652 84.0256C323.652 86.8956 323.652 89.6656 323.652 92.2956C323.652 97.5556 323.652 102.296 323.592 106.296C323.592 107.296 323.592 108.236 323.592 109.136C323.541 109.97 323.568 110.807 323.672 111.636C323.874 112.707 324.396 113.693 325.169 114.462C325.942 115.231 326.93 115.748 328.002 115.946C328.572 116.066 328.892 116.046 328.882 116.076C328.584 116.12 328.28 116.12 327.982 116.076C327.116 115.941 326.296 115.598 325.592 115.076C324.45 114.264 323.66 113.049 323.382 111.676C323.267 110.827 323.223 109.971 323.252 109.116C323.252 108.216 323.252 107.266 323.252 106.276C323.252 102.276 323.252 97.5256 323.192 92.2756C323.192 89.6456 323.192 86.8756 323.192 84.0056C323.129 82.4648 323.679 80.9618 324.722 79.8256C325.52 78.9632 326.565 78.3676 327.714 78.1199C328.863 77.8721 330.06 77.9842 331.143 78.441C332.226 78.8977 333.141 79.6769 333.766 80.6725C334.39 81.6682 334.693 82.832 334.632 84.0056C334.632 86.8756 334.632 89.6456 334.632 92.2756C334.632 97.5356 334.632 102.276 334.572 106.276C334.572 107.276 334.572 108.216 334.572 109.116C334.604 109.971 334.564 110.827 334.452 111.676C334.174 113.049 333.384 114.264 332.242 115.076C331.536 115.599 330.712 115.943 329.842 116.076C329.504 116.129 329.159 116.125 328.822 116.066V116.066Z" fill="#263238"/>
<path d="M403.772 116.066C403.054 116.067 402.343 115.927 401.68 115.653C401.016 115.379 400.413 114.977 399.905 114.47C399.397 113.963 398.994 113.36 398.719 112.697C398.444 112.034 398.302 111.323 398.302 110.606V83.7056C398.305 82.2566 398.882 80.8679 399.908 79.8442C400.933 78.8205 402.323 78.2456 403.772 78.2456C405.219 78.2482 406.607 78.8243 407.63 79.8477C408.653 80.8711 409.229 82.2583 409.232 83.7056V110.606C409.232 112.054 408.657 113.442 407.633 114.466C406.609 115.49 405.22 116.066 403.772 116.066V116.066Z" fill="#E0E0E0"/>
<path d="M403.772 116.066C403.772 116.066 404.082 116.066 404.652 115.936C405.725 115.738 406.712 115.221 407.485 114.452C408.258 113.683 408.78 112.697 408.982 111.626C409.086 110.797 409.113 109.96 409.062 109.126C409.062 108.226 409.062 107.276 409.062 106.286C409.062 102.286 409.062 97.5356 409.002 92.2856C409.002 89.6556 409.002 86.8856 409.002 84.0156C409.033 83.3188 408.926 82.6228 408.687 81.9673C408.449 81.3119 408.083 80.7098 407.612 80.1956C407.126 79.6671 406.536 79.2452 405.878 78.9566C405.22 78.668 404.51 78.519 403.792 78.519C403.074 78.519 402.364 78.668 401.706 78.9566C401.049 79.2452 400.458 79.6671 399.972 80.1956C399.02 81.2378 398.52 82.6152 398.582 84.0256C398.582 86.8956 398.582 89.6656 398.582 92.2956C398.582 97.5556 398.582 102.296 398.532 106.296C398.532 107.296 398.532 108.236 398.532 109.136C398.486 109.97 398.513 110.806 398.612 111.636C398.814 112.707 399.336 113.692 400.109 114.462C400.882 115.231 401.87 115.748 402.942 115.946C403.522 116.066 403.832 116.046 403.832 116.076C403.534 116.12 403.231 116.12 402.932 116.076C402.063 115.943 401.239 115.599 400.532 115.076C399.393 114.262 398.604 113.047 398.322 111.676C398.21 110.827 398.17 109.971 398.202 109.116C398.202 108.216 398.202 107.266 398.202 106.276C398.202 102.276 398.202 97.5256 398.142 92.2756C398.142 89.6456 398.142 86.8756 398.142 84.0056C398.075 82.466 398.622 80.9628 399.662 79.8256C400.197 79.245 400.846 78.7816 401.569 78.4646C402.292 78.1476 403.073 77.9839 403.862 77.9839C404.651 77.9839 405.432 78.1476 406.155 78.4646C406.878 78.7816 407.527 79.245 408.062 79.8256C409.098 80.965 409.644 82.4667 409.582 84.0056C409.582 86.8756 409.582 89.6456 409.582 92.2756C409.582 97.5356 409.582 102.276 409.522 106.276C409.522 107.276 409.522 108.216 409.522 109.116C409.551 109.971 409.507 110.827 409.392 111.676C409.114 113.049 408.324 114.264 407.182 115.076C406.478 115.598 405.658 115.941 404.792 116.076C404.454 116.129 404.109 116.126 403.772 116.066Z" fill="#263238"/>
<path d="M478.712 116.066C477.995 116.067 477.284 115.927 476.621 115.653C475.958 115.379 475.356 114.977 474.848 114.469C474.341 113.962 473.939 113.36 473.665 112.697C473.391 112.034 473.251 111.323 473.252 110.606V83.7056C473.252 82.2575 473.827 80.8688 474.851 79.8448C475.875 78.8209 477.264 78.2456 478.712 78.2456V78.2456C480.16 78.2456 481.549 78.8209 482.573 79.8448C483.597 80.8688 484.172 82.2575 484.172 83.7056V110.606C484.173 111.323 484.033 112.034 483.759 112.697C483.485 113.36 483.083 113.962 482.576 114.469C482.069 114.977 481.466 115.379 480.803 115.653C480.14 115.927 479.429 116.067 478.712 116.066V116.066Z" fill="#E0E0E0"/>
<path d="M478.712 116.066C478.712 116.066 479.022 116.066 479.592 115.936C480.665 115.738 481.654 115.22 482.428 114.451C483.203 113.682 483.727 112.697 483.932 111.626C484.026 110.796 484.053 109.96 484.012 109.126C484.012 108.226 484.012 107.276 484.012 106.286C484.012 102.286 484.012 97.5356 483.952 92.2856C483.952 89.6556 483.952 86.8856 483.952 84.0156C483.983 83.3188 483.876 82.6228 483.637 81.9673C483.399 81.3119 483.033 80.7099 482.562 80.1956C482.077 79.665 481.487 79.2415 480.83 78.9522C480.172 78.6629 479.461 78.5142 478.742 78.5156C478.025 78.5166 477.315 78.6654 476.658 78.9527C476.001 79.24 475.41 79.6597 474.922 80.1856C473.97 81.2278 473.47 82.6052 473.532 84.0156C473.532 86.8856 473.532 89.6556 473.532 92.2856C473.532 97.5456 473.532 102.286 473.472 106.286C473.472 107.286 473.472 108.226 473.472 109.126C473.431 109.96 473.458 110.796 473.552 111.626C473.758 112.697 474.282 113.682 475.056 114.451C475.83 115.22 476.819 115.738 477.892 115.936C478.462 116.056 478.772 116.036 478.772 116.066C478.474 116.11 478.171 116.11 477.872 116.066C477.005 115.934 476.184 115.59 475.482 115.066C474.337 114.257 473.546 113.04 473.272 111.666C473.152 110.818 473.109 109.961 473.142 109.106C473.142 108.206 473.142 107.256 473.142 106.266C473.142 102.266 473.142 97.5156 473.142 92.2656C473.142 89.6356 473.142 86.8656 473.142 83.9956C473.08 82.4567 473.626 80.9551 474.662 79.8156C475.197 79.235 475.846 78.7716 476.569 78.4546C477.292 78.1376 478.073 77.974 478.862 77.974C479.651 77.974 480.432 78.1376 481.155 78.4546C481.878 78.7716 482.527 79.235 483.062 79.8156C484.102 80.9528 484.649 82.456 484.582 83.9956C484.582 86.8656 484.582 89.6356 484.582 92.2656C484.582 97.5256 484.582 102.266 484.532 106.266C484.532 107.266 484.532 108.206 484.532 109.106C484.566 109.961 484.522 110.818 484.402 111.666C484.128 113.04 483.337 114.257 482.192 115.066C481.49 115.59 480.669 115.934 479.802 116.066C479.442 116.13 479.073 116.13 478.712 116.066Z" fill="#263238"/>
<path d="M94.6124 405.326C91.9624 405.196 91.1924 401.466 92.1724 399.006C93.1524 396.546 95.1024 394.366 95.1724 391.726C95.1724 389.426 93.7324 387.336 93.5924 385.046C93.3424 380.916 97.3424 377.546 97.5124 373.406C97.6424 370.186 95.4024 367.106 95.9424 363.926C96.5224 360.516 100.092 358.266 100.942 354.926C101.812 351.336 99.3324 347.546 100.282 343.986C101.232 340.426 105.412 337.826 104.822 334.196C104.467 333.034 104.049 331.893 103.572 330.776C102.822 328.076 104.302 325.256 106.092 323.086C107.882 320.916 110.092 319.006 111.182 316.426C112.872 312.426 111.692 307.636 113.702 303.816C115.372 300.646 119.092 298.506 119.562 294.946C121.442 298.146 119.562 302.226 120.032 305.946C120.312 308.356 121.552 310.526 122.322 312.826C123.093 315.183 123.367 317.674 123.126 320.142C122.885 322.611 122.135 325.002 120.922 327.166C119.302 330.006 116.812 332.686 116.922 335.946C117.082 339.946 121.032 342.766 121.732 346.666C122.732 352.236 116.802 357.246 117.622 362.846C117.832 364.286 118.492 365.646 118.622 367.106C119.052 372.056 113.432 375.556 112.622 380.446C111.992 384.046 114.072 387.776 113.212 391.326C112.552 394.066 110.212 396.526 110.762 399.326C111.158 400.481 111.664 401.596 112.272 402.656C112.729 403.736 112.877 404.922 112.7 406.082C112.524 407.242 112.03 408.33 111.272 409.226C110.485 410.092 109.443 410.686 108.296 410.922C107.149 411.157 105.957 411.022 104.892 410.536" fill="#6772E5"/>
<g opacity="0.5">
<path opacity="0.5" d="M112.152 402.556C111.544 401.496 111.038 400.381 110.642 399.226C110.062 396.476 112.432 394.016 113.092 391.226C113.952 387.676 111.872 383.946 112.502 380.346C113.352 375.456 118.972 371.956 118.502 367.006C118.382 365.546 117.722 364.186 117.502 362.746C116.682 357.146 122.612 352.136 121.612 346.566C120.912 342.666 116.962 339.806 116.802 335.846C116.682 332.586 119.172 329.906 120.802 327.066C122.015 324.902 122.765 322.511 123.006 320.042C123.247 317.574 122.973 315.083 122.202 312.726C121.432 310.426 120.202 308.256 119.912 305.846C119.482 302.156 121.322 298.076 119.442 294.846C118.972 298.406 115.252 300.546 113.582 303.716C111.582 307.536 112.752 312.366 111.062 316.326C109.952 318.906 107.762 320.826 105.972 322.986C104.182 325.146 102.702 327.986 103.452 330.676C103.929 331.793 104.347 332.934 104.702 334.096C105.292 337.726 101.112 340.336 100.162 343.886C99.2124 347.436 101.692 351.236 100.822 354.826C100.012 358.186 96.4424 360.436 95.8224 363.826C95.2824 367.006 97.5224 370.086 97.3924 373.306C97.2224 377.446 93.2224 380.816 93.4724 384.946C93.6124 387.236 95.0724 389.326 95.0524 391.626C95.0524 394.266 93.0524 396.456 92.0524 398.906C91.0524 401.356 91.8424 405.096 94.4924 405.226L104.772 410.436C105.837 410.922 107.029 411.057 108.176 410.822C109.323 410.586 110.365 409.992 111.152 409.126C111.91 408.23 112.404 407.142 112.581 405.982C112.757 404.822 112.609 403.636 112.152 402.556V402.556Z" fill="white"/>
</g>
<path d="M108.702 400.136C108.009 398.952 107.662 397.597 107.702 396.226C107.982 394.716 110.532 393.386 111.172 390.816C111.992 387.486 110.512 381.606 111.172 378.246C112.032 373.686 116.752 370.676 116.562 366.146C116.502 364.816 116.692 361.256 116.562 359.936C116.052 354.836 120.562 351.406 119.882 346.346C119.432 342.806 115.762 338.656 115.752 335.026C115.752 332.026 117.902 329.396 119.332 326.676C121.487 322.595 122.063 317.864 120.952 313.386C120.382 311.316 119.422 309.386 119.262 307.196C119.022 303.826 120.682 299.946 119.262 297.126C118.762 300.426 115.612 302.646 114.122 305.676C112.342 309.326 113.122 313.676 111.642 317.446C110.642 319.896 108.762 321.806 107.212 323.916C105.662 326.026 104.352 328.716 104.882 331.156C105.247 332.162 105.557 333.186 105.812 334.226C106.192 337.526 102.642 340.226 101.742 343.526C100.842 346.826 102.742 350.206 101.952 353.526C101.162 356.686 98.0823 360.966 97.4923 364.146C96.9423 367.146 99.6224 369.046 99.4124 372.026C99.1424 375.846 95.3124 380.466 95.4124 384.256C95.4124 386.356 97.2124 387.036 97.1224 389.146C97.0124 391.586 94.9724 396.426 94.1224 398.756C93.6465 399.806 93.4552 400.963 93.5675 402.111C93.6799 403.259 94.0919 404.357 94.7624 405.296L106.112 410.926C111.032 408.546 110.772 403.616 108.702 400.136Z" fill="#6772E5"/>
<path d="M116.342 314.396C116.351 314.479 116.351 314.563 116.342 314.646V315.386C116.342 316.026 116.342 316.986 116.222 318.216C116.128 319.723 115.79 321.206 115.222 322.606C114.562 324.276 113.142 325.766 111.802 327.486C111.076 328.372 110.529 329.391 110.192 330.486C109.839 331.644 109.697 332.857 109.772 334.066C109.902 336.626 110.692 339.296 111.062 342.206C111.291 343.709 111.241 345.241 110.912 346.726C110.722 347.494 110.422 348.232 110.022 348.916C109.588 349.559 109.191 350.227 108.832 350.916C108.318 352.406 108.293 354.021 108.762 355.526C108.922 356.316 109.102 357.136 109.202 357.976C109.294 358.825 109.27 359.683 109.132 360.526C108.814 362.178 108.29 363.784 107.572 365.306C106.895 366.755 106.308 368.244 105.812 369.766C105.386 371.239 105.253 372.781 105.422 374.306C105.64 375.799 105.694 377.311 105.582 378.816C105.321 380.232 104.839 381.599 104.152 382.866C103.521 384.031 103.037 385.27 102.712 386.556C102.232 389.066 102.952 391.466 102.902 393.696C102.77 395.692 102.329 397.655 101.592 399.516C101.063 400.907 100.691 402.352 100.482 403.826C100.362 404.759 100.462 405.707 100.772 406.596C101.002 407.196 101.172 407.486 101.152 407.496C100.963 407.224 100.806 406.932 100.682 406.626C100.338 405.732 100.208 404.769 100.302 403.816C100.484 402.32 100.836 400.851 101.352 399.436C102.054 397.597 102.465 395.661 102.572 393.696C102.572 392.606 102.422 391.466 102.302 390.266C102.117 389.009 102.117 387.732 102.302 386.476C102.802 383.846 104.722 381.596 105.122 378.756C105.224 377.284 105.167 375.805 104.952 374.346C104.769 372.769 104.901 371.171 105.342 369.646C106.222 366.556 108.102 363.736 108.642 360.456C108.792 359.668 108.836 358.865 108.772 358.066C108.672 357.256 108.502 356.456 108.332 355.656C107.848 354.055 107.887 352.342 108.442 350.766C108.811 350.075 109.222 349.407 109.672 348.766C110.047 348.121 110.33 347.428 110.512 346.706C110.831 345.271 110.882 343.789 110.662 342.336C110.312 339.476 109.532 336.786 109.422 334.156C109.341 332.885 109.494 331.611 109.872 330.396C110.249 329.299 110.826 328.282 111.572 327.396C112.952 325.666 114.342 324.226 115.012 322.616C115.595 321.248 115.959 319.797 116.092 318.316C116.232 317.096 116.262 316.136 116.292 315.486C116.292 315.186 116.292 314.946 116.292 314.756C116.281 314.633 116.298 314.51 116.342 314.396V314.396Z" fill="#263238"/>
<path d="M78.3824 406.626C74.6824 407.166 72.5824 402.206 73.2824 398.536C73.9824 394.866 76.0624 391.306 75.3824 387.636C74.7824 384.446 72.1924 381.956 71.3824 378.816C69.9024 373.156 74.5124 367.396 73.6124 361.616C72.9124 357.116 68.9724 353.466 68.8524 348.906C68.7224 344.016 73.0424 339.906 73.2524 335.046C73.4724 329.846 68.9924 325.276 69.3324 320.046C69.6724 314.816 74.7624 310.106 72.9424 305.246C72.3424 303.636 71.0524 302.386 70.2824 300.846C68.5024 297.306 69.7724 292.996 71.6624 289.506C73.5524 286.016 76.0624 282.766 76.8824 278.886C78.1524 272.886 75.1924 266.566 76.8824 260.726C78.3224 255.866 82.8824 251.876 82.5624 246.816C86.0524 250.746 84.5624 256.896 86.2224 261.896C87.2224 265.156 89.5924 267.826 91.2824 270.806C92.9974 273.858 94.0607 277.232 94.4049 280.716C94.7492 284.2 94.3669 287.717 93.2824 291.046C91.8224 295.426 89.1024 299.816 90.1724 304.306C91.4624 309.746 97.7324 312.636 99.7624 317.836C102.682 325.286 95.8224 333.836 98.5024 341.386C99.1924 343.326 100.502 345.036 101.042 347.016C102.982 353.756 96.1624 360.146 96.3224 367.156C96.4424 372.316 100.322 376.906 100.122 382.066C99.9524 386.066 97.3524 390.066 98.9124 393.756C99.5824 395.346 100.912 396.526 101.912 397.956C102.837 399.326 103.366 400.924 103.442 402.575C103.517 404.226 103.137 405.866 102.342 407.316C101.489 408.735 100.207 409.846 98.6805 410.487C97.1542 411.129 95.4633 411.269 93.8524 410.886" fill="#6772E5"/>
<g opacity="0.5">
<path opacity="0.5" d="M101.932 397.986C100.932 396.556 99.6024 395.376 98.9324 393.786C97.3724 390.126 99.9324 386.076 100.142 382.096C100.362 376.936 96.4624 372.346 96.3424 367.186C96.1824 360.186 103.002 353.786 101.062 347.046C100.492 345.046 99.2124 343.356 98.5224 341.416C95.8424 333.876 102.702 325.316 99.7824 317.866C97.7824 312.666 91.4824 309.776 90.1924 304.336C89.1224 299.846 91.8424 295.456 93.3024 291.076C94.387 287.747 94.7691 284.23 94.4249 280.746C94.0806 277.262 93.0174 273.888 91.3024 270.836C89.6124 267.836 87.3024 265.186 86.2424 261.926C84.6324 256.926 86.0724 250.776 82.5824 246.846C82.9024 251.906 78.3424 255.896 76.9024 260.756C75.1624 266.596 78.1224 272.956 76.9024 278.916C76.0824 282.796 73.5724 286.056 71.6824 289.536C69.7924 293.016 68.5224 297.336 70.3024 300.876C71.0724 302.416 72.3624 303.666 72.9624 305.276C74.7824 310.136 69.7024 314.896 69.3524 320.076C69.0024 325.256 73.4924 329.846 73.2724 335.076C73.0624 339.966 68.7424 344.076 68.8724 348.936C68.9924 353.496 72.9324 357.146 73.6324 361.646C74.5324 367.426 69.9224 373.186 71.4024 378.846C72.2224 381.986 74.8124 384.476 75.4024 387.666C76.0824 391.336 73.9924 394.896 73.3024 398.566C72.6124 402.236 74.7024 407.196 78.4024 406.656L93.8924 410.946C95.5033 411.329 97.1943 411.189 98.7206 410.547C100.247 409.906 101.529 408.795 102.382 407.376C103.18 405.921 103.56 404.274 103.481 402.617C103.401 400.96 102.866 399.357 101.932 397.986Z" fill="white"/>
</g>
<path d="M96.4924 395.576C95.4924 394.456 94.0324 391.986 94.0124 390.436C94.0124 388.266 97.1524 385.726 97.3324 381.996C97.5624 377.156 93.8824 369.406 93.8424 364.576C93.7924 358.026 99.5124 352.576 98.0024 346.346C97.5524 344.516 96.8424 339.526 96.3024 337.746C94.2024 330.806 99.4724 324.836 97.1824 317.996C95.5824 313.216 89.3524 308.466 88.3624 303.446C87.5324 299.286 89.7924 295.056 91.0224 290.896C92.8979 284.651 92.3993 277.934 89.6224 272.036C88.2724 269.326 86.4124 266.936 85.6224 263.936C84.3724 259.326 85.6224 253.496 82.8024 249.986C83.0124 254.706 79.2624 258.626 78.0324 263.236C76.5624 268.776 78.9024 274.606 77.8124 280.236C77.1024 283.896 75.0224 287.056 73.4524 290.406C71.8824 293.756 70.7724 297.836 72.1824 301.066C72.7924 302.466 73.8324 303.586 74.3024 305.066C75.7324 309.536 71.5524 314.206 71.2124 319.066C70.8724 323.926 74.4824 328.066 74.2124 332.906C73.9924 337.486 70.8824 344.266 70.9424 348.836C70.9424 353.096 75.2424 355.036 75.7624 359.216C76.4324 364.586 72.3924 372.046 73.5424 377.276C74.1824 380.176 76.8024 380.626 77.2524 383.576C77.7724 386.986 76.2524 394.256 75.6724 397.726C75.0924 401.196 75.6724 403.656 78.3424 406.616L95.6224 411.306C102.022 406.586 100.362 399.816 96.4924 395.576Z" fill="#6772E5"/>
<path d="M83.5824 274.686C83.9915 276.442 84.2888 278.222 84.4724 280.016C84.7354 282.128 84.6577 284.268 84.2424 286.356C83.948 287.654 83.491 288.911 82.8824 290.096C82.2624 291.366 81.5124 292.646 80.8324 294.036C80.0646 295.454 79.5726 297.004 79.3824 298.606C79.2102 300.341 79.3559 302.093 79.8124 303.776C80.6824 307.316 82.5024 310.776 83.8124 314.776C84.527 316.787 84.866 318.912 84.8124 321.046C84.7556 322.153 84.5435 323.247 84.1824 324.296C83.7491 325.305 83.3784 326.34 83.0724 327.396C82.5424 329.536 83.3524 331.766 84.2424 333.856C84.6824 334.926 85.1524 335.996 85.5124 337.126C85.8712 338.273 86.0763 339.464 86.1224 340.666C86.1308 343.026 85.8419 345.378 85.2624 347.666C84.7234 349.869 84.3193 352.103 84.0524 354.356C83.9473 355.443 83.9473 356.538 84.0524 357.626C84.1875 358.693 84.415 359.747 84.7324 360.776C85.4425 362.776 85.9288 364.848 86.1824 366.956C86.2171 368.989 85.9234 371.015 85.3124 372.956C84.7551 374.748 84.4192 376.602 84.3124 378.476C84.3634 380.225 84.6735 381.957 85.2324 383.616C85.7482 385.165 86.1821 386.741 86.5324 388.336C86.7982 389.807 86.8688 391.306 86.7424 392.796C86.6524 394.196 86.4824 395.516 86.3324 396.736C85.988 398.813 85.8739 400.923 85.9924 403.026C86.0881 404.352 86.4885 405.639 87.1624 406.786C87.6524 407.556 87.9824 407.906 87.9624 407.926C87.6362 407.59 87.3416 407.225 87.0824 406.836C86.3706 405.688 85.9358 404.39 85.8124 403.046C85.6619 400.929 85.7492 398.803 86.0724 396.706C86.2224 395.476 86.3824 394.166 86.4524 392.776C86.569 391.311 86.4883 389.838 86.2124 388.396C85.9224 386.886 85.3924 385.396 84.9024 383.716C84.3107 382.028 83.9736 380.262 83.9024 378.476C84.0026 376.571 84.3385 374.687 84.9024 372.866C85.4893 370.969 85.7728 368.991 85.7424 367.006C85.4832 364.929 84.997 362.886 84.2924 360.916C83.9639 359.866 83.7329 358.788 83.6024 357.696C83.4923 356.578 83.4923 355.453 83.6024 354.336C83.864 352.066 84.2681 349.815 84.8124 347.596C85.3815 345.336 85.667 343.015 85.6624 340.686C85.6124 339.528 85.4141 338.382 85.0724 337.276C84.7224 336.176 84.2624 335.116 83.8124 334.046C83.3409 332.984 82.9628 331.883 82.6824 330.756C82.3978 329.625 82.3772 328.445 82.6224 327.306C82.9401 326.203 83.3241 325.121 83.7724 324.066C84.1135 323.054 84.3186 322.001 84.3824 320.936C84.4259 318.855 84.0869 316.784 83.3824 314.826C82.1024 310.946 80.2824 307.436 79.3824 303.826C78.9199 302.099 78.7843 300.302 78.9824 298.526C79.1789 296.884 79.688 295.295 80.4824 293.846C81.1824 292.446 81.9424 291.176 82.5624 289.926C83.1669 288.766 83.627 287.537 83.9324 286.266C84.357 284.204 84.4583 282.089 84.2324 279.996C84.0824 278.266 83.8624 276.936 83.7224 275.996C83.6624 275.566 83.6024 275.226 83.5624 274.996C83.5224 274.766 83.5824 274.686 83.5824 274.686Z" fill="#263238"/>
<path d="M76.0724 409.066C73.9624 410.066 71.7424 407.546 71.4524 405.216C71.1624 402.886 71.7224 400.346 70.6024 398.286C69.6024 396.486 67.6024 395.496 66.5024 393.776C64.5024 390.676 66.1624 386.336 64.5024 383.056C63.2124 380.496 60.1424 379.056 59.1924 376.366C58.1924 373.466 59.9624 370.186 59.1924 367.226C58.3224 364.066 54.7624 362.226 53.9624 359.016C53.1624 355.806 55.2824 352.016 53.2524 349.466C52.4788 348.714 51.6643 348.007 50.8124 347.346C49.0624 345.576 48.9924 342.746 49.4524 340.346C49.9124 337.946 50.7824 335.456 50.5224 332.976C50.1324 329.166 47.1324 325.926 47.0424 322.096C46.9624 318.906 48.9224 315.646 47.7524 312.676C50.6024 314.356 50.9324 318.316 52.8524 320.996C54.1124 322.746 56.0224 323.896 57.6024 325.346C59.2169 326.842 60.5036 328.657 61.3814 330.676C62.2592 332.695 62.709 334.874 62.7024 337.076C62.7024 339.986 61.9024 343.136 63.4024 345.616C65.2324 348.616 69.5424 349.136 71.7624 351.856C74.9424 355.756 72.5024 362.206 75.5524 366.196C76.3424 367.196 77.4424 367.996 78.1724 369.076C80.6324 372.736 77.7824 377.876 79.2324 382.076C80.3024 385.136 83.5224 387.136 84.3924 390.266C85.0624 392.676 84.2824 395.606 85.9224 397.496C86.7325 398.216 87.6061 398.862 88.5324 399.426C89.3539 400.064 89.9823 400.919 90.3477 401.893C90.7131 402.867 90.8013 403.924 90.6024 404.946C90.3657 405.959 89.8126 406.87 89.0233 407.548C88.2341 408.226 87.2496 408.635 86.2124 408.716" fill="#6772E5"/>
<g opacity="0.5">
<path opacity="0.5" d="M88.4924 399.336C87.566 398.772 86.6925 398.126 85.8824 397.406C84.2424 395.516 85.0224 392.586 84.3524 390.176C83.4824 387.036 80.2624 385.046 79.1924 381.986C77.7424 377.816 80.5924 372.676 78.1324 368.986C77.4024 367.906 76.3024 367.136 75.5124 366.106C72.5124 362.106 74.9024 355.666 71.7224 351.766C69.5024 349.046 65.1924 348.526 63.3624 345.526C61.8624 343.046 62.6324 339.896 62.6624 336.986C62.669 334.784 62.2192 332.605 61.3414 330.586C60.4636 328.567 59.1769 326.752 57.5624 325.256C55.9824 323.806 54.0724 322.656 52.8124 320.906C50.8924 318.226 50.5624 314.256 47.7124 312.586C48.8824 315.586 46.9224 318.816 47.0024 322.006C47.0924 325.836 50.0924 329.076 50.4824 332.886C50.7424 335.366 49.8624 337.806 49.4124 340.256C48.9624 342.706 49.0224 345.536 50.7724 347.256C51.6243 347.917 52.4389 348.624 53.2124 349.376C55.2124 351.936 53.1224 355.766 53.9224 358.926C54.7224 362.086 58.2824 363.976 59.1524 367.136C59.9724 370.136 58.1524 373.376 59.1524 376.276C60.1524 378.986 63.1524 380.406 64.4624 382.966C66.1124 386.246 64.4624 390.586 66.4624 393.696C67.5524 395.406 69.5924 396.396 70.5624 398.196C71.6824 400.256 71.1124 402.796 71.4124 405.126C71.7124 407.456 73.9224 410.016 76.0324 408.976L86.1324 408.546C87.1696 408.465 88.1541 408.056 88.9434 407.378C89.7326 406.7 90.2857 405.789 90.5224 404.776C90.7102 403.77 90.6205 402.732 90.2628 401.774C89.9052 400.815 89.2931 399.972 88.4924 399.336V399.336Z" fill="white"/>
</g>
<path d="M84.7724 398.946C83.7189 398.328 82.8597 397.427 82.2924 396.346C81.8524 395.056 83.2924 392.916 82.6424 390.656C81.8524 387.716 78.1524 383.786 77.1924 380.906C75.8924 376.986 78.2624 372.626 76.1924 369.186C75.5824 368.186 74.1924 365.336 73.5124 364.366C70.9224 360.626 72.9224 356.026 70.2324 352.366C68.3424 349.816 63.7024 348.186 62.1324 345.366C60.8424 343.036 61.3725 340.066 61.3025 337.366C61.215 333.272 59.6197 329.355 56.8224 326.366C55.4924 325.006 53.9124 323.936 52.8224 322.296C51.1824 319.776 50.8224 316.056 48.4424 314.486C49.4424 317.276 47.9924 320.346 48.1524 323.346C48.3424 326.946 50.8625 329.976 51.3025 333.556C51.5825 335.886 50.9524 338.186 50.6524 340.486C50.3524 342.786 50.5024 345.486 51.9724 347.116C52.6902 347.746 53.3745 348.414 54.0224 349.116C55.7424 351.516 54.1324 355.116 54.8824 358.116C55.6324 361.116 58.5624 362.846 59.3724 365.816C60.1224 368.596 59.5724 373.256 60.4924 375.976C61.3424 378.516 64.2624 378.856 65.3824 381.256C66.8224 384.346 65.8524 389.586 67.5424 392.496C68.4824 394.106 70.1424 393.876 70.9824 395.556C71.9824 397.486 72.4624 402.136 72.7724 404.326C72.8562 405.347 73.2071 406.328 73.7898 407.17C74.3726 408.013 75.1667 408.687 76.0924 409.126L87.3424 408.596C90.2124 404.466 87.9124 400.736 84.7724 398.946Z" fill="#6772E5"/>
<path d="M53.6824 329.066C53.7323 329.122 53.7729 329.186 53.8024 329.256L54.1324 329.816C54.4124 330.326 54.8224 331.066 55.2724 332.076C55.8444 333.291 56.2158 334.591 56.3724 335.926C56.4244 337.695 56.2429 339.464 55.8324 341.186C55.6413 342.176 55.6413 343.195 55.8324 344.186C56.0636 345.253 56.4871 346.27 57.0824 347.186C58.2824 349.116 60.0824 350.846 61.6024 352.946C62.4279 354.017 63.0513 355.231 63.4424 356.526C63.6246 357.207 63.7121 357.91 63.7024 358.616C63.6348 359.303 63.6114 359.995 63.6324 360.686C63.8769 362.057 64.5531 363.315 65.5624 364.276C66.0324 364.826 66.5624 365.376 66.9624 365.986C67.4 366.604 67.7562 367.276 68.0224 367.986C68.4855 369.408 68.7678 370.883 68.8624 372.376C68.967 373.792 69.1573 375.202 69.4324 376.596C69.7267 377.922 70.2882 379.174 71.0824 380.276C71.8946 381.344 72.5886 382.498 73.1524 383.716C73.5613 384.931 73.7773 386.203 73.7924 387.486C73.8042 388.661 73.9654 389.831 74.2724 390.966C74.9724 393.106 76.5624 394.676 77.4824 396.426C78.25 398.032 78.7564 399.75 78.9824 401.516C79.1738 402.822 79.5092 404.103 79.9824 405.336C80.2957 406.1 80.7777 406.784 81.3924 407.336C81.8224 407.696 82.0924 407.856 82.0724 407.876C81.8092 407.747 81.5611 407.589 81.3324 407.406C80.6745 406.869 80.1535 406.183 79.8124 405.406C79.3093 404.167 78.9471 402.875 78.7324 401.556C78.4862 399.819 77.9699 398.132 77.2024 396.556C76.3024 394.866 74.6824 393.326 73.9124 391.056C73.1424 388.786 73.6724 386.216 72.7624 383.846C72.2175 382.664 71.5469 381.544 70.7624 380.506C69.9378 379.356 69.3497 378.054 69.0324 376.676C68.3724 373.896 68.6224 370.896 67.6324 368.126C67.3879 367.446 67.0514 366.804 66.6324 366.216C66.2124 365.626 65.7324 365.086 65.2624 364.526C64.2014 363.489 63.5005 362.14 63.2624 360.676C63.2446 359.972 63.2679 359.267 63.3324 358.566C63.3494 357.891 63.272 357.218 63.1024 356.566C62.7277 355.322 62.1315 354.157 61.3424 353.126C59.8324 351.056 58.0624 349.306 56.8424 347.316C56.2285 346.36 55.7978 345.299 55.5724 344.186C55.3723 343.159 55.3723 342.103 55.5724 341.076C55.9943 339.378 56.1992 337.634 56.1824 335.886C56.0488 334.575 55.7114 333.293 55.1824 332.086C54.7624 331.086 54.3724 330.326 54.1224 329.806C54.0024 329.566 53.9124 329.366 53.8324 329.216C53.7759 329.173 53.7254 329.122 53.6824 329.066V329.066Z" fill="#263238"/>
<path d="M59.9124 400.166L64.2924 409.056H117.592L123.602 400.166H59.9124Z" fill="#455A64"/>
<path d="M65.5724 405.996L73.5424 433.536L109.452 433.566L116.682 406.046L65.5724 405.996Z" fill="#455A64"/>
<path d="M117.352 408.996C117.352 409.116 105.462 409.216 90.7924 409.216C76.1224 409.216 64.2324 409.116 64.2324 408.996C64.2324 408.876 76.1224 408.766 90.7924 408.766C105.462 408.766 117.352 408.866 117.352 408.996Z" fill="#263238"/>
<path d="M792 433.5C792 433.769 616.251 434 399.523 434C182.795 434 7 433.769 7 433.5C7 433.231 182.703 433 399.581 433C616.459 433 792 433.212 792 433.5Z" fill="#263238"/>
<path d="M599.685 242.963C589.99 238.206 579.968 234.146 569.695 230.813C554.893 226.257 537.428 230.428 537.043 235.359C536.658 240.29 539.291 238.032 542.743 243.378C546.196 248.724 544.636 261.218 549.577 272.608C554.518 283.999 569.311 289.689 569.311 289.689L599.685 242.963Z" fill="#8892FF" stroke="#263238" stroke-linecap="round" stroke-linejoin="round"/>
<path opacity="0.3" d="M589.813 253.979C589.813 253.979 567.032 239.551 553.749 234.61C540.465 229.669 539.706 236.888 539.706 236.888C541.891 237.69 543.767 239.163 545.063 241.097C546.36 243.03 547.012 245.324 546.925 247.651C546.925 256.176 551.187 273.833 561.545 277.478C571.902 281.123 589.813 253.979 589.813 253.979Z" fill="black"/>
<path d="M752.362 270.1C758.316 267.838 761.174 260.822 758.745 254.429C756.317 248.036 749.522 244.687 743.568 246.948C737.614 249.21 734.756 256.226 737.184 262.619C739.613 269.012 746.408 272.361 752.362 270.1Z" fill="#8892FF" stroke="#263238" stroke-linecap="round" stroke-linejoin="round"/>
<path d="M589.135 391.017L601.912 429.35C602.259 430.388 602.924 431.292 603.812 431.931C604.701 432.571 605.768 432.915 606.863 432.914H626.779C627.798 432.915 628.794 432.618 629.646 432.058C630.497 431.498 631.165 430.701 631.568 429.765L640.478 409.09" fill="#8892FF"/>
<path opacity="0.3" d="M595.544 391.017L606.114 429.35C606.314 430.312 606.825 431.182 607.567 431.826C608.31 432.47 609.244 432.852 610.225 432.914H626.738C627.645 432.867 628.515 432.539 629.226 431.974C629.938 431.41 630.455 430.637 630.707 429.765L638.098 409.09" fill="black"/>
<path d="M589.135 391.017L601.912 429.35C602.259 430.388 602.924 431.292 603.812 431.931C604.701 432.571 605.768 432.915 606.863 432.914H626.779C627.798 432.915 628.794 432.618 629.646 432.058C630.497 431.498 631.165 430.701 631.568 429.765L640.478 409.09" stroke="#263238" stroke-linecap="round" stroke-linejoin="round"/>
<path d="M685.239 391.017L672.472 429.35C672.125 430.388 671.461 431.292 670.572 431.931C669.683 432.571 668.616 432.915 667.521 432.914H647.626C646.607 432.915 645.61 432.618 644.759 432.058C643.907 431.498 643.239 430.701 642.837 429.765L633.927 409.09" fill="#263238"/>
<path d="M685.239 391.017L672.472 429.35C672.125 430.388 671.461 431.292 670.572 431.931C669.683 432.571 668.616 432.915 667.521 432.914H647.626C646.607 432.915 645.61 432.618 644.759 432.058C643.907 431.498 643.239 430.701 642.837 429.765L633.927 409.09" stroke="#263238" stroke-linecap="round" stroke-linejoin="round"/>
<path d="M727.551 391.017L714.773 429.35C714.427 430.388 713.762 431.292 712.873 431.931C711.985 432.571 710.917 432.915 709.822 432.914H689.907C688.888 432.915 687.891 432.618 687.04 432.058C686.188 431.498 685.52 430.701 685.118 429.765L676.208 409.09" fill="#8892FF"/>
<path opacity="0.3" d="M718.499 391.017L709.761 429.35C709.275 431.476 707.919 432.914 706.38 432.914H692.762C691.344 432.914 690.059 431.678 689.492 429.765L681.027 409.515" fill="black"/>
<path d="M727.551 391.017L714.773 429.35C714.427 430.388 713.762 431.292 712.873 431.931C711.985 432.571 710.917 432.915 709.822 432.914H689.907C688.888 432.915 687.891 432.618 687.04 432.058C686.188 431.498 685.52 430.701 685.118 429.765L676.208 409.09" stroke="#263238" stroke-linecap="round" stroke-linejoin="round"/>
<path d="M659.269 416.238C719.755 416.238 768.789 371.769 768.789 316.914C768.789 262.059 719.755 217.59 659.269 217.59C598.783 217.59 549.749 262.059 549.749 316.914C549.749 371.769 598.783 416.238 659.269 416.238Z" fill="#8892FF"/>
<path opacity="0.3" d="M734.699 249.048C741.121 261.785 744.467 275.85 744.469 290.114C744.469 344.97 695.435 389.438 634.949 389.438C612.441 389.552 590.378 383.16 571.416 371.031C590.512 396.657 622.84 413.555 659.502 413.555C718.226 413.555 765.812 370.413 765.812 317.188C765.751 290.549 753.865 266.483 734.699 249.048Z" fill="black"/>
<path d="M659.269 416.238C719.755 416.238 768.789 371.769 768.789 316.914C768.789 262.059 719.755 217.59 659.269 217.59C598.783 217.59 549.749 262.059 549.749 316.914C549.749 371.769 598.783 416.238 659.269 416.238Z" stroke="#263238" stroke-linecap="round" stroke-linejoin="round"/>
<path d="M759.575 325.824C757.186 345.831 747.962 363.984 734.071 378.321" stroke="#8892FF" stroke-width="2" stroke-linecap="round" stroke-linejoin="round"/>
<path d="M757.763 295.014C759.379 301.715 760.194 308.584 760.193 315.476" stroke="#8892FF" stroke-width="2" stroke-linecap="round" stroke-linejoin="round"/>
<path d="M632.114 223.787C641.139 221.677 650.376 220.617 659.644 220.628C665.577 220.626 671.502 221.06 677.372 221.924" stroke="#263238" stroke-width="4" stroke-linecap="round" stroke-linejoin="round"/>
<path d="M680.754 293.121C680.754 293.121 691.385 285.902 691.77 272.618C692.154 259.335 674.679 239.976 660.636 231.998C646.593 224.019 636.337 225.548 635.962 231.238C635.587 236.929 630.646 243.388 628.753 254.394C626.86 265.399 626.09 281.731 640.903 287.046" fill="#8892FF"/>
<path d="M680.754 293.121C680.754 293.121 691.385 285.902 691.77 272.618C692.154 259.335 674.679 239.976 660.636 231.998C646.593 224.019 636.337 225.548 635.962 231.238C635.587 236.929 630.646 243.388 628.753 254.394C626.86 265.399 626.09 281.731 640.903 287.046" stroke="#263238" stroke-linecap="round" stroke-linejoin="round"/>
<path opacity="0.3" d="M657.882 288.858L660.059 289.182C669.394 290.529 672.674 284.434 672.401 275.281C672.026 262.372 654.946 235.035 647.727 231.238C640.508 227.442 638.24 232.757 638.24 232.757C638.24 232.757 639.252 233.435 635.699 245.231C634.058 250.678 627.953 269.672 633.998 278.096C639.344 285.538 649.276 287.573 657.882 288.858Z" fill="black"/>
<path opacity="0.3" d="M688.125 275.777H687.983C687.85 275.76 687.723 275.716 687.607 275.649C687.491 275.582 687.39 275.493 687.309 275.387C687.228 275.28 687.169 275.159 687.135 275.03C687.102 274.9 687.094 274.766 687.112 274.633C687.222 273.855 687.286 273.07 687.305 272.284C687.507 265.197 681.726 255.021 672.219 245.636C672.124 245.542 672.048 245.431 671.996 245.308C671.944 245.185 671.917 245.053 671.916 244.919C671.915 244.786 671.94 244.653 671.991 244.529C672.041 244.406 672.115 244.293 672.209 244.198C672.302 244.103 672.414 244.027 672.537 243.975C672.66 243.923 672.792 243.896 672.925 243.895C673.059 243.894 673.191 243.92 673.315 243.97C673.439 244.02 673.551 244.094 673.646 244.188C683.69 254.11 689.552 264.63 689.33 272.335C689.308 273.195 689.24 274.053 689.127 274.907C689.093 275.148 688.973 275.369 688.789 275.529C688.604 275.689 688.369 275.777 688.125 275.777Z" fill="black"/>
<path opacity="0.3" d="M682.678 287.988C682.486 287.988 682.298 287.935 682.136 287.833C681.974 287.731 681.844 287.585 681.761 287.412C681.678 287.239 681.646 287.047 681.669 286.856C681.691 286.666 681.767 286.486 681.888 286.337C683.556 284.293 684.889 281.996 685.837 279.534C685.932 279.282 686.123 279.08 686.368 278.969C686.613 278.859 686.892 278.851 687.143 278.946C687.394 279.042 687.597 279.233 687.707 279.478C687.817 279.723 687.825 280.001 687.73 280.252C686.707 282.918 685.265 285.403 683.457 287.613C683.363 287.729 683.244 287.823 683.109 287.888C682.975 287.953 682.827 287.987 682.678 287.988V287.988Z" fill="black"/>
<path opacity="0.3" d="M608.947 336.132C611.941 324.131 601.504 311.192 585.634 307.233C569.765 303.273 554.473 309.792 551.479 321.793C548.484 333.794 558.921 346.733 574.791 350.692C590.66 354.652 605.952 348.133 608.947 336.132Z" fill="black"/>
<path d="M607.522 333.953C610.516 321.952 600.079 309.013 584.21 305.053C568.34 301.094 553.048 307.613 550.054 319.614C547.059 331.615 557.496 344.553 573.366 348.513C589.235 352.473 604.527 345.954 607.522 333.953Z" fill="#8892FF" stroke="#263238" stroke-linecap="round" stroke-linejoin="round"/>
<path d="M569.847 323.161C570.029 325.875 568.987 328.163 567.529 328.224C566.071 328.284 564.724 326.199 564.491 323.485C564.258 320.772 565.352 318.473 566.82 318.423C568.288 318.372 569.665 320.438 569.847 323.161Z" stroke="#263238" stroke-linecap="round" stroke-linejoin="round"/>
<path d="M589.914 328.193C590.097 330.917 589.054 333.195 587.596 333.256C586.138 333.316 584.791 331.231 584.558 328.507C584.326 325.783 585.419 323.505 586.887 323.445C588.355 323.384 589.702 325.47 589.914 328.193Z" stroke="#263238" stroke-linecap="round" stroke-linejoin="round"/>
<path d="M623.033 335.23C622.819 337.179 622.363 339.094 621.676 340.93C615.864 356.634 594.825 363.427 574.039 356.664" stroke="#263238" stroke-width="3" stroke-linecap="round" stroke-linejoin="round"/>
<path d="M619.641 333.742H626.09" stroke="#263238" stroke-width="3" stroke-linecap="round" stroke-linejoin="round"/>
<path d="M578.554 291.704C577.846 294.65 576.033 296.766 574.505 296.381C572.976 295.996 572.307 293.344 573.026 290.367C573.745 287.39 575.547 285.305 577.076 285.679C578.605 286.054 579.273 288.747 578.554 291.704Z" fill="#263238" stroke="#263238" stroke-linecap="round" stroke-linejoin="round"/>
<path d="M597.227 295.774C597.94 292.817 597.279 290.121 595.751 289.753C594.224 289.385 592.408 291.484 591.695 294.441C590.982 297.398 591.643 300.094 593.17 300.462C594.698 300.83 596.514 298.731 597.227 295.774Z" fill="#263238" stroke="#263238" stroke-linecap="round" stroke-linejoin="round"/>
<path d="M625.108 403.349L636.245 429.775C636.645 430.72 637.314 431.527 638.17 432.094C639.025 432.661 640.028 432.964 641.055 432.964H661.304C662.321 432.963 663.315 432.665 664.166 432.108C665.016 431.55 665.686 430.757 666.093 429.826L678.243 401.75H677.716" fill="#8892FF"/>
<path opacity="0.3" d="M648.638 399.978C642.219 399.978 634.747 400.818 628.702 399.421L639.111 429.724C639.359 430.605 639.875 431.385 640.589 431.957C641.302 432.529 642.177 432.863 643.09 432.914H659.775C660.677 432.864 661.542 432.535 662.249 431.973C662.956 431.41 663.472 430.643 663.724 429.775L673.798 398.864L669.748 399.421C656.9 400.818 657.234 399.978 648.638 399.978Z" fill="black"/>
<path d="M625.108 403.349L636.245 429.775C636.645 430.72 637.314 431.527 638.17 432.094C639.025 432.661 640.028 432.964 641.055 432.964H661.304C662.321 432.963 663.315 432.665 664.166 432.108C665.016 431.55 665.686 430.757 666.093 429.826L678.243 401.75H677.716" stroke="#263238" stroke-linecap="round" stroke-linejoin="round"/>
<path d="M826.834 -8.28333L770.834 72.401C770.834 72.401 766.045 83.8217 760.152 92.2961C754.26 100.771 737.736 109.245 737.736 109.245C737.736 109.245 736.268 125.08 731.479 130.608C726.69 136.136 716.373 132.826 716.373 132.826C716.373 132.826 711.948 137.615 707.159 139.822C702.37 142.029 687.639 133.929 687.639 133.929C687.639 133.929 700.892 148.296 702.735 153.085C704.577 157.874 707.898 161.924 702.006 166.349C696.113 170.773 689.471 164.506 689.471 164.506C689.471 164.506 692.428 174.084 683.953 175.927C675.479 177.769 666.245 159.342 662.56 153.085C658.874 146.828 648.193 123.237 646.36 122.134C644.527 121.03 641.946 115.138 645.631 109.61C649.316 104.081 675.459 68.7156 678.405 66.1945C681.351 63.6734 737.736 50.2986 737.736 50.2986L759.109 -8.64783" fill="white"/>
<path opacity="0.2" d="M765.073 73.2818C765.073 73.2818 758.998 91.5064 752.417 95.0501C745.836 98.5938 708.374 108.212 693.693 106.187C679.012 104.162 670.913 98.5938 670.913 98.5938C670.913 98.5938 662.813 109.225 659.269 112.768C656.802 115.06 653.865 116.787 650.663 117.831C650.663 117.831 668.28 162.086 680.946 175.785C681.93 176.089 682.976 176.138 683.984 175.927C692.458 174.084 689.502 164.506 689.502 164.506C689.502 164.506 696.133 170.763 702.036 166.349C707.939 161.934 704.608 157.874 702.765 153.085C700.922 148.296 687.618 133.929 687.618 133.929C687.618 133.929 702.35 142.029 707.139 139.822C711.928 137.615 716.353 132.815 716.353 132.815C716.353 132.815 726.67 136.136 731.459 130.608C736.248 125.08 737.716 109.245 737.716 109.245C737.716 109.245 754.29 100.771 760.193 92.2961C766.096 83.8217 770.874 72.401 770.874 72.401L793.949 39.1613L765.073 73.2818Z" fill="black"/>
<path d="M826.834 -8.28333L770.834 72.401C770.834 72.401 766.045 83.8217 760.152 92.2961C754.26 100.771 737.736 109.245 737.736 109.245C737.736 109.245 736.268 125.08 731.479 130.608C726.69 136.136 716.373 132.826 716.373 132.826C716.373 132.826 711.948 137.615 707.159 139.822C702.37 142.029 687.639 133.929 687.639 133.929C687.639 133.929 700.892 148.296 702.735 153.085C704.577 157.874 707.898 161.924 702.006 166.349C696.113 170.773 689.471 164.506 689.471 164.506C689.471 164.506 692.428 174.084 683.953 175.927C675.479 177.769 666.245 159.342 662.56 153.085C658.874 146.828 648.193 123.237 646.36 122.134C644.527 121.03 641.946 115.138 645.631 109.61C649.316 104.081 675.459 68.7156 678.405 66.1945C681.351 63.6734 737.736 50.2986 737.736 50.2986L759.109 -8.64783" stroke="#263238" stroke-linecap="round" stroke-linejoin="round"/>
<path d="M635.304 206.868L636.772 212.396L659.613 206.868L680.987 150.868L666.984 146.079L635.304 206.868Z" fill="white" stroke="#263238" stroke-linecap="round" stroke-linejoin="round"/>
<path d="M642.3 132.451L673.98 144.246L658.51 214.239L621.301 202.818L642.3 132.451Z" fill="white" stroke="#263238" stroke-linecap="round" stroke-linejoin="round"/>
<path d="M622.547 198.637L655.563 208.346L669.931 146.079L641.004 136.784L622.547 198.637Z" fill="#8892FF" stroke="#263238" stroke-linecap="round" stroke-linejoin="round"/>
<path d="M640.872 152.184C639.435 151.804 637.934 151.735 636.468 151.982L627.842 180.888C629.09 182.105 630.626 182.986 632.307 183.449C639.07 185.312 646.482 179.815 648.851 171.178C651.22 162.542 647.626 154.037 640.872 152.184Z" fill="white" stroke="#263238" stroke-linecap="round" stroke-linejoin="round"/>
<path d="M668.452 95.6069C668.452 95.6069 672.877 102.239 673.616 108.141C674.244 113.172 673.067 118.263 670.295 122.508C668.088 125.819 665.881 128.766 664.038 133.929C662.195 139.093 661.831 146.454 659.249 150.129C656.667 153.804 655.199 157.49 658.874 160.81C662.55 164.131 672.138 163.757 677.301 154.179C682.465 144.601 685.776 134.284 689.087 130.598C692.397 126.913 703.089 118.448 703.089 118.448C703.089 118.448 732.188 114.399 737.716 109.245C743.244 104.091 748.033 90.0889 748.033 90.0889" fill="white"/>
<path opacity="0.2" d="M745.836 95.0501C745.836 95.0501 730.143 105.175 717.993 108.212C705.843 111.25 698.25 111.25 693.693 117.325C689.137 123.399 684.581 142.637 678.506 146.18C672.431 149.724 671.419 137.068 662.813 139.599L662.529 139.7C661.689 143.649 660.95 147.699 659.249 150.139C656.667 153.824 655.199 157.5 658.874 160.821C662.55 164.142 672.138 163.767 677.301 154.189C682.465 144.611 685.776 134.294 689.087 130.608C692.397 126.923 703.089 118.459 703.089 118.459C703.089 118.459 732.188 114.409 737.716 109.255C741.057 106.137 744.125 99.7986 746.028 95.2627L745.836 95.0501Z" fill="black"/>
<path d="M668.452 95.6069C668.452 95.6069 672.877 102.239 673.616 108.141C674.244 113.172 673.067 118.263 670.295 122.508C668.088 125.819 665.881 128.766 664.038 133.929C662.195 139.093 661.831 146.454 659.249 150.129C656.667 153.804 655.199 157.49 658.874 160.81C662.55 164.131 672.138 163.757 677.301 154.179C682.465 144.601 685.776 134.284 689.087 130.598C692.397 126.913 703.089 118.448 703.089 118.448C703.089 118.448 732.188 114.399 737.716 109.245C743.244 104.091 748.033 90.0889 748.033 90.0889" stroke="#263238" stroke-linecap="round" stroke-linejoin="round"/>
<path d="M657.032 114.034C657.032 114.034 666.62 119.188 673.616 113.295" stroke="#263238" stroke-linecap="round" stroke-linejoin="round"/>
<path d="M689.451 164.506L680.987 148.296" stroke="#263238" stroke-linecap="round" stroke-linejoin="round"/>
<path d="M716.353 132.826C716.353 132.826 722.984 127.297 722.61 115.138" stroke="#263238" stroke-linecap="round" stroke-linejoin="round"/>
<path d="M630.777 178.83C627.889 177.974 625.586 176.448 623.868 174.252C622.18 172.039 621.362 169.499 621.412 166.632L619.566 166.085L620.276 163.686L621.661 164.096C621.715 163.827 621.831 163.394 622.007 162.797C622.092 162.51 622.25 162.064 622.481 161.457L621.061 161.037L621.771 158.638L623.618 159.185C625.146 156.807 627.217 155.162 629.83 154.248C632.475 153.318 635.229 153.276 638.093 154.125C642.212 155.344 644.854 158.074 646.019 162.313L641.927 163.088C641.639 161.886 641.046 160.802 640.148 159.835C639.274 158.875 638.221 158.213 636.99 157.848C635.31 157.351 633.676 157.347 632.089 157.838C630.509 158.304 629.188 159.199 628.127 160.52L637.714 163.359L637.004 165.758L626.742 162.719C626.525 163.278 626.367 163.724 626.268 164.059C626.092 164.655 625.988 165.092 625.958 165.369L636.219 168.408L635.509 170.806L625.886 167.957C626.073 169.674 626.687 171.166 627.727 172.435C628.791 173.711 630.175 174.601 631.88 175.106C633.134 175.477 634.39 175.499 635.646 175.17C636.902 174.841 637.978 174.251 638.874 173.4L641.884 176.277C638.551 179.184 634.849 180.035 630.777 178.83Z" fill="#263238"/>
<rect x="607.233" y="143.404" width="29.9933" height="29.0377" transform="rotate(16.4712 607.233 143.404)" fill="white"/>
</g>
<defs>
<clipPath id="clip0">
<rect width="807" height="434" fill="white"/>
</clipPath>
</defs>
</svg>
